<?xml version="1.0" encoding="utf-8"?>
<svg version="1.1" xmlns:xlink="http://www.w3.org/1999/xlink" width="1256px" height="447px" xmlns="http://www.w3.org/2000/svg">
  <defs>
    <pattern id="BGPattern" patternUnits="userSpaceOnUse" alignment="0 0" imageRepeat="None" />
    <mask fill="white" id="Clip1">
      <path d="M 1250.0172472857046 283.2063961990896  C 1258.5279236820966 319.3716541862544  1258.3593954366236 357.7287459908232  1246.8152106217153 392.4608818666085  C 1245.1720602283526 397.43465860610195  1243.2761174667803 402.36628469526084  1241.1695143983666 407.17145883341556  C 1240.7481937846835 408.14092379111344  1240.326873171001 409.0682380984766  1239.8634204959499 410.0377030561745  C 1234.5126487021787 421.62913189821455  1227.6872547605178 432.67260228590357  1219.3451066095993 442.9152103172334  C 1219.2608424868629 443.0416622682375  1219.176578364126 443.1259635689069  1219.0923142413897 443.252415519911  C 1218.8395218731798 443.58962072258845  1218.5867295049704 443.8846752749313  1218.2918050753922 444.22188047760886  C 1217.9126165230775 444.6433869809557  1217.5755600321315 445.1070441346373  1217.1963714798171 445.5285506379842  C 1217.1121073570807 445.6550025889883  1216.9857111729757 445.7814545399923  1216.8593149888707 445.9079064909964  L 932.6364289984758 445.5285506379842  L 44.49257535520206 444.26403112794355  C 44.49257535520206 444.26403112794355  44.23978298699241 443.800373974262  43.734198250573066 442.87305966689877  C 34.33874856544736 425.6334436800102  -56.287315437715925 251.42480584673274  59.19666477273063 149.251629435442  C 163.6420449046887 56.89955455213424  164.31615788658115 148.66152033075636  291.38645497330384 32.03067085466661  C 336.0885720850454 -8.981911920987635  415.04405508919604 -4.303189733836949  477.02031736193106 48.21652058318791  C 533.2244872272123 95.84675546138863  618.3312511911314 58.29052601317903  668.8475927716952 38.268967104200854  C 730.1497420625378 13.94804186108421  816.7311281743465 -10.119979480024291  904.9135326181498 6.782431304186756  C 1006.8731211293795 26.340333059483335  989.6832400911225 161.7703725848452  1064.80470551076 141.15870457118135  C 1146.5409045652168 118.6924079427911  1216.311598191083 181.28612368980708  1243.6131739577265 261.11945542371166  C 1244.1187586941458 262.6368788357605  1244.6243434305652 264.15430224780937  1245.1299281669844 265.6717256598582  C 1246.4781541307693 269.8867906933273  1247.6999839104492 274.1440063771311  1248.837549567393 278.4433727112696  C 1249.2588701810757 280.0029467736531  1249.6380587333902 281.6046714863714  1250.0172472857046 283.2063961990896  Z " fill-rule="evenodd" />
    </mask>
  </defs>
  <g transform="matrix(1 0 0 1 -119 -530 )">
    <path d="M 1250.0172472857046 283.2063961990896  C 1258.5279236820966 319.3716541862544  1258.3593954366236 357.7287459908232  1246.8152106217153 392.4608818666085  C 1245.1720602283526 397.43465860610195  1243.2761174667803 402.36628469526084  1241.1695143983666 407.17145883341556  C 1240.7481937846835 408.14092379111344  1240.326873171001 409.0682380984766  1239.8634204959499 410.0377030561745  C 1234.5126487021787 421.62913189821455  1227.6872547605178 432.67260228590357  1219.3451066095993 442.9152103172334  C 1219.2608424868629 443.0416622682375  1219.176578364126 443.1259635689069  1219.0923142413897 443.252415519911  C 1218.8395218731798 443.58962072258845  1218.5867295049704 443.8846752749313  1218.2918050753922 444.22188047760886  C 1217.9126165230775 444.6433869809557  1217.5755600321315 445.1070441346373  1217.1963714798171 445.5285506379842  C 1217.1121073570807 445.6550025889883  1216.9857111729757 445.7814545399923  1216.8593149888707 445.9079064909964  L 932.6364289984758 445.5285506379842  L 44.49257535520206 444.26403112794355  C 44.49257535520206 444.26403112794355  44.23978298699241 443.800373974262  43.734198250573066 442.87305966689877  C 34.33874856544736 425.6334436800102  -56.287315437715925 251.42480584673274  59.19666477273063 149.251629435442  C 163.6420449046887 56.89955455213424  164.31615788658115 148.66152033075636  291.38645497330384 32.03067085466661  C 336.0885720850454 -8.981911920987635  415.04405508919604 -4.303189733836949  477.02031736193106 48.21652058318791  C 533.2244872272123 95.84675546138863  618.3312511911314 58.29052601317903  668.8475927716952 38.268967104200854  C 730.1497420625378 13.94804186108421  816.7311281743465 -10.119979480024291  904.9135326181498 6.782431304186756  C 1006.8731211293795 26.340333059483335  989.6832400911225 161.7703725848452  1064.80470551076 141.15870457118135  C 1146.5409045652168 118.6924079427911  1216.311598191083 181.28612368980708  1243.6131739577265 261.11945542371166  C 1244.1187586941458 262.6368788357605  1244.6243434305652 264.15430224780937  1245.1299281669844 265.6717256598582  C 1246.4781541307693 269.8867906933273  1247.6999839104492 274.1440063771311  1248.837549567393 278.4433727112696  C 1249.2588701810757 280.0029467736531  1249.6380587333902 281.6046714863714  1250.0172472857046 283.2063961990896  Z " fill-rule="nonzero" fill="rgba(233, 243, 254, 1)" stroke="none" transform="matrix(1 0 0 1 119 530 )" class="fill" />
    <path d="M 1250.0172472857046 283.2063961990896  C 1258.5279236820966 319.3716541862544  1258.3593954366236 357.7287459908232  1246.8152106217153 392.4608818666085  C 1245.1720602283526 397.43465860610195  1243.2761174667803 402.36628469526084  1241.1695143983666 407.17145883341556  C 1240.7481937846835 408.14092379111344  1240.326873171001 409.0682380984766  1239.8634204959499 410.0377030561745  C 1234.5126487021787 421.62913189821455  1227.6872547605178 432.67260228590357  1219.3451066095993 442.9152103172334  C 1219.2608424868629 443.0416622682375  1219.176578364126 443.1259635689069  1219.0923142413897 443.252415519911  C 1218.8395218731798 443.58962072258845  1218.5867295049704 443.8846752749313  1218.2918050753922 444.22188047760886  C 1217.9126165230775 444.6433869809557  1217.5755600321315 445.1070441346373  1217.1963714798171 445.5285506379842  C 1217.1121073570807 445.6550025889883  1216.9857111729757 445.7814545399923  1216.8593149888707 445.9079064909964  L 932.6364289984758 445.5285506379842  L 44.49257535520206 444.26403112794355  C 44.49257535520206 444.26403112794355  44.23978298699241 443.800373974262  43.734198250573066 442.87305966689877  C 34.33874856544736 425.6334436800102  -56.287315437715925 251.42480584673274  59.19666477273063 149.251629435442  C 163.6420449046887 56.89955455213424  164.31615788658115 148.66152033075636  291.38645497330384 32.03067085466661  C 336.0885720850454 -8.981911920987635  415.04405508919604 -4.303189733836949  477.02031736193106 48.21652058318791  C 533.2244872272123 95.84675546138863  618.3312511911314 58.29052601317903  668.8475927716952 38.268967104200854  C 730.1497420625378 13.94804186108421  816.7311281743465 -10.119979480024291  904.9135326181498 6.782431304186756  C 1006.8731211293795 26.340333059483335  989.6832400911225 161.7703725848452  1064.80470551076 141.15870457118135  C 1146.5409045652168 118.6924079427911  1216.311598191083 181.28612368980708  1243.6131739577265 261.11945542371166  C 1244.1187586941458 262.6368788357605  1244.6243434305652 264.15430224780937  1245.1299281669844 265.6717256598582  C 1246.4781541307693 269.8867906933273  1247.6999839104492 274.1440063771311  1248.837549567393 278.4433727112696  C 1249.2588701810757 280.0029467736531  1249.6380587333902 281.6046714863714  1250.0172472857046 283.2063961990896  Z " stroke-width="0" stroke-dasharray="0" stroke="rgba(255, 255, 255, 0)" fill="none" transform="matrix(1 0 0 1 119 530 )" class="stroke" mask="url(#Clip1)" />
  </g>
</svg>