<?xml version="1.0" encoding="utf-8"?>
<svg version="1.1" xmlns:xlink="http://www.w3.org/1999/xlink" width="112px" height="166px" xmlns="http://www.w3.org/2000/svg">
  <defs>
    <pattern id="BGPattern" patternUnits="userSpaceOnUse" alignment="0 0" imageRepeat="None" />
    <mask fill="white" id="Clip5">
      <path d="M 108.73892477868003 164  C 109.07773778868696 164.1741367423411  109.37419917244334 164.30010319247523  109.62830892994893 164.46805845932067  C 109.88241868745425 164.67800254287744  110.05182519245797 165.01391307656831  110.05182519245797 165.39181242697057  L 110.05182519245797 165  L 12.897194572861284 165  L 12.812491320359424 164.46805845932067  L 12.770139694108622 164.13214792562977  L 9.21260308903176 131.3808708907682  L 8.916141705275374 128.52563135439564  L 0.10700344508520422 47.27727101791206  L 0.02230019258360074 46.64743876724165  L 104.80022353734466 0.2497963011877573  C 105.22373979985397 1.803382519508142  105.60490443611221 3.398957554539841  105.98606907237046 4.99453258957154  C 114.54109757505506 41.06292614463058  114.3716910700516 79.27274935196917  102.76734547730103 113.87153432213064  C 101.1156320535154 118.82621469407118  99.20980887222417 123.73890624930048  97.09222755967842 128.52563135439559  C 96.66871129716938 129.49137413875687  96.24519503466034 130.41512810640685  95.77932714590023 131.38087089076814  C 90.40067061203426 142.92779548639243  83.53970715938611 153.928865464769  75.15408516170524 164  L 108.73892477868003 164  Z " fill-rule="evenodd" />
    </mask>
  </defs>
  <g transform="matrix(1 0 0 1 -1264 -809 )">
    <path d="M 108.73892477868003 164  C 109.07773778868696 164.1741367423411  109.37419917244334 164.30010319247523  109.62830892994893 164.46805845932067  C 109.88241868745425 164.67800254287744  110.05182519245797 165.01391307656831  110.05182519245797 165.39181242697057  L 110.05182519245797 165  L 12.897194572861284 165  L 12.812491320359424 164.46805845932067  L 12.770139694108622 164.13214792562977  L 9.21260308903176 131.3808708907682  L 8.916141705275374 128.52563135439564  L 0.10700344508520422 47.27727101791206  L 0.02230019258360074 46.64743876724165  L 104.80022353734466 0.2497963011877573  C 105.22373979985397 1.803382519508142  105.60490443611221 3.398957554539841  105.98606907237046 4.99453258957154  C 114.54109757505506 41.06292614463058  114.3716910700516 79.27274935196917  102.76734547730103 113.87153432213064  C 101.1156320535154 118.82621469407118  99.20980887222417 123.73890624930048  97.09222755967842 128.52563135439559  C 96.66871129716938 129.49137413875687  96.24519503466034 130.41512810640685  95.77932714590023 131.38087089076814  C 90.40067061203426 142.92779548639243  83.53970715938611 153.928865464769  75.15408516170524 164  L 108.73892477868003 164  Z " fill-rule="nonzero" fill="rgba(43, 71, 139, 1)" stroke="none" transform="matrix(1 0 0 1 1264 809 )" class="fill" />
    <path d="M 108.73892477868003 164  C 109.07773778868696 164.1741367423411  109.37419917244334 164.30010319247523  109.62830892994893 164.46805845932067  C 109.88241868745425 164.67800254287744  110.05182519245797 165.01391307656831  110.05182519245797 165.39181242697057  L 110.05182519245797 165  L 12.897194572861284 165  L 12.812491320359424 164.46805845932067  L 12.770139694108622 164.13214792562977  L 9.21260308903176 131.3808708907682  L 8.916141705275374 128.52563135439564  L 0.10700344508520422 47.27727101791206  L 0.02230019258360074 46.64743876724165  L 104.80022353734466 0.2497963011877573  C 105.22373979985397 1.803382519508142  105.60490443611221 3.398957554539841  105.98606907237046 4.99453258957154  C 114.54109757505506 41.06292614463058  114.3716910700516 79.27274935196917  102.76734547730103 113.87153432213064  C 101.1156320535154 118.82621469407118  99.20980887222417 123.73890624930048  97.09222755967842 128.52563135439559  C 96.66871129716938 129.49137413875687  96.24519503466034 130.41512810640685  95.77932714590023 131.38087089076814  C 90.40067061203426 142.92779548639243  83.53970715938611 153.928865464769  75.15408516170524 164  L 108.73892477868003 164  Z " stroke-width="0" stroke-dasharray="0" stroke="rgba(255, 255, 255, 0)" fill="none" transform="matrix(1 0 0 1 1264 809 )" class="stroke" mask="url(#Clip5)" />
  </g>
</svg>