<?xml version="1.0" encoding="utf-8"?>
<svg version="1.1" xmlns:xlink="http://www.w3.org/1999/xlink" width="104px" height="128px" xmlns="http://www.w3.org/2000/svg">
  <defs>
    <pattern id="BGPattern" patternUnits="userSpaceOnUse" alignment="0 0" imageRepeat="None" />
    <mask fill="white" id="Clip99">
      <path d="M 98.05535399089128 0.5085830361891376  C 106.51182225736983 36.65712899110453  106.34436744021176 74.90733459456163  94.87371246488922 109.54268560252706  C 93.24102799759882 114.50260237308522  91.35716130457158 119.42048595067261  89.26397609009663 124.21226994934739  C 88.84533904720149 125.17903338767651  88.42670200430659 126.10376363303486  87.96620125712208 127  L 8.467026811365667 127  L 8.173980881339194 124.21226994934739  L 0.3454681792032344 44.517336076650075  L 3.9457467480999227 42.878041550787636  L 98.05535399089128 0.5085830361891376  Z " fill-rule="evenodd" />
    </mask>
  </defs>
  <g transform="matrix(1 0 0 1 -1271 -813 )">
    <path d="M 98.05535399089128 0.5085830361891376  C 106.51182225736983 36.65712899110453  106.34436744021176 74.90733459456163  94.87371246488922 109.54268560252706  C 93.24102799759882 114.50260237308522  91.35716130457158 119.42048595067261  89.26397609009663 124.21226994934739  C 88.84533904720149 125.17903338767651  88.42670200430659 126.10376363303486  87.96620125712208 127  L 8.467026811365667 127  L 8.173980881339194 124.21226994934739  L 0.3454681792032344 44.517336076650075  L 3.9457467480999227 42.878041550787636  L 98.05535399089128 0.5085830361891376  Z " fill-rule="nonzero" fill="rgba(153, 185, 255, 1)" stroke="none" transform="matrix(1 0 0 1 1271 813 )" class="fill" />
    <path d="M 98.05535399089128 0.5085830361891376  C 106.51182225736983 36.65712899110453  106.34436744021176 74.90733459456163  94.87371246488922 109.54268560252706  C 93.24102799759882 114.50260237308522  91.35716130457158 119.42048595067261  89.26397609009663 124.21226994934739  C 88.84533904720149 125.17903338767651  88.42670200430659 126.10376363303486  87.96620125712208 127  L 8.467026811365667 127  L 8.173980881339194 124.21226994934739  L 0.3454681792032344 44.517336076650075  L 3.9457467480999227 42.878041550787636  L 98.05535399089128 0.5085830361891376  Z " stroke-width="0" stroke-dasharray="0" stroke="rgba(255, 255, 255, 0)" fill="none" transform="matrix(1 0 0 1 1271 813 )" class="stroke" mask="url(#Clip99)" />
  </g>
</svg>