<?xml version="1.0" encoding="utf-8"?>
<svg version="1.1" xmlns:xlink="http://www.w3.org/1999/xlink" width="38px" height="249px" xmlns="http://www.w3.org/2000/svg">
  <defs>
    <pattern id="BGPattern" patternUnits="userSpaceOnUse" alignment="0 0" imageRepeat="None" />
    <mask fill="white" id="Clip374">
      <path d="M 22 63.760272062852266  L 22 1  L 1 1  L 1 248  L 37 248  L 37 126.52234336223754  L 22 63.760272062852266  Z " fill-rule="evenodd" />
    </mask>
  </defs>
  <g transform="matrix(1 0 0 1 -209 -724 )">
    <path d="M 22 63.760272062852266  L 22 1  L 1 1  L 1 248  L 37 248  L 37 126.52234336223754  L 22 63.760272062852266  Z " fill-rule="nonzero" fill="rgba(174, 195, 255, 1)" stroke="none" transform="matrix(1 0 0 1 209 724 )" class="fill" />
    <path d="M 22 63.760272062852266  L 22 1  L 1 1  L 1 248  L 37 248  L 37 126.52234336223754  L 22 63.760272062852266  Z " stroke-width="0" stroke-dasharray="0" stroke="rgba(255, 255, 255, 0)" fill="none" transform="matrix(1 0 0 1 209 724 )" class="stroke" mask="url(#Clip374)" />
  </g>
</svg>