<?xml version="1.0" encoding="utf-8"?>
<svg version="1.1" xmlns:xlink="http://www.w3.org/1999/xlink" width="83px" height="11px" xmlns="http://www.w3.org/2000/svg">
  <defs>
    <pattern id="BGPattern" patternUnits="userSpaceOnUse" alignment="0 0" imageRepeat="None" />
    <mask fill="white" id="Clip268">
      <path d="M 56.84784146412414 8.55808624592792  C 52.81691505983371 10.067997349677032  46.854503086820436 10.891585224449258  40.6821470302504 10.891585224449258  C 32.24239487126688 10.891585224449258  23.34076572845822 9.427429002631953  18.428074173228993 6.316097031270161  C 10.618154264915882 1.3745697826367327  0.6668047043232955 3.479294351499116  0.5828270709006685 3.479294351499116  L 0.3308941706325324 2.152402775477185  C 0.7507823377460501 2.060893011613602  10.78610953176139 -0.04383155724879847  19.057906423899524 5.126470101043603  C 27.161748049192276 10.25101687740418  47.35836888735684 10.662810814790301  56.46994211372213 7.276949551837761  C 65.45554888995342 3.936843170817012  77.42236165269135 0.36796238013732346  82.37704202463183 0.36796238013732346  L 82.37704202463183 1.6948539561592717  C 77.54832810282522 1.6948539561592717  65.7494706069328 5.263734746838978  56.84784146412414 8.55808624592792  Z " fill-rule="evenodd" />
    </mask>
  </defs>
  <g transform="matrix(1 0 0 1 -1050 -608 )">
    <path d="M 56.84784146412414 8.55808624592792  C 52.81691505983371 10.067997349677032  46.854503086820436 10.891585224449258  40.6821470302504 10.891585224449258  C 32.24239487126688 10.891585224449258  23.34076572845822 9.427429002631953  18.428074173228993 6.316097031270161  C 10.618154264915882 1.3745697826367327  0.6668047043232955 3.479294351499116  0.5828270709006685 3.479294351499116  L 0.3308941706325324 2.152402775477185  C 0.7507823377460501 2.060893011613602  10.78610953176139 -0.04383155724879847  19.057906423899524 5.126470101043603  C 27.161748049192276 10.25101687740418  47.35836888735684 10.662810814790301  56.46994211372213 7.276949551837761  C 65.45554888995342 3.936843170817012  77.42236165269135 0.36796238013732346  82.37704202463183 0.36796238013732346  L 82.37704202463183 1.6948539561592717  C 77.54832810282522 1.6948539561592717  65.7494706069328 5.263734746838978  56.84784146412414 8.55808624592792  Z " fill-rule="nonzero" fill="rgba(43, 71, 139, 1)" stroke="none" transform="matrix(1 0 0 1 1050 608 )" class="fill" />
    <path d="M 56.84784146412414 8.55808624592792  C 52.81691505983371 10.067997349677032  46.854503086820436 10.891585224449258  40.6821470302504 10.891585224449258  C 32.24239487126688 10.891585224449258  23.34076572845822 9.427429002631953  18.428074173228993 6.316097031270161  C 10.618154264915882 1.3745697826367327  0.6668047043232955 3.479294351499116  0.5828270709006685 3.479294351499116  L 0.3308941706325324 2.152402775477185  C 0.7507823377460501 2.060893011613602  10.78610953176139 -0.04383155724879847  19.057906423899524 5.126470101043603  C 27.161748049192276 10.25101687740418  47.35836888735684 10.662810814790301  56.46994211372213 7.276949551837761  C 65.45554888995342 3.936843170817012  77.42236165269135 0.36796238013732346  82.37704202463183 0.36796238013732346  L 82.37704202463183 1.6948539561592717  C 77.54832810282522 1.6948539561592717  65.7494706069328 5.263734746838978  56.84784146412414 8.55808624592792  Z " stroke-width="0" stroke-dasharray="0" stroke="rgba(255, 255, 255, 0)" fill="none" transform="matrix(1 0 0 1 1050 608 )" class="stroke" mask="url(#Clip268)" />
  </g>
</svg>