<?xml version="1.0" encoding="utf-8"?>
<svg version="1.1" xmlns:xlink="http://www.w3.org/1999/xlink" width="111px" height="46px" xmlns="http://www.w3.org/2000/svg">
  <defs>
    <pattern id="BGPattern" patternUnits="userSpaceOnUse" alignment="0 0" imageRepeat="None" />
    <mask fill="white" id="Clip166">
      <path d="M 110 45.54068205416192  L 110.15252710327128 45  L 1 45  L 1 1  L 110 1  L 110 45.54068205416192  Z M 1 2  L 1 44  L 109 44  L 109 2  L 1 2  Z " fill-rule="evenodd" />
    </mask>
  </defs>
  <g transform="matrix(1 0 0 1 -255 -915 )">
    <path d="M 110 45.54068205416192  L 110.15252710327128 45  L 1 45  L 1 1  L 110 1  L 110 45.54068205416192  Z M 1 2  L 1 44  L 109 44  L 109 2  L 1 2  Z " fill-rule="nonzero" fill="rgba(174, 195, 255, 1)" stroke="none" transform="matrix(1 0 0 1 255 915 )" class="fill" />
    <path d="M 110 45.54068205416192  L 110.15252710327128 45  L 1 45  L 1 1  L 110 1  L 110 45.54068205416192  Z " stroke-width="0" stroke-dasharray="0" stroke="rgba(255, 255, 255, 0)" fill="none" transform="matrix(1 0 0 1 255 915 )" class="stroke" mask="url(#Clip166)" />
    <path d="M 1 2  L 1 44  L 109 44  L 109 2  L 1 2  Z " stroke-width="0" stroke-dasharray="0" stroke="rgba(255, 255, 255, 0)" fill="none" transform="matrix(1 0 0 1 255 915 )" class="stroke" mask="url(#Clip166)" />
  </g>
</svg>