<?xml version="1.0" encoding="utf-8"?>
<svg version="1.1" xmlns:xlink="http://www.w3.org/1999/xlink" width="4px" height="5px" xmlns="http://www.w3.org/2000/svg">
  <defs>
    <pattern id="BGPattern" patternUnits="userSpaceOnUse" alignment="0 0" imageRepeat="None" />
    <mask fill="white" id="Clip167">
      <path d="M 1.83137319860856 0.07362928606926289  C 2.6923968858704654 0.07362928606926289  3.3662415106841195 1.0469604108000965  3.3662415106841195 2.244906410468815  C 3.3662415106841195 3.4428524101375046  2.6923968858704654 4.416183534868338  1.83137319860856 4.416183534868338  C 0.9703495113466829 4.416183534868338  0.29650488653302887 3.4428524101375046  0.29650488653302887 2.244906410468815  C 0.29650488653302887 1.0469604108000965  0.9703495113466829 0.07362928606926289  1.83137319860856 0.07362928606926289  Z " fill-rule="evenodd" />
    </mask>
  </defs>
  <g transform="matrix(1 0 0 1 -310 -734 )">
    <path d="M 1.83137319860856 0.07362928606926289  C 2.6923968858704654 0.07362928606926289  3.3662415106841195 1.0469604108000965  3.3662415106841195 2.244906410468815  C 3.3662415106841195 3.4428524101375046  2.6923968858704654 4.416183534868338  1.83137319860856 4.416183534868338  C 0.9703495113466829 4.416183534868338  0.29650488653302887 3.4428524101375046  0.29650488653302887 2.244906410468815  C 0.29650488653302887 1.0469604108000965  0.9703495113466829 0.07362928606926289  1.83137319860856 0.07362928606926289  Z " fill-rule="nonzero" fill="rgba(255, 255, 255, 1)" stroke="none" transform="matrix(1 0 0 1 310 734 )" class="fill" />
    <path d="M 1.83137319860856 0.07362928606926289  C 2.6923968858704654 0.07362928606926289  3.3662415106841195 1.0469604108000965  3.3662415106841195 2.244906410468815  C 3.3662415106841195 3.4428524101375046  2.6923968858704654 4.416183534868338  1.83137319860856 4.416183534868338  C 0.9703495113466829 4.416183534868338  0.29650488653302887 3.4428524101375046  0.29650488653302887 2.244906410468815  C 0.29650488653302887 1.0469604108000965  0.9703495113466829 0.07362928606926289  1.83137319860856 0.07362928606926289  Z " stroke-width="0" stroke-dasharray="0" stroke="rgba(255, 255, 255, 0)" fill="none" transform="matrix(1 0 0 1 310 734 )" class="stroke" mask="url(#Clip167)" />
  </g>
</svg>