<?xml version="1.0" encoding="utf-8"?>
<svg version="1.1" xmlns:xlink="http://www.w3.org/1999/xlink" width="4px" height="5px" xmlns="http://www.w3.org/2000/svg">
  <defs>
    <pattern id="BGPattern" patternUnits="userSpaceOnUse" alignment="0 0" imageRepeat="None" />
    <mask fill="white" id="Clip168">
      <path d="M 2.0190491966208413 0.07362928606926289  C 2.8800728838827183 0.07362928606926289  3.5539175086963724 1.0469604108000965  3.5539175086963724 2.244906410468815  C 3.5539175086963724 3.4428524101375046  2.8800728838827467 4.416183534868338  2.0190491966208413 4.416183534868338  C 1.1580255093589642 4.416183534868338  0.48418088454531016 3.4428524101375046  0.48418088454531016 2.244906410468815  C 0.48418088454531016 1.0469604108000965  1.1580255093589358 0.07362928606926289  2.0190491966208413 0.07362928606926289  Z " fill-rule="evenodd" />
    </mask>
  </defs>
  <g transform="matrix(1 0 0 1 -318 -734 )">
    <path d="M 2.0190491966208413 0.07362928606926289  C 2.8800728838827183 0.07362928606926289  3.5539175086963724 1.0469604108000965  3.5539175086963724 2.244906410468815  C 3.5539175086963724 3.4428524101375046  2.8800728838827467 4.416183534868338  2.0190491966208413 4.416183534868338  C 1.1580255093589642 4.416183534868338  0.48418088454531016 3.4428524101375046  0.48418088454531016 2.244906410468815  C 0.48418088454531016 1.0469604108000965  1.1580255093589358 0.07362928606926289  2.0190491966208413 0.07362928606926289  Z " fill-rule="nonzero" fill="rgba(255, 158, 85, 1)" stroke="none" transform="matrix(1 0 0 1 318 734 )" class="fill" />
    <path d="M 2.0190491966208413 0.07362928606926289  C 2.8800728838827183 0.07362928606926289  3.5539175086963724 1.0469604108000965  3.5539175086963724 2.244906410468815  C 3.5539175086963724 3.4428524101375046  2.8800728838827467 4.416183534868338  2.0190491966208413 4.416183534868338  C 1.1580255093589642 4.416183534868338  0.48418088454531016 3.4428524101375046  0.48418088454531016 2.244906410468815  C 0.48418088454531016 1.0469604108000965  1.1580255093589358 0.07362928606926289  2.0190491966208413 0.07362928606926289  Z " stroke-width="0" stroke-dasharray="0" stroke="rgba(255, 255, 255, 0)" fill="none" transform="matrix(1 0 0 1 318 734 )" class="stroke" mask="url(#Clip168)" />
  </g>
</svg>