<?xml version="1.0" encoding="utf-8"?>
<svg version="1.1" xmlns:xlink="http://www.w3.org/1999/xlink" width="4px" height="5px" xmlns="http://www.w3.org/2000/svg">
  <defs>
    <pattern id="BGPattern" patternUnits="userSpaceOnUse" alignment="0 0" imageRepeat="None" />
    <mask fill="white" id="Clip169">
      <path d="M 2.2067251946330657 0.07362928606926289  C 3.067748881894971 0.07362928606926289  3.7415935067086252 1.0469604108000965  3.7415935067086252 2.244906410468815  C 3.7415935067086252 3.4428524101375046  3.067748881894971 4.416183534868338  2.2067251946330657 4.416183534868338  C 1.345701507371217 4.416183534868338  0.6718568825575346 3.4428524101375046  0.6718568825575346 2.244906410468815  C 0.6718568825575346 1.0469604108000965  1.3457015073711602 0.07362928606926289  2.2067251946330657 0.07362928606926289  Z " fill-rule="evenodd" />
    </mask>
  </defs>
  <g transform="matrix(1 0 0 1 -326 -734 )">
    <path d="M 2.2067251946330657 0.07362928606926289  C 3.067748881894971 0.07362928606926289  3.7415935067086252 1.0469604108000965  3.7415935067086252 2.244906410468815  C 3.7415935067086252 3.4428524101375046  3.067748881894971 4.416183534868338  2.2067251946330657 4.416183534868338  C 1.345701507371217 4.416183534868338  0.6718568825575346 3.4428524101375046  0.6718568825575346 2.244906410468815  C 0.6718568825575346 1.0469604108000965  1.3457015073711602 0.07362928606926289  2.2067251946330657 0.07362928606926289  Z " fill-rule="nonzero" fill="rgba(105, 157, 238, 1)" stroke="none" transform="matrix(1 0 0 1 326 734 )" class="fill" />
    <path d="M 2.2067251946330657 0.07362928606926289  C 3.067748881894971 0.07362928606926289  3.7415935067086252 1.0469604108000965  3.7415935067086252 2.244906410468815  C 3.7415935067086252 3.4428524101375046  3.067748881894971 4.416183534868338  2.2067251946330657 4.416183534868338  C 1.345701507371217 4.416183534868338  0.6718568825575346 3.4428524101375046  0.6718568825575346 2.244906410468815  C 0.6718568825575346 1.0469604108000965  1.3457015073711602 0.07362928606926289  2.2067251946330657 0.07362928606926289  Z " stroke-width="0" stroke-dasharray="0" stroke="rgba(255, 255, 255, 0)" fill="none" transform="matrix(1 0 0 1 326 734 )" class="stroke" mask="url(#Clip169)" />
  </g>
</svg>