<?xml version="1.0" encoding="utf-8"?>
<svg version="1.1" xmlns:xlink="http://www.w3.org/1999/xlink" width="4px" height="5px" xmlns="http://www.w3.org/2000/svg">
  <defs>
    <pattern id="BGPattern" patternUnits="userSpaceOnUse" alignment="0 0" imageRepeat="None" />
    <mask fill="white" id="Clip428">
      <path d="M 2.394401192645347 0.07362928606926289  C 3.255424879907224 0.07362928606926289  3.929269504720878 1.0469604108000965  3.929269504720878 2.244906410468815  C 3.929269504720878 3.4428524101375046  3.2554248799072525 4.416183534868338  2.394401192645347 4.416183534868338  C 1.53337750538347 4.416183534868338  0.8595328805698159 3.4428524101375046  0.8595328805698159 2.244906410468815  C 0.8595328805698159 1.0469604108000965  1.5333775053834415 0.07362928606926289  2.394401192645347 0.07362928606926289  Z " fill-rule="evenodd" />
    </mask>
  </defs>
  <g transform="matrix(1 0 0 1 -334 -734 )">
    <path d="M 2.394401192645347 0.07362928606926289  C 3.255424879907224 0.07362928606926289  3.929269504720878 1.0469604108000965  3.929269504720878 2.244906410468815  C 3.929269504720878 3.4428524101375046  3.2554248799072525 4.416183534868338  2.394401192645347 4.416183534868338  C 1.53337750538347 4.416183534868338  0.8595328805698159 3.4428524101375046  0.8595328805698159 2.244906410468815  C 0.8595328805698159 1.0469604108000965  1.5333775053834415 0.07362928606926289  2.394401192645347 0.07362928606926289  Z " fill-rule="nonzero" fill="rgba(255, 255, 255, 1)" stroke="none" transform="matrix(1 0 0 1 334 734 )" class="fill" />
    <path d="M 2.394401192645347 0.07362928606926289  C 3.255424879907224 0.07362928606926289  3.929269504720878 1.0469604108000965  3.929269504720878 2.244906410468815  C 3.929269504720878 3.4428524101375046  3.2554248799072525 4.416183534868338  2.394401192645347 4.416183534868338  C 1.53337750538347 4.416183534868338  0.8595328805698159 3.4428524101375046  0.8595328805698159 2.244906410468815  C 0.8595328805698159 1.0469604108000965  1.5333775053834415 0.07362928606926289  2.394401192645347 0.07362928606926289  Z " stroke-width="0" stroke-dasharray="0" stroke="rgba(255, 255, 255, 0)" fill="none" transform="matrix(1 0 0 1 334 734 )" class="stroke" mask="url(#Clip428)" />
  </g>
</svg>