<?xml version="1.0" encoding="utf-8"?>
<svg version="1.1" xmlns:xlink="http://www.w3.org/1999/xlink" width="4px" height="5px" xmlns="http://www.w3.org/2000/svg">
  <defs>
    <pattern id="BGPattern" patternUnits="userSpaceOnUse" alignment="0 0" imageRepeat="None" />
    <mask fill="white" id="Clip171">
      <path d="M 1.5820771906575715 0.07362928606926289  C 2.443100877919477 0.07362928606926289  3.116945502733131 1.0469604108000965  3.116945502733131 2.244906410468815  C 3.116945502733131 3.4428524101375046  2.443100877919477 4.416183534868338  1.5820771906575715 4.416183534868338  C 0.721053503395666 4.416183534868338  0.04720887858204037 3.4428524101375046  0.04720887858204037 2.244906410468815  C 0.04720887858204037 1.0469604108000965  0.721053503395666 0.07362928606926289  1.5820771906575715 0.07362928606926289  Z " fill-rule="evenodd" />
    </mask>
  </defs>
  <g transform="matrix(1 0 0 1 -343 -734 )">
    <path d="M 1.5820771906575715 0.07362928606926289  C 2.443100877919477 0.07362928606926289  3.116945502733131 1.0469604108000965  3.116945502733131 2.244906410468815  C 3.116945502733131 3.4428524101375046  2.443100877919477 4.416183534868338  1.5820771906575715 4.416183534868338  C 0.721053503395666 4.416183534868338  0.04720887858204037 3.4428524101375046  0.04720887858204037 2.244906410468815  C 0.04720887858204037 1.0469604108000965  0.721053503395666 0.07362928606926289  1.5820771906575715 0.07362928606926289  Z " fill-rule="nonzero" fill="rgba(255, 158, 85, 1)" stroke="none" transform="matrix(1 0 0 1 343 734 )" class="fill" />
    <path d="M 1.5820771906575715 0.07362928606926289  C 2.443100877919477 0.07362928606926289  3.116945502733131 1.0469604108000965  3.116945502733131 2.244906410468815  C 3.116945502733131 3.4428524101375046  2.443100877919477 4.416183534868338  1.5820771906575715 4.416183534868338  C 0.721053503395666 4.416183534868338  0.04720887858204037 3.4428524101375046  0.04720887858204037 2.244906410468815  C 0.04720887858204037 1.0469604108000965  0.721053503395666 0.07362928606926289  1.5820771906575715 0.07362928606926289  Z " stroke-width="0" stroke-dasharray="0" stroke="rgba(255, 255, 255, 0)" fill="none" transform="matrix(1 0 0 1 343 734 )" class="stroke" mask="url(#Clip171)" />
  </g>
</svg>