<?xml version="1.0" encoding="utf-8"?>
<svg version="1.1" xmlns:xlink="http://www.w3.org/1999/xlink" width="83px" height="12px" xmlns="http://www.w3.org/2000/svg">
  <defs>
    <pattern id="BGPattern" patternUnits="userSpaceOnUse" alignment="0 0" imageRepeat="None" />
    <mask fill="white" id="Clip269">
      <path d="M 56.84784146412414 9.082491303627656  C 52.81691505983371 10.60987245320527  46.854503086820436 11.37356302799406  40.6821470302504 11.37356302799406  C 32.24239487126688 11.37356302799406  23.34076572845822 9.936027828391616  18.428074173228993 6.881265529236401  C 10.618154264915882 2.029584230578126  0.6668047043232955 4.096041080006666  0.5828270709006685 4.096041080006666  L 0.3308941706325324 2.7932748053669343  C 0.7507823377460501 2.7034288553917802  10.78610953176139 0.6369720059632584  19.057906423899524 5.713268179559417  C 27.161748049192276 10.744641378167984  47.35836888735684 11.148948153056175  56.46994211372213 7.8246480039755175  C 65.45554888995342 4.545270829882417  77.42236165269135 1.0412787808514508  82.37704202463183 1.0412787808514508  L 82.37704202463183 2.344045055491165  C 77.54832810282522 2.344045055491165  65.7494706069328 5.848037104522149  56.84784146412414 9.082491303627656  Z " fill-rule="evenodd" />
    </mask>
  </defs>
  <g transform="matrix(1 0 0 1 -1050 -605 )">
    <path d="M 56.84784146412414 9.082491303627656  C 52.81691505983371 10.60987245320527  46.854503086820436 11.37356302799406  40.6821470302504 11.37356302799406  C 32.24239487126688 11.37356302799406  23.34076572845822 9.936027828391616  18.428074173228993 6.881265529236401  C 10.618154264915882 2.029584230578126  0.6668047043232955 4.096041080006666  0.5828270709006685 4.096041080006666  L 0.3308941706325324 2.7932748053669343  C 0.7507823377460501 2.7034288553917802  10.78610953176139 0.6369720059632584  19.057906423899524 5.713268179559417  C 27.161748049192276 10.744641378167984  47.35836888735684 11.148948153056175  56.46994211372213 7.8246480039755175  C 65.45554888995342 4.545270829882417  77.42236165269135 1.0412787808514508  82.37704202463183 1.0412787808514508  L 82.37704202463183 2.344045055491165  C 77.54832810282522 2.344045055491165  65.7494706069328 5.848037104522149  56.84784146412414 9.082491303627656  Z " fill-rule="nonzero" fill="rgba(43, 71, 139, 1)" stroke="none" transform="matrix(1 0 0 1 1050 605 )" class="fill" />
    <path d="M 56.84784146412414 9.082491303627656  C 52.81691505983371 10.60987245320527  46.854503086820436 11.37356302799406  40.6821470302504 11.37356302799406  C 32.24239487126688 11.37356302799406  23.34076572845822 9.936027828391616  18.428074173228993 6.881265529236401  C 10.618154264915882 2.029584230578126  0.6668047043232955 4.096041080006666  0.5828270709006685 4.096041080006666  L 0.3308941706325324 2.7932748053669343  C 0.7507823377460501 2.7034288553917802  10.78610953176139 0.6369720059632584  19.057906423899524 5.713268179559417  C 27.161748049192276 10.744641378167984  47.35836888735684 11.148948153056175  56.46994211372213 7.8246480039755175  C 65.45554888995342 4.545270829882417  77.42236165269135 1.0412787808514508  82.37704202463183 1.0412787808514508  L 82.37704202463183 2.344045055491165  C 77.54832810282522 2.344045055491165  65.7494706069328 5.848037104522149  56.84784146412414 9.082491303627656  Z " stroke-width="0" stroke-dasharray="0" stroke="rgba(255, 255, 255, 0)" fill="none" transform="matrix(1 0 0 1 1050 605 )" class="stroke" mask="url(#Clip269)" />
  </g>
</svg>