<?xml version="1.0" encoding="utf-8"?>
<svg version="1.1" xmlns:xlink="http://www.w3.org/1999/xlink" width="91px" height="63px" xmlns="http://www.w3.org/2000/svg">
  <defs>
    <pattern id="BGPattern" patternUnits="userSpaceOnUse" alignment="0 0" imageRepeat="None" />
    <mask fill="white" id="Clip270">
      <path d="M 69.61473621003793 42  C 80.81412746397207 42.64163698857044  90.01210659267845 51.738539423554705  90.01210659267845 62.8990910220308  L 88.77719272817613 62.8990910220308  C 88.77719272817613 52.41238404836836  80.17537891336748 43.90509566009607  69.57215297333094 44  L 42.872463558058605 44  C 37.37922602285895 43.90509566009607  32.907986168626664 39.48299030975645  32.907986168626664 34.050118022196415  C 32.907986168626664 16.488042487990732  18.47226892496257 2.2109594997515494  0.715059218154667 2.2109594997515494  L 0.715059218154667 0.9896161172768175  C 19.15360071227441 0.9896161172768175  34.185483269835984 15.81419786317711  34.185483269835984 34.092233311247284  C 34.185483269835984 38.85126097399367  38.10314104687739 42.72586756667218  42.915046794765594 42  L 69.61473621003793 42  Z " fill-rule="evenodd" />
    </mask>
  </defs>
  <g transform="matrix(1 0 0 1 -1168 -795 )">
    <path d="M 69.61473621003793 42  C 80.81412746397207 42.64163698857044  90.01210659267845 51.738539423554705  90.01210659267845 62.8990910220308  L 88.77719272817613 62.8990910220308  C 88.77719272817613 52.41238404836836  80.17537891336748 43.90509566009607  69.57215297333094 44  L 42.872463558058605 44  C 37.37922602285895 43.90509566009607  32.907986168626664 39.48299030975645  32.907986168626664 34.050118022196415  C 32.907986168626664 16.488042487990732  18.47226892496257 2.2109594997515494  0.715059218154667 2.2109594997515494  L 0.715059218154667 0.9896161172768175  C 19.15360071227441 0.9896161172768175  34.185483269835984 15.81419786317711  34.185483269835984 34.092233311247284  C 34.185483269835984 38.85126097399367  38.10314104687739 42.72586756667218  42.915046794765594 42  L 69.61473621003793 42  Z " fill-rule="nonzero" fill="rgba(43, 71, 139, 1)" stroke="none" transform="matrix(1 0 0 1 1168 795 )" class="fill" />
    <path d="M 69.61473621003793 42  C 80.81412746397207 42.64163698857044  90.01210659267845 51.738539423554705  90.01210659267845 62.8990910220308  L 88.77719272817613 62.8990910220308  C 88.77719272817613 52.41238404836836  80.17537891336748 43.90509566009607  69.57215297333094 44  L 42.872463558058605 44  C 37.37922602285895 43.90509566009607  32.907986168626664 39.48299030975645  32.907986168626664 34.050118022196415  C 32.907986168626664 16.488042487990732  18.47226892496257 2.2109594997515494  0.715059218154667 2.2109594997515494  L 0.715059218154667 0.9896161172768175  C 19.15360071227441 0.9896161172768175  34.185483269835984 15.81419786317711  34.185483269835984 34.092233311247284  C 34.185483269835984 38.85126097399367  38.10314104687739 42.72586756667218  42.915046794765594 42  L 69.61473621003793 42  Z " stroke-width="0" stroke-dasharray="0" stroke="rgba(255, 255, 255, 0)" fill="none" transform="matrix(1 0 0 1 1168 795 )" class="stroke" mask="url(#Clip270)" />
  </g>
</svg>