<?xml version="1.0" encoding="utf-8"?>
<svg version="1.1" xmlns:xlink="http://www.w3.org/1999/xlink" width="42px" height="31px" xmlns="http://www.w3.org/2000/svg">
  <defs>
    <pattern id="BGPattern" patternUnits="userSpaceOnUse" alignment="0 0" imageRepeat="None" />
    <mask fill="white" id="Clip431">
      <path d="M 38.0547614037758 21.83411861422464  C 38.352224346261124 17.707860170921276  38.352224346261124 17.707860170921276  38.352224346261124 17.707860170921276  C 38.352224346261124 17.707860170921276  45.108882611284464 9.713234437021042  38.777171406954416 4.641375100460756  C 38.777171406954416 4.641375100460756  34.14524844539753 1.8045724206896616  30.363219605227215 2.0194817146117283  C 30.363219605227215 2.0194817146117283  35.717552569962706 11.13163577690659  33.97526962112021 12.034254811379151  C 32.23298667227772 12.936873845851778  28.705926068523382 1.4607175504143814  28.705926068523382 1.4607175504143814  C 28.705926068523382 1.4607175504143814  18.124744257260403 0.4291529395885408  14.72516777171406 2.0624635733960894  C 14.72516777171406 2.0624635733960894  23.77654016448119 9.541307001883402  21.864278391361378 9.97112558972747  C 19.95201661824156 10.400944177571537  10.220728928365164 3.09402818422193  10.220728928365164 3.09402818422193  C 10.220728928365164 3.09402818422193  0.36195712028078414 4.770320676813904  0.9143882991820681 10.873744624200096  C 1.4243247720140064 16.934186712801864  4.823901257560345 18.825388499315903  6.311215969986871 18.653461064178263  C 7.7985306824133955 18.481533629040623  16.509945426625887 15.128948643856608  16.722418956972533 16.375422548604583  C 16.89239778124985 17.621896453352424  11.66554893472235 21.662191179086932  8.011004212760044 21.83411861422464  C 8.011004212760044 21.83411861422464  14.937641302060708 29.57085319541838  19.56956426361758 27.335796538629058  C 24.158992519105137 25.100739881839736  24.583939579798432 21.576227461518148  27.431084886443493 20.24378983920145  C 30.320724899157888 18.91135221688469  32.742923145109636 18.91135221688469  31.55307137516843 20.286771697985877  C 30.3632196052272 21.662191179086996  25.178865464769032 22.951646942619266  23.521571928065192 25.91739519874351  C 21.864278391361356 28.84016159608339  20.419458385004155 30.860308958950647  25.178865464769032 30.129617359615658  C 29.938272544533906 29.398925760280672  37.71480375522116 25.874413339959148  38.0547614037758 21.83411861422464  Z " fill-rule="evenodd" />
    </mask>
  </defs>
  <g transform="matrix(1 0 0 1 -156 -914 )">
    <path d="M 38.0547614037758 21.83411861422464  C 38.352224346261124 17.707860170921276  38.352224346261124 17.707860170921276  38.352224346261124 17.707860170921276  C 38.352224346261124 17.707860170921276  45.108882611284464 9.713234437021042  38.777171406954416 4.641375100460756  C 38.777171406954416 4.641375100460756  34.14524844539753 1.8045724206896616  30.363219605227215 2.0194817146117283  C 30.363219605227215 2.0194817146117283  35.717552569962706 11.13163577690659  33.97526962112021 12.034254811379151  C 32.23298667227772 12.936873845851778  28.705926068523382 1.4607175504143814  28.705926068523382 1.4607175504143814  C 28.705926068523382 1.4607175504143814  18.124744257260403 0.4291529395885408  14.72516777171406 2.0624635733960894  C 14.72516777171406 2.0624635733960894  23.77654016448119 9.541307001883402  21.864278391361378 9.97112558972747  C 19.95201661824156 10.400944177571537  10.220728928365164 3.09402818422193  10.220728928365164 3.09402818422193  C 10.220728928365164 3.09402818422193  0.36195712028078414 4.770320676813904  0.9143882991820681 10.873744624200096  C 1.4243247720140064 16.934186712801864  4.823901257560345 18.825388499315903  6.311215969986871 18.653461064178263  C 7.7985306824133955 18.481533629040623  16.509945426625887 15.128948643856608  16.722418956972533 16.375422548604583  C 16.89239778124985 17.621896453352424  11.66554893472235 21.662191179086932  8.011004212760044 21.83411861422464  C 8.011004212760044 21.83411861422464  14.937641302060708 29.57085319541838  19.56956426361758 27.335796538629058  C 24.158992519105137 25.100739881839736  24.583939579798432 21.576227461518148  27.431084886443493 20.24378983920145  C 30.320724899157888 18.91135221688469  32.742923145109636 18.91135221688469  31.55307137516843 20.286771697985877  C 30.3632196052272 21.662191179086996  25.178865464769032 22.951646942619266  23.521571928065192 25.91739519874351  C 21.864278391361356 28.84016159608339  20.419458385004155 30.860308958950647  25.178865464769032 30.129617359615658  C 29.938272544533906 29.398925760280672  37.71480375522116 25.874413339959148  38.0547614037758 21.83411861422464  Z " fill-rule="nonzero" fill="rgba(130, 179, 120, 1)" stroke="none" transform="matrix(1 0 0 1 156 914 )" class="fill" />
    <path d="M 38.0547614037758 21.83411861422464  C 38.352224346261124 17.707860170921276  38.352224346261124 17.707860170921276  38.352224346261124 17.707860170921276  C 38.352224346261124 17.707860170921276  45.108882611284464 9.713234437021042  38.777171406954416 4.641375100460756  C 38.777171406954416 4.641375100460756  34.14524844539753 1.8045724206896616  30.363219605227215 2.0194817146117283  C 30.363219605227215 2.0194817146117283  35.717552569962706 11.13163577690659  33.97526962112021 12.034254811379151  C 32.23298667227772 12.936873845851778  28.705926068523382 1.4607175504143814  28.705926068523382 1.4607175504143814  C 28.705926068523382 1.4607175504143814  18.124744257260403 0.4291529395885408  14.72516777171406 2.0624635733960894  C 14.72516777171406 2.0624635733960894  23.77654016448119 9.541307001883402  21.864278391361378 9.97112558972747  C 19.95201661824156 10.400944177571537  10.220728928365164 3.09402818422193  10.220728928365164 3.09402818422193  C 10.220728928365164 3.09402818422193  0.36195712028078414 4.770320676813904  0.9143882991820681 10.873744624200096  C 1.4243247720140064 16.934186712801864  4.823901257560345 18.825388499315903  6.311215969986871 18.653461064178263  C 7.7985306824133955 18.481533629040623  16.509945426625887 15.128948643856608  16.722418956972533 16.375422548604583  C 16.89239778124985 17.621896453352424  11.66554893472235 21.662191179086932  8.011004212760044 21.83411861422464  C 8.011004212760044 21.83411861422464  14.937641302060708 29.57085319541838  19.56956426361758 27.335796538629058  C 24.158992519105137 25.100739881839736  24.583939579798432 21.576227461518148  27.431084886443493 20.24378983920145  C 30.320724899157888 18.91135221688469  32.742923145109636 18.91135221688469  31.55307137516843 20.286771697985877  C 30.3632196052272 21.662191179086996  25.178865464769032 22.951646942619266  23.521571928065192 25.91739519874351  C 21.864278391361356 28.84016159608339  20.419458385004155 30.860308958950647  25.178865464769032 30.129617359615658  C 29.938272544533906 29.398925760280672  37.71480375522116 25.874413339959148  38.0547614037758 21.83411861422464  Z " stroke-width="0" stroke-dasharray="0" stroke="rgba(255, 255, 255, 0)" fill="none" transform="matrix(1 0 0 1 156 914 )" class="stroke" mask="url(#Clip431)" />
  </g>
</svg>