<?xml version="1.0" encoding="utf-8"?>
<svg version="1.1" xmlns:xlink="http://www.w3.org/1999/xlink" width="39px" height="17px" xmlns="http://www.w3.org/2000/svg">
  <defs>
    <pattern id="BGPattern" patternUnits="userSpaceOnUse" alignment="0 0" imageRepeat="None" />
    <mask fill="white" id="Clip174">
      <path d="M 31.74265363591188 11.3099607973055  C 31.74265363591188 11.267533543150549  34.287219290565325 1.8062558666003992  0.0398684303935253 0.7031472585720886  C 0.0398684303935253 0.7031472585720886  26.27809460706596 -0.3151068411462574  32.076367164391016 7.321798906741757  C 32.076367164391016 7.321798906741757  33.36950708724768 11.225106288995665  37.290641046877596 14.788995638010036  L 37.916353912775975 16.486085804207388  C 37.916353912775975 16.486085804207388  33.36950708724768 11.60695157639002  31.74265363591188 11.3099607973055  Z " fill-rule="evenodd" />
    </mask>
  </defs>
  <g transform="matrix(1 0 0 1 -162 -924 )">
    <path d="M 31.74265363591188 11.3099607973055  C 31.74265363591188 11.267533543150549  34.287219290565325 1.8062558666003992  0.0398684303935253 0.7031472585720886  C 0.0398684303935253 0.7031472585720886  26.27809460706596 -0.3151068411462574  32.076367164391016 7.321798906741757  C 32.076367164391016 7.321798906741757  33.36950708724768 11.225106288995665  37.290641046877596 14.788995638010036  L 37.916353912775975 16.486085804207388  C 37.916353912775975 16.486085804207388  33.36950708724768 11.60695157639002  31.74265363591188 11.3099607973055  Z " fill-rule="nonzero" fill="rgba(130, 179, 120, 1)" stroke="none" transform="matrix(1 0 0 1 162 924 )" class="fill" />
    <path d="M 31.74265363591188 11.3099607973055  C 31.74265363591188 11.267533543150549  34.287219290565325 1.8062558666003992  0.0398684303935253 0.7031472585720886  C 0.0398684303935253 0.7031472585720886  26.27809460706596 -0.3151068411462574  32.076367164391016 7.321798906741757  C 32.076367164391016 7.321798906741757  33.36950708724768 11.225106288995665  37.290641046877596 14.788995638010036  L 37.916353912775975 16.486085804207388  C 37.916353912775975 16.486085804207388  33.36950708724768 11.60695157639002  31.74265363591188 11.3099607973055  Z " stroke-width="0" stroke-dasharray="0" stroke="rgba(255, 255, 255, 0)" fill="none" transform="matrix(1 0 0 1 162 924 )" class="stroke" mask="url(#Clip174)" />
  </g>
</svg>