<?xml version="1.0" encoding="utf-8"?>
<svg version="1.1" xmlns:xlink="http://www.w3.org/1999/xlink" width="7px" height="14px" xmlns="http://www.w3.org/2000/svg">
  <defs>
    <pattern id="BGPattern" patternUnits="userSpaceOnUse" alignment="0 0" imageRepeat="None" />
    <mask fill="white" id="Clip433">
      <path d="M 1.4285241013748617 2.1848186185190928  C -1.4914692728176249 -0.9161145160399542  1.4659599138645092 1.1802909833802366  1.4659599138645092 1.1802909833802366  C 1.4659599138645092 1.1802909833802366  6.519794599966872 5.547802440505771  6.856716912373699 13.321972834189125  L 5.95825741262216 13.40932306333167  C 5.95825741262216 13.40932306333167  4.348517475567334 5.373101982220751  1.4285241013748617 2.1848186185190928  Z " fill-rule="evenodd" />
    </mask>
  </defs>
  <g transform="matrix(1 0 0 1 -198 -938 )">
    <path d="M 1.4285241013748617 2.1848186185190928  C -1.4914692728176249 -0.9161145160399542  1.4659599138645092 1.1802909833802366  1.4659599138645092 1.1802909833802366  C 1.4659599138645092 1.1802909833802366  6.519794599966872 5.547802440505771  6.856716912373699 13.321972834189125  L 5.95825741262216 13.40932306333167  C 5.95825741262216 13.40932306333167  4.348517475567334 5.373101982220751  1.4285241013748617 2.1848186185190928  Z " fill-rule="nonzero" fill="rgba(130, 179, 120, 1)" stroke="none" transform="matrix(1 0 0 1 198 938 )" class="fill" />
    <path d="M 1.4285241013748617 2.1848186185190928  C -1.4914692728176249 -0.9161145160399542  1.4659599138645092 1.1802909833802366  1.4659599138645092 1.1802909833802366  C 1.4659599138645092 1.1802909833802366  6.519794599966872 5.547802440505771  6.856716912373699 13.321972834189125  L 5.95825741262216 13.40932306333167  C 5.95825741262216 13.40932306333167  4.348517475567334 5.373101982220751  1.4285241013748617 2.1848186185190928  Z " stroke-width="0" stroke-dasharray="0" stroke="rgba(255, 255, 255, 0)" fill="none" transform="matrix(1 0 0 1 198 938 )" class="stroke" mask="url(#Clip433)" />
  </g>
</svg>