<?xml version="1.0" encoding="utf-8"?>
<svg version="1.1" xmlns:xlink="http://www.w3.org/1999/xlink" width="47px" height="37px" xmlns="http://www.w3.org/2000/svg">
  <defs>
    <pattern id="BGPattern" patternUnits="userSpaceOnUse" alignment="0 0" imageRepeat="None" />
    <mask fill="white" id="Clip176">
      <path d="M 9.481226878692517 32.01769140803427  C 7.470388950677185 27.652448788029382  7.470388950677185 27.652448788029382  7.470388950677185 27.652448788029382  C 7.470388950677185 27.652448788029382  -3.170295085070637 21.692213672253423  1.814907278134049 13.59133073320582  C 1.814907278134049 13.59133073320582  5.794690677331062 8.638459298969467  10.025828817530009 7.337281210314161  C 10.025828817530009 7.337281210314161  7.763636148512772 19.42564538878928  10.025828817530009 19.677486309174213  C 12.288021486547244 19.97130071628998  11.575849720375157 6.036103121658855  11.575849720375157 6.036103121658855  C 11.575849720375157 6.036103121658855  22.761135694960455 0.621523333383531  27.159843662493998 1.0832316874225  C 27.159843662493998 1.0832316874225  20.205695828107615 12.877781458781984  22.467888497124882 12.583967051666217  C 24.730081166142117 12.290152644550515  32.52207813720155 0.3696824129985981  32.52207813720155 0.3696824129985981  C 32.52207813720155 0.3696824129985981  44.000611309622414 -1.7709654102730445  45.84387941030315 5.070712926850083  C 47.68714751098385 11.870417777242379  44.71278307579453 15.312243689169327  42.99519234561474 15.731978556477463  C 41.277601615434975 16.151713423785665  30.385562838685253 16.02579296359323  30.678810036520844 17.45289151244097  C 30.972057234356395 18.879990061288712  38.345129637079296 21.146558344752787  42.450590406777295 19.887353742828317  C 42.450590406777295 19.887353742828317  37.92620506874276 31.09427469995633  31.977476198364084 30.548619372455697  C 26.028747327985396 29.96099055822429  24.18547922730466 26.30929721264324  20.498943025943234 26.01548280552754  C 16.812406824581778 25.721668398411772  14.131289587228013 26.729032079951445  15.974557687908732 27.736395761490982  C 17.817825788589438 28.743759443030587  24.059801856803716 28.07218365533752  27.034166291993053 30.590592859186525  C 30.008530727182407 33.10900206303554  32.43829322353426 34.70399455880655  26.908488921492093 35.83727870053858  C 21.378684619449917 36.970562842270624  11.450172349874213 36.25701356784672  9.481226878692517 32.01769140803427  Z " fill-rule="evenodd" />
    </mask>
  </defs>
  <g transform="matrix(1 0 0 1 -210 -894 )">
    <path d="M 9.481226878692517 32.01769140803427  C 7.470388950677185 27.652448788029382  7.470388950677185 27.652448788029382  7.470388950677185 27.652448788029382  C 7.470388950677185 27.652448788029382  -3.170295085070637 21.692213672253423  1.814907278134049 13.59133073320582  C 1.814907278134049 13.59133073320582  5.794690677331062 8.638459298969467  10.025828817530009 7.337281210314161  C 10.025828817530009 7.337281210314161  7.763636148512772 19.42564538878928  10.025828817530009 19.677486309174213  C 12.288021486547244 19.97130071628998  11.575849720375157 6.036103121658855  11.575849720375157 6.036103121658855  C 11.575849720375157 6.036103121658855  22.761135694960455 0.621523333383531  27.159843662493998 1.0832316874225  C 27.159843662493998 1.0832316874225  20.205695828107615 12.877781458781984  22.467888497124882 12.583967051666217  C 24.730081166142117 12.290152644550515  32.52207813720155 0.3696824129985981  32.52207813720155 0.3696824129985981  C 32.52207813720155 0.3696824129985981  44.000611309622414 -1.7709654102730445  45.84387941030315 5.070712926850083  C 47.68714751098385 11.870417777242379  44.71278307579453 15.312243689169327  42.99519234561474 15.731978556477463  C 41.277601615434975 16.151713423785665  30.385562838685253 16.02579296359323  30.678810036520844 17.45289151244097  C 30.972057234356395 18.879990061288712  38.345129637079296 21.146558344752787  42.450590406777295 19.887353742828317  C 42.450590406777295 19.887353742828317  37.92620506874276 31.09427469995633  31.977476198364084 30.548619372455697  C 26.028747327985396 29.96099055822429  24.18547922730466 26.30929721264324  20.498943025943234 26.01548280552754  C 16.812406824581778 25.721668398411772  14.131289587228013 26.729032079951445  15.974557687908732 27.736395761490982  C 17.817825788589438 28.743759443030587  24.059801856803716 28.07218365533752  27.034166291993053 30.590592859186525  C 30.008530727182407 33.10900206303554  32.43829322353426 34.70399455880655  26.908488921492093 35.83727870053858  C 21.378684619449917 36.970562842270624  11.450172349874213 36.25701356784672  9.481226878692517 32.01769140803427  Z " fill-rule="nonzero" fill="rgba(130, 179, 120, 1)" stroke="none" transform="matrix(1 0 0 1 210 894 )" class="fill" />
    <path d="M 9.481226878692517 32.01769140803427  C 7.470388950677185 27.652448788029382  7.470388950677185 27.652448788029382  7.470388950677185 27.652448788029382  C 7.470388950677185 27.652448788029382  -3.170295085070637 21.692213672253423  1.814907278134049 13.59133073320582  C 1.814907278134049 13.59133073320582  5.794690677331062 8.638459298969467  10.025828817530009 7.337281210314161  C 10.025828817530009 7.337281210314161  7.763636148512772 19.42564538878928  10.025828817530009 19.677486309174213  C 12.288021486547244 19.97130071628998  11.575849720375157 6.036103121658855  11.575849720375157 6.036103121658855  C 11.575849720375157 6.036103121658855  22.761135694960455 0.621523333383531  27.159843662493998 1.0832316874225  C 27.159843662493998 1.0832316874225  20.205695828107615 12.877781458781984  22.467888497124882 12.583967051666217  C 24.730081166142117 12.290152644550515  32.52207813720155 0.3696824129985981  32.52207813720155 0.3696824129985981  C 32.52207813720155 0.3696824129985981  44.000611309622414 -1.7709654102730445  45.84387941030315 5.070712926850083  C 47.68714751098385 11.870417777242379  44.71278307579453 15.312243689169327  42.99519234561474 15.731978556477463  C 41.277601615434975 16.151713423785665  30.385562838685253 16.02579296359323  30.678810036520844 17.45289151244097  C 30.972057234356395 18.879990061288712  38.345129637079296 21.146558344752787  42.450590406777295 19.887353742828317  C 42.450590406777295 19.887353742828317  37.92620506874276 31.09427469995633  31.977476198364084 30.548619372455697  C 26.028747327985396 29.96099055822429  24.18547922730466 26.30929721264324  20.498943025943234 26.01548280552754  C 16.812406824581778 25.721668398411772  14.131289587228013 26.729032079951445  15.974557687908732 27.736395761490982  C 17.817825788589438 28.743759443030587  24.059801856803716 28.07218365533752  27.034166291993053 30.590592859186525  C 30.008530727182407 33.10900206303554  32.43829322353426 34.70399455880655  26.908488921492093 35.83727870053858  C 21.378684619449917 36.970562842270624  11.450172349874213 36.25701356784672  9.481226878692517 32.01769140803427  Z " stroke-width="0" stroke-dasharray="0" stroke="rgba(255, 255, 255, 0)" fill="none" transform="matrix(1 0 0 1 210 894 )" class="stroke" mask="url(#Clip176)" />
  </g>
</svg>