<?xml version="1.0" encoding="utf-8"?>
<svg version="1.1" xmlns:xlink="http://www.w3.org/1999/xlink" width="37px" height="34px" xmlns="http://www.w3.org/2000/svg">
  <defs>
    <pattern id="BGPattern" patternUnits="userSpaceOnUse" alignment="0 0" imageRepeat="None" />
    <mask fill="white" id="Clip177">
      <path d="M 4.930770350515251 25.478974104135617  C 4.9727438372460675 25.478974104135617  -1.7010405529537613 15.975269173430448  36.201017964973566 0.48932140687973436  C 36.201017964973566 0.48932140687973436  6.399842386093824 10.24758986251447  2.9580164741668757 21.151394180332403  C 2.9580164741668757 21.151394180332403  3.0839369343593264 26.030528408149706  0.10381937647134673 31.63092595660096  L 0.10381937647134673 33.79471591850257  C 0.10381937647134673 33.79471591850257  3.2098573945517606 26.45480094969914  4.930770350515251 25.478974104135617  Z " fill-rule="evenodd" />
    </mask>
  </defs>
  <g transform="matrix(1 0 0 1 -215 -900 )">
    <path d="M 4.930770350515251 25.478974104135617  C 4.9727438372460675 25.478974104135617  -1.7010405529537613 15.975269173430448  36.201017964973566 0.48932140687973436  C 36.201017964973566 0.48932140687973436  6.399842386093824 10.24758986251447  2.9580164741668757 21.151394180332403  C 2.9580164741668757 21.151394180332403  3.0839369343593264 26.030528408149706  0.10381937647134673 31.63092595660096  L 0.10381937647134673 33.79471591850257  C 0.10381937647134673 33.79471591850257  3.2098573945517606 26.45480094969914  4.930770350515251 25.478974104135617  Z " fill-rule="nonzero" fill="rgba(130, 179, 120, 1)" stroke="none" transform="matrix(1 0 0 1 215 900 )" class="fill" />
    <path d="M 4.930770350515251 25.478974104135617  C 4.9727438372460675 25.478974104135617  -1.7010405529537613 15.975269173430448  36.201017964973566 0.48932140687973436  C 36.201017964973566 0.48932140687973436  6.399842386093824 10.24758986251447  2.9580164741668757 21.151394180332403  C 2.9580164741668757 21.151394180332403  3.0839369343593264 26.030528408149706  0.10381937647134673 31.63092595660096  L 0.10381937647134673 33.79471591850257  C 0.10381937647134673 33.79471591850257  3.2098573945517606 26.45480094969914  4.930770350515251 25.478974104135617  Z " stroke-width="0" stroke-dasharray="0" stroke="rgba(255, 255, 255, 0)" fill="none" transform="matrix(1 0 0 1 215 900 )" class="stroke" mask="url(#Clip177)" />
  </g>
</svg>