<?xml version="1.0" encoding="utf-8"?>
<svg version="1.1" xmlns:xlink="http://www.w3.org/1999/xlink" width="5px" height="18px" xmlns="http://www.w3.org/2000/svg">
  <defs>
    <pattern id="BGPattern" patternUnits="userSpaceOnUse" alignment="0 0" imageRepeat="None" />
    <mask fill="white" id="Clip436">
      <path d="M 3.5418254099718496 3.2433431340069987  C 5.67566672188174 -1.4735692396885796  3.1300314725857277 2.148345618684779  3.1300314725857277 2.148345618684779  C 3.1300314725857277 2.148345618684779  -0.987907901275463 9.139483601126408  1.370548285572312 17.688887278449563  L 2.4187510352824404 17.351964966042736  C 2.4187510352824404 17.351964966042736  1.4079840980619593 7.960255507702513  3.5418254099718496 3.2433431340069987  Z " fill-rule="evenodd" />
    </mask>
  </defs>
  <g transform="matrix(1 0 0 1 -211 -930 )">
    <path d="M 3.5418254099718496 3.2433431340069987  C 5.67566672188174 -1.4735692396885796  3.1300314725857277 2.148345618684779  3.1300314725857277 2.148345618684779  C 3.1300314725857277 2.148345618684779  -0.987907901275463 9.139483601126408  1.370548285572312 17.688887278449563  L 2.4187510352824404 17.351964966042736  C 2.4187510352824404 17.351964966042736  1.4079840980619593 7.960255507702513  3.5418254099718496 3.2433431340069987  Z " fill-rule="nonzero" fill="rgba(130, 179, 120, 1)" stroke="none" transform="matrix(1 0 0 1 211 930 )" class="fill" />
    <path d="M 3.5418254099718496 3.2433431340069987  C 5.67566672188174 -1.4735692396885796  3.1300314725857277 2.148345618684779  3.1300314725857277 2.148345618684779  C 3.1300314725857277 2.148345618684779  -0.987907901275463 9.139483601126408  1.370548285572312 17.688887278449563  L 2.4187510352824404 17.351964966042736  C 2.4187510352824404 17.351964966042736  1.4079840980619593 7.960255507702513  3.5418254099718496 3.2433431340069987  Z " stroke-width="0" stroke-dasharray="0" stroke="rgba(255, 255, 255, 0)" fill="none" transform="matrix(1 0 0 1 211 930 )" class="stroke" mask="url(#Clip436)" />
  </g>
</svg>