<?xml version="1.0" encoding="utf-8"?>
<svg version="1.1" xmlns:xlink="http://www.w3.org/1999/xlink" width="91px" height="63px" xmlns="http://www.w3.org/2000/svg">
  <defs>
    <pattern id="BGPattern" patternUnits="userSpaceOnUse" alignment="0 0" imageRepeat="None" />
    <mask fill="white" id="Clip13">
      <path d="M 69.61473621003793 42  C 80.81412746397207 42.275271243995334  90.01210659267845 51.33005838992873  90.01210659267845 62.49060998840483  L 88.77719272817613 62.49060998840483  C 88.77719272817613 52.003903014742384  80.17537891336748 43.496614626470034  69.57215297333094 43  L 42.872463558058605 43  C 37.37922602285895 43.496614626470034  32.907986168626664 39.07450927613048  32.907986168626664 33.64163698857044  C 32.907986168626664 16.079561454364693  18.47226892496257 1.8024784661255424  0.715059218154667 1.8024784661255424  L 0.715059218154667 0.5811350836508105  C 19.15360071227441 0.5811350836508105  34.185483269835984 15.405716829551135  34.185483269835984 33.68375227762131  C 34.185483269835984 38.44277994036769  38.10314104687739 42.317386533046204  42.915046794765594 42  L 69.61473621003793 42  Z " fill-rule="evenodd" />
    </mask>
  </defs>
  <g transform="matrix(1 0 0 1 -1168 -803 )">
    <path d="M 69.61473621003793 42  C 80.81412746397207 42.275271243995334  90.01210659267845 51.33005838992873  90.01210659267845 62.49060998840483  L 88.77719272817613 62.49060998840483  C 88.77719272817613 52.003903014742384  80.17537891336748 43.496614626470034  69.57215297333094 43  L 42.872463558058605 43  C 37.37922602285895 43.496614626470034  32.907986168626664 39.07450927613048  32.907986168626664 33.64163698857044  C 32.907986168626664 16.079561454364693  18.47226892496257 1.8024784661255424  0.715059218154667 1.8024784661255424  L 0.715059218154667 0.5811350836508105  C 19.15360071227441 0.5811350836508105  34.185483269835984 15.405716829551135  34.185483269835984 33.68375227762131  C 34.185483269835984 38.44277994036769  38.10314104687739 42.317386533046204  42.915046794765594 42  L 69.61473621003793 42  Z " fill-rule="nonzero" fill="rgba(43, 71, 139, 1)" stroke="none" transform="matrix(1 0 0 1 1168 803 )" class="fill" />
    <path d="M 69.61473621003793 42  C 80.81412746397207 42.275271243995334  90.01210659267845 51.33005838992873  90.01210659267845 62.49060998840483  L 88.77719272817613 62.49060998840483  C 88.77719272817613 52.003903014742384  80.17537891336748 43.496614626470034  69.57215297333094 43  L 42.872463558058605 43  C 37.37922602285895 43.496614626470034  32.907986168626664 39.07450927613048  32.907986168626664 33.64163698857044  C 32.907986168626664 16.079561454364693  18.47226892496257 1.8024784661255424  0.715059218154667 1.8024784661255424  L 0.715059218154667 0.5811350836508105  C 19.15360071227441 0.5811350836508105  34.185483269835984 15.405716829551135  34.185483269835984 33.68375227762131  C 34.185483269835984 38.44277994036769  38.10314104687739 42.317386533046204  42.915046794765594 42  L 69.61473621003793 42  Z " stroke-width="0" stroke-dasharray="0" stroke="rgba(255, 255, 255, 0)" fill="none" transform="matrix(1 0 0 1 1168 803 )" class="stroke" mask="url(#Clip13)" />
  </g>
</svg>