<?xml version="1.0" encoding="utf-8"?>
<svg version="1.1" xmlns:xlink="http://www.w3.org/1999/xlink" width="62px" height="49px" xmlns="http://www.w3.org/2000/svg">
  <defs>
    <pattern id="BGPattern" patternUnits="userSpaceOnUse" alignment="0 0" imageRepeat="None" />
    <mask fill="white" id="Clip179">
      <path d="M 49.775523664673905 42.740706928486425  C 52.47634737301789 37.112572846236034  52.47634737301789 37.112572846236034  52.47634737301789 37.112572846236034  C 52.47634737301789 37.112572846236034  66.57127110093813 29.316564895267035  59.98801331184965 18.72733484421822  C 59.98801331184965 18.72733484421822  54.712967006490274 12.223713238062194  49.05811736714502 10.556117954432445  C 49.05811736714502 10.556117954432445  52.054343668589155 26.356583266824245  49.05811736714502 26.731792205640893  C 46.061891065700905 27.1070011444576  46.990299215444146 8.888522670802757  46.990299215444146 8.888522670802757  C 46.990299215444146 8.888522670802757  32.135768819552155 1.8429325974671116  26.3121176984354 2.3849010646467326  C 26.3121176984354 2.3849010646467326  35.51179845498215 17.810157438221825  32.51557215353802 17.434948499405117  C 29.5193458520939 17.05973956058847  19.13805472314665 1.467723658650402  19.13805472314665 1.467723658650402  C 19.13805472314665 1.467723658650402  3.9037209932687755 -1.325498441429413  1.4560995075820242 7.5961363259897166  C -0.9915219781047274 16.517771093408783  2.975312843525519 20.978588477118414  5.2119324769979025 21.520556944298033  C 7.4907524809131525 22.062525411477655  21.96547954281927 21.89576588311468  21.585676208833405 23.771810577198163  C 21.20587287484753 25.64785527128165  11.415386932100532 28.60783689972444  5.9715391449696575 26.94024161609469  C 5.9715391449696575 26.94024161609469  12.006192118300786 41.61508011203636  19.897661391118405 40.864662234403006  C 27.78913066393603 40.11424435676959  30.23675214962278 35.27821803424337  35.131995120996265 34.90300909542667  C 40.02723809236977 34.52780015661002  43.61426958001414 35.82018650142306  41.16664809432741 37.1542627283268  C 38.719026608640654 38.4466490731399  30.447754001837158 37.57116154923426  26.48091918020691 40.9063521164937  C 22.514084358576664 44.2415426837532  19.349056575361033 46.2843469061996  26.649720661978414 47.74349277937568  C 33.992585119038665 49.24432853464239  47.15910069721566 48.2854612465553  49.775523664673905 42.740706928486425  Z " fill-rule="evenodd" />
    </mask>
  </defs>
  <g transform="matrix(1 0 0 1 -148 -876 )">
    <path d="M 49.775523664673905 42.740706928486425  C 52.47634737301789 37.112572846236034  52.47634737301789 37.112572846236034  52.47634737301789 37.112572846236034  C 52.47634737301789 37.112572846236034  66.57127110093813 29.316564895267035  59.98801331184965 18.72733484421822  C 59.98801331184965 18.72733484421822  54.712967006490274 12.223713238062194  49.05811736714502 10.556117954432445  C 49.05811736714502 10.556117954432445  52.054343668589155 26.356583266824245  49.05811736714502 26.731792205640893  C 46.061891065700905 27.1070011444576  46.990299215444146 8.888522670802757  46.990299215444146 8.888522670802757  C 46.990299215444146 8.888522670802757  32.135768819552155 1.8429325974671116  26.3121176984354 2.3849010646467326  C 26.3121176984354 2.3849010646467326  35.51179845498215 17.810157438221825  32.51557215353802 17.434948499405117  C 29.5193458520939 17.05973956058847  19.13805472314665 1.467723658650402  19.13805472314665 1.467723658650402  C 19.13805472314665 1.467723658650402  3.9037209932687755 -1.325498441429413  1.4560995075820242 7.5961363259897166  C -0.9915219781047274 16.517771093408783  2.975312843525519 20.978588477118414  5.2119324769979025 21.520556944298033  C 7.4907524809131525 22.062525411477655  21.96547954281927 21.89576588311468  21.585676208833405 23.771810577198163  C 21.20587287484753 25.64785527128165  11.415386932100532 28.60783689972444  5.9715391449696575 26.94024161609469  C 5.9715391449696575 26.94024161609469  12.006192118300786 41.61508011203636  19.897661391118405 40.864662234403006  C 27.78913066393603 40.11424435676959  30.23675214962278 35.27821803424337  35.131995120996265 34.90300909542667  C 40.02723809236977 34.52780015661002  43.61426958001414 35.82018650142306  41.16664809432741 37.1542627283268  C 38.719026608640654 38.4466490731399  30.447754001837158 37.57116154923426  26.48091918020691 40.9063521164937  C 22.514084358576664 44.2415426837532  19.349056575361033 46.2843469061996  26.649720661978414 47.74349277937568  C 33.992585119038665 49.24432853464239  47.15910069721566 48.2854612465553  49.775523664673905 42.740706928486425  Z " fill-rule="nonzero" fill="rgba(168, 210, 159, 1)" stroke="none" transform="matrix(1 0 0 1 148 876 )" class="fill" />
    <path d="M 49.775523664673905 42.740706928486425  C 52.47634737301789 37.112572846236034  52.47634737301789 37.112572846236034  52.47634737301789 37.112572846236034  C 52.47634737301789 37.112572846236034  66.57127110093813 29.316564895267035  59.98801331184965 18.72733484421822  C 59.98801331184965 18.72733484421822  54.712967006490274 12.223713238062194  49.05811736714502 10.556117954432445  C 49.05811736714502 10.556117954432445  52.054343668589155 26.356583266824245  49.05811736714502 26.731792205640893  C 46.061891065700905 27.1070011444576  46.990299215444146 8.888522670802757  46.990299215444146 8.888522670802757  C 46.990299215444146 8.888522670802757  32.135768819552155 1.8429325974671116  26.3121176984354 2.3849010646467326  C 26.3121176984354 2.3849010646467326  35.51179845498215 17.810157438221825  32.51557215353802 17.434948499405117  C 29.5193458520939 17.05973956058847  19.13805472314665 1.467723658650402  19.13805472314665 1.467723658650402  C 19.13805472314665 1.467723658650402  3.9037209932687755 -1.325498441429413  1.4560995075820242 7.5961363259897166  C -0.9915219781047274 16.517771093408783  2.975312843525519 20.978588477118414  5.2119324769979025 21.520556944298033  C 7.4907524809131525 22.062525411477655  21.96547954281927 21.89576588311468  21.585676208833405 23.771810577198163  C 21.20587287484753 25.64785527128165  11.415386932100532 28.60783689972444  5.9715391449696575 26.94024161609469  C 5.9715391449696575 26.94024161609469  12.006192118300786 41.61508011203636  19.897661391118405 40.864662234403006  C 27.78913066393603 40.11424435676959  30.23675214962278 35.27821803424337  35.131995120996265 34.90300909542667  C 40.02723809236977 34.52780015661002  43.61426958001414 35.82018650142306  41.16664809432741 37.1542627283268  C 38.719026608640654 38.4466490731399  30.447754001837158 37.57116154923426  26.48091918020691 40.9063521164937  C 22.514084358576664 44.2415426837532  19.349056575361033 46.2843469061996  26.649720661978414 47.74349277937568  C 33.992585119038665 49.24432853464239  47.15910069721566 48.2854612465553  49.775523664673905 42.740706928486425  Z " stroke-width="0" stroke-dasharray="0" stroke="rgba(255, 255, 255, 0)" fill="none" transform="matrix(1 0 0 1 148 876 )" class="stroke" mask="url(#Clip179)" />
  </g>
</svg>