<?xml version="1.0" encoding="utf-8"?>
<svg version="1.1" xmlns:xlink="http://www.w3.org/1999/xlink" width="48px" height="45px" xmlns="http://www.w3.org/2000/svg">
  <defs>
    <pattern id="BGPattern" patternUnits="userSpaceOnUse" alignment="0 0" imageRepeat="None" />
    <mask fill="white" id="Clip180">
      <path d="M 41.51792627633469 33.00972130197126  C 41.559715090276626 33.00972130197113  50.293577204140355 20.627826321020336  0.564888613241602 0.32825699850916834  C 0.564888613241602 0.32825699850916834  39.6792184628897 13.089189580917662  44.15062155467638 27.36627256915688  C 44.15062155467638 27.36627256915688  43.98346629890865 33.76779650488659  47.869825995508315 41.09585679973498  L 47.869825995508315 43.917581166142206  C 47.869825995508315 43.917581166142206  43.77452222919899 34.357410551598505  41.51792627633469 33.00972130197126  Z " fill-rule="evenodd" />
    </mask>
  </defs>
  <g transform="matrix(1 0 0 1 -156 -885 )">
    <path d="M 41.51792627633469 33.00972130197126  C 41.559715090276626 33.00972130197113  50.293577204140355 20.627826321020336  0.564888613241602 0.32825699850916834  C 0.564888613241602 0.32825699850916834  39.6792184628897 13.089189580917662  44.15062155467638 27.36627256915688  C 44.15062155467638 27.36627256915688  43.98346629890865 33.76779650488659  47.869825995508315 41.09585679973498  L 47.869825995508315 43.917581166142206  C 47.869825995508315 43.917581166142206  43.77452222919899 34.357410551598505  41.51792627633469 33.00972130197126  Z " fill-rule="nonzero" fill="rgba(130, 179, 120, 1)" stroke="none" transform="matrix(1 0 0 1 156 885 )" class="fill" />
    <path d="M 41.51792627633469 33.00972130197126  C 41.559715090276626 33.00972130197113  50.293577204140355 20.627826321020336  0.564888613241602 0.32825699850916834  C 0.564888613241602 0.32825699850916834  39.6792184628897 13.089189580917662  44.15062155467638 27.36627256915688  C 44.15062155467638 27.36627256915688  43.98346629890865 33.76779650488659  47.869825995508315 41.09585679973498  L 47.869825995508315 43.917581166142206  C 47.869825995508315 43.917581166142206  43.77452222919899 34.357410551598505  41.51792627633469 33.00972130197126  Z " stroke-width="0" stroke-dasharray="0" stroke="rgba(255, 255, 255, 0)" fill="none" transform="matrix(1 0 0 1 156 885 )" class="stroke" mask="url(#Clip180)" />
  </g>
</svg>