<?xml version="1.0" encoding="utf-8"?>
<svg version="1.1" xmlns:xlink="http://www.w3.org/1999/xlink" width="6px" height="23px" xmlns="http://www.w3.org/2000/svg">
  <defs>
    <pattern id="BGPattern" patternUnits="userSpaceOnUse" alignment="0 0" imageRepeat="None" />
    <mask fill="white" id="Clip439">
      <path d="M 1.359284412787801 4.164607933615712  C -1.4858373364253765 -1.9035590051823168  1.8833857876428652 2.7705695828107757  1.8833857876428652 2.7705695828107757  C 1.8833857876428652 2.7705695828107757  7.274142786152055 11.749816607113278  4.2044061620009785 22.697117773728674  L 2.819281099884037 22.287106494080124  C 2.819281099884037 22.287106494080124  4.166970349511345 10.23277487241374  1.359284412787801 4.164607933615712  Z " fill-rule="evenodd" />
    </mask>
  </defs>
  <g transform="matrix(1 0 0 1 -202 -924 )">
    <path d="M 1.359284412787801 4.164607933615712  C -1.4858373364253765 -1.9035590051823168  1.8833857876428652 2.7705695828107757  1.8833857876428652 2.7705695828107757  C 1.8833857876428652 2.7705695828107757  7.274142786152055 11.749816607113278  4.2044061620009785 22.697117773728674  L 2.819281099884037 22.287106494080124  C 2.819281099884037 22.287106494080124  4.166970349511345 10.23277487241374  1.359284412787801 4.164607933615712  Z " fill-rule="nonzero" fill="rgba(130, 179, 120, 1)" stroke="none" transform="matrix(1 0 0 1 202 924 )" class="fill" />
    <path d="M 1.359284412787801 4.164607933615712  C -1.4858373364253765 -1.9035590051823168  1.8833857876428652 2.7705695828107757  1.8833857876428652 2.7705695828107757  C 1.8833857876428652 2.7705695828107757  7.274142786152055 11.749816607113278  4.2044061620009785 22.697117773728674  L 2.819281099884037 22.287106494080124  C 2.819281099884037 22.287106494080124  4.166970349511345 10.23277487241374  1.359284412787801 4.164607933615712  Z " stroke-width="0" stroke-dasharray="0" stroke="rgba(255, 255, 255, 0)" fill="none" transform="matrix(1 0 0 1 202 924 )" class="stroke" mask="url(#Clip439)" />
  </g>
</svg>