<?xml version="1.0" encoding="utf-8"?>
<svg version="1.1" xmlns:xlink="http://www.w3.org/1999/xlink" width="56px" height="29px" xmlns="http://www.w3.org/2000/svg">
  <defs>
    <pattern id="BGPattern" patternUnits="userSpaceOnUse" alignment="0 0" imageRepeat="None" />
    <mask fill="white" id="Clip440">
      <path d="M 55.421911545469605 1  C 55.46383965545799 16.095109007275642  43.136975318866995 28.329420496680694  27.95899950306444 28.329420496680694  C 12.781023687261891 28.329420496680694  0.49608746065927223 16.095109007275642  0.49608746065927223 1  L 55.421911545469605 1  Z " fill-rule="evenodd" />
    </mask>
  </defs>
  <g transform="matrix(1 0 0 1 -173 -943 )">
    <path d="M 55.421911545469605 1  C 55.46383965545799 16.095109007275642  43.136975318866995 28.329420496680694  27.95899950306444 28.329420496680694  C 12.781023687261891 28.329420496680694  0.49608746065927223 16.095109007275642  0.49608746065927223 1  L 55.421911545469605 1  Z " fill-rule="nonzero" fill="rgba(237, 130, 58, 1)" stroke="none" transform="matrix(1 0 0 1 173 943 )" class="fill" />
    <path d="M 55.421911545469605 1  C 55.46383965545799 16.095109007275642  43.136975318866995 28.329420496680694  27.95899950306444 28.329420496680694  C 12.781023687261891 28.329420496680694  0.49608746065927223 16.095109007275642  0.49608746065927223 1  L 55.421911545469605 1  Z " stroke-width="0" stroke-dasharray="0" stroke="rgba(255, 255, 255, 0)" fill="none" transform="matrix(1 0 0 1 173 943 )" class="stroke" mask="url(#Clip440)" />
  </g>
</svg>