<?xml version="1.0" encoding="utf-8"?>
<svg version="1.1" xmlns:xlink="http://www.w3.org/1999/xlink" width="33px" height="29px" xmlns="http://www.w3.org/2000/svg">
  <defs>
    <pattern id="BGPattern" patternUnits="userSpaceOnUse" alignment="0 0" imageRepeat="None" />
    <mask fill="white" id="Clip441">
      <path d="M 25.47480193976224 0.9796797951096236  C 25.51740131259532 14.925959786445112  14.867558104333611 26.45043067748882  1.0653613064264489 28.1206438501038  C 2.2155443729187208 28.245909838049915  3.365727439410976 28.329420496680694  4.515910505903247 28.329420496680694  C 19.936883471466185 28.329420496680694  32.41849971154887 16.095109007275642  32.41849971154887 0.9796797951096236  L 25.47480193976224 0.9796797951096236  Z " fill-rule="evenodd" />
    </mask>
  </defs>
  <g transform="matrix(1 0 0 1 -194 -943 )">
    <path d="M 25.47480193976224 0.9796797951096236  C 25.51740131259532 14.925959786445112  14.867558104333611 26.45043067748882  1.0653613064264489 28.1206438501038  C 2.2155443729187208 28.245909838049915  3.365727439410976 28.329420496680694  4.515910505903247 28.329420496680694  C 19.936883471466185 28.329420496680694  32.41849971154887 16.095109007275642  32.41849971154887 0.9796797951096236  L 25.47480193976224 0.9796797951096236  Z " fill-rule="nonzero" fill="rgba(255, 158, 85, 1)" stroke="none" transform="matrix(1 0 0 1 194 943 )" class="fill" />
    <path d="M 25.47480193976224 0.9796797951096236  C 25.51740131259532 14.925959786445112  14.867558104333611 26.45043067748882  1.0653613064264489 28.1206438501038  C 2.2155443729187208 28.245909838049915  3.365727439410976 28.329420496680694  4.515910505903247 28.329420496680694  C 19.936883471466185 28.329420496680694  32.41849971154887 16.095109007275642  32.41849971154887 0.9796797951096236  L 25.47480193976224 0.9796797951096236  Z " stroke-width="0" stroke-dasharray="0" stroke="rgba(255, 255, 255, 0)" fill="none" transform="matrix(1 0 0 1 194 943 )" class="stroke" mask="url(#Clip441)" />
  </g>
</svg>