<?xml version="1.0" encoding="utf-8"?>
<svg version="1.1" xmlns:xlink="http://www.w3.org/1999/xlink" width="56px" height="4px" xmlns="http://www.w3.org/2000/svg">
  <defs>
    <pattern id="BGPattern" patternUnits="userSpaceOnUse" alignment="0 0" imageRepeat="None" />
    <mask fill="white" id="Clip442">
      <path d="M 0.11873447076362595 3.6341726022859007  L 55.79926453536526 3.6341726022859007  C 55.79926453536526 1.9495610402517514  54.289852575782675 0.6018717906245001  52.40308762630446 0.6018717906245001  L 3.5149113798244187 0.6018717906245001  C 1.6281464303461952 0.6018717906245001  0.11873447076362595 1.9869968527414699  0.11873447076362595 3.6341726022859007  Z " fill-rule="evenodd" />
    </mask>
  </defs>
  <g transform="matrix(1 0 0 1 -173 -970 )">
    <path d="M 0.11873447076362595 3.6341726022859007  L 55.79926453536526 3.6341726022859007  C 55.79926453536526 1.9495610402517514  54.289852575782675 0.6018717906245001  52.40308762630446 0.6018717906245001  L 3.5149113798244187 0.6018717906245001  C 1.6281464303461952 0.6018717906245001  0.11873447076362595 1.9869968527414699  0.11873447076362595 3.6341726022859007  Z " fill-rule="nonzero" fill="rgba(237, 130, 58, 1)" stroke="none" transform="matrix(1 0 0 1 173 970 )" class="fill" />
    <path d="M 0.11873447076362595 3.6341726022859007  L 55.79926453536526 3.6341726022859007  C 55.79926453536526 1.9495610402517514  54.289852575782675 0.6018717906245001  52.40308762630446 0.6018717906245001  L 3.5149113798244187 0.6018717906245001  C 1.6281464303461952 0.6018717906245001  0.11873447076362595 1.9869968527414699  0.11873447076362595 3.6341726022859007  Z " stroke-width="0" stroke-dasharray="0" stroke="rgba(255, 255, 255, 0)" fill="none" transform="matrix(1 0 0 1 173 970 )" class="stroke" mask="url(#Clip442)" />
  </g>
</svg>