<?xml version="1.0" encoding="utf-8"?>
<svg version="1.1" xmlns:xlink="http://www.w3.org/1999/xlink" width="704px" height="85px" xmlns="http://www.w3.org/2000/svg">
  <defs>
    <pattern id="BGPattern" patternUnits="userSpaceOnUse" alignment="0 0" imageRepeat="None" />
    <mask fill="white" id="Clip443">
      <path d="M 702.9256962257771 42.16328801339107  C 702.9256962257771 65.31684546175772  684.0647445121431 84.07415782499147  660.7832572406262 84  L 42.876586925884595 84  C 19.595099654367793 84.07415782499147  0.7341479407339171 65.31684546175778  0.7341479407339171 42.16328801339107  C 0.7341479407339171 19.00973056502449  19.595099654367793 0.25241820179067453  42.876586925884595 1  L 660.7832572406262 1  C 684.0647445121433 0.25241820179067453  702.9256962257771 19.009730565024427  702.9256962257771 42.16328801339107  Z " fill-rule="evenodd" />
    </mask>
  </defs>
  <g transform="matrix(1 0 0 1 -618 -856 )">
    <path d="M 702.9256962257771 42.16328801339107  C 702.9256962257771 65.31684546175772  684.0647445121431 84.07415782499147  660.7832572406262 84  L 42.876586925884595 84  C 19.595099654367793 84.07415782499147  0.7341479407339171 65.31684546175778  0.7341479407339171 42.16328801339107  C 0.7341479407339171 19.00973056502449  19.595099654367793 0.25241820179067453  42.876586925884595 1  L 660.7832572406262 1  C 684.0647445121433 0.25241820179067453  702.9256962257771 19.009730565024427  702.9256962257771 42.16328801339107  Z " fill-rule="nonzero" fill="rgba(138, 168, 237, 1)" stroke="none" transform="matrix(1 0 0 1 618 856 )" class="fill" />
    <path d="M 702.9256962257771 42.16328801339107  C 702.9256962257771 65.31684546175772  684.0647445121431 84.07415782499147  660.7832572406262 84  L 42.876586925884595 84  C 19.595099654367793 84.07415782499147  0.7341479407339171 65.31684546175778  0.7341479407339171 42.16328801339107  C 0.7341479407339171 19.00973056502449  19.595099654367793 0.25241820179067453  42.876586925884595 1  L 660.7832572406262 1  C 684.0647445121433 0.25241820179067453  702.9256962257771 19.009730565024427  702.9256962257771 42.16328801339107  Z " stroke-width="0" stroke-dasharray="0" stroke="rgba(255, 255, 255, 0)" fill="none" transform="matrix(1 0 0 1 618 856 )" class="stroke" mask="url(#Clip443)" />
  </g>
</svg>