<?xml version="1.0" encoding="utf-8"?>
<svg version="1.1" xmlns:xlink="http://www.w3.org/1999/xlink" width="27px" height="171px" xmlns="http://www.w3.org/2000/svg">
  <defs>
    <pattern id="BGPattern" patternUnits="userSpaceOnUse" alignment="0 0" imageRepeat="None" />
    <mask fill="white" id="Clip272">
      <path d="M 27 156.10828752494277  C 26.99869554414441 164.2903677871668  20.38659516316035 170.94625691239563  12.258344376345889 170.94625691239563  L 10.657963392413365 170.94625691239563  L 10.657963392413365 169.71682516314957  L 12.258344376345889 169.71682516314957  C 19.712750538346825 169.71682516314957  25.77735216166971 163.61206061516896  25.77735216166971 156.10828752494277  L 25.77735216166971 15.105184145890648  C 25.77735216166971 7.601411055664485  19.712750538346825 1.4966465076838713  12.258344376345889 2  L 0.2976022859035936 2  L 0.2976022859035936 1  L 12.258344376345889 1  C 20.386595163160607 0.2672147584377754  26.99869554414441 6.923103883666625  27 15.105184145890648  L 27 156.10828752494277  Z " fill-rule="evenodd" />
    </mask>
  </defs>
  <g transform="matrix(1 0 0 1 -1160 -594 )">
    <path d="M 27 156.10828752494277  C 26.99869554414441 164.2903677871668  20.38659516316035 170.94625691239563  12.258344376345889 170.94625691239563  L 10.657963392413365 170.94625691239563  L 10.657963392413365 169.71682516314957  L 12.258344376345889 169.71682516314957  C 19.712750538346825 169.71682516314957  25.77735216166971 163.61206061516896  25.77735216166971 156.10828752494277  L 25.77735216166971 15.105184145890648  C 25.77735216166971 7.601411055664485  19.712750538346825 1.4966465076838713  12.258344376345889 2  L 0.2976022859035936 2  L 0.2976022859035936 1  L 12.258344376345889 1  C 20.386595163160607 0.2672147584377754  26.99869554414441 6.923103883666625  27 15.105184145890648  L 27 156.10828752494277  Z " fill-rule="nonzero" fill="rgba(43, 71, 139, 1)" stroke="none" transform="matrix(1 0 0 1 1160 594 )" class="fill" />
    <path d="M 27 156.10828752494277  C 26.99869554414441 164.2903677871668  20.38659516316035 170.94625691239563  12.258344376345889 170.94625691239563  L 10.657963392413365 170.94625691239563  L 10.657963392413365 169.71682516314957  L 12.258344376345889 169.71682516314957  C 19.712750538346825 169.71682516314957  25.77735216166971 163.61206061516896  25.77735216166971 156.10828752494277  L 25.77735216166971 15.105184145890648  C 25.77735216166971 7.601411055664485  19.712750538346825 1.4966465076838713  12.258344376345889 2  L 0.2976022859035936 2  L 0.2976022859035936 1  L 12.258344376345889 1  C 20.386595163160607 0.2672147584377754  26.99869554414441 6.923103883666625  27 15.105184145890648  L 27 156.10828752494277  Z " stroke-width="0" stroke-dasharray="0" stroke="rgba(255, 255, 255, 0)" fill="none" transform="matrix(1 0 0 1 1160 594 )" class="stroke" mask="url(#Clip272)" />
  </g>
</svg>