<?xml version="1.0" encoding="utf-8"?>
<svg version="1.1" xmlns:xlink="http://www.w3.org/1999/xlink" width="49px" height="48px" xmlns="http://www.w3.org/2000/svg">
  <defs>
    <pattern id="BGPattern" patternUnits="userSpaceOnUse" alignment="0 0" imageRepeat="None" />
    <mask fill="white" id="Clip444">
      <path d="M 48.285922417817176 27.517101902608225  C 48.45268194618034 27.141002577130884  48.24423253572667 26.597747995885815  47.74395395063768 26.34701511223419  L 43.40820621320033 24.341152043021516  C 43.03299727438362 24.17399678725379  42.82454786392982 23.79789746177645  42.78285798183919 23.42179813629898  C 42.78285798183919 22.920332368995798  42.741168099748435 22.418866601692677  42.69947821765767 21.87561202044748  C 42.616098453476155 20.914469299783125  42.40764904302248 19.995115393060587  42.199199632568686 19.07576148633805  C 42.07412998629653 18.657873346918763  42.24088951465944 18.19819639355746  42.57440857138539 17.9474635099059  L 46.53494737000604 14.896880092144912  C 46.9518461909135 14.562569580609454  47.07691583718578 13.977526185422374  46.78508666255046 13.517849232061137  L 44.325383619196664 9.631489535461506  C 44.03355444456135 9.213601396042217  43.491585977381725 9.04644614027449  43.03299727438362 9.255390209984165  L 38.90569894739994 11.303042093138787  C 38.48880012649248 11.511986162848464  38.03021142349437 11.428408534964568  37.696692366768296 11.094098023429112  C 36.3626161398645 9.673278349403454  34.778400620416264 8.503191559029357  33.027425572605125 7.583837652306885  C 32.610526751697655 7.374893582597208  32.40207734124385 6.873427815294024  32.485457105425375 6.413750861932787  L 33.15249521887728 3.6974779557072526  C 33.27756486514956 3.1960121884040684  32.98573569051423 2.652757607158936  32.485457105425375 2.4438135374493233  L 28.233089132169546 0.8976274215978222  C 28.149709367988027 0.8558386076558743  28.06632960380651 0.8558386076558743  27.982949839625114 0.8558386076558743  C 27.56605101871777 0.8140497937139264  27.149152197810302 1.0647826773655504  26.940702787356503 1.440882002842891  L 25.43986703208979 4.700409490313558  L 25.064658093273085 5.4943969552102505  C 24.23086045145827 5.4526081412683025  23.355372927552636 5.4943969552102505  22.479885403647003 5.5779745830941465  C 21.312568705106177 5.703341024919927  20.18694188865611 5.9540739085714876  19.103004954296807 6.24659560616506  C 18.6861061333894 6.37196204799084  18.227517430391234 6.24659560616506  17.977378137846742 5.870496280687655  L 15.517675094492812 2.652757607158936  C 15.184156037766925 2.2348694677395837  14.55880780640572 2.1095030259138037  14.100219103407493 2.4020247235073118  L 11.140237474964767 4.282521350894269  L 10.306439833149891 4.825775932139338  C 9.847851130151726 5.118297629732846  9.68109160178875 5.703341024919927  9.931230894333181 6.204806792223048  L 11.640516060053628 9.673278349403391  C 11.848965470507299 10.09116648882268  11.765585706325844 10.550843442183979  11.47375653169059 10.843365139777424  C 10.556579125694196 11.76271904649996  9.72278148387932 12.807439395048277  9.014053488336724 13.93573737148036  C 8.930673724155206 14.019314999364259  8.888983842064508 14.10289262724809  8.847293959973687 14.228259069073935  C 8.847293959973687 14.270047883015884  8.80560407788299 14.270047883015884  8.763914195792166 14.31183669695783  C 8.513774903247736 14.646147208493224  8.09687608234033 14.813302464261014  7.67997726143286 14.68793602243517  L 3.2608497598141186 13.60142685994497  C 3.2191598777234227 13.60142685994497  3.1774699956326 13.60142685994497  3.09409023145108 13.559638046003021  C 2.6355015284529784 13.517849232061074  2.1769128254547496 13.810370929654582  2.010153297091838 14.228259069073935  L 0.4676276597343034 18.49071809115097  C 0.30086813137126517 18.992183858454155  0.5093175418249998 19.577227253641233  1.0095961269139246 19.827960137292795  L 5.553793274805009 21.91740083438943  C 5.929002213621718 22.084556090157093  6.179141506166149 22.502444229576447  6.137451624075453 22.920332368995734  C 6.095761741984757 23.83968627571827  6.137451624075453 24.80082899638269  6.220831388256973 25.761971717047114  C 6.262521270347669 26.2634374843503  6.345901034529187 26.76490325165342  6.429280798710707 27.266369018956667  C 6.5126605628921626 27.684257158375953  6.345901034529187 28.06035648385336  6.012381977803238 28.31108936750492  L 2.1769128254548127 31.236306343440127  C 1.760014004547407 31.570616854975583  1.6349443582751917 32.15566025016267  1.9267735329103821 32.6153372035239  L 4.344786694173488 36.45990808618165  C 4.636615868808741 36.91958503954288  5.220274218079059 37.08674029531062  5.720552803168047 36.83600741165899  L 9.014053488336788 35.20624366792366  C 9.472642191334952 34.99729959821404  9.972920776423878 35.12266604003976  10.306439833149827 35.45697655157528  C 11.515446413781412 36.91958503954288  12.974592286957428 38.21503827174276  14.558807806405659 39.21796980634913  C 14.934016745222369 39.468702690000754  15.142466155676104 39.92837964336199  15.017396509403762 40.34626778278128  L 14.058529221316732 44.357993921206756  C 13.933459575044518 44.90124850245182  14.22528874967971 45.44450308369702  14.72556733476857 45.61165833946469  L 18.9779353080244 47.15784445531619  C 19.478213893113328 47.32499971108392  20.061872242383707 47.11605564137424  20.270321652837442 46.61458987407112  L 20.35370141701896 46.40564580436144  L 22.104676464830167 42.64465254958759  C 22.271435993193204 42.2267644101683  22.68833481410061 42.01782034045863  23.146923517098777 42.01782034045863  C 24.230860451458017 42.101397968342525  25.31479738581739 42.059609154400576  26.398734320176754 41.93424271257473  C 26.982392669447137 41.85066508469083  27.56605101871752 41.767087456807  28.149709367988027 41.64172101498122  C 28.524918306804732 41.558143387097324  28.941817127712078 41.725298642865056  29.19195642025651 42.01782034045856  L 31.651659463610436 45.27734782792923  C 31.985178520336387 45.737024781290465  32.61052675169753 45.8206024091743  33.069115454695755 45.528080711580856  L 36.86289472495336 43.10432950294883  C 36.98796437122564 43.02075187506493  37.07134413540716 42.9371742471811  37.154723899588674 42.8535966192972  C 37.40486319213298 42.56107492170369  37.446553074223864 42.101397968342454  37.27979354586083 41.725298642865056  L 35.904027436866265 38.96723692269751  C 35.737267908503355 38.63292641116212  35.77895779059411 38.21503827174276  35.98740720104779 37.922516574149256  C 36.029097083138545 37.83893894626536  36.11247684732007 37.755361318381524  36.19585661150158 37.713572504439576  C 38.071901305585 36.12559757464619  39.61442694294247 34.203312133317354  40.74005375939261 32.03029380833682  C 40.90681328775564 31.65419448285948  41.323712108663116 31.445250413149807  41.74061092957045 31.48703922709175  C 41.782300811661216 31.48703922709175  41.86568057584273 31.48703922709175  41.907370457933496 31.528828041033698  L 45.49270031773742 32.40639313381429  C 45.99297890282629 32.531759575640066  46.53494737000604 32.23923787804656  46.743396780459705 31.737772110743375  L 46.78508666255046 31.65419448285948  L 48.285922417817176 27.517101902608225  Z M 26.60718373063068 33.5346911102465  C 19.853422831930352 35.039088412156055  13.516560754137364 29.314020902111416  14.683877452678127 22.042767276215272  C 14.808947098950341 21.33235743920241  15.017396509404076 20.580158788247665  15.267535801948572 19.827960137292923  C 15.809504269128254 18.407140463267265  17.26865014230427 16.526643835880307  18.561036487117374 15.732656370983616  C 18.68610613338959 15.64907874309972  18.852865661752567 15.565501115215886  18.97793530802478 15.48192348733199  C 27.440981372445748 10.509054628242158  36.98796437122601 18.32356283538337  33.61108392187576 27.72604597231803  C 33.152495218877526 28.93792157663401  32.06855828451816 30.44231887854356  30.942931468068032 31.445250413149928  C 30.692792175523728 31.654194482859545  30.400963000888407 31.86313855256922  30.150823708343978 32.03029380833695  C 28.983507009803088 32.78249245929169  27.77450042917157 33.242169412652935  26.60718373063068 33.5346911102465  Z " fill-rule="evenodd" />
    </mask>
  </defs>
  <g transform="matrix(1 0 0 1 -656 -869 )">
    <path d="M 48.285922417817176 27.517101902608225  C 48.45268194618034 27.141002577130884  48.24423253572667 26.597747995885815  47.74395395063768 26.34701511223419  L 43.40820621320033 24.341152043021516  C 43.03299727438362 24.17399678725379  42.82454786392982 23.79789746177645  42.78285798183919 23.42179813629898  C 42.78285798183919 22.920332368995798  42.741168099748435 22.418866601692677  42.69947821765767 21.87561202044748  C 42.616098453476155 20.914469299783125  42.40764904302248 19.995115393060587  42.199199632568686 19.07576148633805  C 42.07412998629653 18.657873346918763  42.24088951465944 18.19819639355746  42.57440857138539 17.9474635099059  L 46.53494737000604 14.896880092144912  C 46.9518461909135 14.562569580609454  47.07691583718578 13.977526185422374  46.78508666255046 13.517849232061137  L 44.325383619196664 9.631489535461506  C 44.03355444456135 9.213601396042217  43.491585977381725 9.04644614027449  43.03299727438362 9.255390209984165  L 38.90569894739994 11.303042093138787  C 38.48880012649248 11.511986162848464  38.03021142349437 11.428408534964568  37.696692366768296 11.094098023429112  C 36.3626161398645 9.673278349403454  34.778400620416264 8.503191559029357  33.027425572605125 7.583837652306885  C 32.610526751697655 7.374893582597208  32.40207734124385 6.873427815294024  32.485457105425375 6.413750861932787  L 33.15249521887728 3.6974779557072526  C 33.27756486514956 3.1960121884040684  32.98573569051423 2.652757607158936  32.485457105425375 2.4438135374493233  L 28.233089132169546 0.8976274215978222  C 28.149709367988027 0.8558386076558743  28.06632960380651 0.8558386076558743  27.982949839625114 0.8558386076558743  C 27.56605101871777 0.8140497937139264  27.149152197810302 1.0647826773655504  26.940702787356503 1.440882002842891  L 25.43986703208979 4.700409490313558  L 25.064658093273085 5.4943969552102505  C 24.23086045145827 5.4526081412683025  23.355372927552636 5.4943969552102505  22.479885403647003 5.5779745830941465  C 21.312568705106177 5.703341024919927  20.18694188865611 5.9540739085714876  19.103004954296807 6.24659560616506  C 18.6861061333894 6.37196204799084  18.227517430391234 6.24659560616506  17.977378137846742 5.870496280687655  L 15.517675094492812 2.652757607158936  C 15.184156037766925 2.2348694677395837  14.55880780640572 2.1095030259138037  14.100219103407493 2.4020247235073118  L 11.140237474964767 4.282521350894269  L 10.306439833149891 4.825775932139338  C 9.847851130151726 5.118297629732846  9.68109160178875 5.703341024919927  9.931230894333181 6.204806792223048  L 11.640516060053628 9.673278349403391  C 11.848965470507299 10.09116648882268  11.765585706325844 10.550843442183979  11.47375653169059 10.843365139777424  C 10.556579125694196 11.76271904649996  9.72278148387932 12.807439395048277  9.014053488336724 13.93573737148036  C 8.930673724155206 14.019314999364259  8.888983842064508 14.10289262724809  8.847293959973687 14.228259069073935  C 8.847293959973687 14.270047883015884  8.80560407788299 14.270047883015884  8.763914195792166 14.31183669695783  C 8.513774903247736 14.646147208493224  8.09687608234033 14.813302464261014  7.67997726143286 14.68793602243517  L 3.2608497598141186 13.60142685994497  C 3.2191598777234227 13.60142685994497  3.1774699956326 13.60142685994497  3.09409023145108 13.559638046003021  C 2.6355015284529784 13.517849232061074  2.1769128254547496 13.810370929654582  2.010153297091838 14.228259069073935  L 0.4676276597343034 18.49071809115097  C 0.30086813137126517 18.992183858454155  0.5093175418249998 19.577227253641233  1.0095961269139246 19.827960137292795  L 5.553793274805009 21.91740083438943  C 5.929002213621718 22.084556090157093  6.179141506166149 22.502444229576447  6.137451624075453 22.920332368995734  C 6.095761741984757 23.83968627571827  6.137451624075453 24.80082899638269  6.220831388256973 25.761971717047114  C 6.262521270347669 26.2634374843503  6.345901034529187 26.76490325165342  6.429280798710707 27.266369018956667  C 6.5126605628921626 27.684257158375953  6.345901034529187 28.06035648385336  6.012381977803238 28.31108936750492  L 2.1769128254548127 31.236306343440127  C 1.760014004547407 31.570616854975583  1.6349443582751917 32.15566025016267  1.9267735329103821 32.6153372035239  L 4.344786694173488 36.45990808618165  C 4.636615868808741 36.91958503954288  5.220274218079059 37.08674029531062  5.720552803168047 36.83600741165899  L 9.014053488336788 35.20624366792366  C 9.472642191334952 34.99729959821404  9.972920776423878 35.12266604003976  10.306439833149827 35.45697655157528  C 11.515446413781412 36.91958503954288  12.974592286957428 38.21503827174276  14.558807806405659 39.21796980634913  C 14.934016745222369 39.468702690000754  15.142466155676104 39.92837964336199  15.017396509403762 40.34626778278128  L 14.058529221316732 44.357993921206756  C 13.933459575044518 44.90124850245182  14.22528874967971 45.44450308369702  14.72556733476857 45.61165833946469  L 18.9779353080244 47.15784445531619  C 19.478213893113328 47.32499971108392  20.061872242383707 47.11605564137424  20.270321652837442 46.61458987407112  L 20.35370141701896 46.40564580436144  L 22.104676464830167 42.64465254958759  C 22.271435993193204 42.2267644101683  22.68833481410061 42.01782034045863  23.146923517098777 42.01782034045863  C 24.230860451458017 42.101397968342525  25.31479738581739 42.059609154400576  26.398734320176754 41.93424271257473  C 26.982392669447137 41.85066508469083  27.56605101871752 41.767087456807  28.149709367988027 41.64172101498122  C 28.524918306804732 41.558143387097324  28.941817127712078 41.725298642865056  29.19195642025651 42.01782034045856  L 31.651659463610436 45.27734782792923  C 31.985178520336387 45.737024781290465  32.61052675169753 45.8206024091743  33.069115454695755 45.528080711580856  L 36.86289472495336 43.10432950294883  C 36.98796437122564 43.02075187506493  37.07134413540716 42.9371742471811  37.154723899588674 42.8535966192972  C 37.40486319213298 42.56107492170369  37.446553074223864 42.101397968342454  37.27979354586083 41.725298642865056  L 35.904027436866265 38.96723692269751  C 35.737267908503355 38.63292641116212  35.77895779059411 38.21503827174276  35.98740720104779 37.922516574149256  C 36.029097083138545 37.83893894626536  36.11247684732007 37.755361318381524  36.19585661150158 37.713572504439576  C 38.071901305585 36.12559757464619  39.61442694294247 34.203312133317354  40.74005375939261 32.03029380833682  C 40.90681328775564 31.65419448285948  41.323712108663116 31.445250413149807  41.74061092957045 31.48703922709175  C 41.782300811661216 31.48703922709175  41.86568057584273 31.48703922709175  41.907370457933496 31.528828041033698  L 45.49270031773742 32.40639313381429  C 45.99297890282629 32.531759575640066  46.53494737000604 32.23923787804656  46.743396780459705 31.737772110743375  L 46.78508666255046 31.65419448285948  L 48.285922417817176 27.517101902608225  Z M 26.60718373063068 33.5346911102465  C 19.853422831930352 35.039088412156055  13.516560754137364 29.314020902111416  14.683877452678127 22.042767276215272  C 14.808947098950341 21.33235743920241  15.017396509404076 20.580158788247665  15.267535801948572 19.827960137292923  C 15.809504269128254 18.407140463267265  17.26865014230427 16.526643835880307  18.561036487117374 15.732656370983616  C 18.68610613338959 15.64907874309972  18.852865661752567 15.565501115215886  18.97793530802478 15.48192348733199  C 27.440981372445748 10.509054628242158  36.98796437122601 18.32356283538337  33.61108392187576 27.72604597231803  C 33.152495218877526 28.93792157663401  32.06855828451816 30.44231887854356  30.942931468068032 31.445250413149928  C 30.692792175523728 31.654194482859545  30.400963000888407 31.86313855256922  30.150823708343978 32.03029380833695  C 28.983507009803088 32.78249245929169  27.77450042917157 33.242169412652935  26.60718373063068 33.5346911102465  Z " fill-rule="nonzero" fill="rgba(174, 195, 255, 1)" stroke="none" transform="matrix(1 0 0 1 656 869 )" class="fill" />
    <path d="M 48.285922417817176 27.517101902608225  C 48.45268194618034 27.141002577130884  48.24423253572667 26.597747995885815  47.74395395063768 26.34701511223419  L 43.40820621320033 24.341152043021516  C 43.03299727438362 24.17399678725379  42.82454786392982 23.79789746177645  42.78285798183919 23.42179813629898  C 42.78285798183919 22.920332368995798  42.741168099748435 22.418866601692677  42.69947821765767 21.87561202044748  C 42.616098453476155 20.914469299783125  42.40764904302248 19.995115393060587  42.199199632568686 19.07576148633805  C 42.07412998629653 18.657873346918763  42.24088951465944 18.19819639355746  42.57440857138539 17.9474635099059  L 46.53494737000604 14.896880092144912  C 46.9518461909135 14.562569580609454  47.07691583718578 13.977526185422374  46.78508666255046 13.517849232061137  L 44.325383619196664 9.631489535461506  C 44.03355444456135 9.213601396042217  43.491585977381725 9.04644614027449  43.03299727438362 9.255390209984165  L 38.90569894739994 11.303042093138787  C 38.48880012649248 11.511986162848464  38.03021142349437 11.428408534964568  37.696692366768296 11.094098023429112  C 36.3626161398645 9.673278349403454  34.778400620416264 8.503191559029357  33.027425572605125 7.583837652306885  C 32.610526751697655 7.374893582597208  32.40207734124385 6.873427815294024  32.485457105425375 6.413750861932787  L 33.15249521887728 3.6974779557072526  C 33.27756486514956 3.1960121884040684  32.98573569051423 2.652757607158936  32.485457105425375 2.4438135374493233  L 28.233089132169546 0.8976274215978222  C 28.149709367988027 0.8558386076558743  28.06632960380651 0.8558386076558743  27.982949839625114 0.8558386076558743  C 27.56605101871777 0.8140497937139264  27.149152197810302 1.0647826773655504  26.940702787356503 1.440882002842891  L 25.43986703208979 4.700409490313558  L 25.064658093273085 5.4943969552102505  C 24.23086045145827 5.4526081412683025  23.355372927552636 5.4943969552102505  22.479885403647003 5.5779745830941465  C 21.312568705106177 5.703341024919927  20.18694188865611 5.9540739085714876  19.103004954296807 6.24659560616506  C 18.6861061333894 6.37196204799084  18.227517430391234 6.24659560616506  17.977378137846742 5.870496280687655  L 15.517675094492812 2.652757607158936  C 15.184156037766925 2.2348694677395837  14.55880780640572 2.1095030259138037  14.100219103407493 2.4020247235073118  L 11.140237474964767 4.282521350894269  L 10.306439833149891 4.825775932139338  C 9.847851130151726 5.118297629732846  9.68109160178875 5.703341024919927  9.931230894333181 6.204806792223048  L 11.640516060053628 9.673278349403391  C 11.848965470507299 10.09116648882268  11.765585706325844 10.550843442183979  11.47375653169059 10.843365139777424  C 10.556579125694196 11.76271904649996  9.72278148387932 12.807439395048277  9.014053488336724 13.93573737148036  C 8.930673724155206 14.019314999364259  8.888983842064508 14.10289262724809  8.847293959973687 14.228259069073935  C 8.847293959973687 14.270047883015884  8.80560407788299 14.270047883015884  8.763914195792166 14.31183669695783  C 8.513774903247736 14.646147208493224  8.09687608234033 14.813302464261014  7.67997726143286 14.68793602243517  L 3.2608497598141186 13.60142685994497  C 3.2191598777234227 13.60142685994497  3.1774699956326 13.60142685994497  3.09409023145108 13.559638046003021  C 2.6355015284529784 13.517849232061074  2.1769128254547496 13.810370929654582  2.010153297091838 14.228259069073935  L 0.4676276597343034 18.49071809115097  C 0.30086813137126517 18.992183858454155  0.5093175418249998 19.577227253641233  1.0095961269139246 19.827960137292795  L 5.553793274805009 21.91740083438943  C 5.929002213621718 22.084556090157093  6.179141506166149 22.502444229576447  6.137451624075453 22.920332368995734  C 6.095761741984757 23.83968627571827  6.137451624075453 24.80082899638269  6.220831388256973 25.761971717047114  C 6.262521270347669 26.2634374843503  6.345901034529187 26.76490325165342  6.429280798710707 27.266369018956667  C 6.5126605628921626 27.684257158375953  6.345901034529187 28.06035648385336  6.012381977803238 28.31108936750492  L 2.1769128254548127 31.236306343440127  C 1.760014004547407 31.570616854975583  1.6349443582751917 32.15566025016267  1.9267735329103821 32.6153372035239  L 4.344786694173488 36.45990808618165  C 4.636615868808741 36.91958503954288  5.220274218079059 37.08674029531062  5.720552803168047 36.83600741165899  L 9.014053488336788 35.20624366792366  C 9.472642191334952 34.99729959821404  9.972920776423878 35.12266604003976  10.306439833149827 35.45697655157528  C 11.515446413781412 36.91958503954288  12.974592286957428 38.21503827174276  14.558807806405659 39.21796980634913  C 14.934016745222369 39.468702690000754  15.142466155676104 39.92837964336199  15.017396509403762 40.34626778278128  L 14.058529221316732 44.357993921206756  C 13.933459575044518 44.90124850245182  14.22528874967971 45.44450308369702  14.72556733476857 45.61165833946469  L 18.9779353080244 47.15784445531619  C 19.478213893113328 47.32499971108392  20.061872242383707 47.11605564137424  20.270321652837442 46.61458987407112  L 20.35370141701896 46.40564580436144  L 22.104676464830167 42.64465254958759  C 22.271435993193204 42.2267644101683  22.68833481410061 42.01782034045863  23.146923517098777 42.01782034045863  C 24.230860451458017 42.101397968342525  25.31479738581739 42.059609154400576  26.398734320176754 41.93424271257473  C 26.982392669447137 41.85066508469083  27.56605101871752 41.767087456807  28.149709367988027 41.64172101498122  C 28.524918306804732 41.558143387097324  28.941817127712078 41.725298642865056  29.19195642025651 42.01782034045856  L 31.651659463610436 45.27734782792923  C 31.985178520336387 45.737024781290465  32.61052675169753 45.8206024091743  33.069115454695755 45.528080711580856  L 36.86289472495336 43.10432950294883  C 36.98796437122564 43.02075187506493  37.07134413540716 42.9371742471811  37.154723899588674 42.8535966192972  C 37.40486319213298 42.56107492170369  37.446553074223864 42.101397968342454  37.27979354586083 41.725298642865056  L 35.904027436866265 38.96723692269751  C 35.737267908503355 38.63292641116212  35.77895779059411 38.21503827174276  35.98740720104779 37.922516574149256  C 36.029097083138545 37.83893894626536  36.11247684732007 37.755361318381524  36.19585661150158 37.713572504439576  C 38.071901305585 36.12559757464619  39.61442694294247 34.203312133317354  40.74005375939261 32.03029380833682  C 40.90681328775564 31.65419448285948  41.323712108663116 31.445250413149807  41.74061092957045 31.48703922709175  C 41.782300811661216 31.48703922709175  41.86568057584273 31.48703922709175  41.907370457933496 31.528828041033698  L 45.49270031773742 32.40639313381429  C 45.99297890282629 32.531759575640066  46.53494737000604 32.23923787804656  46.743396780459705 31.737772110743375  L 46.78508666255046 31.65419448285948  L 48.285922417817176 27.517101902608225  Z " stroke-width="0" stroke-dasharray="0" stroke="rgba(255, 255, 255, 0)" fill="none" transform="matrix(1 0 0 1 656 869 )" class="stroke" mask="url(#Clip444)" />
    <path d="M 26.60718373063068 33.5346911102465  C 19.853422831930352 35.039088412156055  13.516560754137364 29.314020902111416  14.683877452678127 22.042767276215272  C 14.808947098950341 21.33235743920241  15.017396509404076 20.580158788247665  15.267535801948572 19.827960137292923  C 15.809504269128254 18.407140463267265  17.26865014230427 16.526643835880307  18.561036487117374 15.732656370983616  C 18.68610613338959 15.64907874309972  18.852865661752567 15.565501115215886  18.97793530802478 15.48192348733199  C 27.440981372445748 10.509054628242158  36.98796437122601 18.32356283538337  33.61108392187576 27.72604597231803  C 33.152495218877526 28.93792157663401  32.06855828451816 30.44231887854356  30.942931468068032 31.445250413149928  C 30.692792175523728 31.654194482859545  30.400963000888407 31.86313855256922  30.150823708343978 32.03029380833695  C 28.983507009803088 32.78249245929169  27.77450042917157 33.242169412652935  26.60718373063068 33.5346911102465  Z " stroke-width="0" stroke-dasharray="0" stroke="rgba(255, 255, 255, 0)" fill="none" transform="matrix(1 0 0 1 656 869 )" class="stroke" mask="url(#Clip444)" />
  </g>
</svg>