<?xml version="1.0" encoding="utf-8"?>
<svg version="1.1" xmlns:xlink="http://www.w3.org/1999/xlink" width="36px" height="36px" xmlns="http://www.w3.org/2000/svg">
  <defs>
    <pattern id="BGPattern" patternUnits="userSpaceOnUse" alignment="0 0" imageRepeat="None" />
    <mask fill="white" id="Clip187">
      <path d="M 35.67779940367731 20.556267599801316  C 35.67779940367731 20.135114709292687  35.50933824747396 19.713961818784185  35.17241593506701 19.54550066258077  L 32.013769256253084 18.07146554580092  C 31.761077521947996 17.945119678648375  31.59261636574452 17.692427944343223  31.59261636574452 17.397620920987265  C 31.59261636574452 17.01858331952957  31.55050107669365 16.639545718071936  31.50838578764278 16.302623405665045  C 31.42415520954104 15.628778780851391  31.29780934238856 14.954934156037737  31.129348186185084 14.281089531224147  C 31.045117608083345 13.986282507868125  31.171463475235825 13.649360195461298  31.42415520954104 13.480899039257949  L 34.330110154050004 11.290904008613573  C 34.62491717740596 11.038212274308421  34.7091477555077 10.61705938379992  34.498571310253354 10.280137071393092  L 32.72972917011761 7.458412704985932  C 32.51915272486326 7.121490392579105  32.140115123405565 7.037259814477366  31.803192810998738 7.20572097068078  L 28.81300728838829 8.679756087460632  C 28.518200265032206 8.848217243664045  28.181277952625507 8.76398666556237  27.92858621832042 8.511294931257218  C 26.959934570150807 7.500527994036801  25.822821765777718 6.616106923968864  24.55936309425215 5.94226229915521  C 24.26455607089619 5.773801142951797  24.09609491469284 5.436878830544906  24.180325492794452 5.099956518138143  L 24.68570896140463 3.120537932747986  C 24.769939539506368 2.7415003312903536  24.55936309425215 2.3624627298326573  24.22244078184532 2.236116862680113  L 21.10590939208214 1.099004058307024  C 21.0216788139804 1.0568887692561546  20.97956352492966 1.0568887692561546  20.89533294682792 1.0568887692561546  C 20.600525923471963 1.0147734802052852  20.263603611065136 1.1832346364086987  20.137257743912528 1.4780416597647204  L 19.042260228590436 3.8364978466125095  L 18.789568494285348 4.426111893324425  C 18.157839158522563 4.426111893324425  17.52610982275978 4.426111893324425  16.894380486996994 4.5103424714261635  C 16.052074705979862 4.594573049527838  15.209768924962859 4.763034205731252  14.451693722047466 5.015725940036404  C 14.156886698691508 5.099956518138143  13.819964386284681 5.015725940036404  13.651503230081204 4.763034205731252  L 11.88266108994533 2.446693307934332  C 11.62996935564037 2.109770995527569  11.208816465131804 2.0676557064766996  10.871894152724849 2.2782321517309825  L 8.724014411131407 3.6259214013582906  L 8.092285075368622 4.004959002815923  C 7.755362762961795 4.215535448070206  7.629016895809315 4.636688338578708  7.797478052012664 5.015725940036404  L 9.018821434487364 7.542643283087607  C 9.145167301639972 7.837450306443564  9.103052012589103 8.174372618850391  8.892475567334884 8.384949064104674  C 8.21863094252123 9.058793688918328  7.629016895809315 9.816868891833657  7.12363342719901 10.617059383799855  C 7.081518138148141 10.701289961901594  7.0394028490972715 10.7434052509524  6.99728756004653 10.827635829054074  C 6.99728756004653 10.869751118104944  6.955172270995661 10.869751118104944  6.955172270995661 10.911866407155813  C 6.786711114792183 11.164558141460965  6.449788802385356 11.24878871956264  6.154981779029399 11.206673430511835  L 2.954219811164606 10.406482938545636  C 2.9121045221138644 10.406482938545636  2.869989233062867 10.406482938545636  2.8278739440121257 10.406482938545636  C 2.4909516316052986 10.364367649494767  2.1540293191984716 10.57494409474905  2.0276834520458635 10.911866407155877  L 0.8905706476727744 13.986282507868125  C 0.7642247805202942 14.365320109325822  0.9326859367236437 14.786472999834324  1.2696082491304708 14.954934156037737  L 4.554600795097002 16.47108456186846  C 4.84940781845296 16.597430429021003  5.017868974656309 16.89223745237696  4.975753685605568 17.187044475732982  C 4.933638396554699 17.860889100546636  4.975753685605568 18.53473372536029  5.059984263707307 19.25069363922475  C 5.102099552758048 19.629731240682446  5.144214841809045 19.966653553089273  5.228445419910784 20.34569115454697  C 5.270560708961526 20.640498177902927  5.186330130859915 20.935305201258885  4.933638396554699 21.1037663574623  L 2.1540293191984716 23.209530810004935  C 1.859222295842514 23.420107255259218  1.7749917177407752 23.88337543481859  1.9855681629949942 24.220297747225416  L 3.754410303130868 26.999906824581707  C 3.964986748385087 27.336829136988534  4.386139638893653 27.463175004141142  4.765177240351349 27.29471384793773  L 7.123633427199138 26.115485754513834  C 7.460555739605965 25.94702459831042  7.839593341063662 26.031255176412095  8.05016978631788 26.326062199768117  C 8.934590856385753 27.378944426039467  9.987473082657104 28.30548078515821  11.166701176081062 29.06355598807354  C 11.46150819943702 29.232017144276952  11.587854066589628 29.568939456683843  11.50362348848789 29.905861769090606  L 10.787663574623366 32.811816713599505  C 10.703432996521627 33.19085431505714  10.914009441775846 33.6120072055657  11.293047043233543 33.73835307271825  L 14.367463143945855 34.87546587709134  C 14.746500745403551 35.00181174424388  15.167653635912117 34.83335058804047  15.293999503064597 34.49642827563364  L 15.378230081166336 34.370082408481096  L 16.641688752691906 31.632588620175675  C 16.768034619844514 31.337781596819653  17.06284164320047 31.16932044061624  17.3997639556073 31.16932044061624  C 18.15783915852269 31.21143572966711  18.958029650488825 31.21143572966711  19.758220142455087 31.12720515156537  C 20.179373032963525 31.085089862514565  20.60052592347209 31.00085928441289  21.021678813980657 30.91662870631115  C 21.316485837336614 30.87451341726028  21.611292860692572 30.95874399536202  21.77975401689592 31.21143572966711  L 23.590711446082665 33.5698919165149  C 23.843403180387753 33.906814228921725  24.306671359947188 33.991044807023464  24.643593672353887 33.73835307271831  L 27.423202749710242 31.969510932582438  C 27.50743332781198 31.92739564353157  27.549548616862722 31.843165065429893  27.63377919496446 31.801049776379088  C 27.80224035116794 31.590473331124805  27.844355640218808 31.253551018717978  27.7180097730662 31.00085928441289  L 26.749358124896588 28.979325409971928  C 26.623012257744108 28.726633675666776  26.66512754679485 28.431826652310882  26.791473413947458 28.2212502070566  C 26.8335887029982 28.17913491800573  26.875703992049196 28.094904339904055  26.917819281099938 28.052789050853185  C 28.265508530727246 26.91567624648016  29.402621335100335 25.525871707801983  30.20281182706647 23.925490723869586  C 30.329157694219077 23.672798989564498  30.623964717575035 23.504337833361085  30.918771740930993 23.504337833361085  C 30.960887029981862 23.504337833361085  31.00300231903273 23.504337833361085  31.0451176080836 23.504337833361085  L 33.65626552923648 24.13606716912387  C 34.035303130694174 24.220297747225608  34.41434073215174 24.009721301971325  34.54068659930435 23.672798989564498  L 34.58280188835509 23.58856841146276  L 35.67779940367731 20.556267599801316  Z M 19.88456600960744 24.809911793937395  C 14.914961901606773 25.862794020208746  10.324395395063675 21.693380404174214  11.166701176080807 16.47108456186846  C 11.250931754182545 15.965701093258218  11.377277621335026 15.418202335597108  11.587854066589244 14.870703577936062  C 11.966891668047069 13.817821351664712  13.06188918336916 12.470132102037404  13.988425542487903 11.880518055325489  C 14.072656120589642 11.79628747722375  14.19900198774225 11.754172188172944  14.283232565843988 11.712056899122075  C 20.432064767268486 8.090142040748717  27.381087460659245 13.775706062613843  24.938400695709717 20.598382888852058  C 24.60147838330289 21.482803958919995  23.801287891336756 22.577801474242214  23.001097399370494 23.293761388106674  C 22.790520954116275 23.462222544310087  22.622059797912797 23.58856841146263  22.453598641709448 23.714914278615176  C 21.611292860692444 24.262413036276286  20.72687179062457 24.599335348683113  19.88456600960744 24.809911793937395  Z " fill-rule="evenodd" />
    </mask>
  </defs>
  <g transform="matrix(1 0 0 1 -699 -895 )">
    <path d="M 35.67779940367731 20.556267599801316  C 35.67779940367731 20.135114709292687  35.50933824747396 19.713961818784185  35.17241593506701 19.54550066258077  L 32.013769256253084 18.07146554580092  C 31.761077521947996 17.945119678648375  31.59261636574452 17.692427944343223  31.59261636574452 17.397620920987265  C 31.59261636574452 17.01858331952957  31.55050107669365 16.639545718071936  31.50838578764278 16.302623405665045  C 31.42415520954104 15.628778780851391  31.29780934238856 14.954934156037737  31.129348186185084 14.281089531224147  C 31.045117608083345 13.986282507868125  31.171463475235825 13.649360195461298  31.42415520954104 13.480899039257949  L 34.330110154050004 11.290904008613573  C 34.62491717740596 11.038212274308421  34.7091477555077 10.61705938379992  34.498571310253354 10.280137071393092  L 32.72972917011761 7.458412704985932  C 32.51915272486326 7.121490392579105  32.140115123405565 7.037259814477366  31.803192810998738 7.20572097068078  L 28.81300728838829 8.679756087460632  C 28.518200265032206 8.848217243664045  28.181277952625507 8.76398666556237  27.92858621832042 8.511294931257218  C 26.959934570150807 7.500527994036801  25.822821765777718 6.616106923968864  24.55936309425215 5.94226229915521  C 24.26455607089619 5.773801142951797  24.09609491469284 5.436878830544906  24.180325492794452 5.099956518138143  L 24.68570896140463 3.120537932747986  C 24.769939539506368 2.7415003312903536  24.55936309425215 2.3624627298326573  24.22244078184532 2.236116862680113  L 21.10590939208214 1.099004058307024  C 21.0216788139804 1.0568887692561546  20.97956352492966 1.0568887692561546  20.89533294682792 1.0568887692561546  C 20.600525923471963 1.0147734802052852  20.263603611065136 1.1832346364086987  20.137257743912528 1.4780416597647204  L 19.042260228590436 3.8364978466125095  L 18.789568494285348 4.426111893324425  C 18.157839158522563 4.426111893324425  17.52610982275978 4.426111893324425  16.894380486996994 4.5103424714261635  C 16.052074705979862 4.594573049527838  15.209768924962859 4.763034205731252  14.451693722047466 5.015725940036404  C 14.156886698691508 5.099956518138143  13.819964386284681 5.015725940036404  13.651503230081204 4.763034205731252  L 11.88266108994533 2.446693307934332  C 11.62996935564037 2.109770995527569  11.208816465131804 2.0676557064766996  10.871894152724849 2.2782321517309825  L 8.724014411131407 3.6259214013582906  L 8.092285075368622 4.004959002815923  C 7.755362762961795 4.215535448070206  7.629016895809315 4.636688338578708  7.797478052012664 5.015725940036404  L 9.018821434487364 7.542643283087607  C 9.145167301639972 7.837450306443564  9.103052012589103 8.174372618850391  8.892475567334884 8.384949064104674  C 8.21863094252123 9.058793688918328  7.629016895809315 9.816868891833657  7.12363342719901 10.617059383799855  C 7.081518138148141 10.701289961901594  7.0394028490972715 10.7434052509524  6.99728756004653 10.827635829054074  C 6.99728756004653 10.869751118104944  6.955172270995661 10.869751118104944  6.955172270995661 10.911866407155813  C 6.786711114792183 11.164558141460965  6.449788802385356 11.24878871956264  6.154981779029399 11.206673430511835  L 2.954219811164606 10.406482938545636  C 2.9121045221138644 10.406482938545636  2.869989233062867 10.406482938545636  2.8278739440121257 10.406482938545636  C 2.4909516316052986 10.364367649494767  2.1540293191984716 10.57494409474905  2.0276834520458635 10.911866407155877  L 0.8905706476727744 13.986282507868125  C 0.7642247805202942 14.365320109325822  0.9326859367236437 14.786472999834324  1.2696082491304708 14.954934156037737  L 4.554600795097002 16.47108456186846  C 4.84940781845296 16.597430429021003  5.017868974656309 16.89223745237696  4.975753685605568 17.187044475732982  C 4.933638396554699 17.860889100546636  4.975753685605568 18.53473372536029  5.059984263707307 19.25069363922475  C 5.102099552758048 19.629731240682446  5.144214841809045 19.966653553089273  5.228445419910784 20.34569115454697  C 5.270560708961526 20.640498177902927  5.186330130859915 20.935305201258885  4.933638396554699 21.1037663574623  L 2.1540293191984716 23.209530810004935  C 1.859222295842514 23.420107255259218  1.7749917177407752 23.88337543481859  1.9855681629949942 24.220297747225416  L 3.754410303130868 26.999906824581707  C 3.964986748385087 27.336829136988534  4.386139638893653 27.463175004141142  4.765177240351349 27.29471384793773  L 7.123633427199138 26.115485754513834  C 7.460555739605965 25.94702459831042  7.839593341063662 26.031255176412095  8.05016978631788 26.326062199768117  C 8.934590856385753 27.378944426039467  9.987473082657104 28.30548078515821  11.166701176081062 29.06355598807354  C 11.46150819943702 29.232017144276952  11.587854066589628 29.568939456683843  11.50362348848789 29.905861769090606  L 10.787663574623366 32.811816713599505  C 10.703432996521627 33.19085431505714  10.914009441775846 33.6120072055657  11.293047043233543 33.73835307271825  L 14.367463143945855 34.87546587709134  C 14.746500745403551 35.00181174424388  15.167653635912117 34.83335058804047  15.293999503064597 34.49642827563364  L 15.378230081166336 34.370082408481096  L 16.641688752691906 31.632588620175675  C 16.768034619844514 31.337781596819653  17.06284164320047 31.16932044061624  17.3997639556073 31.16932044061624  C 18.15783915852269 31.21143572966711  18.958029650488825 31.21143572966711  19.758220142455087 31.12720515156537  C 20.179373032963525 31.085089862514565  20.60052592347209 31.00085928441289  21.021678813980657 30.91662870631115  C 21.316485837336614 30.87451341726028  21.611292860692572 30.95874399536202  21.77975401689592 31.21143572966711  L 23.590711446082665 33.5698919165149  C 23.843403180387753 33.906814228921725  24.306671359947188 33.991044807023464  24.643593672353887 33.73835307271831  L 27.423202749710242 31.969510932582438  C 27.50743332781198 31.92739564353157  27.549548616862722 31.843165065429893  27.63377919496446 31.801049776379088  C 27.80224035116794 31.590473331124805  27.844355640218808 31.253551018717978  27.7180097730662 31.00085928441289  L 26.749358124896588 28.979325409971928  C 26.623012257744108 28.726633675666776  26.66512754679485 28.431826652310882  26.791473413947458 28.2212502070566  C 26.8335887029982 28.17913491800573  26.875703992049196 28.094904339904055  26.917819281099938 28.052789050853185  C 28.265508530727246 26.91567624648016  29.402621335100335 25.525871707801983  30.20281182706647 23.925490723869586  C 30.329157694219077 23.672798989564498  30.623964717575035 23.504337833361085  30.918771740930993 23.504337833361085  C 30.960887029981862 23.504337833361085  31.00300231903273 23.504337833361085  31.0451176080836 23.504337833361085  L 33.65626552923648 24.13606716912387  C 34.035303130694174 24.220297747225608  34.41434073215174 24.009721301971325  34.54068659930435 23.672798989564498  L 34.58280188835509 23.58856841146276  L 35.67779940367731 20.556267599801316  Z M 19.88456600960744 24.809911793937395  C 14.914961901606773 25.862794020208746  10.324395395063675 21.693380404174214  11.166701176080807 16.47108456186846  C 11.250931754182545 15.965701093258218  11.377277621335026 15.418202335597108  11.587854066589244 14.870703577936062  C 11.966891668047069 13.817821351664712  13.06188918336916 12.470132102037404  13.988425542487903 11.880518055325489  C 14.072656120589642 11.79628747722375  14.19900198774225 11.754172188172944  14.283232565843988 11.712056899122075  C 20.432064767268486 8.090142040748717  27.381087460659245 13.775706062613843  24.938400695709717 20.598382888852058  C 24.60147838330289 21.482803958919995  23.801287891336756 22.577801474242214  23.001097399370494 23.293761388106674  C 22.790520954116275 23.462222544310087  22.622059797912797 23.58856841146263  22.453598641709448 23.714914278615176  C 21.611292860692444 24.262413036276286  20.72687179062457 24.599335348683113  19.88456600960744 24.809911793937395  Z " fill-rule="nonzero" fill="rgba(210, 224, 255, 1)" stroke="none" transform="matrix(1 0 0 1 699 895 )" class="fill" />
    <path d="M 35.67779940367731 20.556267599801316  C 35.67779940367731 20.135114709292687  35.50933824747396 19.713961818784185  35.17241593506701 19.54550066258077  L 32.013769256253084 18.07146554580092  C 31.761077521947996 17.945119678648375  31.59261636574452 17.692427944343223  31.59261636574452 17.397620920987265  C 31.59261636574452 17.01858331952957  31.55050107669365 16.639545718071936  31.50838578764278 16.302623405665045  C 31.42415520954104 15.628778780851391  31.29780934238856 14.954934156037737  31.129348186185084 14.281089531224147  C 31.045117608083345 13.986282507868125  31.171463475235825 13.649360195461298  31.42415520954104 13.480899039257949  L 34.330110154050004 11.290904008613573  C 34.62491717740596 11.038212274308421  34.7091477555077 10.61705938379992  34.498571310253354 10.280137071393092  L 32.72972917011761 7.458412704985932  C 32.51915272486326 7.121490392579105  32.140115123405565 7.037259814477366  31.803192810998738 7.20572097068078  L 28.81300728838829 8.679756087460632  C 28.518200265032206 8.848217243664045  28.181277952625507 8.76398666556237  27.92858621832042 8.511294931257218  C 26.959934570150807 7.500527994036801  25.822821765777718 6.616106923968864  24.55936309425215 5.94226229915521  C 24.26455607089619 5.773801142951797  24.09609491469284 5.436878830544906  24.180325492794452 5.099956518138143  L 24.68570896140463 3.120537932747986  C 24.769939539506368 2.7415003312903536  24.55936309425215 2.3624627298326573  24.22244078184532 2.236116862680113  L 21.10590939208214 1.099004058307024  C 21.0216788139804 1.0568887692561546  20.97956352492966 1.0568887692561546  20.89533294682792 1.0568887692561546  C 20.600525923471963 1.0147734802052852  20.263603611065136 1.1832346364086987  20.137257743912528 1.4780416597647204  L 19.042260228590436 3.8364978466125095  L 18.789568494285348 4.426111893324425  C 18.157839158522563 4.426111893324425  17.52610982275978 4.426111893324425  16.894380486996994 4.5103424714261635  C 16.052074705979862 4.594573049527838  15.209768924962859 4.763034205731252  14.451693722047466 5.015725940036404  C 14.156886698691508 5.099956518138143  13.819964386284681 5.015725940036404  13.651503230081204 4.763034205731252  L 11.88266108994533 2.446693307934332  C 11.62996935564037 2.109770995527569  11.208816465131804 2.0676557064766996  10.871894152724849 2.2782321517309825  L 8.724014411131407 3.6259214013582906  L 8.092285075368622 4.004959002815923  C 7.755362762961795 4.215535448070206  7.629016895809315 4.636688338578708  7.797478052012664 5.015725940036404  L 9.018821434487364 7.542643283087607  C 9.145167301639972 7.837450306443564  9.103052012589103 8.174372618850391  8.892475567334884 8.384949064104674  C 8.21863094252123 9.058793688918328  7.629016895809315 9.816868891833657  7.12363342719901 10.617059383799855  C 7.081518138148141 10.701289961901594  7.0394028490972715 10.7434052509524  6.99728756004653 10.827635829054074  C 6.99728756004653 10.869751118104944  6.955172270995661 10.869751118104944  6.955172270995661 10.911866407155813  C 6.786711114792183 11.164558141460965  6.449788802385356 11.24878871956264  6.154981779029399 11.206673430511835  L 2.954219811164606 10.406482938545636  C 2.9121045221138644 10.406482938545636  2.869989233062867 10.406482938545636  2.8278739440121257 10.406482938545636  C 2.4909516316052986 10.364367649494767  2.1540293191984716 10.57494409474905  2.0276834520458635 10.911866407155877  L 0.8905706476727744 13.986282507868125  C 0.7642247805202942 14.365320109325822  0.9326859367236437 14.786472999834324  1.2696082491304708 14.954934156037737  L 4.554600795097002 16.47108456186846  C 4.84940781845296 16.597430429021003  5.017868974656309 16.89223745237696  4.975753685605568 17.187044475732982  C 4.933638396554699 17.860889100546636  4.975753685605568 18.53473372536029  5.059984263707307 19.25069363922475  C 5.102099552758048 19.629731240682446  5.144214841809045 19.966653553089273  5.228445419910784 20.34569115454697  C 5.270560708961526 20.640498177902927  5.186330130859915 20.935305201258885  4.933638396554699 21.1037663574623  L 2.1540293191984716 23.209530810004935  C 1.859222295842514 23.420107255259218  1.7749917177407752 23.88337543481859  1.9855681629949942 24.220297747225416  L 3.754410303130868 26.999906824581707  C 3.964986748385087 27.336829136988534  4.386139638893653 27.463175004141142  4.765177240351349 27.29471384793773  L 7.123633427199138 26.115485754513834  C 7.460555739605965 25.94702459831042  7.839593341063662 26.031255176412095  8.05016978631788 26.326062199768117  C 8.934590856385753 27.378944426039467  9.987473082657104 28.30548078515821  11.166701176081062 29.06355598807354  C 11.46150819943702 29.232017144276952  11.587854066589628 29.568939456683843  11.50362348848789 29.905861769090606  L 10.787663574623366 32.811816713599505  C 10.703432996521627 33.19085431505714  10.914009441775846 33.6120072055657  11.293047043233543 33.73835307271825  L 14.367463143945855 34.87546587709134  C 14.746500745403551 35.00181174424388  15.167653635912117 34.83335058804047  15.293999503064597 34.49642827563364  L 15.378230081166336 34.370082408481096  L 16.641688752691906 31.632588620175675  C 16.768034619844514 31.337781596819653  17.06284164320047 31.16932044061624  17.3997639556073 31.16932044061624  C 18.15783915852269 31.21143572966711  18.958029650488825 31.21143572966711  19.758220142455087 31.12720515156537  C 20.179373032963525 31.085089862514565  20.60052592347209 31.00085928441289  21.021678813980657 30.91662870631115  C 21.316485837336614 30.87451341726028  21.611292860692572 30.95874399536202  21.77975401689592 31.21143572966711  L 23.590711446082665 33.5698919165149  C 23.843403180387753 33.906814228921725  24.306671359947188 33.991044807023464  24.643593672353887 33.73835307271831  L 27.423202749710242 31.969510932582438  C 27.50743332781198 31.92739564353157  27.549548616862722 31.843165065429893  27.63377919496446 31.801049776379088  C 27.80224035116794 31.590473331124805  27.844355640218808 31.253551018717978  27.7180097730662 31.00085928441289  L 26.749358124896588 28.979325409971928  C 26.623012257744108 28.726633675666776  26.66512754679485 28.431826652310882  26.791473413947458 28.2212502070566  C 26.8335887029982 28.17913491800573  26.875703992049196 28.094904339904055  26.917819281099938 28.052789050853185  C 28.265508530727246 26.91567624648016  29.402621335100335 25.525871707801983  30.20281182706647 23.925490723869586  C 30.329157694219077 23.672798989564498  30.623964717575035 23.504337833361085  30.918771740930993 23.504337833361085  C 30.960887029981862 23.504337833361085  31.00300231903273 23.504337833361085  31.0451176080836 23.504337833361085  L 33.65626552923648 24.13606716912387  C 34.035303130694174 24.220297747225608  34.41434073215174 24.009721301971325  34.54068659930435 23.672798989564498  L 34.58280188835509 23.58856841146276  L 35.67779940367731 20.556267599801316  Z " stroke-width="0" stroke-dasharray="0" stroke="rgba(255, 255, 255, 0)" fill="none" transform="matrix(1 0 0 1 699 895 )" class="stroke" mask="url(#Clip187)" />
    <path d="M 19.88456600960744 24.809911793937395  C 14.914961901606773 25.862794020208746  10.324395395063675 21.693380404174214  11.166701176080807 16.47108456186846  C 11.250931754182545 15.965701093258218  11.377277621335026 15.418202335597108  11.587854066589244 14.870703577936062  C 11.966891668047069 13.817821351664712  13.06188918336916 12.470132102037404  13.988425542487903 11.880518055325489  C 14.072656120589642 11.79628747722375  14.19900198774225 11.754172188172944  14.283232565843988 11.712056899122075  C 20.432064767268486 8.090142040748717  27.381087460659245 13.775706062613843  24.938400695709717 20.598382888852058  C 24.60147838330289 21.482803958919995  23.801287891336756 22.577801474242214  23.001097399370494 23.293761388106674  C 22.790520954116275 23.462222544310087  22.622059797912797 23.58856841146263  22.453598641709448 23.714914278615176  C 21.611292860692444 24.262413036276286  20.72687179062457 24.599335348683113  19.88456600960744 24.809911793937395  Z " stroke-width="0" stroke-dasharray="0" stroke="rgba(255, 255, 255, 0)" fill="none" transform="matrix(1 0 0 1 699 895 )" class="stroke" mask="url(#Clip187)" />
  </g>
</svg>