<?xml version="1.0" encoding="utf-8"?>
<svg version="1.1" xmlns:xlink="http://www.w3.org/1999/xlink" width="51px" height="48px" xmlns="http://www.w3.org/2000/svg">
  <defs>
    <pattern id="BGPattern" patternUnits="userSpaceOnUse" alignment="0 0" imageRepeat="None" />
    <mask fill="white" id="Clip446">
      <path d="M 50.39982331179935 21.272817624647928  C 50.27254154933463 20.687774229460977  49.890696261940214 20.228097276099675  49.339141957926124 20.102730834273896  L 44.54486223841859 19.266954555435255  C 44.16301695102417 19.18337692755136  43.8235989177847 18.890855229957854  43.69631715531998 18.514755904480513  C 43.56903539285513 18.013290137177325  43.399326376235464 17.55361318381609  43.18719010546071 17.052147416512906  C 42.84777207222124 16.132793509790368  42.423499530672004 15.297017230951731  41.956799734967674 14.503029766055036  C 41.74466346419293 14.126930440577697  41.74466346419293 13.667253487216396  42.041654243277584 13.332942975681004  L 45.18127105074258 9.363005651197476  C 45.52068908398205 8.945117511778124  45.47826182982723 8.318285302649159  45.05398928827786 7.9839747911137025  L 41.65980895588316 4.849813745468879  C 41.27796366848874 4.515503233933424  40.6839821103197 4.473714419991476  40.30213682292528 4.808024931526932  L 36.780674728065854 7.816819535346038  C 36.441256694826386 8.109341232939547  35.93212964496711 8.15113004688143  35.55028435757269 7.90039716322987  C 33.853194191375344 6.897465628623564  31.986395008558326 6.145266977668756  30.034741317431404 5.68559002430752  C 29.568041521727086 5.56022358248174  29.22862348848761 5.142335443062452  29.22862348848761 4.682658489701152  L 29.186196234332662 1.882807955591721  C 29.186196234332662 1.3395533743466521  28.761923692783423 0.879876420985352  28.2103693887692 0.8380876070434676  L 23.585798685881468 0.42019946762411564  C 23.50094417757157 0.42019946762411564  23.41608966926167 0.42019946762411564  23.3312351609519 0.42019946762411564  C 22.906962619402528 0.5037770955080114  22.56754458616306 0.8380876070434676  22.482690077853285 1.2559757464627563  L 21.846281265529296 4.766236117585048  L 21.676572248909498 5.643801210365572  C 20.828027165810756 5.852745280075248  19.979482082712146 6.103478163726871  19.173364253768355 6.395999861320316  C 18.070255645740176 6.81388800073967  17.009574291866816 7.357142581984737  16.033747446303227 7.9421859771718175  C 15.651902158908804 8.151130046881494  15.185202363204615 8.151130046881494  14.845784329965145 7.90039716322987  L 11.62131301419024 5.43485714065596  C 11.197040472640872 5.100546629120503  10.560631660316881 5.142335443062388  10.178786372922461 5.56022358248174  L 7.76043288609122 8.151130046881494  L 7.081596819612279 8.903328697836239  C 6.699751532217858 9.32121683725559  6.699751532217858 9.948049046384556  7.039169565457458 10.324148371861895  L 9.62723206890837 13.249365347797106  C 9.92422284799289 13.583675859332564  9.96665010214771 14.085141626635748  9.75451383137309 14.461240952113151  C 9.07567776489415 15.5895389285453  8.56655071503501 16.801414532861347  8.14227817348564 18.055078951119274  C 8.09985091933069 18.180445392945053  8.057423665175738 18.26402302082895  8.057423665175738 18.38938946265473  C 8.057423665175738 18.43117827659668  8.014996411020919 18.472967090538628  8.014996411020919 18.472967090538628  C 7.84528739440112 18.84906641601597  7.4634421070067 19.09979929966759  7.039169565457458 19.14158811360954  L 2.4145988625695964 19.22516574149337  C 2.3721716084147753 19.22516574149337  2.3297443542596965 19.22516574149337  2.2448898459497966 19.22516574149337  C 1.778190050245606 19.308743369377268  1.3963447628511858 19.684842694854673  1.3539175086962358 20.186308462157793  L 0.9296449671469948 24.699500367886454  C 0.887217712992045 25.242754949131523  1.269063000386465 25.744220716434707  1.8206173044005556 25.8277983443186  L 6.8270332946827095 26.70536343709919  C 7.25130583623195 26.788941064983085  7.59072386947142 27.08146276257653  7.675578377781319 27.499350901995882  C 7.88771464855594 28.418704808718353  8.142278173485511 29.33805871544083  8.524123460879931 30.215623808221416  C 8.693832477499729 30.675300761582715  8.90596874827448 31.176766528885842  9.1181050190491 31.594654668305125  C 9.2878140356689 31.97075399378253  9.24538678151382 32.38864213320182  8.99082325658438 32.72295264473734  L 5.978488211584097 36.52573471345314  C 5.639070178344627 36.94362285287242  5.681497432499577 37.52866624805951  6.105769974048818 37.90476557353685  L 9.49995030644352 40.99713780523979  C 9.92422284799289 41.37323713071719  10.518204406161932 41.37323713071719  10.9424769477113 41.03892661918174  L 13.742675721936832 38.656964224491595  C 14.124521009331382 38.3226537129562  14.676075313345473 38.3226537129562  15.057920600739765 38.5733865966077  C 16.627729004472393 39.701684573039906  18.367246424824568 40.53746085187855  20.234045607641715 41.122504247065564  C 20.658318149190958 41.247870688891346  20.99773618243043 41.665758828310636  20.99773618243043 42.12543578167194  L 21.08259069074033 46.22073954798124  C 21.08259069074033 46.76399412922631  21.506863232289696 47.22367108258754  22.100844790458737 47.26545989652949  L 26.682988239191648 47.683348035948846  C 27.23454254320574 47.725136849890795  27.743669593064883 47.34903752441339  27.828524101374782 46.84757175711021  L 27.87095135552973 46.638627687400536  L 28.592214676163625 42.54332392109122  C 28.677069184473524 42.08364696772999  29.01648721771299 41.749336456194534  29.44075975926223 41.665758828310636  C 30.50144111313559 41.45681475860103  31.56212246700895 41.164293061007456  32.62280382088231 40.78819373553011  C 33.17435812489641 40.579249665820434  33.7259124289105 40.32851678216881  34.235039478769764 40.077783898517254  C 34.61688476616418 39.91062864274952  35.041157307713554 39.95241745669147  35.380575340952895 40.20315034034303  L 38.64747391088287 42.71047917685889  C 39.11417370658707 43.044789688394346  39.75058251891106 43.00300087445246  40.13242780630548 42.58511273503311  L 43.22961735961566 39.28379643362056  C 43.314471867925555 39.20021880573666  43.399326376235464 39.07485236391088  43.44175363039028 38.99127473602698  C 43.61146264701008 38.61517541054965  43.526608138700176 38.19728727113029  43.27204461377048 37.904765573536785  L 41.23553641433379 35.56459199278859  C 40.980972889404214 35.27207029519502  40.89611838109432 34.89597096971768  41.02340014355904 34.519871644240276  C 41.06582739771399 34.43629401635638  41.10825465186894 34.352716388472544  41.15068190602389 34.26913876058872  C 42.59320854729167 32.26327569137597  43.61146264700995 30.006679738511615  44.16301695102404 27.624717343821537  C 44.24787145933394 27.206829204402247  44.58728949257341 26.914307506808676  45.01156203412278 26.830729878924846  C 45.053989288277606 26.830729878924846  45.1388437965875 26.830729878924846  45.18127105074258 26.830729878924846  L 48.914869416376625 26.747152251040948  C 49.46642372039084 26.747152251040948  49.890696261940086 26.32926411162166  49.97555077024998 25.786009530376592  L 49.97555077024998 25.66064308855081  L 50.39982331179935 21.272817624647928  Z M 30.501441113135463 32.43043094714377  C 24.17978024405064 35.64816962067248  16.458019987852722 31.761809924072853  15.736756667218833 24.44876748423483  C 15.651902158908934 23.696568833280082  15.651902158908934 22.944370182325276  15.736756667218833 22.15038271742858  C 15.864038429683555 20.64598541551903  16.839865275247014 18.43117827659668  17.900546629120374 17.344669114106416  C 18.027828391585096 17.219302672280634  18.112682899894995 17.093936230454855  18.239964662359846 17.01035860257102  C 25.282888852078692 10.031626674268388  36.69582021975583 15.129861975184065  35.84727513665722 25.07559969336379  C 35.71999337419237 26.371052925563667  35.041157307713426 28.12618311112478  34.192612224614685 29.33805871544083  C 33.98047595384007 29.6305804130344  33.76833968306545 29.881313296685963  33.59863066644565 30.09025736639564  C 32.62280382088219 31.093188901001945  31.562122467008823 31.887176365898636  30.501441113135463 32.43043094714377  Z " fill-rule="evenodd" />
    </mask>
  </defs>
  <g transform="matrix(1 0 0 1 -729 -871 )">
    <path d="M 50.39982331179935 21.272817624647928  C 50.27254154933463 20.687774229460977  49.890696261940214 20.228097276099675  49.339141957926124 20.102730834273896  L 44.54486223841859 19.266954555435255  C 44.16301695102417 19.18337692755136  43.8235989177847 18.890855229957854  43.69631715531998 18.514755904480513  C 43.56903539285513 18.013290137177325  43.399326376235464 17.55361318381609  43.18719010546071 17.052147416512906  C 42.84777207222124 16.132793509790368  42.423499530672004 15.297017230951731  41.956799734967674 14.503029766055036  C 41.74466346419293 14.126930440577697  41.74466346419293 13.667253487216396  42.041654243277584 13.332942975681004  L 45.18127105074258 9.363005651197476  C 45.52068908398205 8.945117511778124  45.47826182982723 8.318285302649159  45.05398928827786 7.9839747911137025  L 41.65980895588316 4.849813745468879  C 41.27796366848874 4.515503233933424  40.6839821103197 4.473714419991476  40.30213682292528 4.808024931526932  L 36.780674728065854 7.816819535346038  C 36.441256694826386 8.109341232939547  35.93212964496711 8.15113004688143  35.55028435757269 7.90039716322987  C 33.853194191375344 6.897465628623564  31.986395008558326 6.145266977668756  30.034741317431404 5.68559002430752  C 29.568041521727086 5.56022358248174  29.22862348848761 5.142335443062452  29.22862348848761 4.682658489701152  L 29.186196234332662 1.882807955591721  C 29.186196234332662 1.3395533743466521  28.761923692783423 0.879876420985352  28.2103693887692 0.8380876070434676  L 23.585798685881468 0.42019946762411564  C 23.50094417757157 0.42019946762411564  23.41608966926167 0.42019946762411564  23.3312351609519 0.42019946762411564  C 22.906962619402528 0.5037770955080114  22.56754458616306 0.8380876070434676  22.482690077853285 1.2559757464627563  L 21.846281265529296 4.766236117585048  L 21.676572248909498 5.643801210365572  C 20.828027165810756 5.852745280075248  19.979482082712146 6.103478163726871  19.173364253768355 6.395999861320316  C 18.070255645740176 6.81388800073967  17.009574291866816 7.357142581984737  16.033747446303227 7.9421859771718175  C 15.651902158908804 8.151130046881494  15.185202363204615 8.151130046881494  14.845784329965145 7.90039716322987  L 11.62131301419024 5.43485714065596  C 11.197040472640872 5.100546629120503  10.560631660316881 5.142335443062388  10.178786372922461 5.56022358248174  L 7.76043288609122 8.151130046881494  L 7.081596819612279 8.903328697836239  C 6.699751532217858 9.32121683725559  6.699751532217858 9.948049046384556  7.039169565457458 10.324148371861895  L 9.62723206890837 13.249365347797106  C 9.92422284799289 13.583675859332564  9.96665010214771 14.085141626635748  9.75451383137309 14.461240952113151  C 9.07567776489415 15.5895389285453  8.56655071503501 16.801414532861347  8.14227817348564 18.055078951119274  C 8.09985091933069 18.180445392945053  8.057423665175738 18.26402302082895  8.057423665175738 18.38938946265473  C 8.057423665175738 18.43117827659668  8.014996411020919 18.472967090538628  8.014996411020919 18.472967090538628  C 7.84528739440112 18.84906641601597  7.4634421070067 19.09979929966759  7.039169565457458 19.14158811360954  L 2.4145988625695964 19.22516574149337  C 2.3721716084147753 19.22516574149337  2.3297443542596965 19.22516574149337  2.2448898459497966 19.22516574149337  C 1.778190050245606 19.308743369377268  1.3963447628511858 19.684842694854673  1.3539175086962358 20.186308462157793  L 0.9296449671469948 24.699500367886454  C 0.887217712992045 25.242754949131523  1.269063000386465 25.744220716434707  1.8206173044005556 25.8277983443186  L 6.8270332946827095 26.70536343709919  C 7.25130583623195 26.788941064983085  7.59072386947142 27.08146276257653  7.675578377781319 27.499350901995882  C 7.88771464855594 28.418704808718353  8.142278173485511 29.33805871544083  8.524123460879931 30.215623808221416  C 8.693832477499729 30.675300761582715  8.90596874827448 31.176766528885842  9.1181050190491 31.594654668305125  C 9.2878140356689 31.97075399378253  9.24538678151382 32.38864213320182  8.99082325658438 32.72295264473734  L 5.978488211584097 36.52573471345314  C 5.639070178344627 36.94362285287242  5.681497432499577 37.52866624805951  6.105769974048818 37.90476557353685  L 9.49995030644352 40.99713780523979  C 9.92422284799289 41.37323713071719  10.518204406161932 41.37323713071719  10.9424769477113 41.03892661918174  L 13.742675721936832 38.656964224491595  C 14.124521009331382 38.3226537129562  14.676075313345473 38.3226537129562  15.057920600739765 38.5733865966077  C 16.627729004472393 39.701684573039906  18.367246424824568 40.53746085187855  20.234045607641715 41.122504247065564  C 20.658318149190958 41.247870688891346  20.99773618243043 41.665758828310636  20.99773618243043 42.12543578167194  L 21.08259069074033 46.22073954798124  C 21.08259069074033 46.76399412922631  21.506863232289696 47.22367108258754  22.100844790458737 47.26545989652949  L 26.682988239191648 47.683348035948846  C 27.23454254320574 47.725136849890795  27.743669593064883 47.34903752441339  27.828524101374782 46.84757175711021  L 27.87095135552973 46.638627687400536  L 28.592214676163625 42.54332392109122  C 28.677069184473524 42.08364696772999  29.01648721771299 41.749336456194534  29.44075975926223 41.665758828310636  C 30.50144111313559 41.45681475860103  31.56212246700895 41.164293061007456  32.62280382088231 40.78819373553011  C 33.17435812489641 40.579249665820434  33.7259124289105 40.32851678216881  34.235039478769764 40.077783898517254  C 34.61688476616418 39.91062864274952  35.041157307713554 39.95241745669147  35.380575340952895 40.20315034034303  L 38.64747391088287 42.71047917685889  C 39.11417370658707 43.044789688394346  39.75058251891106 43.00300087445246  40.13242780630548 42.58511273503311  L 43.22961735961566 39.28379643362056  C 43.314471867925555 39.20021880573666  43.399326376235464 39.07485236391088  43.44175363039028 38.99127473602698  C 43.61146264701008 38.61517541054965  43.526608138700176 38.19728727113029  43.27204461377048 37.904765573536785  L 41.23553641433379 35.56459199278859  C 40.980972889404214 35.27207029519502  40.89611838109432 34.89597096971768  41.02340014355904 34.519871644240276  C 41.06582739771399 34.43629401635638  41.10825465186894 34.352716388472544  41.15068190602389 34.26913876058872  C 42.59320854729167 32.26327569137597  43.61146264700995 30.006679738511615  44.16301695102404 27.624717343821537  C 44.24787145933394 27.206829204402247  44.58728949257341 26.914307506808676  45.01156203412278 26.830729878924846  C 45.053989288277606 26.830729878924846  45.1388437965875 26.830729878924846  45.18127105074258 26.830729878924846  L 48.914869416376625 26.747152251040948  C 49.46642372039084 26.747152251040948  49.890696261940086 26.32926411162166  49.97555077024998 25.786009530376592  L 49.97555077024998 25.66064308855081  L 50.39982331179935 21.272817624647928  Z M 30.501441113135463 32.43043094714377  C 24.17978024405064 35.64816962067248  16.458019987852722 31.761809924072853  15.736756667218833 24.44876748423483  C 15.651902158908934 23.696568833280082  15.651902158908934 22.944370182325276  15.736756667218833 22.15038271742858  C 15.864038429683555 20.64598541551903  16.839865275247014 18.43117827659668  17.900546629120374 17.344669114106416  C 18.027828391585096 17.219302672280634  18.112682899894995 17.093936230454855  18.239964662359846 17.01035860257102  C 25.282888852078692 10.031626674268388  36.69582021975583 15.129861975184065  35.84727513665722 25.07559969336379  C 35.71999337419237 26.371052925563667  35.041157307713426 28.12618311112478  34.192612224614685 29.33805871544083  C 33.98047595384007 29.6305804130344  33.76833968306545 29.881313296685963  33.59863066644565 30.09025736639564  C 32.62280382088219 31.093188901001945  31.562122467008823 31.887176365898636  30.501441113135463 32.43043094714377  Z " fill-rule="nonzero" fill="rgba(174, 195, 255, 1)" stroke="none" transform="matrix(1 0 0 1 729 871 )" class="fill" />
    <path d="M 50.39982331179935 21.272817624647928  C 50.27254154933463 20.687774229460977  49.890696261940214 20.228097276099675  49.339141957926124 20.102730834273896  L 44.54486223841859 19.266954555435255  C 44.16301695102417 19.18337692755136  43.8235989177847 18.890855229957854  43.69631715531998 18.514755904480513  C 43.56903539285513 18.013290137177325  43.399326376235464 17.55361318381609  43.18719010546071 17.052147416512906  C 42.84777207222124 16.132793509790368  42.423499530672004 15.297017230951731  41.956799734967674 14.503029766055036  C 41.74466346419293 14.126930440577697  41.74466346419293 13.667253487216396  42.041654243277584 13.332942975681004  L 45.18127105074258 9.363005651197476  C 45.52068908398205 8.945117511778124  45.47826182982723 8.318285302649159  45.05398928827786 7.9839747911137025  L 41.65980895588316 4.849813745468879  C 41.27796366848874 4.515503233933424  40.6839821103197 4.473714419991476  40.30213682292528 4.808024931526932  L 36.780674728065854 7.816819535346038  C 36.441256694826386 8.109341232939547  35.93212964496711 8.15113004688143  35.55028435757269 7.90039716322987  C 33.853194191375344 6.897465628623564  31.986395008558326 6.145266977668756  30.034741317431404 5.68559002430752  C 29.568041521727086 5.56022358248174  29.22862348848761 5.142335443062452  29.22862348848761 4.682658489701152  L 29.186196234332662 1.882807955591721  C 29.186196234332662 1.3395533743466521  28.761923692783423 0.879876420985352  28.2103693887692 0.8380876070434676  L 23.585798685881468 0.42019946762411564  C 23.50094417757157 0.42019946762411564  23.41608966926167 0.42019946762411564  23.3312351609519 0.42019946762411564  C 22.906962619402528 0.5037770955080114  22.56754458616306 0.8380876070434676  22.482690077853285 1.2559757464627563  L 21.846281265529296 4.766236117585048  L 21.676572248909498 5.643801210365572  C 20.828027165810756 5.852745280075248  19.979482082712146 6.103478163726871  19.173364253768355 6.395999861320316  C 18.070255645740176 6.81388800073967  17.009574291866816 7.357142581984737  16.033747446303227 7.9421859771718175  C 15.651902158908804 8.151130046881494  15.185202363204615 8.151130046881494  14.845784329965145 7.90039716322987  L 11.62131301419024 5.43485714065596  C 11.197040472640872 5.100546629120503  10.560631660316881 5.142335443062388  10.178786372922461 5.56022358248174  L 7.76043288609122 8.151130046881494  L 7.081596819612279 8.903328697836239  C 6.699751532217858 9.32121683725559  6.699751532217858 9.948049046384556  7.039169565457458 10.324148371861895  L 9.62723206890837 13.249365347797106  C 9.92422284799289 13.583675859332564  9.96665010214771 14.085141626635748  9.75451383137309 14.461240952113151  C 9.07567776489415 15.5895389285453  8.56655071503501 16.801414532861347  8.14227817348564 18.055078951119274  C 8.09985091933069 18.180445392945053  8.057423665175738 18.26402302082895  8.057423665175738 18.38938946265473  C 8.057423665175738 18.43117827659668  8.014996411020919 18.472967090538628  8.014996411020919 18.472967090538628  C 7.84528739440112 18.84906641601597  7.4634421070067 19.09979929966759  7.039169565457458 19.14158811360954  L 2.4145988625695964 19.22516574149337  C 2.3721716084147753 19.22516574149337  2.3297443542596965 19.22516574149337  2.2448898459497966 19.22516574149337  C 1.778190050245606 19.308743369377268  1.3963447628511858 19.684842694854673  1.3539175086962358 20.186308462157793  L 0.9296449671469948 24.699500367886454  C 0.887217712992045 25.242754949131523  1.269063000386465 25.744220716434707  1.8206173044005556 25.8277983443186  L 6.8270332946827095 26.70536343709919  C 7.25130583623195 26.788941064983085  7.59072386947142 27.08146276257653  7.675578377781319 27.499350901995882  C 7.88771464855594 28.418704808718353  8.142278173485511 29.33805871544083  8.524123460879931 30.215623808221416  C 8.693832477499729 30.675300761582715  8.90596874827448 31.176766528885842  9.1181050190491 31.594654668305125  C 9.2878140356689 31.97075399378253  9.24538678151382 32.38864213320182  8.99082325658438 32.72295264473734  L 5.978488211584097 36.52573471345314  C 5.639070178344627 36.94362285287242  5.681497432499577 37.52866624805951  6.105769974048818 37.90476557353685  L 9.49995030644352 40.99713780523979  C 9.92422284799289 41.37323713071719  10.518204406161932 41.37323713071719  10.9424769477113 41.03892661918174  L 13.742675721936832 38.656964224491595  C 14.124521009331382 38.3226537129562  14.676075313345473 38.3226537129562  15.057920600739765 38.5733865966077  C 16.627729004472393 39.701684573039906  18.367246424824568 40.53746085187855  20.234045607641715 41.122504247065564  C 20.658318149190958 41.247870688891346  20.99773618243043 41.665758828310636  20.99773618243043 42.12543578167194  L 21.08259069074033 46.22073954798124  C 21.08259069074033 46.76399412922631  21.506863232289696 47.22367108258754  22.100844790458737 47.26545989652949  L 26.682988239191648 47.683348035948846  C 27.23454254320574 47.725136849890795  27.743669593064883 47.34903752441339  27.828524101374782 46.84757175711021  L 27.87095135552973 46.638627687400536  L 28.592214676163625 42.54332392109122  C 28.677069184473524 42.08364696772999  29.01648721771299 41.749336456194534  29.44075975926223 41.665758828310636  C 30.50144111313559 41.45681475860103  31.56212246700895 41.164293061007456  32.62280382088231 40.78819373553011  C 33.17435812489641 40.579249665820434  33.7259124289105 40.32851678216881  34.235039478769764 40.077783898517254  C 34.61688476616418 39.91062864274952  35.041157307713554 39.95241745669147  35.380575340952895 40.20315034034303  L 38.64747391088287 42.71047917685889  C 39.11417370658707 43.044789688394346  39.75058251891106 43.00300087445246  40.13242780630548 42.58511273503311  L 43.22961735961566 39.28379643362056  C 43.314471867925555 39.20021880573666  43.399326376235464 39.07485236391088  43.44175363039028 38.99127473602698  C 43.61146264701008 38.61517541054965  43.526608138700176 38.19728727113029  43.27204461377048 37.904765573536785  L 41.23553641433379 35.56459199278859  C 40.980972889404214 35.27207029519502  40.89611838109432 34.89597096971768  41.02340014355904 34.519871644240276  C 41.06582739771399 34.43629401635638  41.10825465186894 34.352716388472544  41.15068190602389 34.26913876058872  C 42.59320854729167 32.26327569137597  43.61146264700995 30.006679738511615  44.16301695102404 27.624717343821537  C 44.24787145933394 27.206829204402247  44.58728949257341 26.914307506808676  45.01156203412278 26.830729878924846  C 45.053989288277606 26.830729878924846  45.1388437965875 26.830729878924846  45.18127105074258 26.830729878924846  L 48.914869416376625 26.747152251040948  C 49.46642372039084 26.747152251040948  49.890696261940086 26.32926411162166  49.97555077024998 25.786009530376592  L 49.97555077024998 25.66064308855081  L 50.39982331179935 21.272817624647928  Z " stroke-width="0" stroke-dasharray="0" stroke="rgba(255, 255, 255, 0)" fill="none" transform="matrix(1 0 0 1 729 871 )" class="stroke" mask="url(#Clip446)" />
    <path d="M 30.501441113135463 32.43043094714377  C 24.17978024405064 35.64816962067248  16.458019987852722 31.761809924072853  15.736756667218833 24.44876748423483  C 15.651902158908934 23.696568833280082  15.651902158908934 22.944370182325276  15.736756667218833 22.15038271742858  C 15.864038429683555 20.64598541551903  16.839865275247014 18.43117827659668  17.900546629120374 17.344669114106416  C 18.027828391585096 17.219302672280634  18.112682899894995 17.093936230454855  18.239964662359846 17.01035860257102  C 25.282888852078692 10.031626674268388  36.69582021975583 15.129861975184065  35.84727513665722 25.07559969336379  C 35.71999337419237 26.371052925563667  35.041157307713426 28.12618311112478  34.192612224614685 29.33805871544083  C 33.98047595384007 29.6305804130344  33.76833968306545 29.881313296685963  33.59863066644565 30.09025736639564  C 32.62280382088219 31.093188901001945  31.562122467008823 31.887176365898636  30.501441113135463 32.43043094714377  Z " stroke-width="0" stroke-dasharray="0" stroke="rgba(255, 255, 255, 0)" fill="none" transform="matrix(1 0 0 1 729 871 )" class="stroke" mask="url(#Clip446)" />
  </g>
</svg>