<?xml version="1.0" encoding="utf-8"?>
<svg version="1.1" xmlns:xlink="http://www.w3.org/1999/xlink" width="36px" height="36px" xmlns="http://www.w3.org/2000/svg">
  <defs>
    <pattern id="BGPattern" patternUnits="userSpaceOnUse" alignment="0 0" imageRepeat="None" />
    <mask fill="white" id="Clip447">
      <path d="M 35.767061454364566 18.583184942852455  C 35.93552261056817 18.16203205234389  35.68283087626308 17.782994450886193  35.303793274805386 17.65664858373365  L 32.01880072883873 16.56165106841143  C 31.76610899453364 16.47742049030969  31.55553254927942 16.224728756004602  31.51341726022855 15.929921732648644  C 31.47130197117781 15.550884131190948  31.387071393075942 15.21396181878412  31.30284081497433 14.834924217326424  C 31.134379658770854 14.16107959251277  30.965918502567376 13.487234967699116  30.713226768262288 12.855505631936332  C 30.58688090110968 12.56069860858031  30.671111479211547 12.223776296173547  30.881687924465766 12.013199850919264  L 33.53495113466964 9.486282507868061  C 33.82975815802547 9.233590773562973  33.82975815802547 8.770322594003538  33.61918171277125 8.475515570647644  L 31.55553254927942 5.864367649494703  C 31.30284081497433 5.569560626138745  30.923803213516635 5.485330048037071  30.58688090110968 5.6959064932912895  L 27.765156534702584 7.506863922477969  C 27.512464800397495 7.675325078681382  27.1334271989398 7.675325078681382  26.88073546463471 7.464748633427099  C 25.78573794931262 6.538212274308293  24.56439456683779 5.822252360443834  23.21670531721061 5.316868891833593  C 22.879783004803656 5.190523024681049  22.711321848600434 4.853600712274222  22.753437137651304 4.516678399867395  L 23.006128871956392 2.495144525426497  C 23.048244161007133 2.1161069239688004  22.795552426702045 1.737069322511104  22.41651482524435 1.6528387444094292  L 19.215752857379556 0.8947635414941004  C 19.131522279277945 0.8947635414941004  19.089406990226948 0.8526482524432311  19.005176412125337 0.8526482524432311  C 18.71036938876938 0.8526482524432311  18.415562365413294 1.06322469769745  18.28921649826094 1.3580317210534716  L 17.44691071724381 3.8007184860029355  L 17.23633427198959 4.390332532714851  C 16.604604936226806 4.43244782176572  16.014990889514763 4.516678399867395  15.383261553751979 4.685139556070872  C 14.540955772734975 4.853600712274222  13.740765280768713 5.148407735630244  12.982690077853448 5.443214758986201  C 12.68788305449749 5.569560626138745  12.350960742090663 5.485330048037071  12.140384296836316 5.274753602782788  L 10.118850422395354 3.168989150240151  C 9.824043399039397 2.874182126884129  9.402890508530959 2.832066837833324  9.065968196124004 3.084758572138412  L 7.086549610734039 4.6851395560708085  L 6.539050853072865 5.14840773563018  C 6.244243829716908 5.401099469935332  6.160013251615169 5.822252360443834  6.370589696869388 6.159174672850661  L 7.886740102700045 8.51763085969845  C 8.055201258903523 8.770322594003538  8.055201258903523 9.149360195461234  7.844624813649304 9.402051929766387  C 7.255010766937261 10.160127132681716  6.749627298327084 10.960317624647914  6.328474407818518 11.802623405664981  C 6.286359118767777 11.88685398376672  6.244243829716908 11.928969272817525  6.20212854066591 12.013199850919264  C 6.20212854066591 12.055315139970133  6.160013251615169 12.055315139970133  6.160013251615169 12.097430429021003  C 5.991552095411691 12.350122163326155  5.696745072055734 12.518583319529505  5.401938048699648 12.476468030478635  L 2.1169455027331168 12.055315139970133  C 2.0748302136822474 12.055315139970133  2.032714924631506 12.055315139970133  1.9905996355803808 12.055315139970133  C 1.6536773231735538 12.055315139970133  1.358870299817596 12.308006874275286  1.2746397217159853 12.644929186682049  L 0.5165645188005925 15.845691154546905  C 0.4323339406989817 16.224728756004602  0.6429103859532006 16.603766357462234  1.021947987410769 16.77222751366571  L 4.47540168958065 17.909340318038737  C 4.77020871293648 17.993570896140476  4.980785158190827 18.288377919496433  4.980785158190827 18.58318494285239  C 5.022900447241568 19.257029567666045  5.107131025343435 19.9308741924797  5.275592181546656 20.604718817293353  C 5.359822759648267 20.983756418750986  5.444053337750134 21.320678731157876  5.570399204902614 21.65760104356464  C 5.654629783004225 21.95240806692066  5.570399204902614 22.24721509027662  5.359822759648267 22.457791535530838  L 2.8329054165971286 24.858363011429496  C 2.538098393241171 25.11105474573465  2.538098393241171 25.57432292529402  2.7486748384955177 25.869129948649977  L 4.812324001987349 28.438162580751985  C 5.0650157362924375 28.732969604108007  5.486168626800875 28.81720018220968  5.82309093920783 28.6066237369554  L 8.05520125890314 27.174703909226416  C 8.350008282258969 26.964127463972133  8.729045883716793 27.006242753023002  8.981737618021882 27.258934487328155  C 9.992504555242363 28.227586135497766  11.129617359615324 29.02777662746403  12.350960742090024 29.659505963226813  C 12.645767765445981 29.785851830379357  12.814228921649459 30.122774142786184  12.77211363259859 30.45969645519301  L 12.393076031140893 33.407766688752716  C 12.350960742090024 33.78680429021035  12.603652476395112 34.165841891668045  12.982690077852808 34.29218775882065  L 16.1834520457176 35.05026296173598  C 16.562489647175425 35.13449353983772  16.941527248633122 34.92391709458344  17.067873115785474 34.54487949312574  L 17.109988404836344 34.4185336259732  L 18.078640053006083 31.554693970515167  C 18.162870631107694 31.25988694715921  18.45767765446378 31.049310501904927  18.79459996687048 31.049310501904927  C 19.55267516978587 31.007195212854057  20.352865661752006 30.922964634752383  21.153056153718268 30.754503478548905  C 21.574209044226706 30.67027290044723  21.99536193473527 30.543927033294686  22.374399536192968 30.417581166142142  C 22.669206559548925 30.333350588040403  22.96401358290501 30.417581166142142  23.17459002815923 30.628157611396425  L 25.23823919165106 32.77603735298993  C 25.53304621500702 33.07084437634589  25.996314394566454 33.112959665396694  26.29112141792241 32.860267931091606  L 28.86015405002442 30.79661876759984  C 28.94438462812603 30.75450347854897  28.986499917177028 30.670272900447294  29.028615206227897 30.586042322345556  C 29.154961073380505 30.333350588040467  29.197076362431247 30.03854356468451  29.028615206227897 29.785851830379357  L 27.80727182375307 27.890663823091003  C 27.68092595660046 27.63797208878585  27.638810667549592 27.385280354480763  27.7651565347022 27.132588620175675  C 27.80727182375307 27.090473331124805  27.84938711280394 27.00624275302313  27.891502401854936 26.96412746397226  C 29.112845784329636 25.70066879244669  30.08149743249912 24.18451838661597  30.713226768261904 22.499906824581835  C 30.797457346363643 22.205099801225813  31.09226436971973 22.0366386450224  31.38707139307556 22.0366386450224  C 31.429186682126428 22.0366386450224  31.47130197117717 22.0366386450224  31.513417260228167 22.0366386450224  L 34.16668047043204 22.373560957429227  C 34.54571807188974 22.415676246480096  34.924755673347434 22.162984512174944  35.008986251449045 21.78394691071731  L 35.008986251449045 21.699716332615573  L 35.767061454364566 18.583184942852455  Z M 20.689787974159216 24.479325409971864  C 15.888645022362155 26.121821682955066  10.83481033625975 22.499906824581707  11.129617359615708 17.193380404174214  C 11.171732648666449 16.645881646513168  11.255963226768316 16.098382888852058  11.382309093920796 15.550884131190948  C 11.635000828225884 14.498001904919661  12.561537187344754 13.02396678813981  13.445958257412627 12.308006874275286  C 13.530188835514238 12.223776296173547  13.614419413615977 12.181661007122742  13.740765280768457 12.097430429021003  C 19.468444591684516 7.843786234884796  26.96496604273645 12.729159764783788  25.280354480702314 19.762413036276286  C 25.069778035447968 20.688949395395092  24.39593341063444 21.868177488818922  23.63785820771892 22.66836798078512  C 23.469397051515443 22.836829136988534  23.300935895312094 23.005290293191948  23.132474739108744 23.13163616034449  C 22.33228424714261 23.76336549610734  21.532093755176348 24.184518386615842  20.689787974159216 24.479325409971864  Z " fill-rule="evenodd" />
    </mask>
  </defs>
  <g transform="matrix(1 0 0 1 -1024 -899 )">
    <path d="M 35.767061454364566 18.583184942852455  C 35.93552261056817 18.16203205234389  35.68283087626308 17.782994450886193  35.303793274805386 17.65664858373365  L 32.01880072883873 16.56165106841143  C 31.76610899453364 16.47742049030969  31.55553254927942 16.224728756004602  31.51341726022855 15.929921732648644  C 31.47130197117781 15.550884131190948  31.387071393075942 15.21396181878412  31.30284081497433 14.834924217326424  C 31.134379658770854 14.16107959251277  30.965918502567376 13.487234967699116  30.713226768262288 12.855505631936332  C 30.58688090110968 12.56069860858031  30.671111479211547 12.223776296173547  30.881687924465766 12.013199850919264  L 33.53495113466964 9.486282507868061  C 33.82975815802547 9.233590773562973  33.82975815802547 8.770322594003538  33.61918171277125 8.475515570647644  L 31.55553254927942 5.864367649494703  C 31.30284081497433 5.569560626138745  30.923803213516635 5.485330048037071  30.58688090110968 5.6959064932912895  L 27.765156534702584 7.506863922477969  C 27.512464800397495 7.675325078681382  27.1334271989398 7.675325078681382  26.88073546463471 7.464748633427099  C 25.78573794931262 6.538212274308293  24.56439456683779 5.822252360443834  23.21670531721061 5.316868891833593  C 22.879783004803656 5.190523024681049  22.711321848600434 4.853600712274222  22.753437137651304 4.516678399867395  L 23.006128871956392 2.495144525426497  C 23.048244161007133 2.1161069239688004  22.795552426702045 1.737069322511104  22.41651482524435 1.6528387444094292  L 19.215752857379556 0.8947635414941004  C 19.131522279277945 0.8947635414941004  19.089406990226948 0.8526482524432311  19.005176412125337 0.8526482524432311  C 18.71036938876938 0.8526482524432311  18.415562365413294 1.06322469769745  18.28921649826094 1.3580317210534716  L 17.44691071724381 3.8007184860029355  L 17.23633427198959 4.390332532714851  C 16.604604936226806 4.43244782176572  16.014990889514763 4.516678399867395  15.383261553751979 4.685139556070872  C 14.540955772734975 4.853600712274222  13.740765280768713 5.148407735630244  12.982690077853448 5.443214758986201  C 12.68788305449749 5.569560626138745  12.350960742090663 5.485330048037071  12.140384296836316 5.274753602782788  L 10.118850422395354 3.168989150240151  C 9.824043399039397 2.874182126884129  9.402890508530959 2.832066837833324  9.065968196124004 3.084758572138412  L 7.086549610734039 4.6851395560708085  L 6.539050853072865 5.14840773563018  C 6.244243829716908 5.401099469935332  6.160013251615169 5.822252360443834  6.370589696869388 6.159174672850661  L 7.886740102700045 8.51763085969845  C 8.055201258903523 8.770322594003538  8.055201258903523 9.149360195461234  7.844624813649304 9.402051929766387  C 7.255010766937261 10.160127132681716  6.749627298327084 10.960317624647914  6.328474407818518 11.802623405664981  C 6.286359118767777 11.88685398376672  6.244243829716908 11.928969272817525  6.20212854066591 12.013199850919264  C 6.20212854066591 12.055315139970133  6.160013251615169 12.055315139970133  6.160013251615169 12.097430429021003  C 5.991552095411691 12.350122163326155  5.696745072055734 12.518583319529505  5.401938048699648 12.476468030478635  L 2.1169455027331168 12.055315139970133  C 2.0748302136822474 12.055315139970133  2.032714924631506 12.055315139970133  1.9905996355803808 12.055315139970133  C 1.6536773231735538 12.055315139970133  1.358870299817596 12.308006874275286  1.2746397217159853 12.644929186682049  L 0.5165645188005925 15.845691154546905  C 0.4323339406989817 16.224728756004602  0.6429103859532006 16.603766357462234  1.021947987410769 16.77222751366571  L 4.47540168958065 17.909340318038737  C 4.77020871293648 17.993570896140476  4.980785158190827 18.288377919496433  4.980785158190827 18.58318494285239  C 5.022900447241568 19.257029567666045  5.107131025343435 19.9308741924797  5.275592181546656 20.604718817293353  C 5.359822759648267 20.983756418750986  5.444053337750134 21.320678731157876  5.570399204902614 21.65760104356464  C 5.654629783004225 21.95240806692066  5.570399204902614 22.24721509027662  5.359822759648267 22.457791535530838  L 2.8329054165971286 24.858363011429496  C 2.538098393241171 25.11105474573465  2.538098393241171 25.57432292529402  2.7486748384955177 25.869129948649977  L 4.812324001987349 28.438162580751985  C 5.0650157362924375 28.732969604108007  5.486168626800875 28.81720018220968  5.82309093920783 28.6066237369554  L 8.05520125890314 27.174703909226416  C 8.350008282258969 26.964127463972133  8.729045883716793 27.006242753023002  8.981737618021882 27.258934487328155  C 9.992504555242363 28.227586135497766  11.129617359615324 29.02777662746403  12.350960742090024 29.659505963226813  C 12.645767765445981 29.785851830379357  12.814228921649459 30.122774142786184  12.77211363259859 30.45969645519301  L 12.393076031140893 33.407766688752716  C 12.350960742090024 33.78680429021035  12.603652476395112 34.165841891668045  12.982690077852808 34.29218775882065  L 16.1834520457176 35.05026296173598  C 16.562489647175425 35.13449353983772  16.941527248633122 34.92391709458344  17.067873115785474 34.54487949312574  L 17.109988404836344 34.4185336259732  L 18.078640053006083 31.554693970515167  C 18.162870631107694 31.25988694715921  18.45767765446378 31.049310501904927  18.79459996687048 31.049310501904927  C 19.55267516978587 31.007195212854057  20.352865661752006 30.922964634752383  21.153056153718268 30.754503478548905  C 21.574209044226706 30.67027290044723  21.99536193473527 30.543927033294686  22.374399536192968 30.417581166142142  C 22.669206559548925 30.333350588040403  22.96401358290501 30.417581166142142  23.17459002815923 30.628157611396425  L 25.23823919165106 32.77603735298993  C 25.53304621500702 33.07084437634589  25.996314394566454 33.112959665396694  26.29112141792241 32.860267931091606  L 28.86015405002442 30.79661876759984  C 28.94438462812603 30.75450347854897  28.986499917177028 30.670272900447294  29.028615206227897 30.586042322345556  C 29.154961073380505 30.333350588040467  29.197076362431247 30.03854356468451  29.028615206227897 29.785851830379357  L 27.80727182375307 27.890663823091003  C 27.68092595660046 27.63797208878585  27.638810667549592 27.385280354480763  27.7651565347022 27.132588620175675  C 27.80727182375307 27.090473331124805  27.84938711280394 27.00624275302313  27.891502401854936 26.96412746397226  C 29.112845784329636 25.70066879244669  30.08149743249912 24.18451838661597  30.713226768261904 22.499906824581835  C 30.797457346363643 22.205099801225813  31.09226436971973 22.0366386450224  31.38707139307556 22.0366386450224  C 31.429186682126428 22.0366386450224  31.47130197117717 22.0366386450224  31.513417260228167 22.0366386450224  L 34.16668047043204 22.373560957429227  C 34.54571807188974 22.415676246480096  34.924755673347434 22.162984512174944  35.008986251449045 21.78394691071731  L 35.008986251449045 21.699716332615573  L 35.767061454364566 18.583184942852455  Z M 20.689787974159216 24.479325409971864  C 15.888645022362155 26.121821682955066  10.83481033625975 22.499906824581707  11.129617359615708 17.193380404174214  C 11.171732648666449 16.645881646513168  11.255963226768316 16.098382888852058  11.382309093920796 15.550884131190948  C 11.635000828225884 14.498001904919661  12.561537187344754 13.02396678813981  13.445958257412627 12.308006874275286  C 13.530188835514238 12.223776296173547  13.614419413615977 12.181661007122742  13.740765280768457 12.097430429021003  C 19.468444591684516 7.843786234884796  26.96496604273645 12.729159764783788  25.280354480702314 19.762413036276286  C 25.069778035447968 20.688949395395092  24.39593341063444 21.868177488818922  23.63785820771892 22.66836798078512  C 23.469397051515443 22.836829136988534  23.300935895312094 23.005290293191948  23.132474739108744 23.13163616034449  C 22.33228424714261 23.76336549610734  21.532093755176348 24.184518386615842  20.689787974159216 24.479325409971864  Z " fill-rule="nonzero" fill="rgba(210, 224, 255, 1)" stroke="none" transform="matrix(1 0 0 1 1024 899 )" class="fill" />
    <path d="M 35.767061454364566 18.583184942852455  C 35.93552261056817 18.16203205234389  35.68283087626308 17.782994450886193  35.303793274805386 17.65664858373365  L 32.01880072883873 16.56165106841143  C 31.76610899453364 16.47742049030969  31.55553254927942 16.224728756004602  31.51341726022855 15.929921732648644  C 31.47130197117781 15.550884131190948  31.387071393075942 15.21396181878412  31.30284081497433 14.834924217326424  C 31.134379658770854 14.16107959251277  30.965918502567376 13.487234967699116  30.713226768262288 12.855505631936332  C 30.58688090110968 12.56069860858031  30.671111479211547 12.223776296173547  30.881687924465766 12.013199850919264  L 33.53495113466964 9.486282507868061  C 33.82975815802547 9.233590773562973  33.82975815802547 8.770322594003538  33.61918171277125 8.475515570647644  L 31.55553254927942 5.864367649494703  C 31.30284081497433 5.569560626138745  30.923803213516635 5.485330048037071  30.58688090110968 5.6959064932912895  L 27.765156534702584 7.506863922477969  C 27.512464800397495 7.675325078681382  27.1334271989398 7.675325078681382  26.88073546463471 7.464748633427099  C 25.78573794931262 6.538212274308293  24.56439456683779 5.822252360443834  23.21670531721061 5.316868891833593  C 22.879783004803656 5.190523024681049  22.711321848600434 4.853600712274222  22.753437137651304 4.516678399867395  L 23.006128871956392 2.495144525426497  C 23.048244161007133 2.1161069239688004  22.795552426702045 1.737069322511104  22.41651482524435 1.6528387444094292  L 19.215752857379556 0.8947635414941004  C 19.131522279277945 0.8947635414941004  19.089406990226948 0.8526482524432311  19.005176412125337 0.8526482524432311  C 18.71036938876938 0.8526482524432311  18.415562365413294 1.06322469769745  18.28921649826094 1.3580317210534716  L 17.44691071724381 3.8007184860029355  L 17.23633427198959 4.390332532714851  C 16.604604936226806 4.43244782176572  16.014990889514763 4.516678399867395  15.383261553751979 4.685139556070872  C 14.540955772734975 4.853600712274222  13.740765280768713 5.148407735630244  12.982690077853448 5.443214758986201  C 12.68788305449749 5.569560626138745  12.350960742090663 5.485330048037071  12.140384296836316 5.274753602782788  L 10.118850422395354 3.168989150240151  C 9.824043399039397 2.874182126884129  9.402890508530959 2.832066837833324  9.065968196124004 3.084758572138412  L 7.086549610734039 4.6851395560708085  L 6.539050853072865 5.14840773563018  C 6.244243829716908 5.401099469935332  6.160013251615169 5.822252360443834  6.370589696869388 6.159174672850661  L 7.886740102700045 8.51763085969845  C 8.055201258903523 8.770322594003538  8.055201258903523 9.149360195461234  7.844624813649304 9.402051929766387  C 7.255010766937261 10.160127132681716  6.749627298327084 10.960317624647914  6.328474407818518 11.802623405664981  C 6.286359118767777 11.88685398376672  6.244243829716908 11.928969272817525  6.20212854066591 12.013199850919264  C 6.20212854066591 12.055315139970133  6.160013251615169 12.055315139970133  6.160013251615169 12.097430429021003  C 5.991552095411691 12.350122163326155  5.696745072055734 12.518583319529505  5.401938048699648 12.476468030478635  L 2.1169455027331168 12.055315139970133  C 2.0748302136822474 12.055315139970133  2.032714924631506 12.055315139970133  1.9905996355803808 12.055315139970133  C 1.6536773231735538 12.055315139970133  1.358870299817596 12.308006874275286  1.2746397217159853 12.644929186682049  L 0.5165645188005925 15.845691154546905  C 0.4323339406989817 16.224728756004602  0.6429103859532006 16.603766357462234  1.021947987410769 16.77222751366571  L 4.47540168958065 17.909340318038737  C 4.77020871293648 17.993570896140476  4.980785158190827 18.288377919496433  4.980785158190827 18.58318494285239  C 5.022900447241568 19.257029567666045  5.107131025343435 19.9308741924797  5.275592181546656 20.604718817293353  C 5.359822759648267 20.983756418750986  5.444053337750134 21.320678731157876  5.570399204902614 21.65760104356464  C 5.654629783004225 21.95240806692066  5.570399204902614 22.24721509027662  5.359822759648267 22.457791535530838  L 2.8329054165971286 24.858363011429496  C 2.538098393241171 25.11105474573465  2.538098393241171 25.57432292529402  2.7486748384955177 25.869129948649977  L 4.812324001987349 28.438162580751985  C 5.0650157362924375 28.732969604108007  5.486168626800875 28.81720018220968  5.82309093920783 28.6066237369554  L 8.05520125890314 27.174703909226416  C 8.350008282258969 26.964127463972133  8.729045883716793 27.006242753023002  8.981737618021882 27.258934487328155  C 9.992504555242363 28.227586135497766  11.129617359615324 29.02777662746403  12.350960742090024 29.659505963226813  C 12.645767765445981 29.785851830379357  12.814228921649459 30.122774142786184  12.77211363259859 30.45969645519301  L 12.393076031140893 33.407766688752716  C 12.350960742090024 33.78680429021035  12.603652476395112 34.165841891668045  12.982690077852808 34.29218775882065  L 16.1834520457176 35.05026296173598  C 16.562489647175425 35.13449353983772  16.941527248633122 34.92391709458344  17.067873115785474 34.54487949312574  L 17.109988404836344 34.4185336259732  L 18.078640053006083 31.554693970515167  C 18.162870631107694 31.25988694715921  18.45767765446378 31.049310501904927  18.79459996687048 31.049310501904927  C 19.55267516978587 31.007195212854057  20.352865661752006 30.922964634752383  21.153056153718268 30.754503478548905  C 21.574209044226706 30.67027290044723  21.99536193473527 30.543927033294686  22.374399536192968 30.417581166142142  C 22.669206559548925 30.333350588040403  22.96401358290501 30.417581166142142  23.17459002815923 30.628157611396425  L 25.23823919165106 32.77603735298993  C 25.53304621500702 33.07084437634589  25.996314394566454 33.112959665396694  26.29112141792241 32.860267931091606  L 28.86015405002442 30.79661876759984  C 28.94438462812603 30.75450347854897  28.986499917177028 30.670272900447294  29.028615206227897 30.586042322345556  C 29.154961073380505 30.333350588040467  29.197076362431247 30.03854356468451  29.028615206227897 29.785851830379357  L 27.80727182375307 27.890663823091003  C 27.68092595660046 27.63797208878585  27.638810667549592 27.385280354480763  27.7651565347022 27.132588620175675  C 27.80727182375307 27.090473331124805  27.84938711280394 27.00624275302313  27.891502401854936 26.96412746397226  C 29.112845784329636 25.70066879244669  30.08149743249912 24.18451838661597  30.713226768261904 22.499906824581835  C 30.797457346363643 22.205099801225813  31.09226436971973 22.0366386450224  31.38707139307556 22.0366386450224  C 31.429186682126428 22.0366386450224  31.47130197117717 22.0366386450224  31.513417260228167 22.0366386450224  L 34.16668047043204 22.373560957429227  C 34.54571807188974 22.415676246480096  34.924755673347434 22.162984512174944  35.008986251449045 21.78394691071731  L 35.008986251449045 21.699716332615573  L 35.767061454364566 18.583184942852455  Z " stroke-width="0" stroke-dasharray="0" stroke="rgba(255, 255, 255, 0)" fill="none" transform="matrix(1 0 0 1 1024 899 )" class="stroke" mask="url(#Clip447)" />
    <path d="M 20.689787974159216 24.479325409971864  C 15.888645022362155 26.121821682955066  10.83481033625975 22.499906824581707  11.129617359615708 17.193380404174214  C 11.171732648666449 16.645881646513168  11.255963226768316 16.098382888852058  11.382309093920796 15.550884131190948  C 11.635000828225884 14.498001904919661  12.561537187344754 13.02396678813981  13.445958257412627 12.308006874275286  C 13.530188835514238 12.223776296173547  13.614419413615977 12.181661007122742  13.740765280768457 12.097430429021003  C 19.468444591684516 7.843786234884796  26.96496604273645 12.729159764783788  25.280354480702314 19.762413036276286  C 25.069778035447968 20.688949395395092  24.39593341063444 21.868177488818922  23.63785820771892 22.66836798078512  C 23.469397051515443 22.836829136988534  23.300935895312094 23.005290293191948  23.132474739108744 23.13163616034449  C 22.33228424714261 23.76336549610734  21.532093755176348 24.184518386615842  20.689787974159216 24.479325409971864  Z " stroke-width="0" stroke-dasharray="0" stroke="rgba(255, 255, 255, 0)" fill="none" transform="matrix(1 0 0 1 1024 899 )" class="stroke" mask="url(#Clip447)" />
  </g>
</svg>