<?xml version="1.0" encoding="utf-8"?>
<svg version="1.1" xmlns:xlink="http://www.w3.org/1999/xlink" width="51px" height="48px" xmlns="http://www.w3.org/2000/svg">
  <defs>
    <pattern id="BGPattern" patternUnits="userSpaceOnUse" alignment="0 0" imageRepeat="None" />
    <mask fill="white" id="Clip448">
      <path d="M 49.91378720114903 18.067097857783917  C 49.95621445530333 17.39847683471307  49.53194191375396 16.93879988135177  48.98038760974 16.897011067409885  L 44.10125338192257 16.56270055587443  C 43.67698084037333 16.52091174193248  43.33756280713373 16.270178858280858  43.16785379051419 15.894079532803516  C 42.955717519739565 15.434402579442217  42.743581248964816 14.974725626080978  42.48901772403525 14.515048672719807  C 42.022317928331056 13.679272393881167  41.55561813262686 12.843496115042527  40.96163657445769 12.09129746408778  C 40.70707304952813 11.756986952552325  40.6646457953733 11.25552118524914  40.91920932030287 10.921210673713684  L 43.592126332063685 6.658751651636647  C 43.8891171111482 6.199074698275348  43.76183534868348 5.614031303088331  43.33756280713412 5.279720791552876  L 39.60396444149994 2.563447885327341  C 39.17969189995057 2.2709261877337688  38.58571034178153 2.3127150016757168  38.24629230854206 2.688814327153121  L 35.064248246922105 6.073708256449569  C 34.767257467837716 6.408018767985023  34.25813041797832 6.49159639586892  33.83385787642895 6.324441140101191  C 32.05191320192183 5.488664861262551  30.10025951079478 4.945410280017482  28.106178565513037 4.736466210307807  C 27.63947876980872 4.694677396365859  27.2576334824143 4.318578070888518  27.172778974104524 3.8171123035852697  L 26.7909336867101 1.0172617694758397  C 26.706079178400334 0.4740071882307707  26.239379382695883 0.0979078627533031  25.687825078681797 0.0979078627533031  L 21.06325437579406 0.18148549063719888  C 20.978399867484292 0.18148549063719888  20.89354535917426 0.18148549063719888  20.80869085086449 0.22327430457914677  C 20.38441830931512 0.34864074640492704  20.08742753023073 0.7247400718823312  20.04500027607565 1.1426282113016832  L 19.79043675114608 4.736466210307807  L 19.74800949699113 5.614031303088395  C 18.94189166804734 5.906553000681903  18.135773839103678 6.24086351221736  17.32965601016002 6.658751651636647  C 16.268974656286655 7.20200623288178  15.293147810723196 7.8288384420107455  14.359748219314687 8.539248279023607  C 14.020330186075217 8.789981162675229  13.553630390370895 8.831769976617178  13.171785102976475 8.6228259069075  L 9.692750262272003 6.491596395868983  C 9.226050466567813 6.199074698275411  8.589641654243822 6.324441140101255  8.250223621004222 6.784118093462492  L 6.128860913257503 9.583968627571922  L 5.534879355088462 10.377956092468615  C 5.195461321848863 10.837633045829914  5.280315830158891 11.422676441016932  5.662161117553311 11.798775766494336  L 8.547214400088873 14.431471044835973  C 8.88663243332847 14.723992742429548  8.971486941638243 15.225458509732668  8.801777925018444 15.601557835210071  C 8.250223621004222 16.813433439526055  7.8683783336099316 18.067097857784045  7.613814808680232 19.362551089983924  C 7.571387554525282 19.487917531809703  7.571387554525282 19.571495159693598  7.5289603003704615 19.69686160151938  C 7.5289603003704615 19.738650415461265  7.5289603003704615 19.780439229403214  7.486533046215512 19.822228043345095  C 7.3592512837506625 20.240116182764446  7.019833250511321 20.532637880357957  6.59556070896195 20.574426694299905  L 2.013417260229039 21.15947008948692  C 1.970990006074218 21.15947008948692  1.9285627519192683 21.15947008948692  1.8437082436093684 21.20125890342887  C 1.3770084479050486 21.326625345254648  1.0375904146655786 21.744513484673938  1.0800176688203995 22.245979251977122  L 1.1648721771302992 26.800959971647668  C 1.1648721771302992 27.3442145528928  1.5891447186795402 27.803891506254036  2.18312627684871 27.845680320195985  L 7.274396775440633 28.179990831731438  C 7.698669316990004 28.221779645673386  8.080514604384424 28.472512529324945  8.207796366849145 28.8904006687443  C 8.504787145933665 29.767965761524888  8.886632433328085 30.645530854305413  9.353332229032276 31.523095947085935  C 9.607895753961845 31.982772900447237  9.862459278891416 32.40066103986653  10.117022803821117 32.86033799322783  C 10.329159074595866 33.19464850476322  10.329159074595866 33.65432545812452  10.117022803821117 33.98863596965998  L 7.571387554525153 38.08393973596928  C 7.274396775440633 38.54361668933052  7.401678537905355 39.128660084517534  7.8259510794547245 39.46297059605299  L 11.517122190933817 42.137454688336575  C 11.983821986638137 42.47176519987204  12.577803544807178 42.42997638593015  12.959648832201598 42.012088246510864  L 15.46285682734274 39.337604154227215  C 15.802274860582337 38.96150482874981  16.353829164596302 38.877927200865976  16.77810170614567 39.128660084517534  C 18.47519187234302 40.04801399124007  20.29956380100522 40.716635014310924  22.208790237977194 41.09273433978839  C 22.675490033681385 41.17631196767222  23.01490806692098 41.552411293149625  23.057335321075804 42.012088246510864  L 23.608889625090022 46.10739201282017  C 23.69374413339992 46.65064659406524  24.160443929104243 47.06853473348459  24.711998233118333 47.06853473348459  L 29.294141681851247 46.98495710560069  C 29.84569598586547 46.98495710560069  30.312395781569656 46.52528015223946  30.312395781569656 46.02381438493627  L 30.312395781569656 45.81487031522666  L 30.609386560654045 41.67777773497541  C 30.651813814809 41.21810078161417  30.948804593893648 40.842001456136764  31.373077135443015 40.71663501431099  C 32.39133123516143 40.38232450277553  33.45201258903479 40.00622517729812  34.42783943459812 39.462970596053054  C 34.97939373861234 39.21223771240143  35.48852078847148 38.877927200865976  35.95522058417567 38.58540550327247  C 36.29463861741527 38.376461433562795  36.71891115896451 38.376461433562795  37.1007564463588 38.58540550327247  L 40.6646457953733 40.71663501431099  C 41.13134559107749 41.00915671190455  41.76775440340148 40.88379027007871  42.107172436641086 40.42411331671748  L 44.82251670255685 36.78848650376934  C 44.90737121086662 36.70490887588551  44.94979846502169 36.57954243405973  44.992225719176645 36.45417599223395  C 45.11950748164149 36.078076666756544  44.992225719176645 35.660188527337255  44.69523494009212 35.36766682974368  L 42.40416321572573 33.27822613264711  C 42.107172436641214 33.02749324899549  42.022317928331184 32.65139392351815  42.107172436641214 32.275294598040745  C 42.14959969079616 32.191716970156854  42.14959969079616 32.06635052833107  42.19202694495098 31.982772900447237  C 43.37999006128919 29.85154338940872  44.1436806360779 27.46958099471864  44.440671415162555 25.04582978608655  C 44.4830986693175 24.6279416466672  44.78008944840215 24.293631135131804  45.161934735796315 24.168264693305964  C 45.204361989951266 24.168264693305964  45.2892164982613 24.126475879364015  45.33164375241611 24.126475879364015  L 49.065242118050286 23.66679892600278  C 49.61679642206451 23.583221298118882  49.998641709458795 23.123544344757647  49.998641709458795 22.622078577454463  L 49.998641709458795 22.496712135628684  L 49.91378720114903 18.067097857783917  Z M 31.5427861520623 31.23057424949249  C 25.687825078681406 35.075145132150176  17.5842195350892 32.024561714389186  16.056838385511394 24.836885716376877  C 15.88712936889172 24.126475879364015  15.802274860581953 23.37427722840927  15.802274860581953 22.53850094957063  C 15.759847606427003 20.99231483371913  16.523538181215713 18.735718880854833  17.414510518469402 17.523843276538848  C 17.499365026779174 17.39847683471307  17.626646789244152 17.273110392887226  17.711501297553923 17.147743951061443  C 23.94830765832898 9.458602185746015  35.82793882171044 13.303173068403698  36.08250234664013 23.29069960052544  C 36.124929600795085 24.586152832725315  35.61580255093594 26.383071832228374  34.89453923030192 27.720313878370202  C 34.724830213682125 28.012835575963777  34.555121197062455 28.30535727355722  34.385412180442785 28.556090157208843  C 33.53686709734417 29.68438813364099  32.56104025178058 30.56195322642158  31.5427861520623 31.23057424949249  Z " fill-rule="evenodd" />
    </mask>
  </defs>
  <g transform="matrix(1 0 0 1 -1053 -873 )">
    <path d="M 49.91378720114903 18.067097857783917  C 49.95621445530333 17.39847683471307  49.53194191375396 16.93879988135177  48.98038760974 16.897011067409885  L 44.10125338192257 16.56270055587443  C 43.67698084037333 16.52091174193248  43.33756280713373 16.270178858280858  43.16785379051419 15.894079532803516  C 42.955717519739565 15.434402579442217  42.743581248964816 14.974725626080978  42.48901772403525 14.515048672719807  C 42.022317928331056 13.679272393881167  41.55561813262686 12.843496115042527  40.96163657445769 12.09129746408778  C 40.70707304952813 11.756986952552325  40.6646457953733 11.25552118524914  40.91920932030287 10.921210673713684  L 43.592126332063685 6.658751651636647  C 43.8891171111482 6.199074698275348  43.76183534868348 5.614031303088331  43.33756280713412 5.279720791552876  L 39.60396444149994 2.563447885327341  C 39.17969189995057 2.2709261877337688  38.58571034178153 2.3127150016757168  38.24629230854206 2.688814327153121  L 35.064248246922105 6.073708256449569  C 34.767257467837716 6.408018767985023  34.25813041797832 6.49159639586892  33.83385787642895 6.324441140101191  C 32.05191320192183 5.488664861262551  30.10025951079478 4.945410280017482  28.106178565513037 4.736466210307807  C 27.63947876980872 4.694677396365859  27.2576334824143 4.318578070888518  27.172778974104524 3.8171123035852697  L 26.7909336867101 1.0172617694758397  C 26.706079178400334 0.4740071882307707  26.239379382695883 0.0979078627533031  25.687825078681797 0.0979078627533031  L 21.06325437579406 0.18148549063719888  C 20.978399867484292 0.18148549063719888  20.89354535917426 0.18148549063719888  20.80869085086449 0.22327430457914677  C 20.38441830931512 0.34864074640492704  20.08742753023073 0.7247400718823312  20.04500027607565 1.1426282113016832  L 19.79043675114608 4.736466210307807  L 19.74800949699113 5.614031303088395  C 18.94189166804734 5.906553000681903  18.135773839103678 6.24086351221736  17.32965601016002 6.658751651636647  C 16.268974656286655 7.20200623288178  15.293147810723196 7.8288384420107455  14.359748219314687 8.539248279023607  C 14.020330186075217 8.789981162675229  13.553630390370895 8.831769976617178  13.171785102976475 8.6228259069075  L 9.692750262272003 6.491596395868983  C 9.226050466567813 6.199074698275411  8.589641654243822 6.324441140101255  8.250223621004222 6.784118093462492  L 6.128860913257503 9.583968627571922  L 5.534879355088462 10.377956092468615  C 5.195461321848863 10.837633045829914  5.280315830158891 11.422676441016932  5.662161117553311 11.798775766494336  L 8.547214400088873 14.431471044835973  C 8.88663243332847 14.723992742429548  8.971486941638243 15.225458509732668  8.801777925018444 15.601557835210071  C 8.250223621004222 16.813433439526055  7.8683783336099316 18.067097857784045  7.613814808680232 19.362551089983924  C 7.571387554525282 19.487917531809703  7.571387554525282 19.571495159693598  7.5289603003704615 19.69686160151938  C 7.5289603003704615 19.738650415461265  7.5289603003704615 19.780439229403214  7.486533046215512 19.822228043345095  C 7.3592512837506625 20.240116182764446  7.019833250511321 20.532637880357957  6.59556070896195 20.574426694299905  L 2.013417260229039 21.15947008948692  C 1.970990006074218 21.15947008948692  1.9285627519192683 21.15947008948692  1.8437082436093684 21.20125890342887  C 1.3770084479050486 21.326625345254648  1.0375904146655786 21.744513484673938  1.0800176688203995 22.245979251977122  L 1.1648721771302992 26.800959971647668  C 1.1648721771302992 27.3442145528928  1.5891447186795402 27.803891506254036  2.18312627684871 27.845680320195985  L 7.274396775440633 28.179990831731438  C 7.698669316990004 28.221779645673386  8.080514604384424 28.472512529324945  8.207796366849145 28.8904006687443  C 8.504787145933665 29.767965761524888  8.886632433328085 30.645530854305413  9.353332229032276 31.523095947085935  C 9.607895753961845 31.982772900447237  9.862459278891416 32.40066103986653  10.117022803821117 32.86033799322783  C 10.329159074595866 33.19464850476322  10.329159074595866 33.65432545812452  10.117022803821117 33.98863596965998  L 7.571387554525153 38.08393973596928  C 7.274396775440633 38.54361668933052  7.401678537905355 39.128660084517534  7.8259510794547245 39.46297059605299  L 11.517122190933817 42.137454688336575  C 11.983821986638137 42.47176519987204  12.577803544807178 42.42997638593015  12.959648832201598 42.012088246510864  L 15.46285682734274 39.337604154227215  C 15.802274860582337 38.96150482874981  16.353829164596302 38.877927200865976  16.77810170614567 39.128660084517534  C 18.47519187234302 40.04801399124007  20.29956380100522 40.716635014310924  22.208790237977194 41.09273433978839  C 22.675490033681385 41.17631196767222  23.01490806692098 41.552411293149625  23.057335321075804 42.012088246510864  L 23.608889625090022 46.10739201282017  C 23.69374413339992 46.65064659406524  24.160443929104243 47.06853473348459  24.711998233118333 47.06853473348459  L 29.294141681851247 46.98495710560069  C 29.84569598586547 46.98495710560069  30.312395781569656 46.52528015223946  30.312395781569656 46.02381438493627  L 30.312395781569656 45.81487031522666  L 30.609386560654045 41.67777773497541  C 30.651813814809 41.21810078161417  30.948804593893648 40.842001456136764  31.373077135443015 40.71663501431099  C 32.39133123516143 40.38232450277553  33.45201258903479 40.00622517729812  34.42783943459812 39.462970596053054  C 34.97939373861234 39.21223771240143  35.48852078847148 38.877927200865976  35.95522058417567 38.58540550327247  C 36.29463861741527 38.376461433562795  36.71891115896451 38.376461433562795  37.1007564463588 38.58540550327247  L 40.6646457953733 40.71663501431099  C 41.13134559107749 41.00915671190455  41.76775440340148 40.88379027007871  42.107172436641086 40.42411331671748  L 44.82251670255685 36.78848650376934  C 44.90737121086662 36.70490887588551  44.94979846502169 36.57954243405973  44.992225719176645 36.45417599223395  C 45.11950748164149 36.078076666756544  44.992225719176645 35.660188527337255  44.69523494009212 35.36766682974368  L 42.40416321572573 33.27822613264711  C 42.107172436641214 33.02749324899549  42.022317928331184 32.65139392351815  42.107172436641214 32.275294598040745  C 42.14959969079616 32.191716970156854  42.14959969079616 32.06635052833107  42.19202694495098 31.982772900447237  C 43.37999006128919 29.85154338940872  44.1436806360779 27.46958099471864  44.440671415162555 25.04582978608655  C 44.4830986693175 24.6279416466672  44.78008944840215 24.293631135131804  45.161934735796315 24.168264693305964  C 45.204361989951266 24.168264693305964  45.2892164982613 24.126475879364015  45.33164375241611 24.126475879364015  L 49.065242118050286 23.66679892600278  C 49.61679642206451 23.583221298118882  49.998641709458795 23.123544344757647  49.998641709458795 22.622078577454463  L 49.998641709458795 22.496712135628684  L 49.91378720114903 18.067097857783917  Z M 31.5427861520623 31.23057424949249  C 25.687825078681406 35.075145132150176  17.5842195350892 32.024561714389186  16.056838385511394 24.836885716376877  C 15.88712936889172 24.126475879364015  15.802274860581953 23.37427722840927  15.802274860581953 22.53850094957063  C 15.759847606427003 20.99231483371913  16.523538181215713 18.735718880854833  17.414510518469402 17.523843276538848  C 17.499365026779174 17.39847683471307  17.626646789244152 17.273110392887226  17.711501297553923 17.147743951061443  C 23.94830765832898 9.458602185746015  35.82793882171044 13.303173068403698  36.08250234664013 23.29069960052544  C 36.124929600795085 24.586152832725315  35.61580255093594 26.383071832228374  34.89453923030192 27.720313878370202  C 34.724830213682125 28.012835575963777  34.555121197062455 28.30535727355722  34.385412180442785 28.556090157208843  C 33.53686709734417 29.68438813364099  32.56104025178058 30.56195322642158  31.5427861520623 31.23057424949249  Z " fill-rule="nonzero" fill="rgba(174, 195, 255, 1)" stroke="none" transform="matrix(1 0 0 1 1053 873 )" class="fill" />
    <path d="M 49.91378720114903 18.067097857783917  C 49.95621445530333 17.39847683471307  49.53194191375396 16.93879988135177  48.98038760974 16.897011067409885  L 44.10125338192257 16.56270055587443  C 43.67698084037333 16.52091174193248  43.33756280713373 16.270178858280858  43.16785379051419 15.894079532803516  C 42.955717519739565 15.434402579442217  42.743581248964816 14.974725626080978  42.48901772403525 14.515048672719807  C 42.022317928331056 13.679272393881167  41.55561813262686 12.843496115042527  40.96163657445769 12.09129746408778  C 40.70707304952813 11.756986952552325  40.6646457953733 11.25552118524914  40.91920932030287 10.921210673713684  L 43.592126332063685 6.658751651636647  C 43.8891171111482 6.199074698275348  43.76183534868348 5.614031303088331  43.33756280713412 5.279720791552876  L 39.60396444149994 2.563447885327341  C 39.17969189995057 2.2709261877337688  38.58571034178153 2.3127150016757168  38.24629230854206 2.688814327153121  L 35.064248246922105 6.073708256449569  C 34.767257467837716 6.408018767985023  34.25813041797832 6.49159639586892  33.83385787642895 6.324441140101191  C 32.05191320192183 5.488664861262551  30.10025951079478 4.945410280017482  28.106178565513037 4.736466210307807  C 27.63947876980872 4.694677396365859  27.2576334824143 4.318578070888518  27.172778974104524 3.8171123035852697  L 26.7909336867101 1.0172617694758397  C 26.706079178400334 0.4740071882307707  26.239379382695883 0.0979078627533031  25.687825078681797 0.0979078627533031  L 21.06325437579406 0.18148549063719888  C 20.978399867484292 0.18148549063719888  20.89354535917426 0.18148549063719888  20.80869085086449 0.22327430457914677  C 20.38441830931512 0.34864074640492704  20.08742753023073 0.7247400718823312  20.04500027607565 1.1426282113016832  L 19.79043675114608 4.736466210307807  L 19.74800949699113 5.614031303088395  C 18.94189166804734 5.906553000681903  18.135773839103678 6.24086351221736  17.32965601016002 6.658751651636647  C 16.268974656286655 7.20200623288178  15.293147810723196 7.8288384420107455  14.359748219314687 8.539248279023607  C 14.020330186075217 8.789981162675229  13.553630390370895 8.831769976617178  13.171785102976475 8.6228259069075  L 9.692750262272003 6.491596395868983  C 9.226050466567813 6.199074698275411  8.589641654243822 6.324441140101255  8.250223621004222 6.784118093462492  L 6.128860913257503 9.583968627571922  L 5.534879355088462 10.377956092468615  C 5.195461321848863 10.837633045829914  5.280315830158891 11.422676441016932  5.662161117553311 11.798775766494336  L 8.547214400088873 14.431471044835973  C 8.88663243332847 14.723992742429548  8.971486941638243 15.225458509732668  8.801777925018444 15.601557835210071  C 8.250223621004222 16.813433439526055  7.8683783336099316 18.067097857784045  7.613814808680232 19.362551089983924  C 7.571387554525282 19.487917531809703  7.571387554525282 19.571495159693598  7.5289603003704615 19.69686160151938  C 7.5289603003704615 19.738650415461265  7.5289603003704615 19.780439229403214  7.486533046215512 19.822228043345095  C 7.3592512837506625 20.240116182764446  7.019833250511321 20.532637880357957  6.59556070896195 20.574426694299905  L 2.013417260229039 21.15947008948692  C 1.970990006074218 21.15947008948692  1.9285627519192683 21.15947008948692  1.8437082436093684 21.20125890342887  C 1.3770084479050486 21.326625345254648  1.0375904146655786 21.744513484673938  1.0800176688203995 22.245979251977122  L 1.1648721771302992 26.800959971647668  C 1.1648721771302992 27.3442145528928  1.5891447186795402 27.803891506254036  2.18312627684871 27.845680320195985  L 7.274396775440633 28.179990831731438  C 7.698669316990004 28.221779645673386  8.080514604384424 28.472512529324945  8.207796366849145 28.8904006687443  C 8.504787145933665 29.767965761524888  8.886632433328085 30.645530854305413  9.353332229032276 31.523095947085935  C 9.607895753961845 31.982772900447237  9.862459278891416 32.40066103986653  10.117022803821117 32.86033799322783  C 10.329159074595866 33.19464850476322  10.329159074595866 33.65432545812452  10.117022803821117 33.98863596965998  L 7.571387554525153 38.08393973596928  C 7.274396775440633 38.54361668933052  7.401678537905355 39.128660084517534  7.8259510794547245 39.46297059605299  L 11.517122190933817 42.137454688336575  C 11.983821986638137 42.47176519987204  12.577803544807178 42.42997638593015  12.959648832201598 42.012088246510864  L 15.46285682734274 39.337604154227215  C 15.802274860582337 38.96150482874981  16.353829164596302 38.877927200865976  16.77810170614567 39.128660084517534  C 18.47519187234302 40.04801399124007  20.29956380100522 40.716635014310924  22.208790237977194 41.09273433978839  C 22.675490033681385 41.17631196767222  23.01490806692098 41.552411293149625  23.057335321075804 42.012088246510864  L 23.608889625090022 46.10739201282017  C 23.69374413339992 46.65064659406524  24.160443929104243 47.06853473348459  24.711998233118333 47.06853473348459  L 29.294141681851247 46.98495710560069  C 29.84569598586547 46.98495710560069  30.312395781569656 46.52528015223946  30.312395781569656 46.02381438493627  L 30.312395781569656 45.81487031522666  L 30.609386560654045 41.67777773497541  C 30.651813814809 41.21810078161417  30.948804593893648 40.842001456136764  31.373077135443015 40.71663501431099  C 32.39133123516143 40.38232450277553  33.45201258903479 40.00622517729812  34.42783943459812 39.462970596053054  C 34.97939373861234 39.21223771240143  35.48852078847148 38.877927200865976  35.95522058417567 38.58540550327247  C 36.29463861741527 38.376461433562795  36.71891115896451 38.376461433562795  37.1007564463588 38.58540550327247  L 40.6646457953733 40.71663501431099  C 41.13134559107749 41.00915671190455  41.76775440340148 40.88379027007871  42.107172436641086 40.42411331671748  L 44.82251670255685 36.78848650376934  C 44.90737121086662 36.70490887588551  44.94979846502169 36.57954243405973  44.992225719176645 36.45417599223395  C 45.11950748164149 36.078076666756544  44.992225719176645 35.660188527337255  44.69523494009212 35.36766682974368  L 42.40416321572573 33.27822613264711  C 42.107172436641214 33.02749324899549  42.022317928331184 32.65139392351815  42.107172436641214 32.275294598040745  C 42.14959969079616 32.191716970156854  42.14959969079616 32.06635052833107  42.19202694495098 31.982772900447237  C 43.37999006128919 29.85154338940872  44.1436806360779 27.46958099471864  44.440671415162555 25.04582978608655  C 44.4830986693175 24.6279416466672  44.78008944840215 24.293631135131804  45.161934735796315 24.168264693305964  C 45.204361989951266 24.168264693305964  45.2892164982613 24.126475879364015  45.33164375241611 24.126475879364015  L 49.065242118050286 23.66679892600278  C 49.61679642206451 23.583221298118882  49.998641709458795 23.123544344757647  49.998641709458795 22.622078577454463  L 49.998641709458795 22.496712135628684  L 49.91378720114903 18.067097857783917  Z " stroke-width="0" stroke-dasharray="0" stroke="rgba(255, 255, 255, 0)" fill="none" transform="matrix(1 0 0 1 1053 873 )" class="stroke" mask="url(#Clip448)" />
    <path d="M 31.5427861520623 31.23057424949249  C 25.687825078681406 35.075145132150176  17.5842195350892 32.024561714389186  16.056838385511394 24.836885716376877  C 15.88712936889172 24.126475879364015  15.802274860581953 23.37427722840927  15.802274860581953 22.53850094957063  C 15.759847606427003 20.99231483371913  16.523538181215713 18.735718880854833  17.414510518469402 17.523843276538848  C 17.499365026779174 17.39847683471307  17.626646789244152 17.273110392887226  17.711501297553923 17.147743951061443  C 23.94830765832898 9.458602185746015  35.82793882171044 13.303173068403698  36.08250234664013 23.29069960052544  C 36.124929600795085 24.586152832725315  35.61580255093594 26.383071832228374  34.89453923030192 27.720313878370202  C 34.724830213682125 28.012835575963777  34.555121197062455 28.30535727355722  34.385412180442785 28.556090157208843  C 33.53686709734417 29.68438813364099  32.56104025178058 30.56195322642158  31.5427861520623 31.23057424949249  Z " stroke-width="0" stroke-dasharray="0" stroke="rgba(255, 255, 255, 0)" fill="none" transform="matrix(1 0 0 1 1053 873 )" class="stroke" mask="url(#Clip448)" />
  </g>
</svg>