<?xml version="1.0" encoding="utf-8"?>
<svg version="1.1" xmlns:xlink="http://www.w3.org/1999/xlink" width="36px" height="35px" xmlns="http://www.w3.org/2000/svg">
  <defs>
    <pattern id="BGPattern" patternUnits="userSpaceOnUse" alignment="0 0" imageRepeat="None" />
    <mask fill="white" id="Clip191">
      <path d="M 35.70631108166279 13.618986678920791  C 35.45361934735796 13.069525560121173  35.116697034951 12.731395640859843  34.737659433493306 12.731395640859843  L 31.284205731323425 12.520064441321558  C 30.989398707967595 12.477798201413876  30.73670697366225 12.30873324178321  30.65247639556064 12.055135802337178  C 30.526130528408032 11.717005883075911  30.35766937220481 11.378875963814515  30.189208216001333 11.040746044553247  C 29.852285903594378 10.406752445938203  29.51536359118768 9.815025087230905  29.09421070067924 9.307830208338906  C 28.925749544475764 9.054232768892875  28.883634255424894 8.716102849631609  29.052095411628372 8.462505410185578  L 30.947283418916726 5.33480365701829  C 31.157859864171073 4.996673737756958  31.073629286069334 4.574011338680326  30.736706973662507 4.320413899234295  L 28.083443763458632 2.333900623573987  C 27.788636740102802 2.122569424035639  27.367483849594237 2.1648356639433213  27.11479211528902 2.4184331033893525  L 24.840566506542842 4.869875018033976  C 24.629990061288623 5.123472457479942  24.250952459830927 5.165738697387624  23.95614543647497 5.038939977664577  C 22.6926867649494 4.447212618957278  21.302882226271223 4.0668164597883285  19.870962398542304 3.8977515001575984  C 19.534040086135477 3.8554852602499157  19.23923306277952 3.5596215808962666  19.197117773728777 3.221491661634935  L 18.94442603942369 1.1927121460669443  C 18.90231075037282 0.8123159868979942  18.565388437965865 0.5164523075442807  18.18635083650817 0.5164523075442807  L 14.901358290541637 0.6009847873596458  C 14.817127712439898 0.6009847873596458  14.775012423388901 0.6009847873596458  14.69078184528729 0.6432510272673283  C 14.39597482193146 0.7277835070826932  14.185398376677114 0.98138094652866  14.143283087626116 1.3195108657899919  L 13.974821931422767 3.940017740065345  L 13.932706642371897 4.574011338680326  C 13.343092595659854 4.785342538218675  12.753478548947939 5.038939977664641  12.205979791286893 5.33480365701829  C 11.4479045883715 5.715199816187241  10.731944674507105 6.18012845517162  10.10021533874432 6.687323334063618  C 9.847523604439232 6.898654533601967  9.510601292032277 6.898654533601967  9.257909557727189 6.7295895739713  L 6.773107503726919 5.208004937295307  C 6.436185191319964 4.996673737756958  5.972917011760657 5.081206217572324  5.76234056650631 5.419336136833656  L 4.246190160675653 7.448115652401582  L 3.825037270167215 8.03984301110888  C 3.5723455358621266 8.377972930370213  3.614460824912868 8.80063532944691  3.9092678482688257 9.096499008800558  L 5.972917011760657 10.998479804645564  C 6.225608746065745 11.20981100418385  6.309839324167484 11.547940923445182  6.141378167964135 11.843804602798896  C 5.76234056650631 12.731395640859843  5.467533543150481 13.618986678920855  5.299072386947003 14.591110196797167  C 5.256957097896134 14.675642676612533  5.256957097896134 14.760175156427835  5.256957097896134 14.844707636243198  C 5.256957097896134 14.886973876150881  5.256957097896134 14.886973876150881  5.256957097896134 14.9292401160585  C 5.172726519794523 15.225103795412211  4.920034785489307 15.436434994950561  4.625227762133349 15.47870123485818  L 1.3402352161668176 15.901363633934812  C 1.2981199271159483 15.901363633934812  1.2560046380652068 15.901363633934812  1.2138893490142095 15.943629873842495  C 0.8769670366072546 16.028162353657862  0.6663905913530357 16.366292272919193  0.6663905913530357 16.70442219218046  L 0.7506211694546465 20.00118890497841  C 0.7506211694546465 20.381585064147426  1.0875434818614735 20.71971498340876  1.466581083319042 20.76198122331638  L 5.0884959416924005 21.015578662762408  C 5.38330296504823 21.015578662762408  5.635994699353574 21.226909862300758  5.762340566505927 21.522773541654406  C 5.9729170117602735 22.156767140269384  6.225608746065362 22.79076073888437  6.562531058472189 23.42475433749941  C 6.730992214675666 23.76288425676068  6.899453370879144 24.05874793611439  7.110029816133363 24.39687785537566  C 7.27849097233684 24.650475294821693  7.27849097233684 24.988605214083023  7.110029816133363 25.24220265352899  L 5.299072386946619 28.243105686973294  C 5.0884959416924005 28.581235606234625  5.172726519794011 29.003898005311324  5.509648832200838 29.257495444757286  L 8.162912042404713 31.201742480509978  C 8.499834354811668 31.455339919955946  8.920987245320106 31.41307368004826  9.215794268676063 31.117210000694612  L 11.026751697862807 29.172962964941927  C 11.279443432167895 28.91936552549596  11.658481033625591 28.834833045680657  11.953288056981549 29.003898005311324  C 13.174631439456249 29.680157843833985  14.480205400032688 30.18735272272592  15.827894649659868 30.440950162171948  C 16.164816962066823 30.483216402079634  16.41750869637191 30.779080081433218  16.459623985422652 31.117210000694612  L 16.83866158688035 34.07584679423124  C 16.88077687593122 34.456242953400185  17.217699188338173 34.7521066327539  17.63885207884661 34.7521066327539  L 20.92384462481327 34.667574152938535  C 21.302882226270967 34.667574152938535  21.639804538677666 34.329444233677265  21.681919827728663 33.949048074508184  L 21.681919827728663 33.779983114877524  L 21.89249627298301 30.736813841525535  C 21.89249627298301 30.39868392226427  22.145188007288098 30.14508648281824  22.439995030644184 30.060554003002874  C 23.198070233559577 29.84922280346459  23.914030147423972 29.553359124110873  24.629990061288368 29.172962964941927  C 25.009027662746192 28.961631765403578  25.388065264203888 28.750300565865228  25.724987576610587 28.538969366326878  C 25.977679310915676 28.36990440669628  26.27248633427176 28.36990440669628  26.52517806857685 28.538969366326878  L 29.052095411627988 30.102820242910553  C 29.389017724034943 30.314151442448903  29.85228590359425 30.229618962633538  30.10497763789934 29.89148904337227  L 32.04228093423856 27.228715929189296  C 32.0843962232893 27.14418344937393  32.12651151234017 27.059650969558632  32.16862680139117 26.975118489743267  C 32.25285737949278 26.7215210502973  32.16862680139117 26.383391131035967  31.95805035613695 26.214326171405304  L 30.315554083153557 24.692741534729308  C 30.10497763789934 24.523676575098644  30.020747059797728 24.227812895744993  30.10497763789934 23.974215456298964  C 30.10497763789934 23.8896829764836  30.14709292695008 23.84741673657598  30.18920821600095 23.76288425676068  C 31.031513997017953 22.199033380177003  31.579012754679127 20.466117543962728  31.789589199933474 18.690935467840703  C 31.831704488984215 18.395071788487055  32.04228093423856 18.141474349041086  32.29497266854365 18.056941869225724  C 32.33708795759439 18.056941869225724  32.37920324664526 18.014675629318038  32.42131853569626 18.014675629318038  L 35.074581745900005 17.67654571005671  C 35.45361934735783 17.634279470149025  35.74842637071366 17.29614955088776  35.74842637071366 16.915753391718745  L 35.74842637071366 16.83122091190338  L 35.70631108166279 13.618986678920791  Z M 22.355764452542445 23.086624418238017  C 18.10212025840643 25.918462492051656  12.332325658439629 23.720618016853063  11.23732814311741 18.47960426830242  C 11.110982275964801 17.97240938941042  11.068866986913932 17.42294827061074  11.068866986913932 16.831220911903443  C 11.068866986913932 15.732298674304147  11.574250455524108 14.083915317905172  12.248095080338018 13.154058039936475  C 12.332325658439629 13.069525560121109  12.374440947490626 12.984993080305811  12.458671525592237 12.858194360582827  C 16.880776875931858 7.236784452863233  25.388065264204016 10.068622526676807  25.598641709458363 17.33841579079544  C 25.640756998509104 18.26827306876407  25.261719397051408 19.578526505901717  24.75633592844123 20.55065002377803  C 24.629990061288623 20.76198122331638  24.503644194136143 20.973312422854722  24.377298326983535 21.142377382485392  C 23.787684280271492 21.945435940731034  23.071724366407096 22.57942953934602  22.355764452542445 23.086624418238017  Z " fill-rule="evenodd" />
    </mask>
  </defs>
  <g transform="matrix(1 0 0 1 -1101 -883 )">
    <path d="M 35.70631108166279 13.618986678920791  C 35.45361934735796 13.069525560121173  35.116697034951 12.731395640859843  34.737659433493306 12.731395640859843  L 31.284205731323425 12.520064441321558  C 30.989398707967595 12.477798201413876  30.73670697366225 12.30873324178321  30.65247639556064 12.055135802337178  C 30.526130528408032 11.717005883075911  30.35766937220481 11.378875963814515  30.189208216001333 11.040746044553247  C 29.852285903594378 10.406752445938203  29.51536359118768 9.815025087230905  29.09421070067924 9.307830208338906  C 28.925749544475764 9.054232768892875  28.883634255424894 8.716102849631609  29.052095411628372 8.462505410185578  L 30.947283418916726 5.33480365701829  C 31.157859864171073 4.996673737756958  31.073629286069334 4.574011338680326  30.736706973662507 4.320413899234295  L 28.083443763458632 2.333900623573987  C 27.788636740102802 2.122569424035639  27.367483849594237 2.1648356639433213  27.11479211528902 2.4184331033893525  L 24.840566506542842 4.869875018033976  C 24.629990061288623 5.123472457479942  24.250952459830927 5.165738697387624  23.95614543647497 5.038939977664577  C 22.6926867649494 4.447212618957278  21.302882226271223 4.0668164597883285  19.870962398542304 3.8977515001575984  C 19.534040086135477 3.8554852602499157  19.23923306277952 3.5596215808962666  19.197117773728777 3.221491661634935  L 18.94442603942369 1.1927121460669443  C 18.90231075037282 0.8123159868979942  18.565388437965865 0.5164523075442807  18.18635083650817 0.5164523075442807  L 14.901358290541637 0.6009847873596458  C 14.817127712439898 0.6009847873596458  14.775012423388901 0.6009847873596458  14.69078184528729 0.6432510272673283  C 14.39597482193146 0.7277835070826932  14.185398376677114 0.98138094652866  14.143283087626116 1.3195108657899919  L 13.974821931422767 3.940017740065345  L 13.932706642371897 4.574011338680326  C 13.343092595659854 4.785342538218675  12.753478548947939 5.038939977664641  12.205979791286893 5.33480365701829  C 11.4479045883715 5.715199816187241  10.731944674507105 6.18012845517162  10.10021533874432 6.687323334063618  C 9.847523604439232 6.898654533601967  9.510601292032277 6.898654533601967  9.257909557727189 6.7295895739713  L 6.773107503726919 5.208004937295307  C 6.436185191319964 4.996673737756958  5.972917011760657 5.081206217572324  5.76234056650631 5.419336136833656  L 4.246190160675653 7.448115652401582  L 3.825037270167215 8.03984301110888  C 3.5723455358621266 8.377972930370213  3.614460824912868 8.80063532944691  3.9092678482688257 9.096499008800558  L 5.972917011760657 10.998479804645564  C 6.225608746065745 11.20981100418385  6.309839324167484 11.547940923445182  6.141378167964135 11.843804602798896  C 5.76234056650631 12.731395640859843  5.467533543150481 13.618986678920855  5.299072386947003 14.591110196797167  C 5.256957097896134 14.675642676612533  5.256957097896134 14.760175156427835  5.256957097896134 14.844707636243198  C 5.256957097896134 14.886973876150881  5.256957097896134 14.886973876150881  5.256957097896134 14.9292401160585  C 5.172726519794523 15.225103795412211  4.920034785489307 15.436434994950561  4.625227762133349 15.47870123485818  L 1.3402352161668176 15.901363633934812  C 1.2981199271159483 15.901363633934812  1.2560046380652068 15.901363633934812  1.2138893490142095 15.943629873842495  C 0.8769670366072546 16.028162353657862  0.6663905913530357 16.366292272919193  0.6663905913530357 16.70442219218046  L 0.7506211694546465 20.00118890497841  C 0.7506211694546465 20.381585064147426  1.0875434818614735 20.71971498340876  1.466581083319042 20.76198122331638  L 5.0884959416924005 21.015578662762408  C 5.38330296504823 21.015578662762408  5.635994699353574 21.226909862300758  5.762340566505927 21.522773541654406  C 5.9729170117602735 22.156767140269384  6.225608746065362 22.79076073888437  6.562531058472189 23.42475433749941  C 6.730992214675666 23.76288425676068  6.899453370879144 24.05874793611439  7.110029816133363 24.39687785537566  C 7.27849097233684 24.650475294821693  7.27849097233684 24.988605214083023  7.110029816133363 25.24220265352899  L 5.299072386946619 28.243105686973294  C 5.0884959416924005 28.581235606234625  5.172726519794011 29.003898005311324  5.509648832200838 29.257495444757286  L 8.162912042404713 31.201742480509978  C 8.499834354811668 31.455339919955946  8.920987245320106 31.41307368004826  9.215794268676063 31.117210000694612  L 11.026751697862807 29.172962964941927  C 11.279443432167895 28.91936552549596  11.658481033625591 28.834833045680657  11.953288056981549 29.003898005311324  C 13.174631439456249 29.680157843833985  14.480205400032688 30.18735272272592  15.827894649659868 30.440950162171948  C 16.164816962066823 30.483216402079634  16.41750869637191 30.779080081433218  16.459623985422652 31.117210000694612  L 16.83866158688035 34.07584679423124  C 16.88077687593122 34.456242953400185  17.217699188338173 34.7521066327539  17.63885207884661 34.7521066327539  L 20.92384462481327 34.667574152938535  C 21.302882226270967 34.667574152938535  21.639804538677666 34.329444233677265  21.681919827728663 33.949048074508184  L 21.681919827728663 33.779983114877524  L 21.89249627298301 30.736813841525535  C 21.89249627298301 30.39868392226427  22.145188007288098 30.14508648281824  22.439995030644184 30.060554003002874  C 23.198070233559577 29.84922280346459  23.914030147423972 29.553359124110873  24.629990061288368 29.172962964941927  C 25.009027662746192 28.961631765403578  25.388065264203888 28.750300565865228  25.724987576610587 28.538969366326878  C 25.977679310915676 28.36990440669628  26.27248633427176 28.36990440669628  26.52517806857685 28.538969366326878  L 29.052095411627988 30.102820242910553  C 29.389017724034943 30.314151442448903  29.85228590359425 30.229618962633538  30.10497763789934 29.89148904337227  L 32.04228093423856 27.228715929189296  C 32.0843962232893 27.14418344937393  32.12651151234017 27.059650969558632  32.16862680139117 26.975118489743267  C 32.25285737949278 26.7215210502973  32.16862680139117 26.383391131035967  31.95805035613695 26.214326171405304  L 30.315554083153557 24.692741534729308  C 30.10497763789934 24.523676575098644  30.020747059797728 24.227812895744993  30.10497763789934 23.974215456298964  C 30.10497763789934 23.8896829764836  30.14709292695008 23.84741673657598  30.18920821600095 23.76288425676068  C 31.031513997017953 22.199033380177003  31.579012754679127 20.466117543962728  31.789589199933474 18.690935467840703  C 31.831704488984215 18.395071788487055  32.04228093423856 18.141474349041086  32.29497266854365 18.056941869225724  C 32.33708795759439 18.056941869225724  32.37920324664526 18.014675629318038  32.42131853569626 18.014675629318038  L 35.074581745900005 17.67654571005671  C 35.45361934735783 17.634279470149025  35.74842637071366 17.29614955088776  35.74842637071366 16.915753391718745  L 35.74842637071366 16.83122091190338  L 35.70631108166279 13.618986678920791  Z M 22.355764452542445 23.086624418238017  C 18.10212025840643 25.918462492051656  12.332325658439629 23.720618016853063  11.23732814311741 18.47960426830242  C 11.110982275964801 17.97240938941042  11.068866986913932 17.42294827061074  11.068866986913932 16.831220911903443  C 11.068866986913932 15.732298674304147  11.574250455524108 14.083915317905172  12.248095080338018 13.154058039936475  C 12.332325658439629 13.069525560121109  12.374440947490626 12.984993080305811  12.458671525592237 12.858194360582827  C 16.880776875931858 7.236784452863233  25.388065264204016 10.068622526676807  25.598641709458363 17.33841579079544  C 25.640756998509104 18.26827306876407  25.261719397051408 19.578526505901717  24.75633592844123 20.55065002377803  C 24.629990061288623 20.76198122331638  24.503644194136143 20.973312422854722  24.377298326983535 21.142377382485392  C 23.787684280271492 21.945435940731034  23.071724366407096 22.57942953934602  22.355764452542445 23.086624418238017  Z " fill-rule="nonzero" fill="rgba(210, 224, 255, 1)" stroke="none" transform="matrix(1 0 0 1 1101 883 )" class="fill" />
    <path d="M 35.70631108166279 13.618986678920791  C 35.45361934735796 13.069525560121173  35.116697034951 12.731395640859843  34.737659433493306 12.731395640859843  L 31.284205731323425 12.520064441321558  C 30.989398707967595 12.477798201413876  30.73670697366225 12.30873324178321  30.65247639556064 12.055135802337178  C 30.526130528408032 11.717005883075911  30.35766937220481 11.378875963814515  30.189208216001333 11.040746044553247  C 29.852285903594378 10.406752445938203  29.51536359118768 9.815025087230905  29.09421070067924 9.307830208338906  C 28.925749544475764 9.054232768892875  28.883634255424894 8.716102849631609  29.052095411628372 8.462505410185578  L 30.947283418916726 5.33480365701829  C 31.157859864171073 4.996673737756958  31.073629286069334 4.574011338680326  30.736706973662507 4.320413899234295  L 28.083443763458632 2.333900623573987  C 27.788636740102802 2.122569424035639  27.367483849594237 2.1648356639433213  27.11479211528902 2.4184331033893525  L 24.840566506542842 4.869875018033976  C 24.629990061288623 5.123472457479942  24.250952459830927 5.165738697387624  23.95614543647497 5.038939977664577  C 22.6926867649494 4.447212618957278  21.302882226271223 4.0668164597883285  19.870962398542304 3.8977515001575984  C 19.534040086135477 3.8554852602499157  19.23923306277952 3.5596215808962666  19.197117773728777 3.221491661634935  L 18.94442603942369 1.1927121460669443  C 18.90231075037282 0.8123159868979942  18.565388437965865 0.5164523075442807  18.18635083650817 0.5164523075442807  L 14.901358290541637 0.6009847873596458  C 14.817127712439898 0.6009847873596458  14.775012423388901 0.6009847873596458  14.69078184528729 0.6432510272673283  C 14.39597482193146 0.7277835070826932  14.185398376677114 0.98138094652866  14.143283087626116 1.3195108657899919  L 13.974821931422767 3.940017740065345  L 13.932706642371897 4.574011338680326  C 13.343092595659854 4.785342538218675  12.753478548947939 5.038939977664641  12.205979791286893 5.33480365701829  C 11.4479045883715 5.715199816187241  10.731944674507105 6.18012845517162  10.10021533874432 6.687323334063618  C 9.847523604439232 6.898654533601967  9.510601292032277 6.898654533601967  9.257909557727189 6.7295895739713  L 6.773107503726919 5.208004937295307  C 6.436185191319964 4.996673737756958  5.972917011760657 5.081206217572324  5.76234056650631 5.419336136833656  L 4.246190160675653 7.448115652401582  L 3.825037270167215 8.03984301110888  C 3.5723455358621266 8.377972930370213  3.614460824912868 8.80063532944691  3.9092678482688257 9.096499008800558  L 5.972917011760657 10.998479804645564  C 6.225608746065745 11.20981100418385  6.309839324167484 11.547940923445182  6.141378167964135 11.843804602798896  C 5.76234056650631 12.731395640859843  5.467533543150481 13.618986678920855  5.299072386947003 14.591110196797167  C 5.256957097896134 14.675642676612533  5.256957097896134 14.760175156427835  5.256957097896134 14.844707636243198  C 5.256957097896134 14.886973876150881  5.256957097896134 14.886973876150881  5.256957097896134 14.9292401160585  C 5.172726519794523 15.225103795412211  4.920034785489307 15.436434994950561  4.625227762133349 15.47870123485818  L 1.3402352161668176 15.901363633934812  C 1.2981199271159483 15.901363633934812  1.2560046380652068 15.901363633934812  1.2138893490142095 15.943629873842495  C 0.8769670366072546 16.028162353657862  0.6663905913530357 16.366292272919193  0.6663905913530357 16.70442219218046  L 0.7506211694546465 20.00118890497841  C 0.7506211694546465 20.381585064147426  1.0875434818614735 20.71971498340876  1.466581083319042 20.76198122331638  L 5.0884959416924005 21.015578662762408  C 5.38330296504823 21.015578662762408  5.635994699353574 21.226909862300758  5.762340566505927 21.522773541654406  C 5.9729170117602735 22.156767140269384  6.225608746065362 22.79076073888437  6.562531058472189 23.42475433749941  C 6.730992214675666 23.76288425676068  6.899453370879144 24.05874793611439  7.110029816133363 24.39687785537566  C 7.27849097233684 24.650475294821693  7.27849097233684 24.988605214083023  7.110029816133363 25.24220265352899  L 5.299072386946619 28.243105686973294  C 5.0884959416924005 28.581235606234625  5.172726519794011 29.003898005311324  5.509648832200838 29.257495444757286  L 8.162912042404713 31.201742480509978  C 8.499834354811668 31.455339919955946  8.920987245320106 31.41307368004826  9.215794268676063 31.117210000694612  L 11.026751697862807 29.172962964941927  C 11.279443432167895 28.91936552549596  11.658481033625591 28.834833045680657  11.953288056981549 29.003898005311324  C 13.174631439456249 29.680157843833985  14.480205400032688 30.18735272272592  15.827894649659868 30.440950162171948  C 16.164816962066823 30.483216402079634  16.41750869637191 30.779080081433218  16.459623985422652 31.117210000694612  L 16.83866158688035 34.07584679423124  C 16.88077687593122 34.456242953400185  17.217699188338173 34.7521066327539  17.63885207884661 34.7521066327539  L 20.92384462481327 34.667574152938535  C 21.302882226270967 34.667574152938535  21.639804538677666 34.329444233677265  21.681919827728663 33.949048074508184  L 21.681919827728663 33.779983114877524  L 21.89249627298301 30.736813841525535  C 21.89249627298301 30.39868392226427  22.145188007288098 30.14508648281824  22.439995030644184 30.060554003002874  C 23.198070233559577 29.84922280346459  23.914030147423972 29.553359124110873  24.629990061288368 29.172962964941927  C 25.009027662746192 28.961631765403578  25.388065264203888 28.750300565865228  25.724987576610587 28.538969366326878  C 25.977679310915676 28.36990440669628  26.27248633427176 28.36990440669628  26.52517806857685 28.538969366326878  L 29.052095411627988 30.102820242910553  C 29.389017724034943 30.314151442448903  29.85228590359425 30.229618962633538  30.10497763789934 29.89148904337227  L 32.04228093423856 27.228715929189296  C 32.0843962232893 27.14418344937393  32.12651151234017 27.059650969558632  32.16862680139117 26.975118489743267  C 32.25285737949278 26.7215210502973  32.16862680139117 26.383391131035967  31.95805035613695 26.214326171405304  L 30.315554083153557 24.692741534729308  C 30.10497763789934 24.523676575098644  30.020747059797728 24.227812895744993  30.10497763789934 23.974215456298964  C 30.10497763789934 23.8896829764836  30.14709292695008 23.84741673657598  30.18920821600095 23.76288425676068  C 31.031513997017953 22.199033380177003  31.579012754679127 20.466117543962728  31.789589199933474 18.690935467840703  C 31.831704488984215 18.395071788487055  32.04228093423856 18.141474349041086  32.29497266854365 18.056941869225724  C 32.33708795759439 18.056941869225724  32.37920324664526 18.014675629318038  32.42131853569626 18.014675629318038  L 35.074581745900005 17.67654571005671  C 35.45361934735783 17.634279470149025  35.74842637071366 17.29614955088776  35.74842637071366 16.915753391718745  L 35.74842637071366 16.83122091190338  L 35.70631108166279 13.618986678920791  Z " stroke-width="0" stroke-dasharray="0" stroke="rgba(255, 255, 255, 0)" fill="none" transform="matrix(1 0 0 1 1101 883 )" class="stroke" mask="url(#Clip191)" />
    <path d="M 22.355764452542445 23.086624418238017  C 18.10212025840643 25.918462492051656  12.332325658439629 23.720618016853063  11.23732814311741 18.47960426830242  C 11.110982275964801 17.97240938941042  11.068866986913932 17.42294827061074  11.068866986913932 16.831220911903443  C 11.068866986913932 15.732298674304147  11.574250455524108 14.083915317905172  12.248095080338018 13.154058039936475  C 12.332325658439629 13.069525560121109  12.374440947490626 12.984993080305811  12.458671525592237 12.858194360582827  C 16.880776875931858 7.236784452863233  25.388065264204016 10.068622526676807  25.598641709458363 17.33841579079544  C 25.640756998509104 18.26827306876407  25.261719397051408 19.578526505901717  24.75633592844123 20.55065002377803  C 24.629990061288623 20.76198122331638  24.503644194136143 20.973312422854722  24.377298326983535 21.142377382485392  C 23.787684280271492 21.945435940731034  23.071724366407096 22.57942953934602  22.355764452542445 23.086624418238017  Z " stroke-width="0" stroke-dasharray="0" stroke="rgba(255, 255, 255, 0)" fill="none" transform="matrix(1 0 0 1 1101 883 )" class="stroke" mask="url(#Clip191)" />
  </g>
</svg>