<?xml version="1.0" encoding="utf-8"?>
<svg version="1.1" xmlns:xlink="http://www.w3.org/1999/xlink" width="153px" height="85px" xmlns="http://www.w3.org/2000/svg">
  <defs>
    <pattern id="BGPattern" patternUnits="userSpaceOnUse" alignment="0 0" imageRepeat="None" />
    <mask fill="white" id="Clip450">
      <path d="M 109.7679103859532 1  C 133.05766523107488 0.21054920097986876  151.9253147258572 19.00973056502449  151.9253147258572 42.16328801339107  C 151.9253147258572 53.761001237979826  147.20840235216187 64.22825144067721  139.5855350339572 71.80654058743013  C 131.9626677157528 79.38482973418306  121.3917301639888 84.07415782499147  109.7679103859532 84  L 4.942955938379768 84  C 2.710845618684459 84.07415782499147  0.8577729004471024 82.27379079012752  1 80.01286474634482  L 1 4.271842279626506  C 0.8577729004471024 2.052785236654688  2.6687303296338456 0.21054920097986876  4.942955938379768 1  L 109.7679103859532 1  Z " fill-rule="evenodd" />
    </mask>
  </defs>
  <g transform="matrix(1 0 0 1 -1170 -856 )">
    <path d="M 109.7679103859532 1  C 133.05766523107488 0.21054920097986876  151.9253147258572 19.00973056502449  151.9253147258572 42.16328801339107  C 151.9253147258572 53.761001237979826  147.20840235216187 64.22825144067721  139.5855350339572 71.80654058743013  C 131.9626677157528 79.38482973418306  121.3917301639888 84.07415782499147  109.7679103859532 84  L 4.942955938379768 84  C 2.710845618684459 84.07415782499147  0.8577729004471024 82.27379079012752  1 80.01286474634482  L 1 4.271842279626506  C 0.8577729004471024 2.052785236654688  2.6687303296338456 0.21054920097986876  4.942955938379768 1  L 109.7679103859532 1  Z " fill-rule="nonzero" fill="rgba(174, 195, 255, 1)" stroke="none" transform="matrix(1 0 0 1 1170 856 )" class="fill" />
    <path d="M 109.7679103859532 1  C 133.05766523107488 0.21054920097986876  151.9253147258572 19.00973056502449  151.9253147258572 42.16328801339107  C 151.9253147258572 53.761001237979826  147.20840235216187 64.22825144067721  139.5855350339572 71.80654058743013  C 131.9626677157528 79.38482973418306  121.3917301639888 84.07415782499147  109.7679103859532 84  L 4.942955938379768 84  C 2.710845618684459 84.07415782499147  0.8577729004471024 82.27379079012752  1 80.01286474634482  L 1 4.271842279626506  C 0.8577729004471024 2.052785236654688  2.6687303296338456 0.21054920097986876  4.942955938379768 1  L 109.7679103859532 1  Z " stroke-width="0" stroke-dasharray="0" stroke="rgba(255, 255, 255, 0)" fill="none" transform="matrix(1 0 0 1 1170 856 )" class="stroke" mask="url(#Clip450)" />
  </g>
</svg>