<?xml version="1.0" encoding="utf-8"?>
<svg version="1.1" xmlns:xlink="http://www.w3.org/1999/xlink" width="20px" height="152px" xmlns="http://www.w3.org/2000/svg">
  <defs>
    <pattern id="BGPattern" patternUnits="userSpaceOnUse" alignment="0 0" imageRepeat="None" />
    <mask fill="white" id="Clip273">
      <path d="M 19.897299983435534 140.697751519948  C 19.897299983435534 146.55659482573515  15.19702574862423 151.36168933551744  9.415272486334187 151.36168933551744  L 9.415272486334187 150.1393407321518  C 14.53150019325272 150.1393407321518  18.691034914324593 145.92434554813227  18.691034914324593 140.73990147178822  L 18.691034914324593 10.41225038190422  C 18.691034914324593 5.396406112920969  14.656286234884925 1.2657108325818291  9.664844569598724 1.2657108325818291  L 0.3058914471868472 1.2657108325818291  L 0.3058914471868472 0.04336222921615528  L 9.664844569598724 0.04336222921615528  C 15.321811790256435 0.04336222921615528  19.897299983435534 4.67985693163766  19.897299983435534 10.41225038190422  L 19.897299983435534 140.697751519948  Z " fill-rule="evenodd" />
    </mask>
  </defs>
  <g transform="matrix(1 0 0 1 -1161 -601 )">
    <path d="M 19.897299983435534 140.697751519948  C 19.897299983435534 146.55659482573515  15.19702574862423 151.36168933551744  9.415272486334187 151.36168933551744  L 9.415272486334187 150.1393407321518  C 14.53150019325272 150.1393407321518  18.691034914324593 145.92434554813227  18.691034914324593 140.73990147178822  L 18.691034914324593 10.41225038190422  C 18.691034914324593 5.396406112920969  14.656286234884925 1.2657108325818291  9.664844569598724 1.2657108325818291  L 0.3058914471868472 1.2657108325818291  L 0.3058914471868472 0.04336222921615528  L 9.664844569598724 0.04336222921615528  C 15.321811790256435 0.04336222921615528  19.897299983435534 4.67985693163766  19.897299983435534 10.41225038190422  L 19.897299983435534 140.697751519948  Z " fill-rule="nonzero" fill="rgba(43, 71, 139, 1)" stroke="none" transform="matrix(1 0 0 1 1161 601 )" class="fill" />
    <path d="M 19.897299983435534 140.697751519948  C 19.897299983435534 146.55659482573515  15.19702574862423 151.36168933551744  9.415272486334187 151.36168933551744  L 9.415272486334187 150.1393407321518  C 14.53150019325272 150.1393407321518  18.691034914324593 145.92434554813227  18.691034914324593 140.73990147178822  L 18.691034914324593 10.41225038190422  C 18.691034914324593 5.396406112920969  14.656286234884925 1.2657108325818291  9.664844569598724 1.2657108325818291  L 0.3058914471868472 1.2657108325818291  L 0.3058914471868472 0.04336222921615528  L 9.664844569598724 0.04336222921615528  C 15.321811790256435 0.04336222921615528  19.897299983435534 4.67985693163766  19.897299983435534 10.41225038190422  L 19.897299983435534 140.697751519948  Z " stroke-width="0" stroke-dasharray="0" stroke="rgba(255, 255, 255, 0)" fill="none" transform="matrix(1 0 0 1 1161 601 )" class="stroke" mask="url(#Clip273)" />
  </g>
</svg>