<?xml version="1.0" encoding="utf-8"?>
<svg version="1.1" xmlns:xlink="http://www.w3.org/1999/xlink" width="52px" height="94px" xmlns="http://www.w3.org/2000/svg">
  <defs>
    <pattern id="BGPattern" patternUnits="userSpaceOnUse" alignment="0 0" imageRepeat="None" />
    <mask fill="white" id="Clip16">
      <path d="M 51 85.11788349355685  C 51.651712987302865 89.90876542446081  47.80070723293312 93.80930646555082  42.97637035383244 93  L 9.290649689235213 93  C 4.508631554688058 93.80930646555082  0.615307055764788 89.90876542446084  1 85.11788349355685  L 1 9.735688155969946  C 0.615307055764788 4.94480622506594  4.508631554688058 1.0442651839759582  9.290649689235213 1  L 42.97637035383244 1  C 47.758388488379595 1.0442651839759582  51.651712987302865 4.94480622506594  51 9.735688155969946  L 51 85.11788349355685  Z " fill-rule="evenodd" />
    </mask>
  </defs>
  <g transform="matrix(1 0 0 1 -1017 -619 )">
    <path d="M 51 85.11788349355685  C 51.651712987302865 89.90876542446081  47.80070723293312 93.80930646555082  42.97637035383244 93  L 9.290649689235213 93  C 4.508631554688058 93.80930646555082  0.615307055764788 89.90876542446084  1 85.11788349355685  L 1 9.735688155969946  C 0.615307055764788 4.94480622506594  4.508631554688058 1.0442651839759582  9.290649689235213 1  L 42.97637035383244 1  C 47.758388488379595 1.0442651839759582  51.651712987302865 4.94480622506594  51 9.735688155969946  L 51 85.11788349355685  Z " fill-rule="nonzero" fill="rgba(174, 195, 255, 1)" stroke="none" transform="matrix(1 0 0 1 1017 619 )" class="fill" />
    <path d="M 51 85.11788349355685  C 51.651712987302865 89.90876542446081  47.80070723293312 93.80930646555082  42.97637035383244 93  L 9.290649689235213 93  C 4.508631554688058 93.80930646555082  0.615307055764788 89.90876542446084  1 85.11788349355685  L 1 9.735688155969946  C 0.615307055764788 4.94480622506594  4.508631554688058 1.0442651839759582  9.290649689235213 1  L 42.97637035383244 1  C 47.758388488379595 1.0442651839759582  51.651712987302865 4.94480622506594  51 9.735688155969946  L 51 85.11788349355685  Z " stroke-width="0" stroke-dasharray="0" stroke="rgba(255, 255, 255, 0)" fill="none" transform="matrix(1 0 0 1 1017 619 )" class="stroke" mask="url(#Clip16)" />
  </g>
</svg>