<?xml version="1.0" encoding="utf-8"?>
<svg version="1.1" xmlns:xlink="http://www.w3.org/1999/xlink" width="9px" height="11px" xmlns="http://www.w3.org/2000/svg">
  <defs>
    <pattern id="BGPattern" patternUnits="userSpaceOnUse" alignment="0 0" imageRepeat="None" />
    <mask fill="white" id="Clip17">
      <path d="M 4.427509524598179 10.383220142454899  C 1.9848227596489068 10.383220142454899  0.005404174258686112 8.232740691660705  0.005404174258686112 5.578957539616843  C 0.005404174258686112 2.9251743875729646  1.984822759648651 0.7746949367787895  4.427509524598179 0.7746949367787895  C 6.870196289547835 0.7746949367787895  8.8496148749378 2.9251743875729646  8.8496148749378 5.578957539616843  C 8.8496148749378 8.232740691660723  6.870196289547835 10.383220142454899  4.427509524598179 10.383220142454899  Z " fill-rule="evenodd" />
    </mask>
  </defs>
  <g transform="matrix(1 0 0 1 -1027 -627 )">
    <path d="M 4.427509524598179 10.383220142454899  C 1.9848227596489068 10.383220142454899  0.005404174258686112 8.232740691660705  0.005404174258686112 5.578957539616843  C 0.005404174258686112 2.9251743875729646  1.984822759648651 0.7746949367787895  4.427509524598179 0.7746949367787895  C 6.870196289547835 0.7746949367787895  8.8496148749378 2.9251743875729646  8.8496148749378 5.578957539616843  C 8.8496148749378 8.232740691660723  6.870196289547835 10.383220142454899  4.427509524598179 10.383220142454899  Z " fill-rule="nonzero" fill="rgba(221, 231, 254, 1)" stroke="none" transform="matrix(1 0 0 1 1027 627 )" class="fill" />
    <path d="M 4.427509524598179 10.383220142454899  C 1.9848227596489068 10.383220142454899  0.005404174258686112 8.232740691660705  0.005404174258686112 5.578957539616843  C 0.005404174258686112 2.9251743875729646  1.984822759648651 0.7746949367787895  4.427509524598179 0.7746949367787895  C 6.870196289547835 0.7746949367787895  8.8496148749378 2.9251743875729646  8.8496148749378 5.578957539616843  C 8.8496148749378 8.232740691660723  6.870196289547835 10.383220142454899  4.427509524598179 10.383220142454899  Z " stroke-width="0" stroke-dasharray="0" stroke="rgba(255, 255, 255, 0)" fill="none" transform="matrix(1 0 0 1 1027 627 )" class="stroke" mask="url(#Clip17)" />
  </g>
</svg>