<?xml version="1.0" encoding="utf-8"?>
<svg version="1.1" xmlns:xlink="http://www.w3.org/1999/xlink" width="9px" height="11px" xmlns="http://www.w3.org/2000/svg">
  <defs>
    <pattern id="BGPattern" patternUnits="userSpaceOnUse" alignment="0 0" imageRepeat="None" />
    <mask fill="white" id="Clip276">
      <path d="M 4.427509524598179 10.388079067969787  C 1.9848227596489068 10.388079067969787  0.005404174258686112 8.237599617175613  0.005404174258686112 5.583816465131716  C 0.005404174258686112 2.9300333130878187  1.984822759648651 0.7795538622936785  4.427509524598179 0.7795538622936785  C 6.870196289547835 0.7795538622936785  8.8496148749378 2.9300333130878187  8.8496148749378 5.583816465131716  C 8.8496148749378 8.237599617175613  6.870196289547835 10.388079067969787  4.427509524598179 10.388079067969787  Z " fill-rule="evenodd" />
    </mask>
  </defs>
  <g transform="matrix(1 0 0 1 -1027 -691 )">
    <path d="M 4.427509524598179 10.388079067969787  C 1.9848227596489068 10.388079067969787  0.005404174258686112 8.237599617175613  0.005404174258686112 5.583816465131716  C 0.005404174258686112 2.9300333130878187  1.984822759648651 0.7795538622936785  4.427509524598179 0.7795538622936785  C 6.870196289547835 0.7795538622936785  8.8496148749378 2.9300333130878187  8.8496148749378 5.583816465131716  C 8.8496148749378 8.237599617175613  6.870196289547835 10.388079067969787  4.427509524598179 10.388079067969787  Z " fill-rule="nonzero" fill="rgba(221, 231, 254, 1)" stroke="none" transform="matrix(1 0 0 1 1027 691 )" class="fill" />
    <path d="M 4.427509524598179 10.388079067969787  C 1.9848227596489068 10.388079067969787  0.005404174258686112 8.237599617175613  0.005404174258686112 5.583816465131716  C 0.005404174258686112 2.9300333130878187  1.984822759648651 0.7795538622936785  4.427509524598179 0.7795538622936785  C 6.870196289547835 0.7795538622936785  8.8496148749378 2.9300333130878187  8.8496148749378 5.583816465131716  C 8.8496148749378 8.237599617175613  6.870196289547835 10.388079067969787  4.427509524598179 10.388079067969787  Z " stroke-width="0" stroke-dasharray="0" stroke="rgba(255, 255, 255, 0)" fill="none" transform="matrix(1 0 0 1 1027 691 )" class="stroke" mask="url(#Clip276)" />
  </g>
</svg>