<?xml version="1.0" encoding="utf-8"?>
<svg version="1.1" xmlns:xlink="http://www.w3.org/1999/xlink" width="717px" height="36px" xmlns="http://www.w3.org/2000/svg">
  <defs>
    <pattern id="BGPattern" patternUnits="userSpaceOnUse" alignment="0 0" imageRepeat="None" />
    <mask fill="white" id="Clip474">
      <path d="M 682.5917025542906 35  L 716.0487405114823 35  C 716.3858391306984 35.29363715421562  716.6386630951102 35.41998302136816  716.8914870595224 35  L 1 35  L 1 1  L 704.418838148529 1  C 703.9974648745089 1.7698670697365841  703.5760916004889 2.6964034288553265  703.1125809990667 3.6229397879741327  C 697.7611404190122 14.78349138645023  690.9348933798874 25.438659516316086  682.5917025542906 35  Z " fill-rule="evenodd" />
    </mask>
  </defs>
  <g transform="matrix(1 0 0 1 -656 -938 )">
    <path d="M 682.5917025542906 35  L 716.0487405114823 35  C 716.3858391306984 35.29363715421562  716.6386630951102 35.41998302136816  716.8914870595224 35  L 1 35  L 1 1  L 704.418838148529 1  C 703.9974648745089 1.7698670697365841  703.5760916004889 2.6964034288553265  703.1125809990667 3.6229397879741327  C 697.7611404190122 14.78349138645023  690.9348933798874 25.438659516316086  682.5917025542906 35  Z " fill-rule="nonzero" fill="rgba(153, 185, 255, 1)" stroke="none" transform="matrix(1 0 0 1 656 938 )" class="fill" />
    <path d="M 682.5917025542906 35  L 716.0487405114823 35  C 716.3858391306984 35.29363715421562  716.6386630951102 35.41998302136816  716.8914870595224 35  L 1 35  L 1 1  L 704.418838148529 1  C 703.9974648745089 1.7698670697365841  703.5760916004889 2.6964034288553265  703.1125809990667 3.6229397879741327  C 697.7611404190122 14.78349138645023  690.9348933798874 25.438659516316086  682.5917025542906 35  Z " stroke-width="0" stroke-dasharray="0" stroke="rgba(255, 255, 255, 0)" fill="none" transform="matrix(1 0 0 1 656 938 )" class="stroke" mask="url(#Clip474)" />
  </g>
</svg>