<?xml version="1.0" encoding="utf-8"?>
<svg version="1.1" xmlns:xlink="http://www.w3.org/1999/xlink" width="1271px" height="3px" xmlns="http://www.w3.org/2000/svg">
  <defs>
    <pattern id="BGPattern" patternUnits="userSpaceOnUse" alignment="0 0" imageRepeat="None" />
    <mask fill="white" id="Clip475">
      <path d="M 1269.765694074612 0.6341726022859007  C 1270.0185598904188 0.8587874772238138  1270.187137100957 1.1582739771409933  1270.187137100957 1.457760477058116  L 1270.187137100957 1.4951962895477209  C 1270.187137100957 2.09416928938208  1269.6392611667084 2.6182706642371727  1268.9228080219223 2.6182706642371727  L 1.2643290790347623 2.6182706642371727  C 0.5900202368828891 2.6182706642371727  0 2.1316051018717417  0 1.4951962895477209  L 0 1.457760477058116  C 0 0.8587874772238138  0.5478759342483971 0.3346861023687211  1.2643290790347623 0.3346861023687211  L 1268.9228080219223 0.3346861023687211  C 1269.2599624429981 0.3346861023687211  1269.512828258805 0.4469935398376492  1269.765694074612 0.6341726022859007  Z " fill-rule="evenodd" />
    </mask>
  </defs>
  <g transform="matrix(1 0 0 1 -103 -973 )">
    <path d="M 1269.765694074612 0.6341726022859007  C 1270.0185598904188 0.8587874772238138  1270.187137100957 1.1582739771409933  1270.187137100957 1.457760477058116  L 1270.187137100957 1.4951962895477209  C 1270.187137100957 2.09416928938208  1269.6392611667084 2.6182706642371727  1268.9228080219223 2.6182706642371727  L 1.2643290790347623 2.6182706642371727  C 0.5900202368828891 2.6182706642371727  0 2.1316051018717417  0 1.4951962895477209  L 0 1.457760477058116  C 0 0.8587874772238138  0.5478759342483971 0.3346861023687211  1.2643290790347623 0.3346861023687211  L 1268.9228080219223 0.3346861023687211  C 1269.2599624429981 0.3346861023687211  1269.512828258805 0.4469935398376492  1269.765694074612 0.6341726022859007  Z " fill-rule="nonzero" fill="rgba(46, 53, 82, 1)" stroke="none" transform="matrix(1 0 0 1 103 973 )" class="fill" />
    <path d="M 1269.765694074612 0.6341726022859007  C 1270.0185598904188 0.8587874772238138  1270.187137100957 1.1582739771409933  1270.187137100957 1.457760477058116  L 1270.187137100957 1.4951962895477209  C 1270.187137100957 2.09416928938208  1269.6392611667084 2.6182706642371727  1268.9228080219223 2.6182706642371727  L 1.2643290790347623 2.6182706642371727  C 0.5900202368828891 2.6182706642371727  0 2.1316051018717417  0 1.4951962895477209  L 0 1.457760477058116  C 0 0.8587874772238138  0.5478759342483971 0.3346861023687211  1.2643290790347623 0.3346861023687211  L 1268.9228080219223 0.3346861023687211  C 1269.2599624429981 0.3346861023687211  1269.512828258805 0.4469935398376492  1269.765694074612 0.6341726022859007  Z " stroke-width="0" stroke-dasharray="0" stroke="rgba(255, 255, 255, 0)" fill="none" transform="matrix(1 0 0 1 103 973 )" class="stroke" mask="url(#Clip475)" />
  </g>
</svg>