<?xml version="1.0" encoding="utf-8"?>
<svg version="1.1" xmlns:xlink="http://www.w3.org/1999/xlink" width="709px" height="88px" xmlns="http://www.w3.org/2000/svg">
  <defs>
    <pattern id="BGPattern" patternUnits="userSpaceOnUse" alignment="0 0" imageRepeat="None" />
    <mask fill="white" id="Clip218">
      <path d="M 695.8247882098549 75.08008630323972  C 687.4275605151382 83.29511472501852  676.3297168784019 87.8404857807235  664.5567192561608 87  L 45.22952892773311 87  C 20.881788325463994 87.8404857807235  1.091337125352852 68.28288004562584  1.091337125352852 44.22160390671028  C 1.091337125352852 32.587122030181  5.6908236516047666 21.619850583846826  14.045854222227385 13.363121510180882  C 22.400884792850004 5.1063924365149385  33.45653130549215 0.602722032697099  45.27172605182718 1  L 664.598916380255 1  C 688.9466569825239 0.602722032697099  708.7371081826352 20.160327767794765  708.7371081826352 44.22160390671028  C 708.7371081826352 55.856085783239614  704.1376216563832 66.82335722957377  695.8247882098549 75.08008630323972  Z M 664.5567192561608 5  L 45.22952892773311 5  C 34.46926228374939 4.314080050658049  24.299755377082455 8.442444587491053  16.704273040152714 15.990262579074606  C 9.066593579129032 23.53808057065816  4.889078293817691 33.54623702358656  4.889078293817691 44.17990325482305  C 4.889078293817691 66.15614679937855  22.9916445301668 84.04572645898813  45.22952892773311 84  L 664.5567192561608 84  C 675.3169859001447 84.04572645898813  685.4864928068117 79.91736192215512  693.0819751437413 72.36954393057157  C 700.719654604765 64.82172593898801  704.8971698900763 54.813569486059606  704.8971698900763 44.17990325482305  C 704.8971698900763 22.20365971026763  686.7946036537272 4.314080050658049  664.5567192561608 5  Z " fill-rule="evenodd" />
    </mask>
  </defs>
  <g transform="matrix(1 0 0 1 -616 -853 )">
    <path d="M 695.8247882098549 75.08008630323972  C 687.4275605151382 83.29511472501852  676.3297168784019 87.8404857807235  664.5567192561608 87  L 45.22952892773311 87  C 20.881788325463994 87.8404857807235  1.091337125352852 68.28288004562584  1.091337125352852 44.22160390671028  C 1.091337125352852 32.587122030181  5.6908236516047666 21.619850583846826  14.045854222227385 13.363121510180882  C 22.400884792850004 5.1063924365149385  33.45653130549215 0.602722032697099  45.27172605182718 1  L 664.598916380255 1  C 688.9466569825239 0.602722032697099  708.7371081826352 20.160327767794765  708.7371081826352 44.22160390671028  C 708.7371081826352 55.856085783239614  704.1376216563832 66.82335722957377  695.8247882098549 75.08008630323972  Z M 664.5567192561608 5  L 45.22952892773311 5  C 34.46926228374939 4.314080050658049  24.299755377082455 8.442444587491053  16.704273040152714 15.990262579074606  C 9.066593579129032 23.53808057065816  4.889078293817691 33.54623702358656  4.889078293817691 44.17990325482305  C 4.889078293817691 66.15614679937855  22.9916445301668 84.04572645898813  45.22952892773311 84  L 664.5567192561608 84  C 675.3169859001447 84.04572645898813  685.4864928068117 79.91736192215512  693.0819751437413 72.36954393057157  C 700.719654604765 64.82172593898801  704.8971698900763 54.813569486059606  704.8971698900763 44.17990325482305  C 704.8971698900763 22.20365971026763  686.7946036537272 4.314080050658049  664.5567192561608 5  Z " fill-rule="nonzero" fill="rgba(43, 71, 139, 1)" stroke="none" transform="matrix(1 0 0 1 616 853 )" class="fill" />
    <path d="M 695.8247882098549 75.08008630323972  C 687.4275605151382 83.29511472501852  676.3297168784019 87.8404857807235  664.5567192561608 87  L 45.22952892773311 87  C 20.881788325463994 87.8404857807235  1.091337125352852 68.28288004562584  1.091337125352852 44.22160390671028  C 1.091337125352852 32.587122030181  5.6908236516047666 21.619850583846826  14.045854222227385 13.363121510180882  C 22.400884792850004 5.1063924365149385  33.45653130549215 0.602722032697099  45.27172605182718 1  L 664.598916380255 1  C 688.9466569825239 0.602722032697099  708.7371081826352 20.160327767794765  708.7371081826352 44.22160390671028  C 708.7371081826352 55.856085783239614  704.1376216563832 66.82335722957377  695.8247882098549 75.08008630323972  Z " stroke-width="0" stroke-dasharray="0" stroke="rgba(255, 255, 255, 0)" fill="none" transform="matrix(1 0 0 1 616 853 )" class="stroke" mask="url(#Clip218)" />
    <path d="M 664.5567192561608 5  L 45.22952892773311 5  C 34.46926228374939 4.314080050658049  24.299755377082455 8.442444587491053  16.704273040152714 15.990262579074606  C 9.066593579129032 23.53808057065816  4.889078293817691 33.54623702358656  4.889078293817691 44.17990325482305  C 4.889078293817691 66.15614679937855  22.9916445301668 84.04572645898813  45.22952892773311 84  L 664.5567192561608 84  C 675.3169859001447 84.04572645898813  685.4864928068117 79.91736192215512  693.0819751437413 72.36954393057157  C 700.719654604765 64.82172593898801  704.8971698900763 54.813569486059606  704.8971698900763 44.17990325482305  C 704.8971698900763 22.20365971026763  686.7946036537272 4.314080050658049  664.5567192561608 5  Z " stroke-width="0" stroke-dasharray="0" stroke="rgba(255, 255, 255, 0)" fill="none" transform="matrix(1 0 0 1 616 853 )" class="stroke" mask="url(#Clip218)" />
  </g>
</svg>