<?xml version="1.0" encoding="utf-8"?>
<svg version="1.1" xmlns:xlink="http://www.w3.org/1999/xlink" width="22px" height="81px" xmlns="http://www.w3.org/2000/svg">
  <defs>
    <pattern id="BGPattern" patternUnits="userSpaceOnUse" alignment="0 0" imageRepeat="None" />
    <mask fill="white" id="Clip477">
      <path d="M 15.006062613881028 5.573287642869023  C 10.517508696372408 1.7407963392413492  0.14030147424213624 0.014069488156408738  0.14030147424213624 0.014069488156408738  C 0.14030147424213624 0.014069488156408738  3.3111147921152906 18.376335514328353  6.770183866158714 37.580907321517365  C 10.517508696372408 58.42797540168958  14.635448070233565 80.28581041908234  15.417856551267182 80.53850215338748  C 16.90031472585722 81.04388562199773  19.124001987742247 78.05370009938716  20.153486831207566 75.52678275633596  C 20.97707470597981 73.50524888189506  22.583071061785674 57.754130776875925  21.759483187013426 46.846270912705045  C 21.55358621832035 44.1930077025013  21.306509855888645 42.00301267185692  21.059433493457004 40.65532342222961  C 19.618154712605595 33.748416017889724  19.453437137651143 9.447894235547501  15.006062613881028 5.573287642869023  Z " fill-rule="evenodd" />
    </mask>
  </defs>
  <g transform="matrix(1 0 0 1 -429 -782 )">
    <path d="M 15.006062613881028 5.573287642869023  C 10.517508696372408 1.7407963392413492  0.14030147424213624 0.014069488156408738  0.14030147424213624 0.014069488156408738  C 0.14030147424213624 0.014069488156408738  3.3111147921152906 18.376335514328353  6.770183866158714 37.580907321517365  C 10.517508696372408 58.42797540168958  14.635448070233565 80.28581041908234  15.417856551267182 80.53850215338748  C 16.90031472585722 81.04388562199773  19.124001987742247 78.05370009938716  20.153486831207566 75.52678275633596  C 20.97707470597981 73.50524888189506  22.583071061785674 57.754130776875925  21.759483187013426 46.846270912705045  C 21.55358621832035 44.1930077025013  21.306509855888645 42.00301267185692  21.059433493457004 40.65532342222961  C 19.618154712605595 33.748416017889724  19.453437137651143 9.447894235547501  15.006062613881028 5.573287642869023  Z " fill-rule="nonzero" fill="rgba(255, 178, 125, 1)" stroke="none" transform="matrix(1 0 0 1 429 782 )" class="fill" />
    <path d="M 15.006062613881028 5.573287642869023  C 10.517508696372408 1.7407963392413492  0.14030147424213624 0.014069488156408738  0.14030147424213624 0.014069488156408738  C 0.14030147424213624 0.014069488156408738  3.3111147921152906 18.376335514328353  6.770183866158714 37.580907321517365  C 10.517508696372408 58.42797540168958  14.635448070233565 80.28581041908234  15.417856551267182 80.53850215338748  C 16.90031472585722 81.04388562199773  19.124001987742247 78.05370009938716  20.153486831207566 75.52678275633596  C 20.97707470597981 73.50524888189506  22.583071061785674 57.754130776875925  21.759483187013426 46.846270912705045  C 21.55358621832035 44.1930077025013  21.306509855888645 42.00301267185692  21.059433493457004 40.65532342222961  C 19.618154712605595 33.748416017889724  19.453437137651143 9.447894235547501  15.006062613881028 5.573287642869023  Z " stroke-width="0" stroke-dasharray="0" stroke="rgba(255, 255, 255, 0)" fill="none" transform="matrix(1 0 0 1 429 782 )" class="stroke" mask="url(#Clip477)" />
  </g>
</svg>