<?xml version="1.0" encoding="utf-8"?>
<svg version="1.1" xmlns:xlink="http://www.w3.org/1999/xlink" width="11px" height="11px" xmlns="http://www.w3.org/2000/svg">
  <defs>
    <pattern id="BGPattern" patternUnits="userSpaceOnUse" alignment="0 0" imageRepeat="None" />
    <mask fill="white" id="Clip19">
      <path d="M 5.302100012883431 10.383220142454899  C 2.648316860839499 10.383220142454899  0.4978374100453241 8.232740691660705  0.4978374100453241 5.578957539616843  C 0.4978374100453241 2.9251743875729646  2.648316860839499 0.7746949367787895  5.302100012883431 0.7746949367787895  C 7.955883164927362 0.7746949367787895  10.106362615721537 2.9251743875729646  10.106362615721537 5.578957539616843  C 10.106362615721537 8.232740691660723  7.955883164927362 10.383220142454899  5.302100012883431 10.383220142454899  Z " fill-rule="evenodd" />
    </mask>
  </defs>
  <g transform="matrix(1 0 0 1 -1050 -627 )">
    <path d="M 5.302100012883431 10.383220142454899  C 2.648316860839499 10.383220142454899  0.4978374100453241 8.232740691660705  0.4978374100453241 5.578957539616843  C 0.4978374100453241 2.9251743875729646  2.648316860839499 0.7746949367787895  5.302100012883431 0.7746949367787895  C 7.955883164927362 0.7746949367787895  10.106362615721537 2.9251743875729646  10.106362615721537 5.578957539616843  C 10.106362615721537 8.232740691660723  7.955883164927362 10.383220142454899  5.302100012883431 10.383220142454899  Z " fill-rule="nonzero" fill="rgba(221, 231, 254, 1)" stroke="none" transform="matrix(1 0 0 1 1050 627 )" class="fill" />
    <path d="M 5.302100012883431 10.383220142454899  C 2.648316860839499 10.383220142454899  0.4978374100453241 8.232740691660705  0.4978374100453241 5.578957539616843  C 0.4978374100453241 2.9251743875729646  2.648316860839499 0.7746949367787895  5.302100012883431 0.7746949367787895  C 7.955883164927362 0.7746949367787895  10.106362615721537 2.9251743875729646  10.106362615721537 5.578957539616843  C 10.106362615721537 8.232740691660723  7.955883164927362 10.383220142454899  5.302100012883431 10.383220142454899  Z " stroke-width="0" stroke-dasharray="0" stroke="rgba(255, 255, 255, 0)" fill="none" transform="matrix(1 0 0 1 1050 627 )" class="stroke" mask="url(#Clip19)" />
  </g>
</svg>