<?xml version="1.0" encoding="utf-8"?>
<svg version="1.1" xmlns:xlink="http://www.w3.org/1999/xlink" width="9px" height="16px" xmlns="http://www.w3.org/2000/svg">
  <defs>
    <pattern id="BGPattern" patternUnits="userSpaceOnUse" alignment="0 0" imageRepeat="None" />
    <mask fill="white" id="Clip478">
      <path d="M 0.7521119761470132 0.97295250715823  L 7.701134669537836 0.45954707872877926  C 7.701134669537836 0.45954707872877926  6.900944177571638 3.497195863603013  8.038056981944663 6.492060862774841  C 9.175169786317689 9.486925861946604  9.427861520622777 10.342601575995689  7.32209706808014 12.011169218391387  C 5.216332615537439 13.67973686078702  2.942107006791389 16.03284507442199  1.3417260228589925 15.34830450318272  C -0.2586549610734039 14.663763931943452  0.7521119761470132 0.97295250715823  0.7521119761470132 0.97295250715823  Z " fill-rule="evenodd" />
    </mask>
  </defs>
  <g transform="matrix(1 0 0 1 -443 -854 )">
    <path d="M 0.7521119761470132 0.97295250715823  L 7.701134669537836 0.45954707872877926  C 7.701134669537836 0.45954707872877926  6.900944177571638 3.497195863603013  8.038056981944663 6.492060862774841  C 9.175169786317689 9.486925861946604  9.427861520622777 10.342601575995689  7.32209706808014 12.011169218391387  C 5.216332615537439 13.67973686078702  2.942107006791389 16.03284507442199  1.3417260228589925 15.34830450318272  C -0.2586549610734039 14.663763931943452  0.7521119761470132 0.97295250715823  0.7521119761470132 0.97295250715823  Z " fill-rule="nonzero" fill="rgba(255, 178, 125, 1)" stroke="none" transform="matrix(1 0 0 1 443 854 )" class="fill" />
    <path d="M 0.7521119761470132 0.97295250715823  L 7.701134669537836 0.45954707872877926  C 7.701134669537836 0.45954707872877926  6.900944177571638 3.497195863603013  8.038056981944663 6.492060862774841  C 9.175169786317689 9.486925861946604  9.427861520622777 10.342601575995689  7.32209706808014 12.011169218391387  C 5.216332615537439 13.67973686078702  2.942107006791389 16.03284507442199  1.3417260228589925 15.34830450318272  C -0.2586549610734039 14.663763931943452  0.7521119761470132 0.97295250715823  0.7521119761470132 0.97295250715823  Z " stroke-width="0" stroke-dasharray="0" stroke="rgba(255, 255, 255, 0)" fill="none" transform="matrix(1 0 0 1 443 854 )" class="stroke" mask="url(#Clip478)" />
  </g>
</svg>