<?xml version="1.0" encoding="utf-8"?>
<svg version="1.1" xmlns:xlink="http://www.w3.org/1999/xlink" width="28px" height="15px" xmlns="http://www.w3.org/2000/svg">
  <defs>
    <pattern id="BGPattern" patternUnits="userSpaceOnUse" alignment="0 0" imageRepeat="None" />
    <mask fill="white" id="Clip221">
      <path d="M 27.70854397879745 14.577891464176039  L 1.2938346861023093 14.577891464176039  C -0.6767864833527164 13.368426752972045  0.4552724863342701 4.2110510824275815  0.4552724863342701 4.2110510824275815  C 0.4552724863342701 4.2110510824275815  9.553672353818138 -3.3049081943400656  10.81151565347026 2.4400491838788585  C 12.069358953122382 8.185006562097849  19.44870631108169 10.776716657534914  23.641517309922136 11.467839349651483  C 26.534556899122045 11.94298620048154  27.45697531886699 13.627597762515725  27.70854397879745 14.577891464176039  Z " fill-rule="evenodd" />
    </mask>
  </defs>
  <g transform="matrix(1 0 0 1 -443 -959 )">
    <path d="M 27.70854397879745 14.577891464176039  L 1.2938346861023093 14.577891464176039  C -0.6767864833527164 13.368426752972045  0.4552724863342701 4.2110510824275815  0.4552724863342701 4.2110510824275815  C 0.4552724863342701 4.2110510824275815  9.553672353818138 -3.3049081943400656  10.81151565347026 2.4400491838788585  C 12.069358953122382 8.185006562097849  19.44870631108169 10.776716657534914  23.641517309922136 11.467839349651483  C 26.534556899122045 11.94298620048154  27.45697531886699 13.627597762515725  27.70854397879745 14.577891464176039  Z " fill-rule="nonzero" fill="rgba(35, 56, 98, 1)" stroke="none" transform="matrix(1 0 0 1 443 959 )" class="fill" />
    <path d="M 27.70854397879745 14.577891464176039  L 1.2938346861023093 14.577891464176039  C -0.6767864833527164 13.368426752972045  0.4552724863342701 4.2110510824275815  0.4552724863342701 4.2110510824275815  C 0.4552724863342701 4.2110510824275815  9.553672353818138 -3.3049081943400656  10.81151565347026 2.4400491838788585  C 12.069358953122382 8.185006562097849  19.44870631108169 10.776716657534914  23.641517309922136 11.467839349651483  C 26.534556899122045 11.94298620048154  27.45697531886699 13.627597762515725  27.70854397879745 14.577891464176039  Z " stroke-width="0" stroke-dasharray="0" stroke="rgba(255, 255, 255, 0)" fill="none" transform="matrix(1 0 0 1 443 959 )" class="stroke" mask="url(#Clip221)" />
  </g>
</svg>