<?xml version="1.0" encoding="utf-8"?>
<svg version="1.1" xmlns:xlink="http://www.w3.org/1999/xlink" width="28px" height="15px" xmlns="http://www.w3.org/2000/svg">
  <defs>
    <pattern id="BGPattern" patternUnits="userSpaceOnUse" alignment="0 0" imageRepeat="None" />
    <mask fill="white" id="Clip222">
      <path d="M 27.609845949975153 14.577891464176039  L 1.1951366572800726 14.577891464176039  C -0.7754845121749532 13.368426752972045  0.35657445751196976 4.2110510824275815  0.35657445751196976 4.2110510824275815  C 0.35657445751196976 4.2110510824275815  9.454974324995838 -3.3049081943400656  10.712817624648023 2.4400491838788585  C 11.970660924300146 8.185006562097849  19.350008282259385 10.776716657534914  23.5428192810999 11.467839349651483  C 26.435858870299807 11.94298620048154  27.358277290044754 13.627597762515725  27.609845949975153 14.577891464176039  Z " fill-rule="evenodd" />
    </mask>
  </defs>
  <g transform="matrix(1 0 0 1 -402 -959 )">
    <path d="M 27.609845949975153 14.577891464176039  L 1.1951366572800726 14.577891464176039  C -0.7754845121749532 13.368426752972045  0.35657445751196976 4.2110510824275815  0.35657445751196976 4.2110510824275815  C 0.35657445751196976 4.2110510824275815  9.454974324995838 -3.3049081943400656  10.712817624648023 2.4400491838788585  C 11.970660924300146 8.185006562097849  19.350008282259385 10.776716657534914  23.5428192810999 11.467839349651483  C 26.435858870299807 11.94298620048154  27.358277290044754 13.627597762515725  27.609845949975153 14.577891464176039  Z " fill-rule="nonzero" fill="rgba(35, 56, 98, 1)" stroke="none" transform="matrix(1 0 0 1 402 959 )" class="fill" />
    <path d="M 27.609845949975153 14.577891464176039  L 1.1951366572800726 14.577891464176039  C -0.7754845121749532 13.368426752972045  0.35657445751196976 4.2110510824275815  0.35657445751196976 4.2110510824275815  C 0.35657445751196976 4.2110510824275815  9.454974324995838 -3.3049081943400656  10.712817624648023 2.4400491838788585  C 11.970660924300146 8.185006562097849  19.350008282259385 10.776716657534914  23.5428192810999 11.467839349651483  C 26.435858870299807 11.94298620048154  27.358277290044754 13.627597762515725  27.609845949975153 14.577891464176039  Z " stroke-width="0" stroke-dasharray="0" stroke="rgba(255, 255, 255, 0)" fill="none" transform="matrix(1 0 0 1 402 959 )" class="stroke" mask="url(#Clip222)" />
  </g>
</svg>