<?xml version="1.0" encoding="utf-8"?>
<svg version="1.1" xmlns:xlink="http://www.w3.org/1999/xlink" width="45px" height="130px" xmlns="http://www.w3.org/2000/svg">
  <defs>
    <pattern id="BGPattern" patternUnits="userSpaceOnUse" alignment="0 0" imageRepeat="None" />
    <mask fill="white" id="Clip223">
      <path d="M 0.45506874275311304 5.543849162051343  C 0.37083816465131036 9.648767383742264  2.3923720390922725 19.255122397389975  4.919289382143475 30.004083513982565  C 8.162166639059137 43.7999942384282  12.247349676991867 59.584885956888996  13.847730660924325 68.471822313127  C 14.016191817127742 69.48747218241128  14.184652973331154 70.41848456258865  14.310998840483698 71.26485945365894  C 14.437344707636242 72.11123434472923  14.479459996687112 72.83065300213897  14.521575285737981 73.42311542588816  C 15.363881066755049 90.05438203541925  28.46173596157037 128.14125213358204  30.820192148418155 129.0299457692058  C 34.44210700679152 130.38414559491827  40.16978631770751 127.46415222072574  43.11785655126728 126.53313984054846  C 44.33919993374198 126.15227113956675  45.18150571475905 124.88270880296133  44.928813980453896 123.61314646635594  C 38.44305946662257 93.65147532246793  34.44210700679152 50.78258708975804  33.59980122577445 25.264384123989004  C 33.17864833526595 12.39948577972066  32.58903428855397 3.258636956161591  32.58903428855397 3.258636956161591  C 32.58903428855397 3.258636956161591  0.6656451880073959 -5.289749443648307  0.45506874275311304 5.543849162051343  Z " fill-rule="evenodd" />
    </mask>
  </defs>
  <g transform="matrix(1 0 0 1 -412 -840 )">
    <path d="M 0.45506874275311304 5.543849162051343  C 0.37083816465131036 9.648767383742264  2.3923720390922725 19.255122397389975  4.919289382143475 30.004083513982565  C 8.162166639059137 43.7999942384282  12.247349676991867 59.584885956888996  13.847730660924325 68.471822313127  C 14.016191817127742 69.48747218241128  14.184652973331154 70.41848456258865  14.310998840483698 71.26485945365894  C 14.437344707636242 72.11123434472923  14.479459996687112 72.83065300213897  14.521575285737981 73.42311542588816  C 15.363881066755049 90.05438203541925  28.46173596157037 128.14125213358204  30.820192148418155 129.0299457692058  C 34.44210700679152 130.38414559491827  40.16978631770751 127.46415222072574  43.11785655126728 126.53313984054846  C 44.33919993374198 126.15227113956675  45.18150571475905 124.88270880296133  44.928813980453896 123.61314646635594  C 38.44305946662257 93.65147532246793  34.44210700679152 50.78258708975804  33.59980122577445 25.264384123989004  C 33.17864833526595 12.39948577972066  32.58903428855397 3.258636956161591  32.58903428855397 3.258636956161591  C 32.58903428855397 3.258636956161591  0.6656451880073959 -5.289749443648307  0.45506874275311304 5.543849162051343  Z " fill-rule="nonzero" fill="rgba(255, 152, 67, 1)" stroke="none" transform="matrix(1 0 0 1 412 840 )" class="fill" />
    <path d="M 0.45506874275311304 5.543849162051343  C 0.37083816465131036 9.648767383742264  2.3923720390922725 19.255122397389975  4.919289382143475 30.004083513982565  C 8.162166639059137 43.7999942384282  12.247349676991867 59.584885956888996  13.847730660924325 68.471822313127  C 14.016191817127742 69.48747218241128  14.184652973331154 70.41848456258865  14.310998840483698 71.26485945365894  C 14.437344707636242 72.11123434472923  14.479459996687112 72.83065300213897  14.521575285737981 73.42311542588816  C 15.363881066755049 90.05438203541925  28.46173596157037 128.14125213358204  30.820192148418155 129.0299457692058  C 34.44210700679152 130.38414559491827  40.16978631770751 127.46415222072574  43.11785655126728 126.53313984054846  C 44.33919993374198 126.15227113956675  45.18150571475905 124.88270880296133  44.928813980453896 123.61314646635594  C 38.44305946662257 93.65147532246793  34.44210700679152 50.78258708975804  33.59980122577445 25.264384123989004  C 33.17864833526595 12.39948577972066  32.58903428855397 3.258636956161591  32.58903428855397 3.258636956161591  C 32.58903428855397 3.258636956161591  0.6656451880073959 -5.289749443648307  0.45506874275311304 5.543849162051343  Z " stroke-width="0" stroke-dasharray="0" stroke="rgba(255, 255, 255, 0)" fill="none" transform="matrix(1 0 0 1 412 840 )" class="stroke" mask="url(#Clip223)" />
  </g>
</svg>