<?xml version="1.0" encoding="utf-8"?>
<svg version="1.1" xmlns:xlink="http://www.w3.org/1999/xlink" width="17px" height="64px" xmlns="http://www.w3.org/2000/svg">
  <defs>
    <pattern id="BGPattern" patternUnits="userSpaceOnUse" alignment="0 0" imageRepeat="None" />
    <mask fill="white" id="Clip224">
      <path d="M 8.356291756391148 1.2501155157231933  L 0.42239522941861196 15.205135582039363  C 3.689293799348464 28.90795649053057  7.804737452376992 44.586337468650875  9.416973110264507 53.41330799252561  C 9.586682126884241 54.42210462382552  10.60493622660259 63.12297556878777  10.689790734912489 63.92160623523357  L 16.33261553751863 0.5355512352190297  L 8.356291756391148 1.2501155157231933  Z " fill-rule="evenodd" />
    </mask>
  </defs>
  <g transform="matrix(1 0 0 1 -416 -854 )">
    <path d="M 8.356291756391148 1.2501155157231933  L 0.42239522941861196 15.205135582039363  C 3.689293799348464 28.90795649053057  7.804737452376992 44.586337468650875  9.416973110264507 53.41330799252561  C 9.586682126884241 54.42210462382552  10.60493622660259 63.12297556878777  10.689790734912489 63.92160623523357  L 16.33261553751863 0.5355512352190297  L 8.356291756391148 1.2501155157231933  Z " fill-rule="nonzero" fill="rgba(226, 120, 48, 1)" stroke="none" transform="matrix(1 0 0 1 416 854 )" class="fill" />
    <path d="M 8.356291756391148 1.2501155157231933  L 0.42239522941861196 15.205135582039363  C 3.689293799348464 28.90795649053057  7.804737452376992 44.586337468650875  9.416973110264507 53.41330799252561  C 9.586682126884241 54.42210462382552  10.60493622660259 63.12297556878777  10.689790734912489 63.92160623523357  L 16.33261553751863 0.5355512352190297  L 8.356291756391148 1.2501155157231933  Z " stroke-width="0" stroke-dasharray="0" stroke="rgba(255, 255, 255, 0)" fill="none" transform="matrix(1 0 0 1 416 854 )" class="stroke" mask="url(#Clip224)" />
  </g>
</svg>