<?xml version="1.0" encoding="utf-8"?>
<svg version="1.1" xmlns:xlink="http://www.w3.org/1999/xlink" width="18px" height="18px" xmlns="http://www.w3.org/2000/svg">
  <defs>
    <pattern id="BGPattern" patternUnits="userSpaceOnUse" alignment="0 0" imageRepeat="None" />
    <mask fill="white" id="Clip483">
      <path d="M 16.982151730992264 1.5043171277124472  L 16.897921152890525 10.011605515984797  L 16.897921152890525 11.569871210866356  C 16.897921152890525 11.569871210866356  17.319074043399027 16.455244740765348  11.296587709127074 17.171204654629808  C 5.274101374855121 17.88716456849433  0.7256501573629563 15.276016647341422  0.8941113135663699 11.48564063276465  C 1.4416100712274158 8.579685688255783  2.031224117939395 6.5581518138148205  2.0733394069902005 4.157580337916226  C 2.0733394069902005 3.273159267848289  2.031224117939331 2.3045076196786773  1.8627629617359815 1.2095101043564895  L 13.528698028822255 0.9568183700513693  L 16.982151730992264 1.5043171277124472  Z " fill-rule="evenodd" />
    </mask>
  </defs>
  <g transform="matrix(1 0 0 1 -409 -756 )">
    <path d="M 16.982151730992264 1.5043171277124472  L 16.897921152890525 10.011605515984797  L 16.897921152890525 11.569871210866356  C 16.897921152890525 11.569871210866356  17.319074043399027 16.455244740765348  11.296587709127074 17.171204654629808  C 5.274101374855121 17.88716456849433  0.7256501573629563 15.276016647341422  0.8941113135663699 11.48564063276465  C 1.4416100712274158 8.579685688255783  2.031224117939395 6.5581518138148205  2.0733394069902005 4.157580337916226  C 2.0733394069902005 3.273159267848289  2.031224117939331 2.3045076196786773  1.8627629617359815 1.2095101043564895  L 13.528698028822255 0.9568183700513693  L 16.982151730992264 1.5043171277124472  Z " fill-rule="nonzero" fill="rgba(255, 178, 125, 1)" stroke="none" transform="matrix(1 0 0 1 409 756 )" class="fill" />
    <path d="M 16.982151730992264 1.5043171277124472  L 16.897921152890525 10.011605515984797  L 16.897921152890525 11.569871210866356  C 16.897921152890525 11.569871210866356  17.319074043399027 16.455244740765348  11.296587709127074 17.171204654629808  C 5.274101374855121 17.88716456849433  0.7256501573629563 15.276016647341422  0.8941113135663699 11.48564063276465  C 1.4416100712274158 8.579685688255783  2.031224117939395 6.5581518138148205  2.0733394069902005 4.157580337916226  C 2.0733394069902005 3.273159267848289  2.031224117939331 2.3045076196786773  1.8627629617359815 1.2095101043564895  L 13.528698028822255 0.9568183700513693  L 16.982151730992264 1.5043171277124472  Z " stroke-width="0" stroke-dasharray="0" stroke="rgba(255, 255, 255, 0)" fill="none" transform="matrix(1 0 0 1 409 756 )" class="stroke" mask="url(#Clip483)" />
  </g>
</svg>