<?xml version="1.0" encoding="utf-8"?>
<svg version="1.1" xmlns:xlink="http://www.w3.org/1999/xlink" width="17px" height="12px" xmlns="http://www.w3.org/2000/svg">
  <defs>
    <pattern id="BGPattern" patternUnits="userSpaceOnUse" alignment="0 0" imageRepeat="None" />
    <mask fill="white" id="Clip484">
      <path d="M 12.453150019325246 1.0655292363757214  L 15.932184860029786 1.6944508862017982  L 15.889757605874834 10.723968858704676  C 14.659367235381804 11.352890508530756  13.216840594114025 11.712274308431404  11.647032190381523 11.712274308431404  C 6.25877091270495 11.712274308431404  2.737308817845462 7.5344376345868005  0.912936889183326 4.479675335431569  C 0.912936889183326 3.536292860692436  0.8705096350283763 2.5030644359781835  0.7008006184087057 1.3350670863011826  L 12.453150019325246 1.0655292363757214  Z " fill-rule="evenodd" />
    </mask>
  </defs>
  <g transform="matrix(1 0 0 1 -410 -756 )">
    <path d="M 12.453150019325246 1.0655292363757214  L 15.932184860029786 1.6944508862017982  L 15.889757605874834 10.723968858704676  C 14.659367235381804 11.352890508530756  13.216840594114025 11.712274308431404  11.647032190381523 11.712274308431404  C 6.25877091270495 11.712274308431404  2.737308817845462 7.5344376345868005  0.912936889183326 4.479675335431569  C 0.912936889183326 3.536292860692436  0.8705096350283763 2.5030644359781835  0.7008006184087057 1.3350670863011826  L 12.453150019325246 1.0655292363757214  Z " fill-rule="nonzero" fill="rgba(237, 151, 93, 1)" stroke="none" transform="matrix(1 0 0 1 410 756 )" class="fill" />
    <path d="M 12.453150019325246 1.0655292363757214  L 15.932184860029786 1.6944508862017982  L 15.889757605874834 10.723968858704676  C 14.659367235381804 11.352890508530756  13.216840594114025 11.712274308431404  11.647032190381523 11.712274308431404  C 6.25877091270495 11.712274308431404  2.737308817845462 7.5344376345868005  0.912936889183326 4.479675335431569  C 0.912936889183326 3.536292860692436  0.8705096350283763 2.5030644359781835  0.7008006184087057 1.3350670863011826  L 12.453150019325246 1.0655292363757214  Z " stroke-width="0" stroke-dasharray="0" stroke="rgba(255, 255, 255, 0)" fill="none" transform="matrix(1 0 0 1 410 756 )" class="stroke" mask="url(#Clip484)" />
  </g>
</svg>