<?xml version="1.0" encoding="utf-8"?>
<svg version="1.1" xmlns:xlink="http://www.w3.org/1999/xlink" width="34px" height="128px" xmlns="http://www.w3.org/2000/svg">
  <defs>
    <pattern id="BGPattern" patternUnits="userSpaceOnUse" alignment="0 0" imageRepeat="None" />
    <mask fill="white" id="Clip227">
      <path d="M 3.0029484843465566 1.2311447826124142  C 7.542664678924389 -1.6271123394040492  33.46571696758871 7.998488850916417  33.46571696758871 7.998488850916417  L 22.095212854066595 125.48126320439157  C 22.095212854066595 125.48126320439157  13.694616531389801 128.1713875545249  6.100138037656674 126.11176109895403  C 6.100138037656674 126.11176109895403  1.687703605543561 61.88504223952291  2.111976147092931 46.16462806843175  C 2.536248688642236 30.4442138973406  -1.451913201921506 4.131435097599789  3.0029484843465566 1.2311447826124142  Z " fill-rule="evenodd" />
    </mask>
  </defs>
  <g transform="matrix(1 0 0 1 -396 -841 )">
    <path d="M 3.0029484843465566 1.2311447826124142  C 7.542664678924389 -1.6271123394040492  33.46571696758871 7.998488850916417  33.46571696758871 7.998488850916417  L 22.095212854066595 125.48126320439157  C 22.095212854066595 125.48126320439157  13.694616531389801 128.1713875545249  6.100138037656674 126.11176109895403  C 6.100138037656674 126.11176109895403  1.687703605543561 61.88504223952291  2.111976147092931 46.16462806843175  C 2.536248688642236 30.4442138973406  -1.451913201921506 4.131435097599789  3.0029484843465566 1.2311447826124142  Z " fill-rule="nonzero" fill="rgba(255, 152, 67, 1)" stroke="none" transform="matrix(1 0 0 1 396 841 )" class="fill" />
    <path d="M 3.0029484843465566 1.2311447826124142  C 7.542664678924389 -1.6271123394040492  33.46571696758871 7.998488850916417  33.46571696758871 7.998488850916417  L 22.095212854066595 125.48126320439157  C 22.095212854066595 125.48126320439157  13.694616531389801 128.1713875545249  6.100138037656674 126.11176109895403  C 6.100138037656674 126.11176109895403  1.687703605543561 61.88504223952291  2.111976147092931 46.16462806843175  C 2.536248688642236 30.4442138973406  -1.451913201921506 4.131435097599789  3.0029484843465566 1.2311447826124142  Z " stroke-width="0" stroke-dasharray="0" stroke="rgba(255, 255, 255, 0)" fill="none" transform="matrix(1 0 0 1 396 841 )" class="stroke" mask="url(#Clip227)" />
  </g>
</svg>