<?xml version="1.0" encoding="utf-8"?>
<svg version="1.1" xmlns:xlink="http://www.w3.org/1999/xlink" width="21px" height="26px" xmlns="http://www.w3.org/2000/svg">
  <defs>
    <pattern id="BGPattern" patternUnits="userSpaceOnUse" alignment="0 0" imageRepeat="None" />
    <mask fill="white" id="Clip486">
      <path d="M 19.651421497258088 4.817127712440007  C 20.975467075839365 7.821758575739489  22.175383381428542 23.90288150607487  18.41012876733823 24.918531375359255  C 18.41012876733823 24.918531375359255  3.721498129953019 27.965480983212295  2.0250647323958213 18.57071969233211  C 0.328631334838624 9.175958401451952  -2.7332240656304045 3.251334163959986  6.576471408768716 0.9238032135167041  C 15.886166883167775 -1.4037277369265777  18.36875234300755 1.812496849140493  19.651421497258088 4.817127712440007  Z " fill-rule="evenodd" />
    </mask>
  </defs>
  <g transform="matrix(1 0 0 1 -408 -737 )">
    <path d="M 19.651421497258088 4.817127712440007  C 20.975467075839365 7.821758575739489  22.175383381428542 23.90288150607487  18.41012876733823 24.918531375359255  C 18.41012876733823 24.918531375359255  3.721498129953019 27.965480983212295  2.0250647323958213 18.57071969233211  C 0.328631334838624 9.175958401451952  -2.7332240656304045 3.251334163959986  6.576471408768716 0.9238032135167041  C 15.886166883167775 -1.4037277369265777  18.36875234300755 1.812496849140493  19.651421497258088 4.817127712440007  Z " fill-rule="nonzero" fill="rgba(255, 178, 125, 1)" stroke="none" transform="matrix(1 0 0 1 408 737 )" class="fill" />
    <path d="M 19.651421497258088 4.817127712440007  C 20.975467075839365 7.821758575739489  22.175383381428542 23.90288150607487  18.41012876733823 24.918531375359255  C 18.41012876733823 24.918531375359255  3.721498129953019 27.965480983212295  2.0250647323958213 18.57071969233211  C 0.328631334838624 9.175958401451952  -2.7332240656304045 3.251334163959986  6.576471408768716 0.9238032135167041  C 15.886166883167775 -1.4037277369265777  18.36875234300755 1.812496849140493  19.651421497258088 4.817127712440007  Z " stroke-width="0" stroke-dasharray="0" stroke="rgba(255, 255, 255, 0)" fill="none" transform="matrix(1 0 0 1 408 737 )" class="stroke" mask="url(#Clip486)" />
  </g>
</svg>