<?xml version="1.0" encoding="utf-8"?>
<svg version="1.1" xmlns:xlink="http://www.w3.org/1999/xlink" width="28px" height="26px" xmlns="http://www.w3.org/2000/svg">
  <defs>
    <pattern id="BGPattern" patternUnits="userSpaceOnUse" alignment="0 0" imageRepeat="None" />
    <mask fill="white" id="Clip487">
      <path d="M 6.334484015239377 21.907533975268453  C 6.753765115123397 24.362021159372325  6.082915355308915 25.208396050442616  6.082915355308915 25.208396050442616  C 6.082915355308915 25.208396050442616  0.9257578267351619 26.393320897940992  0.4226205068742365 16.871603373400273  C 0.25490806692061596 13.232191341798059  -0.6675103528242653 0.3672929975297462  9.688732814311726 0.7904804430648913  C 20.044975981447777 1.2136678886000365  24.74092430014909 7.349885848859591  25.705270829882394 8.407854462697438  C 32.79112141792282 16.448415927865163  15.55866821268838 10.481472945819633  13.294550273314535 12.343497706174272  C 10.988504223952269 14.205522466528878  13.168765943349335 17.294790818935418  10.56922312406825 18.3950781773268  C 7.969680304787098 19.495365535718175  5.873274805366873 19.495365535718175  6.334484015239377 21.907533975268453  Z " fill-rule="evenodd" />
    </mask>
  </defs>
  <g transform="matrix(1 0 0 1 -405 -733 )">
    <path d="M 6.334484015239377 21.907533975268453  C 6.753765115123397 24.362021159372325  6.082915355308915 25.208396050442616  6.082915355308915 25.208396050442616  C 6.082915355308915 25.208396050442616  0.9257578267351619 26.393320897940992  0.4226205068742365 16.871603373400273  C 0.25490806692061596 13.232191341798059  -0.6675103528242653 0.3672929975297462  9.688732814311726 0.7904804430648913  C 20.044975981447777 1.2136678886000365  24.74092430014909 7.349885848859591  25.705270829882394 8.407854462697438  C 32.79112141792282 16.448415927865163  15.55866821268838 10.481472945819633  13.294550273314535 12.343497706174272  C 10.988504223952269 14.205522466528878  13.168765943349335 17.294790818935418  10.56922312406825 18.3950781773268  C 7.969680304787098 19.495365535718175  5.873274805366873 19.495365535718175  6.334484015239377 21.907533975268453  Z " fill-rule="nonzero" fill="rgba(35, 56, 98, 1)" stroke="none" transform="matrix(1 0 0 1 405 733 )" class="fill" />
    <path d="M 6.334484015239377 21.907533975268453  C 6.753765115123397 24.362021159372325  6.082915355308915 25.208396050442616  6.082915355308915 25.208396050442616  C 6.082915355308915 25.208396050442616  0.9257578267351619 26.393320897940992  0.4226205068742365 16.871603373400273  C 0.25490806692061596 13.232191341798059  -0.6675103528242653 0.3672929975297462  9.688732814311726 0.7904804430648913  C 20.044975981447777 1.2136678886000365  24.74092430014909 7.349885848859591  25.705270829882394 8.407854462697438  C 32.79112141792282 16.448415927865163  15.55866821268838 10.481472945819633  13.294550273314535 12.343497706174272  C 10.988504223952269 14.205522466528878  13.168765943349335 17.294790818935418  10.56922312406825 18.3950781773268  C 7.969680304787098 19.495365535718175  5.873274805366873 19.495365535718175  6.334484015239377 21.907533975268453  Z " stroke-width="0" stroke-dasharray="0" stroke="rgba(255, 255, 255, 0)" fill="none" transform="matrix(1 0 0 1 405 733 )" class="stroke" mask="url(#Clip487)" />
  </g>
</svg>