<?xml version="1.0" encoding="utf-8"?>
<svg version="1.1" xmlns:xlink="http://www.w3.org/1999/xlink" width="11px" height="11px" xmlns="http://www.w3.org/2000/svg">
  <defs>
    <pattern id="BGPattern" patternUnits="userSpaceOnUse" alignment="0 0" imageRepeat="None" />
    <mask fill="white" id="Clip20">
      <path d="M 5.302100012883431 10.388079067969787  C 2.648316860839499 10.388079067969787  0.4978374100453241 8.237599617175613  0.4978374100453241 5.583816465131716  C 0.4978374100453241 2.9300333130878187  2.648316860839499 0.7795538622936785  5.302100012883431 0.7795538622936785  C 7.955883164927362 0.7795538622936785  10.106362615721537 2.9300333130878187  10.106362615721537 5.583816465131716  C 10.106362615721537 8.237599617175613  7.955883164927362 10.388079067969787  5.302100012883431 10.388079067969787  Z " fill-rule="evenodd" />
    </mask>
  </defs>
  <g transform="matrix(1 0 0 1 -1050 -691 )">
    <path d="M 5.302100012883431 10.388079067969787  C 2.648316860839499 10.388079067969787  0.4978374100453241 8.237599617175613  0.4978374100453241 5.583816465131716  C 0.4978374100453241 2.9300333130878187  2.648316860839499 0.7795538622936785  5.302100012883431 0.7795538622936785  C 7.955883164927362 0.7795538622936785  10.106362615721537 2.9300333130878187  10.106362615721537 5.583816465131716  C 10.106362615721537 8.237599617175613  7.955883164927362 10.388079067969787  5.302100012883431 10.388079067969787  Z " fill-rule="nonzero" fill="rgba(221, 231, 254, 1)" stroke="none" transform="matrix(1 0 0 1 1050 691 )" class="fill" />
    <path d="M 5.302100012883431 10.388079067969787  C 2.648316860839499 10.388079067969787  0.4978374100453241 8.237599617175613  0.4978374100453241 5.583816465131716  C 0.4978374100453241 2.9300333130878187  2.648316860839499 0.7795538622936785  5.302100012883431 0.7795538622936785  C 7.955883164927362 0.7795538622936785  10.106362615721537 2.9300333130878187  10.106362615721537 5.583816465131716  C 10.106362615721537 8.237599617175613  7.955883164927362 10.388079067969787  5.302100012883431 10.388079067969787  Z " stroke-width="0" stroke-dasharray="0" stroke="rgba(255, 255, 255, 0)" fill="none" transform="matrix(1 0 0 1 1050 691 )" class="stroke" mask="url(#Clip20)" />
  </g>
</svg>