<?xml version="1.0" encoding="utf-8"?>
<svg version="1.1" xmlns:xlink="http://www.w3.org/1999/xlink" width="32px" height="21px" xmlns="http://www.w3.org/2000/svg">
  <defs>
    <pattern id="BGPattern" patternUnits="userSpaceOnUse" alignment="0 0" imageRepeat="None" />
    <mask fill="white" id="Clip230">
      <path d="M 12.502141555644942 1.197993949591563  C 27.818736837123456 -2.5258842401680726  31.02752076480751 14.521202584064943  31.070304550509913 15.059096100363577  C 31.070304550509913 15.059096100363577  25.42284483778602 16.962411619574077  23.454790695473157 17.08654089256605  C 22.85581769563883 17.127917316896696  14.085141626635764 17.707187257525977  14.085141626635764 17.707187257525977  L 1.2927897016020324 19.900137747051097  C 1.2927897016020324 19.900137747051097  -1.1886698691402802 10.714571545643985  5.057762843418004 4.921872139351231  C 5.228897986227756 4.756366442028578  5.357249343335168 4.632237169036573  5.528384486144985 4.5081078960446  C 7.239735914243154 3.101309468802059  9.507276556473178 1.9013931632128493  12.502141555644942 1.197993949591563  Z " fill-rule="evenodd" />
    </mask>
  </defs>
  <g transform="matrix(1 0 0 1 -401 -725 )">
    <path d="M 12.502141555644942 1.197993949591563  C 27.818736837123456 -2.5258842401680726  31.02752076480751 14.521202584064943  31.070304550509913 15.059096100363577  C 31.070304550509913 15.059096100363577  25.42284483778602 16.962411619574077  23.454790695473157 17.08654089256605  C 22.85581769563883 17.127917316896696  14.085141626635764 17.707187257525977  14.085141626635764 17.707187257525977  L 1.2927897016020324 19.900137747051097  C 1.2927897016020324 19.900137747051097  -1.1886698691402802 10.714571545643985  5.057762843418004 4.921872139351231  C 5.228897986227756 4.756366442028578  5.357249343335168 4.632237169036573  5.528384486144985 4.5081078960446  C 7.239735914243154 3.101309468802059  9.507276556473178 1.9013931632128493  12.502141555644942 1.197993949591563  Z " fill-rule="nonzero" fill="rgba(255, 158, 85, 1)" stroke="none" transform="matrix(1 0 0 1 401 725 )" class="fill" />
    <path d="M 12.502141555644942 1.197993949591563  C 27.818736837123456 -2.5258842401680726  31.02752076480751 14.521202584064943  31.070304550509913 15.059096100363577  C 31.070304550509913 15.059096100363577  25.42284483778602 16.962411619574077  23.454790695473157 17.08654089256605  C 22.85581769563883 17.127917316896696  14.085141626635764 17.707187257525977  14.085141626635764 17.707187257525977  L 1.2927897016020324 19.900137747051097  C 1.2927897016020324 19.900137747051097  -1.1886698691402802 10.714571545643985  5.057762843418004 4.921872139351231  C 5.228897986227756 4.756366442028578  5.357249343335168 4.632237169036573  5.528384486144985 4.5081078960446  C 7.239735914243154 3.101309468802059  9.507276556473178 1.9013931632128493  12.502141555644942 1.197993949591563  Z " stroke-width="0" stroke-dasharray="0" stroke="rgba(255, 255, 255, 0)" fill="none" transform="matrix(1 0 0 1 401 725 )" class="stroke" mask="url(#Clip230)" />
  </g>
</svg>