<?xml version="1.0" encoding="utf-8"?>
<svg version="1.1" xmlns:xlink="http://www.w3.org/1999/xlink" width="19px" height="14px" xmlns="http://www.w3.org/2000/svg">
  <defs>
    <pattern id="BGPattern" patternUnits="userSpaceOnUse" alignment="0 0" imageRepeat="None" />
    <mask fill="white" id="Clip489">
      <path d="M 0.9358465930681932 0.09189166804707818  C 10.182492278011065 2.4066727403235957  17.044256496701674 10.835969852575829  18.634177474203206 13.107075810281074  L 16.249296007950942 13.456476726851118  C 14.408334876107103 10.923320081718341  7.546570657416493 2.0572718237535526  0.3082462072123549 0.7470183866158919  C 0.3500862329360944 0.6596681574733811  0.39192625865983394 0.6159930429021092  0.43376628438350984 0.5723179283308706  C 0.5592863615546649 0.3976174700458822  0.6429664130021437 0.3539423554746103  0.8521665416207144 0.09189166804707818  C 0.8940065673444538 0.09189166804707818  0.8940065673444538 0.09189166804707818  0.9358465930681932 0.09189166804707818  Z " fill-rule="evenodd" />
    </mask>
  </defs>
  <g transform="matrix(1 0 0 1 -406 -731 )">
    <path d="M 0.9358465930681932 0.09189166804707818  C 10.182492278011065 2.4066727403235957  17.044256496701674 10.835969852575829  18.634177474203206 13.107075810281074  L 16.249296007950942 13.456476726851118  C 14.408334876107103 10.923320081718341  7.546570657416493 2.0572718237535526  0.3082462072123549 0.7470183866158919  C 0.3500862329360944 0.6596681574733811  0.39192625865983394 0.6159930429021092  0.43376628438350984 0.5723179283308706  C 0.5592863615546649 0.3976174700458822  0.6429664130021437 0.3539423554746103  0.8521665416207144 0.09189166804707818  C 0.8940065673444538 0.09189166804707818  0.8940065673444538 0.09189166804707818  0.9358465930681932 0.09189166804707818  Z " fill-rule="nonzero" fill="rgba(226, 120, 48, 1)" stroke="none" transform="matrix(1 0 0 1 406 731 )" class="fill" />
    <path d="M 0.9358465930681932 0.09189166804707818  C 10.182492278011065 2.4066727403235957  17.044256496701674 10.835969852575829  18.634177474203206 13.107075810281074  L 16.249296007950942 13.456476726851118  C 14.408334876107103 10.923320081718341  7.546570657416493 2.0572718237535526  0.3082462072123549 0.7470183866158919  C 0.3500862329360944 0.6596681574733811  0.39192625865983394 0.6159930429021092  0.43376628438350984 0.5723179283308706  C 0.5592863615546649 0.3976174700458822  0.6429664130021437 0.3539423554746103  0.8521665416207144 0.09189166804707818  C 0.8940065673444538 0.09189166804707818  0.8940065673444538 0.09189166804707818  0.9358465930681932 0.09189166804707818  Z " stroke-width="0" stroke-dasharray="0" stroke="rgba(255, 255, 255, 0)" fill="none" transform="matrix(1 0 0 1 406 731 )" class="stroke" mask="url(#Clip489)" />
  </g>
</svg>