<?xml version="1.0" encoding="utf-8"?>
<svg version="1.1" xmlns:xlink="http://www.w3.org/1999/xlink" width="14px" height="6px" xmlns="http://www.w3.org/2000/svg">
  <defs>
    <pattern id="BGPattern" patternUnits="userSpaceOnUse" alignment="0 0" imageRepeat="None" />
    <mask fill="white" id="Clip232">
      <path d="M 0.10938103914746951 2.004886533046232  L 13.211915410523943 0.020788471094931538  C 13.211915410523943 0.020788471094931538  11.508585942245002 1.6679642206393908  11.071834796532482 3.2402683452045835  C 10.635083650819894 4.812572469769805  2.1184363094251824 5.748467782010977  1.5506598199989128 4.924879907238704  C 0.9828833305725766 4.101292032466461  0.10938103914746951 2.004886533046232  0.10938103914746951 2.004886533046232  Z " fill-rule="evenodd" />
    </mask>
  </defs>
  <g transform="matrix(1 0 0 1 -402 -744 )">
    <path d="M 0.10938103914746951 2.004886533046232  L 13.211915410523943 0.020788471094931538  C 13.211915410523943 0.020788471094931538  11.508585942245002 1.6679642206393908  11.071834796532482 3.2402683452045835  C 10.635083650819894 4.812572469769805  2.1184363094251824 5.748467782010977  1.5506598199989128 4.924879907238704  C 0.9828833305725766 4.101292032466461  0.10938103914746951 2.004886533046232  0.10938103914746951 2.004886533046232  Z " fill-rule="nonzero" fill="rgba(255, 158, 85, 1)" stroke="none" transform="matrix(1 0 0 1 402 744 )" class="fill" />
    <path d="M 0.10938103914746951 2.004886533046232  L 13.211915410523943 0.020788471094931538  C 13.211915410523943 0.020788471094931538  11.508585942245002 1.6679642206393908  11.071834796532482 3.2402683452045835  C 10.635083650819894 4.812572469769805  2.1184363094251824 5.748467782010977  1.5506598199989128 4.924879907238704  C 0.9828833305725766 4.101292032466461  0.10938103914746951 2.004886533046232  0.10938103914746951 2.004886533046232  Z " stroke-width="0" stroke-dasharray="0" stroke="rgba(255, 255, 255, 0)" fill="none" transform="matrix(1 0 0 1 402 744 )" class="stroke" mask="url(#Clip232)" />
  </g>
</svg>