<?xml version="1.0" encoding="utf-8"?>
<svg version="1.1" xmlns:xlink="http://www.w3.org/1999/xlink" width="23px" height="6px" xmlns="http://www.w3.org/2000/svg">
  <defs>
    <pattern id="BGPattern" patternUnits="userSpaceOnUse" alignment="0 0" imageRepeat="None" />
    <mask fill="white" id="Clip491">
      <path d="M 16.05883559320696 0.41618353486830983  C 16.05883559320696 0.41618353486833826  10.810691213705908 4.421815471260572  0.35540358266873573 5.0207884710949315  C 0.35540358266873573 5.0207884710949315  15.033807394085645 5.2828391585224495  21.75799238032137 2.0259234719231642  C 22.250005915899592 1.763872784495618  22.168003659969855 1.0900281596819639  21.634988996426827 0.9777207222130357  C 20.609960797305515 0.7531058472751511  18.887913422781697 0.4910551598476047  16.05883559320696 0.41618353486830983  Z " fill-rule="evenodd" />
    </mask>
  </defs>
  <g transform="matrix(1 0 0 1 -415 -738 )">
    <path d="M 16.05883559320696 0.41618353486830983  C 16.05883559320696 0.41618353486833826  10.810691213705908 4.421815471260572  0.35540358266873573 5.0207884710949315  C 0.35540358266873573 5.0207884710949315  15.033807394085645 5.2828391585224495  21.75799238032137 2.0259234719231642  C 22.250005915899592 1.763872784495618  22.168003659969855 1.0900281596819639  21.634988996426827 0.9777207222130357  C 20.609960797305515 0.7531058472751511  18.887913422781697 0.4910551598476047  16.05883559320696 0.41618353486830983  Z " fill-rule="nonzero" fill="rgba(226, 120, 48, 1)" stroke="none" transform="matrix(1 0 0 1 415 738 )" class="fill" />
    <path d="M 16.05883559320696 0.41618353486830983  C 16.05883559320696 0.41618353486833826  10.810691213705908 4.421815471260572  0.35540358266873573 5.0207884710949315  C 0.35540358266873573 5.0207884710949315  15.033807394085645 5.2828391585224495  21.75799238032137 2.0259234719231642  C 22.250005915899592 1.763872784495618  22.168003659969855 1.0900281596819639  21.634988996426827 0.9777207222130357  C 20.609960797305515 0.7531058472751511  18.887913422781697 0.4910551598476047  16.05883559320696 0.41618353486830983  Z " stroke-width="0" stroke-dasharray="0" stroke="rgba(255, 255, 255, 0)" fill="none" transform="matrix(1 0 0 1 415 738 )" class="stroke" mask="url(#Clip491)" />
  </g>
</svg>