<?xml version="1.0" encoding="utf-8"?>
<svg version="1.1" xmlns:xlink="http://www.w3.org/1999/xlink" width="67px" height="83px" xmlns="http://www.w3.org/2000/svg">
  <defs>
    <pattern id="BGPattern" patternUnits="userSpaceOnUse" alignment="0 0" imageRepeat="None" />
    <mask fill="white" id="Clip234">
      <path d="M 16.944034012478667 32.65029950440758  C 7.580089448401519 30.34091458528269  1.0169675887582077 24.42049142898079  1.0169675887582077 24.42049142898079  C 1.0169675887582077 24.42049142898079  6.7022196455193015 9.262528596179434  11.091568659930449 6.071378526116004  C 13.599768096736765 4.223870590816106  18.741576942189827 2.7122731892070986  22.629286069239665 1.788519221557149  C 23.883385787642887 1.4945975045776039  24.97027221025895 1.2426646043094678  25.8481420131412 1.0747093374639907  C 26.976831759704055 0.8647652539071999  27.645684942852423 0.7387988037731319  27.68748826679921 0.7387988037731319  C 27.68748826679921 0.7387988037731319  27.812898238639516 1.158686970886745  28.06371818232012 1.914485671691217  C 29.359621224670068 3.929948873836529  33.748970239081245 5.441546275445537  37.46946607034399 5.189613375177368  C 41.14815857765995 4.937680474909168  43.57275136657282 2.124429755248008  43.57275136657282 0.612832353639  C 43.57275136657282 0.612832353639  43.865374634200215 0.6968099870617547  44.408817845508274 0.8647652539071999  C 45.203081000496944 1.116698154175368  46.457180718900105 1.5365863212889812  48.00390370493072 2.124429755248008  C 52.60226933907572 3.845971240413838  57.07522500138041 4.8117140247751005  60.085064325548004 9.682416763293014  C 64.55801998785269 16.90449323764713  66.39736624151071 26.351976997703346  66.39736624151071 26.351976997703346  C 66.39736624151071 26.351976997703346  62.300640494726984 29.921026418169046  57.911291480315874 31.642567903334847  C 57.70227486058199 31.726545536757598  57.493258240848114 31.684556720046224  57.2424382971675 31.684556720046224  C 57.535061564794894 71.2380220621483  59.33260449450612 77.32640048529565  58.49653801557066 77.32640048529565  C 58.49653801557066 77.32640048529565  53.77276240958536 82.57500257421576  41.35717519739389 82.40704730737032  C 36.50798961956823 82.36505849065894  32.327657224891 81.98715914025674  28.732571365468488 81.44130452300902  C 18.783380266136614 79.9716959381114  15.98255756170284 77.91424391925473  16.024360885649628 76.86452350147069  C 16.066164209596415 75.9407695338207  16.56780409695763 50.91543477384965  16.693214068797996 49.57179263908608  C 17.236657280105998 43.35744776580467  17.44567389983988 42.097783264463835  16.944034012478667 32.65029950440758  Z " fill-rule="evenodd" />
    </mask>
  </defs>
  <g transform="matrix(1 0 0 1 -382 -767 )">
    <path d="M 16.944034012478667 32.65029950440758  C 7.580089448401519 30.34091458528269  1.0169675887582077 24.42049142898079  1.0169675887582077 24.42049142898079  C 1.0169675887582077 24.42049142898079  6.7022196455193015 9.262528596179434  11.091568659930449 6.071378526116004  C 13.599768096736765 4.223870590816106  18.741576942189827 2.7122731892070986  22.629286069239665 1.788519221557149  C 23.883385787642887 1.4945975045776039  24.97027221025895 1.2426646043094678  25.8481420131412 1.0747093374639907  C 26.976831759704055 0.8647652539071999  27.645684942852423 0.7387988037731319  27.68748826679921 0.7387988037731319  C 27.68748826679921 0.7387988037731319  27.812898238639516 1.158686970886745  28.06371818232012 1.914485671691217  C 29.359621224670068 3.929948873836529  33.748970239081245 5.441546275445537  37.46946607034399 5.189613375177368  C 41.14815857765995 4.937680474909168  43.57275136657282 2.124429755248008  43.57275136657282 0.612832353639  C 43.57275136657282 0.612832353639  43.865374634200215 0.6968099870617547  44.408817845508274 0.8647652539071999  C 45.203081000496944 1.116698154175368  46.457180718900105 1.5365863212889812  48.00390370493072 2.124429755248008  C 52.60226933907572 3.845971240413838  57.07522500138041 4.8117140247751005  60.085064325548004 9.682416763293014  C 64.55801998785269 16.90449323764713  66.39736624151071 26.351976997703346  66.39736624151071 26.351976997703346  C 66.39736624151071 26.351976997703346  62.300640494726984 29.921026418169046  57.911291480315874 31.642567903334847  C 57.70227486058199 31.726545536757598  57.493258240848114 31.684556720046224  57.2424382971675 31.684556720046224  C 57.535061564794894 71.2380220621483  59.33260449450612 77.32640048529565  58.49653801557066 77.32640048529565  C 58.49653801557066 77.32640048529565  53.77276240958536 82.57500257421576  41.35717519739389 82.40704730737032  C 36.50798961956823 82.36505849065894  32.327657224891 81.98715914025674  28.732571365468488 81.44130452300902  C 18.783380266136614 79.9716959381114  15.98255756170284 77.91424391925473  16.024360885649628 76.86452350147069  C 16.066164209596415 75.9407695338207  16.56780409695763 50.91543477384965  16.693214068797996 49.57179263908608  C 17.236657280105998 43.35744776580467  17.44567389983988 42.097783264463835  16.944034012478667 32.65029950440758  Z " fill-rule="nonzero" fill="rgba(249, 221, 191, 1)" stroke="none" transform="matrix(1 0 0 1 382 767 )" class="fill" />
    <path d="M 16.944034012478667 32.65029950440758  C 7.580089448401519 30.34091458528269  1.0169675887582077 24.42049142898079  1.0169675887582077 24.42049142898079  C 1.0169675887582077 24.42049142898079  6.7022196455193015 9.262528596179434  11.091568659930449 6.071378526116004  C 13.599768096736765 4.223870590816106  18.741576942189827 2.7122731892070986  22.629286069239665 1.788519221557149  C 23.883385787642887 1.4945975045776039  24.97027221025895 1.2426646043094678  25.8481420131412 1.0747093374639907  C 26.976831759704055 0.8647652539071999  27.645684942852423 0.7387988037731319  27.68748826679921 0.7387988037731319  C 27.68748826679921 0.7387988037731319  27.812898238639516 1.158686970886745  28.06371818232012 1.914485671691217  C 29.359621224670068 3.929948873836529  33.748970239081245 5.441546275445537  37.46946607034399 5.189613375177368  C 41.14815857765995 4.937680474909168  43.57275136657282 2.124429755248008  43.57275136657282 0.612832353639  C 43.57275136657282 0.612832353639  43.865374634200215 0.6968099870617547  44.408817845508274 0.8647652539071999  C 45.203081000496944 1.116698154175368  46.457180718900105 1.5365863212889812  48.00390370493072 2.124429755248008  C 52.60226933907572 3.845971240413838  57.07522500138041 4.8117140247751005  60.085064325548004 9.682416763293014  C 64.55801998785269 16.90449323764713  66.39736624151071 26.351976997703346  66.39736624151071 26.351976997703346  C 66.39736624151071 26.351976997703346  62.300640494726984 29.921026418169046  57.911291480315874 31.642567903334847  C 57.70227486058199 31.726545536757598  57.493258240848114 31.684556720046224  57.2424382971675 31.684556720046224  C 57.535061564794894 71.2380220621483  59.33260449450612 77.32640048529565  58.49653801557066 77.32640048529565  C 58.49653801557066 77.32640048529565  53.77276240958536 82.57500257421576  41.35717519739389 82.40704730737032  C 36.50798961956823 82.36505849065894  32.327657224891 81.98715914025674  28.732571365468488 81.44130452300902  C 18.783380266136614 79.9716959381114  15.98255756170284 77.91424391925473  16.024360885649628 76.86452350147069  C 16.066164209596415 75.9407695338207  16.56780409695763 50.91543477384965  16.693214068797996 49.57179263908608  C 17.236657280105998 43.35744776580467  17.44567389983988 42.097783264463835  16.944034012478667 32.65029950440758  Z " stroke-width="0" stroke-dasharray="0" stroke="rgba(255, 255, 255, 0)" fill="none" transform="matrix(1 0 0 1 382 767 )" class="stroke" mask="url(#Clip234)" />
  </g>
</svg>