<?xml version="1.0" encoding="utf-8"?>
<svg version="1.1" xmlns:xlink="http://www.w3.org/1999/xlink" width="48px" height="88px" xmlns="http://www.w3.org/2000/svg">
  <defs>
    <pattern id="BGPattern" patternUnits="userSpaceOnUse" alignment="0 0" imageRepeat="None" />
    <mask fill="white" id="Clip493">
      <path d="M 37.47532079309374 62.6071630011553  C 39.98264962960967 59.64641671716396  47.92252427857672 52.18200002935484  47.92252427857672 52.18200002935484  L 44.11974220986092 5.143664700591119  C 43.91079814015124 2.43312232792299  41.57062455940305 0.3897903854501289  38.85435165317752 0.5148923411116881  L 13.070653451005562 1.5157079864045413  C 10.939423939967043 1.5991092901789459  9.226082568347877 3.267135365667034  9.142504940464045 5.3938686119143  C 8.808194428928589 11.565565091220165  7.638107638554492 23.57535283473434  3.2084933607096646 26.911404985710487  L 0.8683197799615343 60.98083757755443  L 29.702601399894416 87.00204435516842  C 29.702601399894416 87.00204435516842  32.96212888736508 67.90314579082997  37.47532079309374 62.6071630011553  Z " fill-rule="evenodd" />
    </mask>
  </defs>
  <g transform="matrix(1 0 0 1 -396 -790 )">
    <path d="M 37.47532079309374 62.6071630011553  C 39.98264962960967 59.64641671716396  47.92252427857672 52.18200002935484  47.92252427857672 52.18200002935484  L 44.11974220986092 5.143664700591119  C 43.91079814015124 2.43312232792299  41.57062455940305 0.3897903854501289  38.85435165317752 0.5148923411116881  L 13.070653451005562 1.5157079864045413  C 10.939423939967043 1.5991092901789459  9.226082568347877 3.267135365667034  9.142504940464045 5.3938686119143  C 8.808194428928589 11.565565091220165  7.638107638554492 23.57535283473434  3.2084933607096646 26.911404985710487  L 0.8683197799615343 60.98083757755443  L 29.702601399894416 87.00204435516842  C 29.702601399894416 87.00204435516842  32.96212888736508 67.90314579082997  37.47532079309374 62.6071630011553  Z " fill-rule="nonzero" fill="rgba(255, 152, 67, 1)" stroke="none" transform="matrix(1 0 0 1 396 790 )" class="fill" />
    <path d="M 37.47532079309374 62.6071630011553  C 39.98264962960967 59.64641671716396  47.92252427857672 52.18200002935484  47.92252427857672 52.18200002935484  L 44.11974220986092 5.143664700591119  C 43.91079814015124 2.43312232792299  41.57062455940305 0.3897903854501289  38.85435165317752 0.5148923411116881  L 13.070653451005562 1.5157079864045413  C 10.939423939967043 1.5991092901789459  9.226082568347877 3.267135365667034  9.142504940464045 5.3938686119143  C 8.808194428928589 11.565565091220165  7.638107638554492 23.57535283473434  3.2084933607096646 26.911404985710487  L 0.8683197799615343 60.98083757755443  L 29.702601399894416 87.00204435516842  C 29.702601399894416 87.00204435516842  32.96212888736508 67.90314579082997  37.47532079309374 62.6071630011553  Z " stroke-width="0" stroke-dasharray="0" stroke="rgba(255, 255, 255, 0)" fill="none" transform="matrix(1 0 0 1 396 790 )" class="stroke" mask="url(#Clip493)" />
  </g>
</svg>