<?xml version="1.0" encoding="utf-8"?>
<svg version="1.1" xmlns:xlink="http://www.w3.org/1999/xlink" width="7px" height="26px" xmlns="http://www.w3.org/2000/svg">
  <defs>
    <pattern id="BGPattern" patternUnits="userSpaceOnUse" alignment="0 0" imageRepeat="None" />
    <mask fill="white" id="Clip236">
      <path d="M 3.110154050024846 1.040835139826166  C 2.361437800231897 1.2524288625937223  1.388106675501092 1.5063413299148094  0.2650323008116402 1.7602537972359287  L 3.2973331124730976 25.797300703631976  L 6.179890674175965 25.331794513543297  L 3.110154050024846 1.040835139826166  Z " fill-rule="evenodd" />
    </mask>
  </defs>
  <g transform="matrix(1 0 0 1 -405 -767 )">
    <path d="M 3.110154050024846 1.040835139826166  C 2.361437800231897 1.2524288625937223  1.388106675501092 1.5063413299148094  0.2650323008116402 1.7602537972359287  L 3.2973331124730976 25.797300703631976  L 6.179890674175965 25.331794513543297  L 3.110154050024846 1.040835139826166  Z " fill-rule="nonzero" fill="rgba(255, 152, 67, 1)" stroke="none" transform="matrix(1 0 0 1 405 767 )" class="fill" />
    <path d="M 3.110154050024846 1.040835139826166  C 2.361437800231897 1.2524288625937223  1.388106675501092 1.5063413299148094  0.2650323008116402 1.7602537972359287  L 3.2973331124730976 25.797300703631976  L 6.179890674175965 25.331794513543297  L 3.110154050024846 1.040835139826166  Z " stroke-width="0" stroke-dasharray="0" stroke="rgba(255, 255, 255, 0)" fill="none" transform="matrix(1 0 0 1 405 767 )" class="stroke" mask="url(#Clip236)" />
  </g>
</svg>