<?xml version="1.0" encoding="utf-8"?>
<svg version="1.1" xmlns:xlink="http://www.w3.org/1999/xlink" width="9px" height="25px" xmlns="http://www.w3.org/2000/svg">
  <defs>
    <pattern id="BGPattern" patternUnits="userSpaceOnUse" alignment="0 0" imageRepeat="None" />
    <mask fill="white" id="Clip495">
      <path d="M 4.487141792280887 2.067270769647742  C 2.886760808348491 1.4717010254943248  1.6233021368229217 1.0462940653846948  0.8231116448567235 0.8335905853298636  L 5.329447573298019 23.08237459906334  L 5.666369885704846 24.74146174349088  L 6.045407487162478 24.656380351468922  L 8.909247142620508 24.06081060731547  L 4.487141792280887 2.067270769647742  Z " fill-rule="evenodd" />
    </mask>
  </defs>
  <g transform="matrix(1 0 0 1 -426 -767 )">
    <path d="M 4.487141792280887 2.067270769647742  C 2.886760808348491 1.4717010254943248  1.6233021368229217 1.0462940653846948  0.8231116448567235 0.8335905853298636  L 5.329447573298019 23.08237459906334  L 5.666369885704846 24.74146174349088  L 6.045407487162478 24.656380351468922  L 8.909247142620508 24.06081060731547  L 4.487141792280887 2.067270769647742  Z " fill-rule="nonzero" fill="rgba(255, 152, 67, 1)" stroke="none" transform="matrix(1 0 0 1 426 767 )" class="fill" />
    <path d="M 4.487141792280887 2.067270769647742  C 2.886760808348491 1.4717010254943248  1.6233021368229217 1.0462940653846948  0.8231116448567235 0.8335905853298636  L 5.329447573298019 23.08237459906334  L 5.666369885704846 24.74146174349088  L 6.045407487162478 24.656380351468922  L 8.909247142620508 24.06081060731547  L 4.487141792280887 2.067270769647742  Z " stroke-width="0" stroke-dasharray="0" stroke="rgba(255, 255, 255, 0)" fill="none" transform="matrix(1 0 0 1 426 767 )" class="stroke" mask="url(#Clip495)" />
  </g>
</svg>