<?xml version="1.0" encoding="utf-8"?>
<svg version="1.1" xmlns:xlink="http://www.w3.org/1999/xlink" width="35px" height="42px" xmlns="http://www.w3.org/2000/svg">
  <defs>
    <pattern id="BGPattern" patternUnits="userSpaceOnUse" alignment="0 0" imageRepeat="None" />
    <mask fill="white" id="Clip238">
      <path d="M 4.131618460354662 0.4216565414180002  C 1.680176545710072 9.005587167422533  -1.701122646903246 22.26393546105325  1.4265791062640407 29.063088432145914  C 1.4265791062640407 29.063088432145914  18.924802428037864 39.09183906450762  32.87266159756764 41.344058486182035  C 32.87266159756764 41.344058486182035  35.66223343147366 37.732008470289074  34.77464239341265 36.15970434572387  C 34.14064879479767 34.96985257578264  14.444580997825186 22.221440754983938  14.317782278102202 21.838988400359924  C 14.064184838656237 20.86161016076536  17.40321779136187 14.869856604989945  19.305198587206814 8.028208927827938  C 13.64152243957954 6.583388921470735  6.287196695645669 2.248928902399154  4.131618460354662 0.4216565414180002  Z " fill-rule="evenodd" />
    </mask>
  </defs>
  <g transform="matrix(1 0 0 1 -380 -793 )">
    <path d="M 4.131618460354662 0.4216565414180002  C 1.680176545710072 9.005587167422533  -1.701122646903246 22.26393546105325  1.4265791062640407 29.063088432145914  C 1.4265791062640407 29.063088432145914  18.924802428037864 39.09183906450762  32.87266159756764 41.344058486182035  C 32.87266159756764 41.344058486182035  35.66223343147366 37.732008470289074  34.77464239341265 36.15970434572387  C 34.14064879479767 34.96985257578264  14.444580997825186 22.221440754983938  14.317782278102202 21.838988400359924  C 14.064184838656237 20.86161016076536  17.40321779136187 14.869856604989945  19.305198587206814 8.028208927827938  C 13.64152243957954 6.583388921470735  6.287196695645669 2.248928902399154  4.131618460354662 0.4216565414180002  Z " fill-rule="nonzero" fill="rgba(255, 178, 125, 1)" stroke="none" transform="matrix(1 0 0 1 380 793 )" class="fill" />
    <path d="M 4.131618460354662 0.4216565414180002  C 1.680176545710072 9.005587167422533  -1.701122646903246 22.26393546105325  1.4265791062640407 29.063088432145914  C 1.4265791062640407 29.063088432145914  18.924802428037864 39.09183906450762  32.87266159756764 41.344058486182035  C 32.87266159756764 41.344058486182035  35.66223343147366 37.732008470289074  34.77464239341265 36.15970434572387  C 34.14064879479767 34.96985257578264  14.444580997825186 22.221440754983938  14.317782278102202 21.838988400359924  C 14.064184838656237 20.86161016076536  17.40321779136187 14.869856604989945  19.305198587206814 8.028208927827938  C 13.64152243957954 6.583388921470735  6.287196695645669 2.248928902399154  4.131618460354662 0.4216565414180002  Z " stroke-width="0" stroke-dasharray="0" stroke="rgba(255, 255, 255, 0)" fill="none" transform="matrix(1 0 0 1 380 793 )" class="stroke" mask="url(#Clip238)" />
  </g>
</svg>