<?xml version="1.0" encoding="utf-8"?>
<svg version="1.1" xmlns:xlink="http://www.w3.org/1999/xlink" width="9px" height="4px" xmlns="http://www.w3.org/2000/svg">
  <defs>
    <pattern id="BGPattern" patternUnits="userSpaceOnUse" alignment="0 0" imageRepeat="None" />
    <mask fill="white" id="Clip239">
      <path d="M 4.913512506211681 3.2078018883551067  L 0.7440988901772769 2.9457512009276456  C 0.7440988901772769 2.9457512009276456  2.849863342719914 1.523190326321071  4.45024432665231 1.298575451383158  C 6.0506253105847065 1.073960576445245  8.746003809839323 0.17550107669376303  8.32485091933082 1.0365247639555832  C 7.903698028822255 1.8975484512174603  4.913512506211681 3.2078018883551067  4.913512506211681 3.2078018883551067  Z " fill-rule="evenodd" />
    </mask>
  </defs>
  <g transform="matrix(1 0 0 1 -415 -822 )">
    <path d="M 4.913512506211681 3.2078018883551067  L 0.7440988901772769 2.9457512009276456  C 0.7440988901772769 2.9457512009276456  2.849863342719914 1.523190326321071  4.45024432665231 1.298575451383158  C 6.0506253105847065 1.073960576445245  8.746003809839323 0.17550107669376303  8.32485091933082 1.0365247639555832  C 7.903698028822255 1.8975484512174603  4.913512506211681 3.2078018883551067  4.913512506211681 3.2078018883551067  Z " fill-rule="nonzero" fill="rgba(255, 178, 125, 1)" stroke="none" transform="matrix(1 0 0 1 415 822 )" class="fill" />
    <path d="M 4.913512506211681 3.2078018883551067  L 0.7440988901772769 2.9457512009276456  C 0.7440988901772769 2.9457512009276456  2.849863342719914 1.523190326321071  4.45024432665231 1.298575451383158  C 6.0506253105847065 1.073960576445245  8.746003809839323 0.17550107669376303  8.32485091933082 1.0365247639555832  C 7.903698028822255 1.8975484512174603  4.913512506211681 3.2078018883551067  4.913512506211681 3.2078018883551067  Z " stroke-width="0" stroke-dasharray="0" stroke="rgba(255, 255, 255, 0)" fill="none" transform="matrix(1 0 0 1 415 822 )" class="stroke" mask="url(#Clip239)" />
  </g>
</svg>