<?xml version="1.0" encoding="utf-8"?>
<svg version="1.1" xmlns:xlink="http://www.w3.org/1999/xlink" width="37px" height="15px" xmlns="http://www.w3.org/2000/svg">
  <defs>
    <pattern id="BGPattern" patternUnits="userSpaceOnUse" alignment="0 0" imageRepeat="None" />
    <mask fill="white" id="Clip21">
      <path d="M 18.99523142640565 1.1086441304265058  C 28.900974294878488 1.0654489621692038  36.87593677373365 5.8601126387278795  36.87593677373365 11.777850689975946  C 36.87593677373365 12.728144391636194  36.66606934007949 13.635242925039206  36.28830795950212 14.499146290184918  L 1.7021548933093051 14.499146290184918  C 1.3243935127319377 13.635242925039206  1.114526079077774 12.728144391636194  1.114526079077774 11.777850689975946  C 1.114526079077774 5.8601126387278795  9.131462044663772 1.1086441304265058  18.99523142640565 1.1086441304265058  Z " fill-rule="evenodd" />
    </mask>
  </defs>
  <g transform="matrix(1 0 0 1 -1025 -724 )">
    <path d="M 18.99523142640565 1.1086441304265058  C 28.900974294878488 1.0654489621692038  36.87593677373365 5.8601126387278795  36.87593677373365 11.777850689975946  C 36.87593677373365 12.728144391636194  36.66606934007949 13.635242925039206  36.28830795950212 14.499146290184918  L 1.7021548933093051 14.499146290184918  C 1.3243935127319377 13.635242925039206  1.114526079077774 12.728144391636194  1.114526079077774 11.777850689975946  C 1.114526079077774 5.8601126387278795  9.131462044663772 1.1086441304265058  18.99523142640565 1.1086441304265058  Z " fill-rule="nonzero" fill="rgba(255, 158, 85, 1)" stroke="none" transform="matrix(1 0 0 1 1025 724 )" class="fill" />
    <path d="M 18.99523142640565 1.1086441304265058  C 28.900974294878488 1.0654489621692038  36.87593677373365 5.8601126387278795  36.87593677373365 11.777850689975946  C 36.87593677373365 12.728144391636194  36.66606934007949 13.635242925039206  36.28830795950212 14.499146290184918  L 1.7021548933093051 14.499146290184918  C 1.3243935127319377 13.635242925039206  1.114526079077774 12.728144391636194  1.114526079077774 11.777850689975946  C 1.114526079077774 5.8601126387278795  9.131462044663772 1.1086441304265058  18.99523142640565 1.1086441304265058  Z " stroke-width="0" stroke-dasharray="0" stroke="rgba(255, 255, 255, 0)" fill="none" transform="matrix(1 0 0 1 1025 724 )" class="stroke" mask="url(#Clip21)" />
  </g>
</svg>