<?xml version="1.0" encoding="utf-8"?>
<svg version="1.1" xmlns:xlink="http://www.w3.org/1999/xlink" width="19px" height="25px" xmlns="http://www.w3.org/2000/svg">
  <defs>
    <pattern id="BGPattern" patternUnits="userSpaceOnUse" alignment="0 0" imageRepeat="None" />
    <mask fill="white" id="Clip240">
      <path d="M 0.9306628730670253 20.69124866354444  C 0.5959426672772999 21.83984745584049  1.3490631303042935 22.988446248136476  2.478743824844815 23.11606833616935  L 10.595708815247166 24.13704504043246  C 11.474349355445376 24.264667128465334  12.352989895643525 23.66909738431182  12.604030049985836 22.818283464092623  L 18.16875347124103 4.1003772192690295  C 18.503473677030815 2.9943191229839914  17.750353214003823 1.8031796346770597  16.620672519463238 1.6755575466441543  L 8.503707529060952 0.6545808423810423  C 7.62506698886274 0.5269587543481694  6.746426448664528 1.1225284985016515  6.495386294322219 1.9733424187209117  L 0.9306628730670253 20.69124866354444  Z " fill-rule="evenodd" />
    </mask>
  </defs>
  <g transform="matrix(1 0 0 1 -417 -814 )">
    <path d="M 0.9306628730670253 20.69124866354444  C 0.5959426672772999 21.83984745584049  1.3490631303042935 22.988446248136476  2.478743824844815 23.11606833616935  L 10.595708815247166 24.13704504043246  C 11.474349355445376 24.264667128465334  12.352989895643525 23.66909738431182  12.604030049985836 22.818283464092623  L 18.16875347124103 4.1003772192690295  C 18.503473677030815 2.9943191229839914  17.750353214003823 1.8031796346770597  16.620672519463238 1.6755575466441543  L 8.503707529060952 0.6545808423810423  C 7.62506698886274 0.5269587543481694  6.746426448664528 1.1225284985016515  6.495386294322219 1.9733424187209117  L 0.9306628730670253 20.69124866354444  Z " fill-rule="nonzero" fill="rgba(35, 56, 98, 1)" stroke="none" transform="matrix(1 0 0 1 417 814 )" class="fill" />
    <path d="M 0.9306628730670253 20.69124866354444  C 0.5959426672772999 21.83984745584049  1.3490631303042935 22.988446248136476  2.478743824844815 23.11606833616935  L 10.595708815247166 24.13704504043246  C 11.474349355445376 24.264667128465334  12.352989895643525 23.66909738431182  12.604030049985836 22.818283464092623  L 18.16875347124103 4.1003772192690295  C 18.503473677030815 2.9943191229839914  17.750353214003823 1.8031796346770597  16.620672519463238 1.6755575466441543  L 8.503707529060952 0.6545808423810423  C 7.62506698886274 0.5269587543481694  6.746426448664528 1.1225284985016515  6.495386294322219 1.9733424187209117  L 0.9306628730670253 20.69124866354444  Z " stroke-width="0" stroke-dasharray="0" stroke="rgba(255, 255, 255, 0)" fill="none" transform="matrix(1 0 0 1 417 814 )" class="stroke" mask="url(#Clip240)" />
  </g>
</svg>