<?xml version="1.0" encoding="utf-8"?>
<svg version="1.1" xmlns:xlink="http://www.w3.org/1999/xlink" width="18px" height="25px" xmlns="http://www.w3.org/2000/svg">
  <defs>
    <pattern id="BGPattern" patternUnits="userSpaceOnUse" alignment="0 0" imageRepeat="None" />
    <mask fill="white" id="Clip241">
      <path d="M 0.4677405996355759 21.07411492764319  C 0.1308182872287489 22.180173023928194  0.8888934901440777 23.32877181622418  2.026006294517167 23.498934600268033  L 10.196372370382626 24.519911304531146  C 11.080793440450563 24.647533392564018  11.9652145105185 24.051963648410567  12.217906244823588 23.201149728191307  L 17.819239688586975 4.483243483367745  C 18.156162000993803 3.3771853870827067  17.398086798078474 2.186045898775775  16.260973993705385 2.0584238107428376  L 8.090607917839925 1.037447106479758  C 7.206186847771988 0.9098250184468849  6.3217657777040515 1.5053947626003346  6.069074043399027 2.3562086828195947  L 0.4677405996355759 21.07411492764319  Z " fill-rule="evenodd" />
    </mask>
  </defs>
  <g transform="matrix(1 0 0 1 -421 -814 )">
    <path d="M 0.4677405996355759 21.07411492764319  C 0.1308182872287489 22.180173023928194  0.8888934901440777 23.32877181622418  2.026006294517167 23.498934600268033  L 10.196372370382626 24.519911304531146  C 11.080793440450563 24.647533392564018  11.9652145105185 24.051963648410567  12.217906244823588 23.201149728191307  L 17.819239688586975 4.483243483367745  C 18.156162000993803 3.3771853870827067  17.398086798078474 2.186045898775775  16.260973993705385 2.0584238107428376  L 8.090607917839925 1.037447106479758  C 7.206186847771988 0.9098250184468849  6.3217657777040515 1.5053947626003346  6.069074043399027 2.3562086828195947  L 0.4677405996355759 21.07411492764319  Z " fill-rule="nonzero" fill="rgba(25, 46, 79, 1)" stroke="none" transform="matrix(1 0 0 1 421 814 )" class="fill" />
    <path d="M 0.4677405996355759 21.07411492764319  C 0.1308182872287489 22.180173023928194  0.8888934901440777 23.32877181622418  2.026006294517167 23.498934600268033  L 10.196372370382626 24.519911304531146  C 11.080793440450563 24.647533392564018  11.9652145105185 24.051963648410567  12.217906244823588 23.201149728191307  L 17.819239688586975 4.483243483367745  C 18.156162000993803 3.3771853870827067  17.398086798078474 2.186045898775775  16.260973993705385 2.0584238107428376  L 8.090607917839925 1.037447106479758  C 7.206186847771988 0.9098250184468849  6.3217657777040515 1.5053947626003346  6.069074043399027 2.3562086828195947  L 0.4677405996355759 21.07411492764319  Z " stroke-width="0" stroke-dasharray="0" stroke="rgba(255, 255, 255, 0)" fill="none" transform="matrix(1 0 0 1 421 814 )" class="stroke" mask="url(#Clip241)" />
  </g>
</svg>