<?xml version="1.0" encoding="utf-8"?>
<svg version="1.1" xmlns:xlink="http://www.w3.org/1999/xlink" width="7px" height="19px" xmlns="http://www.w3.org/2000/svg">
  <defs>
    <pattern id="BGPattern" patternUnits="userSpaceOnUse" alignment="0 0" imageRepeat="None" />
    <mask fill="white" id="Clip500">
      <path d="M 0.6675501076693422 17.48644632608716  C 0.6301142951797374 17.695646454705827  0.7424217326486655 17.90484658332443  0.9296007950968601 17.94668660904814  C 1.1542156700347732 17.988526634771844  1.3788305449726863 17.821166531876983  1.4537021699519528 17.57012637753464  L 6.320357793606036 1.41987644817742  C 6.395229418585359 1.1688362938350783  6.282921981116431 0.9596361652164442  6.058307106178518 0.9596361652164442  C 5.8336922312406045 0.9177961394927048  5.609077356302748 1.0851562423875991  5.534205731323482 1.3361963967299408  L 0.6675501076693422 17.48644632608716  Z " fill-rule="evenodd" />
    </mask>
  </defs>
  <g transform="matrix(1 0 0 1 -427 -800 )">
    <path d="M 0.6675501076693422 17.48644632608716  C 0.6301142951797374 17.695646454705827  0.7424217326486655 17.90484658332443  0.9296007950968601 17.94668660904814  C 1.1542156700347732 17.988526634771844  1.3788305449726863 17.821166531876983  1.4537021699519528 17.57012637753464  L 6.320357793606036 1.41987644817742  C 6.395229418585359 1.1688362938350783  6.282921981116431 0.9596361652164442  6.058307106178518 0.9596361652164442  C 5.8336922312406045 0.9177961394927048  5.609077356302748 1.0851562423875991  5.534205731323482 1.3361963967299408  L 0.6675501076693422 17.48644632608716  Z " fill-rule="nonzero" fill="rgba(25, 46, 79, 1)" stroke="none" transform="matrix(1 0 0 1 427 800 )" class="fill" />
    <path d="M 0.6675501076693422 17.48644632608716  C 0.6301142951797374 17.695646454705827  0.7424217326486655 17.90484658332443  0.9296007950968601 17.94668660904814  C 1.1542156700347732 17.988526634771844  1.3788305449726863 17.821166531876983  1.4537021699519528 17.57012637753464  L 6.320357793606036 1.41987644817742  C 6.395229418585359 1.1688362938350783  6.282921981116431 0.9596361652164442  6.058307106178518 0.9596361652164442  C 5.8336922312406045 0.9177961394927048  5.609077356302748 1.0851562423875991  5.534205731323482 1.3361963967299408  L 0.6675501076693422 17.48644632608716  Z " stroke-width="0" stroke-dasharray="0" stroke="rgba(255, 255, 255, 0)" fill="none" transform="matrix(1 0 0 1 427 800 )" class="stroke" mask="url(#Clip500)" />
  </g>
</svg>