<?xml version="1.0" encoding="utf-8"?>
<svg version="1.1" xmlns:xlink="http://www.w3.org/1999/xlink" width="18px" height="11px" xmlns="http://www.w3.org/2000/svg">
  <defs>
    <pattern id="BGPattern" patternUnits="userSpaceOnUse" alignment="0 0" imageRepeat="None" />
    <mask fill="white" id="Clip501">
      <path d="M 1.2973745237700527 9.0715127086669  L 0.03391585224448335 0.835633960944531  C 0.03391585224448335 0.835633960944531  1.5079509690243356 1.7964864815121662  2.5187179062448166 1.5219571899213835  C 3.361023687261884 1.293182780262479  4.119098890177213 1.2016730163988618  5.129865827397694 0.46959490549020055  C 6.1827480536690445 -0.30823808735026936  8.456973662415095 0.6983693151491744  9.172933576279618 1.2016730163988618  C 11.068121583568036 2.574319474352636  17.51176080834849 2.5285645924208273  17.51176080834849 3.9012110503745325  C 17.51176080834849 5.273857508328307  14.7321517309922 9.163022472530518  11.32081331787306 10.306894520825319  C 7.951590193804854 11.450766569120049  1.2973745237700527 9.0715127086669  1.2973745237700527 9.0715127086669  Z " fill-rule="evenodd" />
    </mask>
  </defs>
  <g transform="matrix(1 0 0 1 -412 -825 )">
    <path d="M 1.2973745237700527 9.0715127086669  L 0.03391585224448335 0.835633960944531  C 0.03391585224448335 0.835633960944531  1.5079509690243356 1.7964864815121662  2.5187179062448166 1.5219571899213835  C 3.361023687261884 1.293182780262479  4.119098890177213 1.2016730163988618  5.129865827397694 0.46959490549020055  C 6.1827480536690445 -0.30823808735026936  8.456973662415095 0.6983693151491744  9.172933576279618 1.2016730163988618  C 11.068121583568036 2.574319474352636  17.51176080834849 2.5285645924208273  17.51176080834849 3.9012110503745325  C 17.51176080834849 5.273857508328307  14.7321517309922 9.163022472530518  11.32081331787306 10.306894520825319  C 7.951590193804854 11.450766569120049  1.2973745237700527 9.0715127086669  1.2973745237700527 9.0715127086669  Z " fill-rule="nonzero" fill="rgba(255, 178, 125, 1)" stroke="none" transform="matrix(1 0 0 1 412 825 )" class="fill" />
    <path d="M 1.2973745237700527 9.0715127086669  L 0.03391585224448335 0.835633960944531  C 0.03391585224448335 0.835633960944531  1.5079509690243356 1.7964864815121662  2.5187179062448166 1.5219571899213835  C 3.361023687261884 1.293182780262479  4.119098890177213 1.2016730163988618  5.129865827397694 0.46959490549020055  C 6.1827480536690445 -0.30823808735026936  8.456973662415095 0.6983693151491744  9.172933576279618 1.2016730163988618  C 11.068121583568036 2.574319474352636  17.51176080834849 2.5285645924208273  17.51176080834849 3.9012110503745325  C 17.51176080834849 5.273857508328307  14.7321517309922 9.163022472530518  11.32081331787306 10.306894520825319  C 7.951590193804854 11.450766569120049  1.2973745237700527 9.0715127086669  1.2973745237700527 9.0715127086669  Z " stroke-width="0" stroke-dasharray="0" stroke="rgba(255, 255, 255, 0)" fill="none" transform="matrix(1 0 0 1 412 825 )" class="stroke" mask="url(#Clip501)" />
  </g>
</svg>