<?xml version="1.0" encoding="utf-8"?>
<svg version="1.1" xmlns:xlink="http://www.w3.org/1999/xlink" width="37px" height="38px" xmlns="http://www.w3.org/2000/svg">
  <defs>
    <pattern id="BGPattern" patternUnits="userSpaceOnUse" alignment="0 0" imageRepeat="None" />
    <mask fill="white" id="Clip244">
      <path d="M 36.41292835594641 19.063037737871312  C 36.41292835594641 28.97912383439376  28.354018903629584 37.01240877334863  18.40630254842604 37.01240877334863  C 8.50055967995346 37.01240877334863  0.3996767409057956 28.97912383439376  0.3996767409057956 19.063037737871312  C 0.3996767409057956 9.188791667072602  8.4585861932225 1.1136667023940545  18.40630254842604 1.1136667023940545  C 28.31204541689875 1.1136667023940545  36.41292835594641 9.146951641348926  36.41292835594641 19.063037737871312  Z M 32.635314550173 19.104877763595052  C 32.635314550173 11.280792953258814  26.255344567088837 4.921109043252888  18.40630254842604 4.921109043252888  C 10.557260529763374 4.921109043252888  4.177290546679215 11.280792953258814  4.177290546679215 19.104877763595052  C 4.177290546679215 26.92896257393135  10.557260529763374 33.28864648393728  18.40630254842604 33.28864648393728  C 26.255344567088837 33.28864648393728  32.635314550173 26.928962573931287  32.635314550173 19.104877763595052  Z " fill-rule="evenodd" />
    </mask>
  </defs>
  <g transform="matrix(1 0 0 1 -837 -865 )">
    <path d="M 36.41292835594641 19.063037737871312  C 36.41292835594641 28.97912383439376  28.354018903629584 37.01240877334863  18.40630254842604 37.01240877334863  C 8.50055967995346 37.01240877334863  0.3996767409057956 28.97912383439376  0.3996767409057956 19.063037737871312  C 0.3996767409057956 9.188791667072602  8.4585861932225 1.1136667023940545  18.40630254842604 1.1136667023940545  C 28.31204541689875 1.1136667023940545  36.41292835594641 9.146951641348926  36.41292835594641 19.063037737871312  Z M 32.635314550173 19.104877763595052  C 32.635314550173 11.280792953258814  26.255344567088837 4.921109043252888  18.40630254842604 4.921109043252888  C 10.557260529763374 4.921109043252888  4.177290546679215 11.280792953258814  4.177290546679215 19.104877763595052  C 4.177290546679215 26.92896257393135  10.557260529763374 33.28864648393728  18.40630254842604 33.28864648393728  C 26.255344567088837 33.28864648393728  32.635314550173 26.928962573931287  32.635314550173 19.104877763595052  Z " fill-rule="nonzero" fill="rgba(43, 71, 139, 1)" stroke="none" transform="matrix(1 0 0 1 837 865 )" class="fill" />
    <path d="M 36.41292835594641 19.063037737871312  C 36.41292835594641 28.97912383439376  28.354018903629584 37.01240877334863  18.40630254842604 37.01240877334863  C 8.50055967995346 37.01240877334863  0.3996767409057956 28.97912383439376  0.3996767409057956 19.063037737871312  C 0.3996767409057956 9.188791667072602  8.4585861932225 1.1136667023940545  18.40630254842604 1.1136667023940545  C 28.31204541689875 1.1136667023940545  36.41292835594641 9.146951641348926  36.41292835594641 19.063037737871312  Z " stroke-width="0" stroke-dasharray="0" stroke="rgba(255, 255, 255, 0)" fill="none" transform="matrix(1 0 0 1 837 865 )" class="stroke" mask="url(#Clip244)" />
    <path d="M 32.635314550173 19.104877763595052  C 32.635314550173 11.280792953258814  26.255344567088837 4.921109043252888  18.40630254842604 4.921109043252888  C 10.557260529763374 4.921109043252888  4.177290546679215 11.280792953258814  4.177290546679215 19.104877763595052  C 4.177290546679215 26.92896257393135  10.557260529763374 33.28864648393728  18.40630254842604 33.28864648393728  C 26.255344567088837 33.28864648393728  32.635314550173 26.928962573931287  32.635314550173 19.104877763595052  Z " stroke-width="0" stroke-dasharray="0" stroke="rgba(255, 255, 255, 0)" fill="none" transform="matrix(1 0 0 1 837 865 )" class="stroke" mask="url(#Clip244)" />
  </g>
</svg>