<?xml version="1.0" encoding="utf-8"?>
<svg version="1.1" xmlns:xlink="http://www.w3.org/1999/xlink" width="35px" height="34px" xmlns="http://www.w3.org/2000/svg">
  <defs>
    <pattern id="BGPattern" patternUnits="userSpaceOnUse" alignment="0 0" imageRepeat="None" />
    <mask fill="white" id="Clip245">
      <path d="M 34.14308003868614 17.063922478051964  C 34.14308003868614 26.35549113798244  26.619689335121482 33.86511512340567  17.405649035250285 33.86511512340567  C 8.191608735379091 33.86511512340567  0.6682180318145562 26.35549113798244  0.6682180318145562 17.063922478051964  C 0.6682180318145562 7.814781072276496  8.149342495471537 0.26272983269831607  17.405649035250285 0.26272983269831607  C 26.661955575029165 0.26272983269831607  34.14308003868614 7.772353818121546  34.14308003868614 17.063922478051964  Z M 33.12869028090215 17.10634973220691  C 33.12869028090215 8.408762630445601  26.070228216321865 1.3234111865716764  17.405649035250285 1.3234111865716764  C 8.741069854178836 1.3234111865716764  1.6826077895985516 8.408762630445601  1.6826077895985516 17.10634973220691  C 1.6826077895985516 25.803936833968287  8.741069854178836 32.88928827784221  17.405649035250285 32.88928827784221  C 26.070228216321865 32.88928827784221  33.12869028090215 25.803936833968287  33.12869028090215 17.10634973220691  Z " fill-rule="evenodd" />
    </mask>
  </defs>
  <g transform="matrix(1 0 0 1 -838 -868 )">
    <path d="M 34.14308003868614 17.063922478051964  C 34.14308003868614 26.35549113798244  26.619689335121482 33.86511512340567  17.405649035250285 33.86511512340567  C 8.191608735379091 33.86511512340567  0.6682180318145562 26.35549113798244  0.6682180318145562 17.063922478051964  C 0.6682180318145562 7.814781072276496  8.149342495471537 0.26272983269831607  17.405649035250285 0.26272983269831607  C 26.661955575029165 0.26272983269831607  34.14308003868614 7.772353818121546  34.14308003868614 17.063922478051964  Z M 33.12869028090215 17.10634973220691  C 33.12869028090215 8.408762630445601  26.070228216321865 1.3234111865716764  17.405649035250285 1.3234111865716764  C 8.741069854178836 1.3234111865716764  1.6826077895985516 8.408762630445601  1.6826077895985516 17.10634973220691  C 1.6826077895985516 25.803936833968287  8.741069854178836 32.88928827784221  17.405649035250285 32.88928827784221  C 26.070228216321865 32.88928827784221  33.12869028090215 25.803936833968287  33.12869028090215 17.10634973220691  Z " fill-rule="nonzero" fill="rgba(43, 71, 139, 1)" stroke="none" transform="matrix(1 0 0 1 838 868 )" class="fill" />
    <path d="M 34.14308003868614 17.063922478051964  C 34.14308003868614 26.35549113798244  26.619689335121482 33.86511512340567  17.405649035250285 33.86511512340567  C 8.191608735379091 33.86511512340567  0.6682180318145562 26.35549113798244  0.6682180318145562 17.063922478051964  C 0.6682180318145562 7.814781072276496  8.149342495471537 0.26272983269831607  17.405649035250285 0.26272983269831607  C 26.661955575029165 0.26272983269831607  34.14308003868614 7.772353818121546  34.14308003868614 17.063922478051964  Z " stroke-width="0" stroke-dasharray="0" stroke="rgba(255, 255, 255, 0)" fill="none" transform="matrix(1 0 0 1 838 868 )" class="stroke" mask="url(#Clip245)" />
    <path d="M 33.12869028090215 17.10634973220691  C 33.12869028090215 8.408762630445601  26.070228216321865 1.3234111865716764  17.405649035250285 1.3234111865716764  C 8.741069854178836 1.3234111865716764  1.6826077895985516 8.408762630445601  1.6826077895985516 17.10634973220691  C 1.6826077895985516 25.803936833968287  8.741069854178836 32.88928827784221  17.405649035250285 32.88928827784221  C 26.070228216321865 32.88928827784221  33.12869028090215 25.803936833968287  33.12869028090215 17.10634973220691  Z " stroke-width="0" stroke-dasharray="0" stroke="rgba(255, 255, 255, 0)" fill="none" transform="matrix(1 0 0 1 838 868 )" class="stroke" mask="url(#Clip245)" />
  </g>
</svg>