<?xml version="1.0" encoding="utf-8"?>
<svg version="1.1" xmlns:xlink="http://www.w3.org/1999/xlink" width="21px" height="20px" xmlns="http://www.w3.org/2000/svg">
  <defs>
    <pattern id="BGPattern" patternUnits="userSpaceOnUse" alignment="0 0" imageRepeat="None" />
    <mask fill="white" id="Clip504">
      <path d="M 10.40763537135028 19.837575690648414  C 5.070076632694867 19.837575690648414  0.7255520779752405 15.470064233522862  0.7255520779752405 10.10426444334011  C 0.7255520779752405 4.738464653157355  5.070076632694867 0.3709531960318676  10.40763537135028 0.3709531960318676  C 15.745194110005817 0.3709531960318676  20.089718664725446 4.738464653157355  20.089718664725446 10.10426444334011  C 20.089718664725446 15.470064233522862  15.745194110005817 19.837575690648414  10.40763537135028 19.837575690648414  Z " fill-rule="evenodd" />
    </mask>
  </defs>
  <g transform="matrix(1 0 0 1 -845 -875 )">
    <path d="M 10.40763537135028 19.837575690648414  C 5.070076632694867 19.837575690648414  0.7255520779752405 15.470064233522862  0.7255520779752405 10.10426444334011  C 0.7255520779752405 4.738464653157355  5.070076632694867 0.3709531960318676  10.40763537135028 0.3709531960318676  C 15.745194110005817 0.3709531960318676  20.089718664725446 4.738464653157355  20.089718664725446 10.10426444334011  C 20.089718664725446 15.470064233522862  15.745194110005817 19.837575690648414  10.40763537135028 19.837575690648414  Z " fill-rule="nonzero" fill="rgba(174, 195, 255, 1)" stroke="none" transform="matrix(1 0 0 1 845 875 )" class="fill" />
    <path d="M 10.40763537135028 19.837575690648414  C 5.070076632694867 19.837575690648414  0.7255520779752405 15.470064233522862  0.7255520779752405 10.10426444334011  C 0.7255520779752405 4.738464653157355  5.070076632694867 0.3709531960318676  10.40763537135028 0.3709531960318676  C 15.745194110005817 0.3709531960318676  20.089718664725446 4.738464653157355  20.089718664725446 10.10426444334011  C 20.089718664725446 15.470064233522862  15.745194110005817 19.837575690648414  10.40763537135028 19.837575690648414  Z " stroke-width="0" stroke-dasharray="0" stroke="rgba(255, 255, 255, 0)" fill="none" transform="matrix(1 0 0 1 845 875 )" class="stroke" mask="url(#Clip504)" />
  </g>
</svg>