<?xml version="1.0" encoding="utf-8"?>
<svg version="1.1" xmlns:xlink="http://www.w3.org/1999/xlink" width="97px" height="82px" xmlns="http://www.w3.org/2000/svg">
  <defs>
    <pattern id="BGPattern" patternUnits="userSpaceOnUse" alignment="0 0" imageRepeat="None" />
    <mask fill="white" id="Clip280">
      <path d="M 82.84688798918263 1  C 90.40500441078466 0.5452699222375715  96.56972506750999 6.7267943571719115  96 14.338059137601247  L 96 61.43538816567243  C 96.56972506750999 65.219994962571  94.71186404767487 68.75229463967634  91.58727960522509 70.8969051579189  L 77.14663258741636 80.8209852031196  C 76.13325384932439 81.53585537586714  74.6976339703609 81.28354825607387  73.97982403087929 80.23226859026872  C 73.26201409139766 79.22304011109578  73.5153587759206 77.79329976560076  74.57096162809962 77.07842959285323  L 89.01160864590835 67.1543495476525  C 90.91169377983051 65.8507627620541  92.05174486018377 63.70615224381156  92 61.43538816567243  L 92 14.338059137601247  C 92.05174486018377 9.24986555510425  87.91378167964201 5.128849265148056  82.80466387509559 6  L 14.19047848346028 6  C 9.081360678913972 5.128849265148056  4.943397498372211 9.249865555104282  5 14.338059137601247  L 5 61.183081045879185  C 4.943397498372211 63.57999868391499  6.167896806899946 65.8087115754219  8.236878397170825 67.07024717438809  L 24.366489978465847 77.12048077948542  C 25.422092830644875 77.79329976560072  25.759885743342284 79.1809889244635  25.08429991794759 80.23226859026869  C 24.408714092553023 81.28354825607384  23.01531832767671 81.61995774913146  21.95971547549768 80.94713876301618  L 5.830103894202534 70.93895634455107  C 2.4521747672296943 68.83639701294078  0.4254172910459906 65.1779437759388  1 61.183081045879185  L 1 14.338059137601247  C 0.4254172910459906 6.72679435717188  6.590137947771326 0.5873211088697623  14.232702597547329 1  L 82.84688798918263 1  Z " fill-rule="evenodd" />
    </mask>
  </defs>
  <g transform="matrix(1 0 0 1 -996 -734 )">
    <path d="M 82.84688798918263 1  C 90.40500441078466 0.5452699222375715  96.56972506750999 6.7267943571719115  96 14.338059137601247  L 96 61.43538816567243  C 96.56972506750999 65.219994962571  94.71186404767487 68.75229463967634  91.58727960522509 70.8969051579189  L 77.14663258741636 80.8209852031196  C 76.13325384932439 81.53585537586714  74.6976339703609 81.28354825607387  73.97982403087929 80.23226859026872  C 73.26201409139766 79.22304011109578  73.5153587759206 77.79329976560076  74.57096162809962 77.07842959285323  L 89.01160864590835 67.1543495476525  C 90.91169377983051 65.8507627620541  92.05174486018377 63.70615224381156  92 61.43538816567243  L 92 14.338059137601247  C 92.05174486018377 9.24986555510425  87.91378167964201 5.128849265148056  82.80466387509559 6  L 14.19047848346028 6  C 9.081360678913972 5.128849265148056  4.943397498372211 9.249865555104282  5 14.338059137601247  L 5 61.183081045879185  C 4.943397498372211 63.57999868391499  6.167896806899946 65.8087115754219  8.236878397170825 67.07024717438809  L 24.366489978465847 77.12048077948542  C 25.422092830644875 77.79329976560072  25.759885743342284 79.1809889244635  25.08429991794759 80.23226859026869  C 24.408714092553023 81.28354825607384  23.01531832767671 81.61995774913146  21.95971547549768 80.94713876301618  L 5.830103894202534 70.93895634455107  C 2.4521747672296943 68.83639701294078  0.4254172910459906 65.1779437759388  1 61.183081045879185  L 1 14.338059137601247  C 0.4254172910459906 6.72679435717188  6.590137947771326 0.5873211088697623  14.232702597547329 1  L 82.84688798918263 1  Z " fill-rule="nonzero" fill="rgba(43, 71, 139, 1)" stroke="none" transform="matrix(1 0 0 1 996 734 )" class="fill" />
    <path d="M 82.84688798918263 1  C 90.40500441078466 0.5452699222375715  96.56972506750999 6.7267943571719115  96 14.338059137601247  L 96 61.43538816567243  C 96.56972506750999 65.219994962571  94.71186404767487 68.75229463967634  91.58727960522509 70.8969051579189  L 77.14663258741636 80.8209852031196  C 76.13325384932439 81.53585537586714  74.6976339703609 81.28354825607387  73.97982403087929 80.23226859026872  C 73.26201409139766 79.22304011109578  73.5153587759206 77.79329976560076  74.57096162809962 77.07842959285323  L 89.01160864590835 67.1543495476525  C 90.91169377983051 65.8507627620541  92.05174486018377 63.70615224381156  92 61.43538816567243  L 92 14.338059137601247  C 92.05174486018377 9.24986555510425  87.91378167964201 5.128849265148056  82.80466387509559 6  L 14.19047848346028 6  C 9.081360678913972 5.128849265148056  4.943397498372211 9.249865555104282  5 14.338059137601247  L 5 61.183081045879185  C 4.943397498372211 63.57999868391499  6.167896806899946 65.8087115754219  8.236878397170825 67.07024717438809  L 24.366489978465847 77.12048077948542  C 25.422092830644875 77.79329976560072  25.759885743342284 79.1809889244635  25.08429991794759 80.23226859026869  C 24.408714092553023 81.28354825607384  23.01531832767671 81.61995774913146  21.95971547549768 80.94713876301618  L 5.830103894202534 70.93895634455107  C 2.4521747672296943 68.83639701294078  0.4254172910459906 65.1779437759388  1 61.183081045879185  L 1 14.338059137601247  C 0.4254172910459906 6.72679435717188  6.590137947771326 0.5873211088697623  14.232702597547329 1  L 82.84688798918263 1  Z " stroke-width="0" stroke-dasharray="0" stroke="rgba(255, 255, 255, 0)" fill="none" transform="matrix(1 0 0 1 996 734 )" class="stroke" mask="url(#Clip280)" />
  </g>
</svg>