<?xml version="1.0" encoding="utf-8"?>
<svg version="1.1" xmlns:xlink="http://www.w3.org/1999/xlink" width="22px" height="22px" xmlns="http://www.w3.org/2000/svg">
  <defs>
    <pattern id="BGPattern" patternUnits="userSpaceOnUse" alignment="0 0" imageRepeat="None" />
    <mask fill="white" id="Clip248">
      <path d="M 20.918403180387646 11.2025260891171  C 20.918403180387646 16.92646181878418  16.265131687924452 21.57973331124731  10.541195958257436 21.57973331124731  C 4.817260228590294 21.57973331124731  0.1639887361272258 16.92646181878418  0.1639887361272258 11.2025260891171  C 0.1639887361272258 5.478590359450021  4.817260228590294 0.8253188669868279  10.541195958257436 0.8253188669868279  C 16.265131687924452 0.8253188669868279  20.918403180387646 5.478590359449958  20.918403180387646 11.2025260891171  Z M 20.300712274308477 11.2025260891171  C 20.300712274308477 5.8080255093589805  15.935696538015556 1.4430097730660578  10.541195958257436 1.4430097730660578  C 5.187874772237819 1.4430097730660578  0.781679642206393 5.8080255093589805  0.781679642206393 11.2025260891171  C 0.781679642206393 16.555847275136653  5.146695378499191 20.96204240516814  10.541195958257436 20.96204240516814  C 15.935696538015556 20.96204240516814  20.300712274308477 16.59702666887528  20.300712274308477 11.2025260891171  Z " fill-rule="evenodd" />
    </mask>
  </defs>
  <g transform="matrix(1 0 0 1 -941 -863 )">
    <path d="M 20.918403180387646 11.2025260891171  C 20.918403180387646 16.92646181878418  16.265131687924452 21.57973331124731  10.541195958257436 21.57973331124731  C 4.817260228590294 21.57973331124731  0.1639887361272258 16.92646181878418  0.1639887361272258 11.2025260891171  C 0.1639887361272258 5.478590359450021  4.817260228590294 0.8253188669868279  10.541195958257436 0.8253188669868279  C 16.265131687924452 0.8253188669868279  20.918403180387646 5.478590359449958  20.918403180387646 11.2025260891171  Z M 20.300712274308477 11.2025260891171  C 20.300712274308477 5.8080255093589805  15.935696538015556 1.4430097730660578  10.541195958257436 1.4430097730660578  C 5.187874772237819 1.4430097730660578  0.781679642206393 5.8080255093589805  0.781679642206393 11.2025260891171  C 0.781679642206393 16.555847275136653  5.146695378499191 20.96204240516814  10.541195958257436 20.96204240516814  C 15.935696538015556 20.96204240516814  20.300712274308477 16.59702666887528  20.300712274308477 11.2025260891171  Z " fill-rule="nonzero" fill="rgba(43, 71, 139, 1)" stroke="none" transform="matrix(1 0 0 1 941 863 )" class="fill" />
    <path d="M 20.918403180387646 11.2025260891171  C 20.918403180387646 16.92646181878418  16.265131687924452 21.57973331124731  10.541195958257436 21.57973331124731  C 4.817260228590294 21.57973331124731  0.1639887361272258 16.92646181878418  0.1639887361272258 11.2025260891171  C 0.1639887361272258 5.478590359450021  4.817260228590294 0.8253188669868279  10.541195958257436 0.8253188669868279  C 16.265131687924452 0.8253188669868279  20.918403180387646 5.478590359449958  20.918403180387646 11.2025260891171  Z " stroke-width="0" stroke-dasharray="0" stroke="rgba(255, 255, 255, 0)" fill="none" transform="matrix(1 0 0 1 941 863 )" class="stroke" mask="url(#Clip248)" />
    <path d="M 20.300712274308477 11.2025260891171  C 20.300712274308477 5.8080255093589805  15.935696538015556 1.4430097730660578  10.541195958257436 1.4430097730660578  C 5.187874772237819 1.4430097730660578  0.781679642206393 5.8080255093589805  0.781679642206393 11.2025260891171  C 0.781679642206393 16.555847275136653  5.146695378499191 20.96204240516814  10.541195958257436 20.96204240516814  C 15.935696538015556 20.96204240516814  20.300712274308477 16.59702666887528  20.300712274308477 11.2025260891171  Z " stroke-width="0" stroke-dasharray="0" stroke="rgba(255, 255, 255, 0)" fill="none" transform="matrix(1 0 0 1 941 863 )" class="stroke" mask="url(#Clip248)" />
  </g>
</svg>