<?xml version="1.0" encoding="utf-8"?>
<svg version="1.1" xmlns:xlink="http://www.w3.org/1999/xlink" width="14px" height="14px" xmlns="http://www.w3.org/2000/svg">
  <defs>
    <pattern id="BGPattern" patternUnits="userSpaceOnUse" alignment="0 0" imageRepeat="None" />
    <mask fill="white" id="Clip507">
      <path d="M 6.513389652697279 13.722392468665436  C 2.932030257854308 13.722392468665436  0.00579758158014935 10.796159792391347  0.00579758158014935 7.21480039754844  C 0.00579758158014935 3.6334410027055335  2.932030257854308 0.7072083264314415  6.513389652697279 0.7072083264314415  C 10.09474904754012 0.7072083264314415  13.020981723814277 3.6334410027056  13.020981723814277 7.21480039754844  C 13.020981723814277 10.79615979239141  10.09474904754012 13.722392468665436  6.513389652697279 13.722392468665436  Z " fill-rule="evenodd" />
    </mask>
  </defs>
  <g transform="matrix(1 0 0 1 -945 -868 )">
    <path d="M 6.513389652697279 13.722392468665436  C 2.932030257854308 13.722392468665436  0.00579758158014935 10.796159792391347  0.00579758158014935 7.21480039754844  C 0.00579758158014935 3.6334410027055335  2.932030257854308 0.7072083264314415  6.513389652697279 0.7072083264314415  C 10.09474904754012 0.7072083264314415  13.020981723814277 3.6334410027056  13.020981723814277 7.21480039754844  C 13.020981723814277 10.79615979239141  10.09474904754012 13.722392468665436  6.513389652697279 13.722392468665436  Z " fill-rule="nonzero" fill="rgba(237, 130, 58, 1)" stroke="none" transform="matrix(1 0 0 1 945 868 )" class="fill" />
    <path d="M 6.513389652697279 13.722392468665436  C 2.932030257854308 13.722392468665436  0.00579758158014935 10.796159792391347  0.00579758158014935 7.21480039754844  C 0.00579758158014935 3.6334410027055335  2.932030257854308 0.7072083264314415  6.513389652697279 0.7072083264314415  C 10.09474904754012 0.7072083264314415  13.020981723814277 3.6334410027056  13.020981723814277 7.21480039754844  C 13.020981723814277 10.79615979239141  10.09474904754012 13.722392468665436  6.513389652697279 13.722392468665436  Z " stroke-width="0" stroke-dasharray="0" stroke="rgba(255, 255, 255, 0)" fill="none" transform="matrix(1 0 0 1 945 868 )" class="stroke" mask="url(#Clip507)" />
  </g>
</svg>