<?xml version="1.0" encoding="utf-8"?>
<svg version="1.1" xmlns:xlink="http://www.w3.org/1999/xlink" width="45px" height="45px" xmlns="http://www.w3.org/2000/svg">
  <defs>
    <pattern id="BGPattern" patternUnits="userSpaceOnUse" alignment="0 0" imageRepeat="None" />
    <mask fill="white" id="Clip509">
      <path d="M 43.88469024349837 22.49301184363091  C 43.88469024349837 34.453753934073205  34.15605847275138 44.182385704820256  22.195316382309088 44.182385704820256  C 10.234574291866792 44.182385704820256  0.5059425211196782 34.453753934073205  0.5059425211196782 22.49301184363091  C 0.5059425211196782 10.532269753188679  10.234574291866792 0.8036379824416287  22.195316382309088 0.8036379824416287  C 34.15605847275138 0.8036379824416287  43.88469024349837 10.532269753188679  43.88469024349837 22.49301184363091  Z M 42.57911628292193 22.49301184363091  C 42.57911628292193 11.248229667053138  33.44009855888686 2.1092119430180674  22.195316382309088 2.1092119430180674  C 10.950534205731316 2.1092119430180674  1.8115164816961167 11.248229667053202  1.8115164816961167 22.49301184363091  C 1.8115164816961167 33.737794020208746  10.950534205731316 42.87681174424382  22.195316382309088 42.87681174424382  C 33.44009855888686 42.87681174424382  42.57911628292193 33.73779402020868  42.57911628292193 22.49301184363091  Z " fill-rule="evenodd" />
    </mask>
  </defs>
  <g transform="matrix(1 0 0 1 -875 -886 )">
    <path d="M 43.88469024349837 22.49301184363091  C 43.88469024349837 34.453753934073205  34.15605847275138 44.182385704820256  22.195316382309088 44.182385704820256  C 10.234574291866792 44.182385704820256  0.5059425211196782 34.453753934073205  0.5059425211196782 22.49301184363091  C 0.5059425211196782 10.532269753188679  10.234574291866792 0.8036379824416287  22.195316382309088 0.8036379824416287  C 34.15605847275138 0.8036379824416287  43.88469024349837 10.532269753188679  43.88469024349837 22.49301184363091  Z M 42.57911628292193 22.49301184363091  C 42.57911628292193 11.248229667053138  33.44009855888686 2.1092119430180674  22.195316382309088 2.1092119430180674  C 10.950534205731316 2.1092119430180674  1.8115164816961167 11.248229667053202  1.8115164816961167 22.49301184363091  C 1.8115164816961167 33.737794020208746  10.950534205731316 42.87681174424382  22.195316382309088 42.87681174424382  C 33.44009855888686 42.87681174424382  42.57911628292193 33.73779402020868  42.57911628292193 22.49301184363091  Z " fill-rule="nonzero" fill="rgba(43, 71, 139, 1)" stroke="none" transform="matrix(1 0 0 1 875 886 )" class="fill" />
    <path d="M 43.88469024349837 22.49301184363091  C 43.88469024349837 34.453753934073205  34.15605847275138 44.182385704820256  22.195316382309088 44.182385704820256  C 10.234574291866792 44.182385704820256  0.5059425211196782 34.453753934073205  0.5059425211196782 22.49301184363091  C 0.5059425211196782 10.532269753188679  10.234574291866792 0.8036379824416287  22.195316382309088 0.8036379824416287  C 34.15605847275138 0.8036379824416287  43.88469024349837 10.532269753188679  43.88469024349837 22.49301184363091  Z " stroke-width="0" stroke-dasharray="0" stroke="rgba(255, 255, 255, 0)" fill="none" transform="matrix(1 0 0 1 875 886 )" class="stroke" mask="url(#Clip509)" />
    <path d="M 42.57911628292193 22.49301184363091  C 42.57911628292193 11.248229667053138  33.44009855888686 2.1092119430180674  22.195316382309088 2.1092119430180674  C 10.950534205731316 2.1092119430180674  1.8115164816961167 11.248229667053202  1.8115164816961167 22.49301184363091  C 1.8115164816961167 33.737794020208746  10.950534205731316 42.87681174424382  22.195316382309088 42.87681174424382  C 33.44009855888686 42.87681174424382  42.57911628292193 33.73779402020868  42.57911628292193 22.49301184363091  Z " stroke-width="0" stroke-dasharray="0" stroke="rgba(255, 255, 255, 0)" fill="none" transform="matrix(1 0 0 1 875 886 )" class="stroke" mask="url(#Clip509)" />
  </g>
</svg>