<?xml version="1.0" encoding="utf-8"?>
<svg version="1.1" xmlns:xlink="http://www.w3.org/1999/xlink" width="29px" height="35px" xmlns="http://www.w3.org/2000/svg">
  <defs>
    <pattern id="BGPattern" patternUnits="userSpaceOnUse" alignment="0 0" imageRepeat="None" />
    <mask fill="white" id="Clip281">
      <path d="M 28.816535212344323 34.02441663505162  C 28.816535212344323 34.48934527403595  28.398981919190533 34.91200767311261  27.897917967406084 35  L 0 35  L 0 15.131407396324834  C 0.005357984735107599 7.100821813868261  6.435678699303042 0.5495546281800058  14.410946598539715 0.5495546281800058  C 22.344459168461125 0.5495546281800058  28.816535212344323 7.058555573960603  28.816535212344323 15.131407396324834  L 28.816535212344323 34.02441663505162  Z " fill-rule="evenodd" />
    </mask>
  </defs>
  <g transform="matrix(1 0 0 1 -1027 -585 )">
    <path d="M 28.816535212344323 34.02441663505162  C 28.816535212344323 34.48934527403595  28.398981919190533 34.91200767311261  27.897917967406084 35  L 0 35  L 0 15.131407396324834  C 0.005357984735107599 7.100821813868261  6.435678699303042 0.5495546281800058  14.410946598539715 0.5495546281800058  C 22.344459168461125 0.5495546281800058  28.816535212344323 7.058555573960603  28.816535212344323 15.131407396324834  L 28.816535212344323 34.02441663505162  Z " fill-rule="nonzero" fill="rgba(255, 158, 85, 1)" stroke="none" transform="matrix(1 0 0 1 1027 585 )" class="fill" />
    <path d="M 28.816535212344323 34.02441663505162  C 28.816535212344323 34.48934527403595  28.398981919190533 34.91200767311261  27.897917967406084 35  L 0 35  L 0 15.131407396324834  C 0.005357984735107599 7.100821813868261  6.435678699303042 0.5495546281800058  14.410946598539715 0.5495546281800058  C 22.344459168461125 0.5495546281800058  28.816535212344323 7.058555573960603  28.816535212344323 15.131407396324834  L 28.816535212344323 34.02441663505162  Z " stroke-width="0" stroke-dasharray="0" stroke="rgba(255, 255, 255, 0)" fill="none" transform="matrix(1 0 0 1 1027 585 )" class="stroke" mask="url(#Clip281)" />
  </g>
</svg>