<?xml version="1.0" encoding="utf-8"?>
<svg version="1.1" xmlns:xlink="http://www.w3.org/1999/xlink" width="39px" height="281px" xmlns="http://www.w3.org/2000/svg">
  <defs>
    <pattern id="BGPattern" patternUnits="userSpaceOnUse" alignment="0 0" imageRepeat="None" />
    <mask fill="white" id="Clip24">
      <path d="M 38 12.749682623819798  C 38.544466267540585 6.017226105681648  33.121621429754605 0.5471051846944034  26.447350860171746 1  L 12.264525899808358 1  C 5.590255330225499 0.5471051846944034  0.1674104924395221 6.017226105681648  0.1674104924395221 12.749682623819798  L 0.1674104924395221 268.3305631936392  C 0.1674104924395221 275.0630197117774  5.590255330225499 280.5331406327646  12.264525899808358 280  L 26.447350860171746 280  C 33.121621429754605 280.5331406327646  38.544466267540585 275.0630197117774  38 268.3305631936392  L 38 12.749682623819798  Z " fill-rule="evenodd" />
    </mask>
  </defs>
  <g transform="matrix(1 0 0 1 -1129 -585 )">
    <path d="M 38 12.749682623819798  C 38.544466267540585 6.017226105681648  33.121621429754605 0.5471051846944034  26.447350860171746 1  L 12.264525899808358 1  C 5.590255330225499 0.5471051846944034  0.1674104924395221 6.017226105681648  0.1674104924395221 12.749682623819798  L 0.1674104924395221 268.3305631936392  C 0.1674104924395221 275.0630197117774  5.590255330225499 280.5331406327646  12.264525899808358 280  L 26.447350860171746 280  C 33.121621429754605 280.5331406327646  38.544466267540585 275.0630197117774  38 268.3305631936392  L 38 12.749682623819798  Z " fill-rule="nonzero" fill="rgba(174, 195, 255, 1)" stroke="none" transform="matrix(1 0 0 1 1129 585 )" class="fill" />
    <path d="M 38 12.749682623819798  C 38.544466267540585 6.017226105681648  33.121621429754605 0.5471051846944034  26.447350860171746 1  L 12.264525899808358 1  C 5.590255330225499 0.5471051846944034  0.1674104924395221 6.017226105681648  0.1674104924395221 12.749682623819798  L 0.1674104924395221 268.3305631936392  C 0.1674104924395221 275.0630197117774  5.590255330225499 280.5331406327646  12.264525899808358 280  L 26.447350860171746 280  C 33.121621429754605 280.5331406327646  38.544466267540585 275.0630197117774  38 268.3305631936392  L 38 12.749682623819798  Z " stroke-width="0" stroke-dasharray="0" stroke="rgba(255, 255, 255, 0)" fill="none" transform="matrix(1 0 0 1 1129 585 )" class="stroke" mask="url(#Clip24)" />
  </g>
</svg>