<?xml version="1.0" encoding="utf-8"?>
<svg version="1.1" xmlns:xlink="http://www.w3.org/1999/xlink" width="5px" height="5px" xmlns="http://www.w3.org/2000/svg">
  <defs>
    <pattern id="BGPattern" patternUnits="userSpaceOnUse" alignment="0 0" imageRepeat="None" />
    <mask fill="white" id="Clip283">
      <path d="M 2.4081497432499646 4.600049693556429  C 1.285075368560456 4.562613881066774  0.3866158688089172 3.701590193804897  0.3866158688089172 2.5785158191154807  C 0.3866158688089172 1.4554414444260644  1.285075368560456 0.5569819446745257  2.4081497432499646 0.5569819446745257  C 3.5312241179393595 0.5569819446745257  4.39224780520135 1.4554414444260644  4.39224780520135 2.5785158191154807  C 4.39224780520135 3.701590193804897  3.493788305449698 4.600049693556429  2.4081497432499646 4.600049693556429  Z " fill-rule="evenodd" />
    </mask>
  </defs>
  <g transform="matrix(1 0 0 1 -1145 -597 )">
    <path d="M 2.4081497432499646 4.600049693556429  C 1.285075368560456 4.562613881066774  0.3866158688089172 3.701590193804897  0.3866158688089172 2.5785158191154807  C 0.3866158688089172 1.4554414444260644  1.285075368560456 0.5569819446745257  2.4081497432499646 0.5569819446745257  C 3.5312241179393595 0.5569819446745257  4.39224780520135 1.4554414444260644  4.39224780520135 2.5785158191154807  C 4.39224780520135 3.701590193804897  3.493788305449698 4.600049693556429  2.4081497432499646 4.600049693556429  Z " fill-rule="nonzero" fill="rgba(6, 6, 51, 1)" stroke="none" transform="matrix(1 0 0 1 1145 597 )" class="fill" />
    <path d="M 2.4081497432499646 4.600049693556429  C 1.285075368560456 4.562613881066774  0.3866158688089172 3.701590193804897  0.3866158688089172 2.5785158191154807  C 0.3866158688089172 1.4554414444260644  1.285075368560456 0.5569819446745257  2.4081497432499646 0.5569819446745257  C 3.5312241179393595 0.5569819446745257  4.39224780520135 1.4554414444260644  4.39224780520135 2.5785158191154807  C 4.39224780520135 3.701590193804897  3.493788305449698 4.600049693556429  2.4081497432499646 4.600049693556429  Z " stroke-width="0" stroke-dasharray="0" stroke="rgba(255, 255, 255, 0)" fill="none" transform="matrix(1 0 0 1 1145 597 )" class="stroke" mask="url(#Clip283)" />
  </g>
</svg>