<?xml version="1.0" encoding="utf-8"?>
<svg version="1.1" xmlns:xlink="http://www.w3.org/1999/xlink" width="47px" height="188px" xmlns="http://www.w3.org/2000/svg">
  <defs>
    <pattern id="BGPattern" patternUnits="userSpaceOnUse" alignment="0 0" imageRepeat="None" />
    <mask fill="white" id="Clip284">
      <path d="M 46 181.7248425130855  C 46.411095861236575 185.01202068283513  43.72997862388278 187.66704920455595  40.462366990857994 187  L 5.98487501676164 187  C 2.7172633837366034 187.66704920455595  0.03614614638305944 185.01202068283513  0 181.68269920321688  L 0 6.619390009115481  C 0.03614614638305944 3.332211839365855  2.6753709269031885 0.6350400077764372  5.98487501676164 1  L 40.462366990857994 1  C 43.7299786238829 0.6350400077764372  46.411095861236575 3.2900685294972853  46 6.619390009115481  L 46 181.7248425130855  Z " fill-rule="evenodd" />
    </mask>
  </defs>
  <g transform="matrix(1 0 0 1 -1124 -624 )">
    <path d="M 46 181.7248425130855  C 46.411095861236575 185.01202068283513  43.72997862388278 187.66704920455595  40.462366990857994 187  L 5.98487501676164 187  C 2.7172633837366034 187.66704920455595  0.03614614638305944 185.01202068283513  0 181.68269920321688  L 0 6.619390009115481  C 0.03614614638305944 3.332211839365855  2.6753709269031885 0.6350400077764372  5.98487501676164 1  L 40.462366990857994 1  C 43.7299786238829 0.6350400077764372  46.411095861236575 3.2900685294972853  46 6.619390009115481  L 46 181.7248425130855  Z " fill-rule="nonzero" fill="rgba(237, 130, 58, 1)" stroke="none" transform="matrix(1 0 0 1 1124 624 )" class="fill" />
    <path d="M 46 181.7248425130855  C 46.411095861236575 185.01202068283513  43.72997862388278 187.66704920455595  40.462366990857994 187  L 5.98487501676164 187  C 2.7172633837366034 187.66704920455595  0.03614614638305944 185.01202068283513  0 181.68269920321688  L 0 6.619390009115481  C 0.03614614638305944 3.332211839365855  2.6753709269031885 0.6350400077764372  5.98487501676164 1  L 40.462366990857994 1  C 43.7299786238829 0.6350400077764372  46.411095861236575 3.2900685294972853  46 6.619390009115481  L 46 181.7248425130855  Z " stroke-width="0" stroke-dasharray="0" stroke="rgba(255, 255, 255, 0)" fill="none" transform="matrix(1 0 0 1 1124 624 )" class="stroke" mask="url(#Clip284)" />
  </g>
</svg>