<?xml version="1.0" encoding="utf-8"?>
<svg version="1.1" xmlns:xlink="http://www.w3.org/1999/xlink" width="35px" height="35px" xmlns="http://www.w3.org/2000/svg">
  <defs>
    <pattern id="BGPattern" patternUnits="userSpaceOnUse" alignment="0 0" imageRepeat="None" />
    <mask fill="white" id="Clip286">
      <path d="M 34.882365199548936 17.165049399669815  C 34.882365199548936 26.63268713898701  27.189909536353795 34.282876562274595  17.76453803694406 34.282876562274595  C 8.339166537534453 34.282876562274595  0.6467108743393165 26.63268713898701  0.6467108743393165 17.165049399669815  C 0.6467108743393165 7.739677900260241  8.2969002976269 0.04722223706500751  17.76453803694406 0.04722223706500751  C 27.232175776261354 0.04722223706500751  34.882365199548936 7.69741166035259  34.882365199548936 17.165049399669815  Z M 33.82570920185726 17.165049399669815  C 33.86797544176507 8.331405258967571  26.640448417554055 1.1038782347566853  17.76453803694406 1.1038782347566853  C 8.888627656334199 1.1038782347566853  1.7033668720309942 8.331405258967603  1.7033668720309942 17.165049399669815  C 1.7033668720309942 26.04095978027971  8.930893896241882 33.226220564582945  17.76453803694406 33.226220564582945  C 26.59818217764637 33.226220564582945  33.82570920185726 25.99869354037203  33.82570920185726 17.165049399669815  Z " fill-rule="evenodd" />
    </mask>
  </defs>
  <g transform="matrix(1 0 0 1 -1130 -738 )">
    <path d="M 34.882365199548936 17.165049399669815  C 34.882365199548936 26.63268713898701  27.189909536353795 34.282876562274595  17.76453803694406 34.282876562274595  C 8.339166537534453 34.282876562274595  0.6467108743393165 26.63268713898701  0.6467108743393165 17.165049399669815  C 0.6467108743393165 7.739677900260241  8.2969002976269 0.04722223706500751  17.76453803694406 0.04722223706500751  C 27.232175776261354 0.04722223706500751  34.882365199548936 7.69741166035259  34.882365199548936 17.165049399669815  Z M 33.82570920185726 17.165049399669815  C 33.86797544176507 8.331405258967571  26.640448417554055 1.1038782347566853  17.76453803694406 1.1038782347566853  C 8.888627656334199 1.1038782347566853  1.7033668720309942 8.331405258967603  1.7033668720309942 17.165049399669815  C 1.7033668720309942 26.04095978027971  8.930893896241882 33.226220564582945  17.76453803694406 33.226220564582945  C 26.59818217764637 33.226220564582945  33.82570920185726 25.99869354037203  33.82570920185726 17.165049399669815  Z " fill-rule="nonzero" fill="rgba(43, 71, 139, 1)" stroke="none" transform="matrix(1 0 0 1 1130 738 )" class="fill" />
    <path d="M 34.882365199548936 17.165049399669815  C 34.882365199548936 26.63268713898701  27.189909536353795 34.282876562274595  17.76453803694406 34.282876562274595  C 8.339166537534453 34.282876562274595  0.6467108743393165 26.63268713898701  0.6467108743393165 17.165049399669815  C 0.6467108743393165 7.739677900260241  8.2969002976269 0.04722223706500751  17.76453803694406 0.04722223706500751  C 27.232175776261354 0.04722223706500751  34.882365199548936 7.69741166035259  34.882365199548936 17.165049399669815  Z " stroke-width="0" stroke-dasharray="0" stroke="rgba(255, 255, 255, 0)" fill="none" transform="matrix(1 0 0 1 1130 738 )" class="stroke" mask="url(#Clip286)" />
    <path d="M 33.82570920185726 17.165049399669815  C 33.86797544176507 8.331405258967571  26.640448417554055 1.1038782347566853  17.76453803694406 1.1038782347566853  C 8.888627656334199 1.1038782347566853  1.7033668720309942 8.331405258967603  1.7033668720309942 17.165049399669815  C 1.7033668720309942 26.04095978027971  8.930893896241882 33.226220564582945  17.76453803694406 33.226220564582945  C 26.59818217764637 33.226220564582945  33.82570920185726 25.99869354037203  33.82570920185726 17.165049399669815  Z " stroke-width="0" stroke-dasharray="0" stroke="rgba(255, 255, 255, 0)" fill="none" transform="matrix(1 0 0 1 1130 738 )" class="stroke" mask="url(#Clip286)" />
  </g>
</svg>