<?xml version="1.0" encoding="utf-8"?>
<svg version="1.1" xmlns:xlink="http://www.w3.org/1999/xlink" width="21px" height="21px" xmlns="http://www.w3.org/2000/svg">
  <defs>
    <pattern id="BGPattern" patternUnits="userSpaceOnUse" alignment="0 0" imageRepeat="None" />
    <mask fill="white" id="Clip287">
      <path d="M 10.800345239444464 20.102442830614766  C 5.297280803466337 20.102442830614766  0.8700034000854776 15.675165427233841  0.8700034000854776 10.213477415586393  C 0.8700034000854776 4.751789403938882  5.297280803466337 0.28313557622734425  10.800345239444464 0.28313557622734425  C 16.262033251091914 0.28313557622734425  20.689310654472898 4.710412979608266  20.689310654472898 10.213477415586393  C 20.689310654472898 15.675165427233875  16.262033251092166 20.102442830614766  10.800345239444464 20.102442830614766  Z " fill-rule="evenodd" />
    </mask>
  </defs>
  <g transform="matrix(1 0 0 1 -1137 -745 )">
    <path d="M 10.800345239444464 20.102442830614766  C 5.297280803466337 20.102442830614766  0.8700034000854776 15.675165427233841  0.8700034000854776 10.213477415586393  C 0.8700034000854776 4.751789403938882  5.297280803466337 0.28313557622734425  10.800345239444464 0.28313557622734425  C 16.262033251091914 0.28313557622734425  20.689310654472898 4.710412979608266  20.689310654472898 10.213477415586393  C 20.689310654472898 15.675165427233875  16.262033251092166 20.102442830614766  10.800345239444464 20.102442830614766  Z " fill-rule="nonzero" fill="rgba(255, 178, 125, 1)" stroke="none" transform="matrix(1 0 0 1 1137 745 )" class="fill" />
    <path d="M 10.800345239444464 20.102442830614766  C 5.297280803466337 20.102442830614766  0.8700034000854776 15.675165427233841  0.8700034000854776 10.213477415586393  C 0.8700034000854776 4.751789403938882  5.297280803466337 0.28313557622734425  10.800345239444464 0.28313557622734425  C 16.262033251091914 0.28313557622734425  20.689310654472898 4.710412979608266  20.689310654472898 10.213477415586393  C 20.689310654472898 15.675165427233875  16.262033251092166 20.102442830614766  10.800345239444464 20.102442830614766  Z " stroke-width="0" stroke-dasharray="0" stroke="rgba(255, 255, 255, 0)" fill="none" transform="matrix(1 0 0 1 1137 745 )" class="stroke" mask="url(#Clip287)" />
  </g>
</svg>