<?xml version="1.0" encoding="utf-8"?>
<svg version="1.1" xmlns:xlink="http://www.w3.org/1999/xlink" width="18px" height="18px" xmlns="http://www.w3.org/2000/svg">
  <defs>
    <pattern id="BGPattern" patternUnits="userSpaceOnUse" alignment="0 0" imageRepeat="None" />
    <mask fill="white" id="Clip30">
      <path d="M 8.91017889680299 17.327925708133208  C 4.15115123405667 17.327925708133208  0.31865993042896434 13.495434404505582  0.31865993042896434 8.736406741759176  C 0.31865993042896434 3.977379079012775  4.151151234056542 0.14488777538514963  8.91017889680299 0.14488777538514963  C 13.669206559549437 0.14488777538514963  17.501697863177014 3.977379079012775  17.501697863177014 8.736406741759176  C 17.501697863177014 13.495434404505582  13.669206559549437 17.327925708133208  8.91017889680299 17.327925708133208  Z " fill-rule="evenodd" />
    </mask>
  </defs>
  <g transform="matrix(1 0 0 1 -1033 -591 )">
    <path d="M 8.91017889680299 17.327925708133208  C 4.15115123405667 17.327925708133208  0.31865993042896434 13.495434404505582  0.31865993042896434 8.736406741759176  C 0.31865993042896434 3.977379079012775  4.151151234056542 0.14488777538514963  8.91017889680299 0.14488777538514963  C 13.669206559549437 0.14488777538514963  17.501697863177014 3.977379079012775  17.501697863177014 8.736406741759176  C 17.501697863177014 13.495434404505582  13.669206559549437 17.327925708133208  8.91017889680299 17.327925708133208  Z " fill-rule="nonzero" fill="rgba(255, 158, 85, 1)" stroke="none" transform="matrix(1 0 0 1 1033 591 )" class="fill" />
    <path d="M 8.91017889680299 17.327925708133208  C 4.15115123405667 17.327925708133208  0.31865993042896434 13.495434404505582  0.31865993042896434 8.736406741759176  C 0.31865993042896434 3.977379079012775  4.151151234056542 0.14488777538514963  8.91017889680299 0.14488777538514963  C 13.669206559549437 0.14488777538514963  17.501697863177014 3.977379079012775  17.501697863177014 8.736406741759176  C 17.501697863177014 13.495434404505582  13.669206559549437 17.327925708133208  8.91017889680299 17.327925708133208  Z " stroke-width="0" stroke-dasharray="0" stroke="rgba(255, 255, 255, 0)" fill="none" transform="matrix(1 0 0 1 1033 591 )" class="stroke" mask="url(#Clip30)" />
  </g>
</svg>