<?xml version="1.0" encoding="utf-8"?>
<svg version="1.1" xmlns:xlink="http://www.w3.org/1999/xlink" width="18px" height="19px" xmlns="http://www.w3.org/2000/svg">
  <defs>
    <pattern id="BGPattern" patternUnits="userSpaceOnUse" alignment="0 0" imageRepeat="None" />
    <mask fill="white" id="Clip31">
      <path d="M 17.754389597482103 9.796953102924148  C 17.754389597482103 14.650396086876063  13.795552426701917 18.58335850490605  8.91017889680299 18.58335850490605  C 4.0248053669040615 18.58335850490605  0.06596819612387606 14.650396086876063  0.06596819612387606 9.796953102924148  C 0.06596819612387606 4.943510118972248  4.0248053669040615 1.0105477009422592  8.91017889680299 1.0105477009422592  C 13.795552426701917 1.0105477009422592  17.754389597482103 4.943510118972248  17.754389597482103 9.796953102924148  Z M 17.20689083982093 9.79695310292414  C 17.20689083982093 5.2782303247620295  13.50074540334596 1.5544680353506506  8.91017889680299 1.5544680353506506  C 4.319612390259891 1.5544680353506506  0.6134669537850499 5.2782303247620295  0.6134669537850499 9.79695310292414  C 0.6134669537850499 14.315675881086259  4.3617276793110165 18.03943817049763  8.91017889680299 18.03943817049763  C 13.458630114294962 18.03943817049763  17.20689083982093 14.315675881086259  17.20689083982093 9.79695310292414  Z " fill-rule="evenodd" />
    </mask>
  </defs>
  <g transform="matrix(1 0 0 1 -1033 -590 )">
    <path d="M 17.754389597482103 9.796953102924148  C 17.754389597482103 14.650396086876063  13.795552426701917 18.58335850490605  8.91017889680299 18.58335850490605  C 4.0248053669040615 18.58335850490605  0.06596819612387606 14.650396086876063  0.06596819612387606 9.796953102924148  C 0.06596819612387606 4.943510118972248  4.0248053669040615 1.0105477009422592  8.91017889680299 1.0105477009422592  C 13.795552426701917 1.0105477009422592  17.754389597482103 4.943510118972248  17.754389597482103 9.796953102924148  Z M 17.20689083982093 9.79695310292414  C 17.20689083982093 5.2782303247620295  13.50074540334596 1.5544680353506506  8.91017889680299 1.5544680353506506  C 4.319612390259891 1.5544680353506506  0.6134669537850499 5.2782303247620295  0.6134669537850499 9.79695310292414  C 0.6134669537850499 14.315675881086259  4.3617276793110165 18.03943817049763  8.91017889680299 18.03943817049763  C 13.458630114294962 18.03943817049763  17.20689083982093 14.315675881086259  17.20689083982093 9.79695310292414  Z " fill-rule="nonzero" fill="rgba(43, 71, 139, 1)" stroke="none" transform="matrix(1 0 0 1 1033 590 )" class="fill" />
    <path d="M 17.754389597482103 9.796953102924148  C 17.754389597482103 14.650396086876063  13.795552426701917 18.58335850490605  8.91017889680299 18.58335850490605  C 4.0248053669040615 18.58335850490605  0.06596819612387606 14.650396086876063  0.06596819612387606 9.796953102924148  C 0.06596819612387606 4.943510118972248  4.0248053669040615 1.0105477009422592  8.91017889680299 1.0105477009422592  C 13.795552426701917 1.0105477009422592  17.754389597482103 4.943510118972248  17.754389597482103 9.796953102924148  Z " stroke-width="0" stroke-dasharray="0" stroke="rgba(255, 255, 255, 0)" fill="none" transform="matrix(1 0 0 1 1033 590 )" class="stroke" mask="url(#Clip31)" />
    <path d="M 17.20689083982093 9.79695310292414  C 17.20689083982093 5.2782303247620295  13.50074540334596 1.5544680353506506  8.91017889680299 1.5544680353506506  C 4.319612390259891 1.5544680353506506  0.6134669537850499 5.2782303247620295  0.6134669537850499 9.79695310292414  C 0.6134669537850499 14.315675881086259  4.3617276793110165 18.03943817049763  8.91017889680299 18.03943817049763  C 13.458630114294962 18.03943817049763  17.20689083982093 14.315675881086259  17.20689083982093 9.79695310292414  Z " stroke-width="0" stroke-dasharray="0" stroke="rgba(255, 255, 255, 0)" fill="none" transform="matrix(1 0 0 1 1033 590 )" class="stroke" mask="url(#Clip31)" />
  </g>
</svg>