<?xml version="1.0" encoding="utf-8"?>
<svg version="1.1" xmlns:xlink="http://www.w3.org/1999/xlink" width="12px" height="12px" xmlns="http://www.w3.org/2000/svg">
  <defs>
    <pattern id="BGPattern" patternUnits="userSpaceOnUse" alignment="0 0" imageRepeat="None" />
    <mask fill="white" id="Clip290">
      <path d="M 5.859267848268928 11.289282756335968  C 2.804505549113628 11.334205731323543  0.2888189498094562 8.818519132019237  0.2888189498094562 5.718833857876453  C 0.2888189498094562 2.6191485837336703  2.804505549113628 0.14838495941695556  5.859267848268928 0.14838495941695556  C 8.95895312241182 0.14838495941695556  11.429716746728538 2.664071558721238  11.429716746728538 5.718833857876453  C 11.429716746728538 8.818519132019244  8.914030147424228 11.289282756335968  5.859267848268928 11.289282756335968  Z " fill-rule="evenodd" />
    </mask>
  </defs>
  <g transform="matrix(1 0 0 1 -1037 -594 )">
    <path d="M 5.859267848268928 11.289282756335968  C 2.804505549113628 11.334205731323543  0.2888189498094562 8.818519132019237  0.2888189498094562 5.718833857876453  C 0.2888189498094562 2.6191485837336703  2.804505549113628 0.14838495941695556  5.859267848268928 0.14838495941695556  C 8.95895312241182 0.14838495941695556  11.429716746728538 2.664071558721238  11.429716746728538 5.718833857876453  C 11.429716746728538 8.818519132019244  8.914030147424228 11.289282756335968  5.859267848268928 11.289282756335968  Z " fill-rule="nonzero" fill="rgba(237, 130, 58, 1)" stroke="none" transform="matrix(1 0 0 1 1037 594 )" class="fill" />
    <path d="M 5.859267848268928 11.289282756335968  C 2.804505549113628 11.334205731323543  0.2888189498094562 8.818519132019237  0.2888189498094562 5.718833857876453  C 0.2888189498094562 2.6191485837336703  2.804505549113628 0.14838495941695556  5.859267848268928 0.14838495941695556  C 8.95895312241182 0.14838495941695556  11.429716746728538 2.664071558721238  11.429716746728538 5.718833857876453  C 11.429716746728538 8.818519132019244  8.914030147424228 11.289282756335968  5.859267848268928 11.289282756335968  Z " stroke-width="0" stroke-dasharray="0" stroke="rgba(255, 255, 255, 0)" fill="none" transform="matrix(1 0 0 1 1037 594 )" class="stroke" mask="url(#Clip290)" />
  </g>
</svg>