<?xml version="1.0" encoding="utf-8"?>
<svg version="1.1" xmlns:xlink="http://www.w3.org/1999/xlink" width="10px" height="12px" xmlns="http://www.w3.org/2000/svg">
  <defs>
    <pattern id="BGPattern" patternUnits="userSpaceOnUse" alignment="0 0" imageRepeat="None" />
    <mask fill="white" id="Clip511">
      <path d="M 5.921325051759835 10.725450901803608  C 5.990338164251209 10.80561122244489  6.024844720496895 10.897795591182364  6.024844720496895 11.002004008016032  C 6.024844720496895 11.1062124248497  5.990338164251209 11.198396793587174  5.921325051759835 11.278557114228457  L 5.403726708074535 11.879759519038076  C 5.334713595583161 11.959919839679358  5.255348516218082 12  5.165631469979296 12  C 5.07591442374051 12  4.996549344375432 11.959919839679358  4.9275362318840585 11.879759519038076  L 0.10351966873706003 6.2765531062124245  C 0.03450655624568671 6.196392785571142  0 6.104208416833666  0 6  C 0 5.895791583166332  0.03450655624568671 5.803607214428857  0.10351966873706003 5.7234468937875755  L 4.9275362318840585 0.12024048096192397  C 4.996549344375432 0.04008016032064088  5.07591442374051 0  5.165631469979296 0  C 5.255348516218082 0  5.334713595583161 0.04008016032064088  5.403726708074535 0.12024048096192397  L 5.921325051759835 0.7214428857715425  C 5.990338164251209 0.8016032064128242  6.024844720496895 0.893787575150299  6.024844720496895 0.9979959919839683  C 6.024844720496895 1.1022044088176348  5.990338164251209 1.1943887775551096  5.921325051759835 1.2745490981963927  L 1.8530020703933747 6  L 5.921325051759835 10.725450901803608  Z M 9.89648033126294 10.725450901803608  C 9.965493443754314 10.80561122244489  10.000000000000002 10.897795591182364  10 11.002004008016032  C 10.000000000000002 11.1062124248497  9.965493443754314 11.198396793587174  9.89648033126294 11.278557114228457  L 9.378881987577639 11.879759519038076  C 9.309868875086266 11.959919839679358  9.230503795721187 12  9.140786749482402 12  C 9.051069703243618 12  8.971704623878537 11.959919839679358  8.902691511387165 11.879759519038076  L 4.078674948240166 6.2765531062124245  C 4.009661835748793 6.196392785571142  3.9751552795031064 6.104208416833666  3.975155279503105 6  C 3.9751552795031064 5.895791583166332  4.009661835748793 5.803607214428857  4.078674948240166 5.7234468937875755  L 8.902691511387165 0.12024048096192397  C 8.971704623878537 0.04008016032064088  9.051069703243618 0  9.140786749482402 0  C 9.230503795721187 0  9.309868875086266 0.04008016032064088  9.378881987577639 0.12024048096192397  L 9.89648033126294 0.7214428857715425  C 9.965493443754314 0.8016032064128242  10.000000000000002 0.893787575150299  10 0.9979959919839683  C 10.000000000000002 1.1022044088176348  9.965493443754314 1.1943887775551096  9.89648033126294 1.2745490981963927  L 5.82815734989648 6  L 9.89648033126294 10.725450901803608  Z " fill-rule="evenodd" />
    </mask>
  </defs>
  <g transform="matrix(1 0 0 1 -10 -11 )">
    <path d="M 5.921325051759835 10.725450901803608  C 5.990338164251209 10.80561122244489  6.024844720496895 10.897795591182364  6.024844720496895 11.002004008016032  C 6.024844720496895 11.1062124248497  5.990338164251209 11.198396793587174  5.921325051759835 11.278557114228457  L 5.403726708074535 11.879759519038076  C 5.334713595583161 11.959919839679358  5.255348516218082 12  5.165631469979296 12  C 5.07591442374051 12  4.996549344375432 11.959919839679358  4.9275362318840585 11.879759519038076  L 0.10351966873706003 6.2765531062124245  C 0.03450655624568671 6.196392785571142  0 6.104208416833666  0 6  C 0 5.895791583166332  0.03450655624568671 5.803607214428857  0.10351966873706003 5.7234468937875755  L 4.9275362318840585 0.12024048096192397  C 4.996549344375432 0.04008016032064088  5.07591442374051 0  5.165631469979296 0  C 5.255348516218082 0  5.334713595583161 0.04008016032064088  5.403726708074535 0.12024048096192397  L 5.921325051759835 0.7214428857715425  C 5.990338164251209 0.8016032064128242  6.024844720496895 0.893787575150299  6.024844720496895 0.9979959919839683  C 6.024844720496895 1.1022044088176348  5.990338164251209 1.1943887775551096  5.921325051759835 1.2745490981963927  L 1.8530020703933747 6  L 5.921325051759835 10.725450901803608  Z M 9.89648033126294 10.725450901803608  C 9.965493443754314 10.80561122244489  10.000000000000002 10.897795591182364  10 11.002004008016032  C 10.000000000000002 11.1062124248497  9.965493443754314 11.198396793587174  9.89648033126294 11.278557114228457  L 9.378881987577639 11.879759519038076  C 9.309868875086266 11.959919839679358  9.230503795721187 12  9.140786749482402 12  C 9.051069703243618 12  8.971704623878537 11.959919839679358  8.902691511387165 11.879759519038076  L 4.078674948240166 6.2765531062124245  C 4.009661835748793 6.196392785571142  3.9751552795031064 6.104208416833666  3.975155279503105 6  C 3.9751552795031064 5.895791583166332  4.009661835748793 5.803607214428857  4.078674948240166 5.7234468937875755  L 8.902691511387165 0.12024048096192397  C 8.971704623878537 0.04008016032064088  9.051069703243618 0  9.140786749482402 0  C 9.230503795721187 0  9.309868875086266 0.04008016032064088  9.378881987577639 0.12024048096192397  L 9.89648033126294 0.7214428857715425  C 9.965493443754314 0.8016032064128242  10.000000000000002 0.893787575150299  10 0.9979959919839683  C 10.000000000000002 1.1022044088176348  9.965493443754314 1.1943887775551096  9.89648033126294 1.2745490981963927  L 5.82815734989648 6  L 9.89648033126294 10.725450901803608  Z " fill-rule="nonzero" fill="rgba(151, 150, 150, 1)" stroke="none" transform="matrix(1 0 0 1 10 11 )" class="fill" />
    <path d="M 5.921325051759835 10.725450901803608  C 5.990338164251209 10.80561122244489  6.024844720496895 10.897795591182364  6.024844720496895 11.002004008016032  C 6.024844720496895 11.1062124248497  5.990338164251209 11.198396793587174  5.921325051759835 11.278557114228457  L 5.403726708074535 11.879759519038076  C 5.334713595583161 11.959919839679358  5.255348516218082 12  5.165631469979296 12  C 5.07591442374051 12  4.996549344375432 11.959919839679358  4.9275362318840585 11.879759519038076  L 0.10351966873706003 6.2765531062124245  C 0.03450655624568671 6.196392785571142  0 6.104208416833666  0 6  C 0 5.895791583166332  0.03450655624568671 5.803607214428857  0.10351966873706003 5.7234468937875755  L 4.9275362318840585 0.12024048096192397  C 4.996549344375432 0.04008016032064088  5.07591442374051 0  5.165631469979296 0  C 5.255348516218082 0  5.334713595583161 0.04008016032064088  5.403726708074535 0.12024048096192397  L 5.921325051759835 0.7214428857715425  C 5.990338164251209 0.8016032064128242  6.024844720496895 0.893787575150299  6.024844720496895 0.9979959919839683  C 6.024844720496895 1.1022044088176348  5.990338164251209 1.1943887775551096  5.921325051759835 1.2745490981963927  L 1.8530020703933747 6  L 5.921325051759835 10.725450901803608  Z " stroke-width="0" stroke-dasharray="0" stroke="rgba(255, 255, 255, 0)" fill="none" transform="matrix(1 0 0 1 10 11 )" class="stroke" mask="url(#Clip511)" />
    <path d="M 9.89648033126294 10.725450901803608  C 9.965493443754314 10.80561122244489  10.000000000000002 10.897795591182364  10 11.002004008016032  C 10.000000000000002 11.1062124248497  9.965493443754314 11.198396793587174  9.89648033126294 11.278557114228457  L 9.378881987577639 11.879759519038076  C 9.309868875086266 11.959919839679358  9.230503795721187 12  9.140786749482402 12  C 9.051069703243618 12  8.971704623878537 11.959919839679358  8.902691511387165 11.879759519038076  L 4.078674948240166 6.2765531062124245  C 4.009661835748793 6.196392785571142  3.9751552795031064 6.104208416833666  3.975155279503105 6  C 3.9751552795031064 5.895791583166332  4.009661835748793 5.803607214428857  4.078674948240166 5.7234468937875755  L 8.902691511387165 0.12024048096192397  C 8.971704623878537 0.04008016032064088  9.051069703243618 0  9.140786749482402 0  C 9.230503795721187 0  9.309868875086266 0.04008016032064088  9.378881987577639 0.12024048096192397  L 9.89648033126294 0.7214428857715425  C 9.965493443754314 0.8016032064128242  10.000000000000002 0.893787575150299  10 0.9979959919839683  C 10.000000000000002 1.1022044088176348  9.965493443754314 1.1943887775551096  9.89648033126294 1.2745490981963927  L 5.82815734989648 6  L 9.89648033126294 10.725450901803608  Z " stroke-width="0" stroke-dasharray="0" stroke="rgba(255, 255, 255, 0)" fill="none" transform="matrix(1 0 0 1 10 11 )" class="stroke" mask="url(#Clip511)" />
  </g>
</svg>