<?xml version="1.0" encoding="utf-8"?>
<svg version="1.1" xmlns:xlink="http://www.w3.org/1999/xlink" width="10px" height="12px" xmlns="http://www.w3.org/2000/svg">
  <defs>
    <pattern id="BGPattern" patternUnits="userSpaceOnUse" alignment="0 0" imageRepeat="None" />
    <mask fill="white" id="Clip255">
      <path d="M 5.921325051759835 5.7234468937875755  C 5.990338164251209 5.803607214428857  6.024844720496895 5.895791583166332  6.024844720496895 6  C 6.024844720496895 6.104208416833666  5.990338164251209 6.196392785571142  5.921325051759835 6.2765531062124245  L 1.0973084886128364 11.879759519038076  C 1.0282953761214633 11.959919839679358  0.9489302967563839 12  0.8592132505175984 12  C 0.7694962042788132 12  0.6901311249137336 11.959919839679358  0.6211180124223602 11.879759519038076  L 0.10351966873706003 11.278557114228457  C 0.03450655624568671 11.198396793587174  0 11.1062124248497  0 11.002004008016032  C 0 10.897795591182364  0.03450655624568671 10.80561122244489  0.10351966873706003 10.725450901803608  L 4.171842650103519 6  L 0.10351966873706003 1.2745490981963927  C 0.03450655624568671 1.1943887775551096  0 1.1022044088176348  0 0.9979959919839683  C 0 0.893787575150299  0.03450655624568671 0.8016032064128242  0.10351966873706003 0.7214428857715425  L 0.6211180124223602 0.12024048096192397  C 0.6901311249137336 0.04008016032064088  0.7694962042788132 0  0.8592132505175984 0  C 0.9489302967563839 0  1.0282953761214633 0.04008016032064088  1.0973084886128364 0.12024048096192397  L 5.921325051759835 5.7234468937875755  Z M 9.89648033126294 5.7234468937875755  C 9.965493443754314 5.803607214428857  10 5.895791583166332  10 6  C 10 6.104208416833666  9.965493443754314 6.196392785571142  9.89648033126294 6.2765531062124245  L 5.072463768115942 11.879759519038076  C 5.00345065562457 11.959919839679358  4.92408557625949 12  4.834368530020704 12  C 4.744651483781919 12  4.66528640441684 11.959919839679358  4.596273291925465 11.879759519038076  L 4.078674948240166 11.278557114228457  C 4.009661835748793 11.198396793587174  3.975155279503105 11.1062124248497  3.975155279503105 11.002004008016032  C 3.975155279503105 10.897795591182364  4.009661835748793 10.80561122244489  4.078674948240166 10.725450901803608  L 8.146997929606625 6  L 4.078674948240166 1.2745490981963927  C 4.009661835748793 1.1943887775551096  3.975155279503105 1.1022044088176348  3.975155279503105 0.9979959919839683  C 3.975155279503105 0.893787575150299  4.009661835748793 0.8016032064128242  4.078674948240166 0.7214428857715425  L 4.596273291925465 0.12024048096192397  C 4.66528640441684 0.04008016032064088  4.744651483781919 0  4.834368530020704 0  C 4.92408557625949 0  5.00345065562457 0.04008016032064088  5.072463768115942 0.12024048096192397  L 9.89648033126294 5.7234468937875755  Z " fill-rule="evenodd" />
    </mask>
  </defs>
  <g transform="matrix(1 0 0 1 -275 -11 )">
    <path d="M 5.921325051759835 5.7234468937875755  C 5.990338164251209 5.803607214428857  6.024844720496895 5.895791583166332  6.024844720496895 6  C 6.024844720496895 6.104208416833666  5.990338164251209 6.196392785571142  5.921325051759835 6.2765531062124245  L 1.0973084886128364 11.879759519038076  C 1.0282953761214633 11.959919839679358  0.9489302967563839 12  0.8592132505175984 12  C 0.7694962042788132 12  0.6901311249137336 11.959919839679358  0.6211180124223602 11.879759519038076  L 0.10351966873706003 11.278557114228457  C 0.03450655624568671 11.198396793587174  0 11.1062124248497  0 11.002004008016032  C 0 10.897795591182364  0.03450655624568671 10.80561122244489  0.10351966873706003 10.725450901803608  L 4.171842650103519 6  L 0.10351966873706003 1.2745490981963927  C 0.03450655624568671 1.1943887775551096  0 1.1022044088176348  0 0.9979959919839683  C 0 0.893787575150299  0.03450655624568671 0.8016032064128242  0.10351966873706003 0.7214428857715425  L 0.6211180124223602 0.12024048096192397  C 0.6901311249137336 0.04008016032064088  0.7694962042788132 0  0.8592132505175984 0  C 0.9489302967563839 0  1.0282953761214633 0.04008016032064088  1.0973084886128364 0.12024048096192397  L 5.921325051759835 5.7234468937875755  Z M 9.89648033126294 5.7234468937875755  C 9.965493443754314 5.803607214428857  10 5.895791583166332  10 6  C 10 6.104208416833666  9.965493443754314 6.196392785571142  9.89648033126294 6.2765531062124245  L 5.072463768115942 11.879759519038076  C 5.00345065562457 11.959919839679358  4.92408557625949 12  4.834368530020704 12  C 4.744651483781919 12  4.66528640441684 11.959919839679358  4.596273291925465 11.879759519038076  L 4.078674948240166 11.278557114228457  C 4.009661835748793 11.198396793587174  3.975155279503105 11.1062124248497  3.975155279503105 11.002004008016032  C 3.975155279503105 10.897795591182364  4.009661835748793 10.80561122244489  4.078674948240166 10.725450901803608  L 8.146997929606625 6  L 4.078674948240166 1.2745490981963927  C 4.009661835748793 1.1943887775551096  3.975155279503105 1.1022044088176348  3.975155279503105 0.9979959919839683  C 3.975155279503105 0.893787575150299  4.009661835748793 0.8016032064128242  4.078674948240166 0.7214428857715425  L 4.596273291925465 0.12024048096192397  C 4.66528640441684 0.04008016032064088  4.744651483781919 0  4.834368530020704 0  C 4.92408557625949 0  5.00345065562457 0.04008016032064088  5.072463768115942 0.12024048096192397  L 9.89648033126294 5.7234468937875755  Z " fill-rule="nonzero" fill="rgba(151, 150, 150, 1)" stroke="none" transform="matrix(1 0 0 1 275 11 )" class="fill" />
    <path d="M 5.921325051759835 5.7234468937875755  C 5.990338164251209 5.803607214428857  6.024844720496895 5.895791583166332  6.024844720496895 6  C 6.024844720496895 6.104208416833666  5.990338164251209 6.196392785571142  5.921325051759835 6.2765531062124245  L 1.0973084886128364 11.879759519038076  C 1.0282953761214633 11.959919839679358  0.9489302967563839 12  0.8592132505175984 12  C 0.7694962042788132 12  0.6901311249137336 11.959919839679358  0.6211180124223602 11.879759519038076  L 0.10351966873706003 11.278557114228457  C 0.03450655624568671 11.198396793587174  0 11.1062124248497  0 11.002004008016032  C 0 10.897795591182364  0.03450655624568671 10.80561122244489  0.10351966873706003 10.725450901803608  L 4.171842650103519 6  L 0.10351966873706003 1.2745490981963927  C 0.03450655624568671 1.1943887775551096  0 1.1022044088176348  0 0.9979959919839683  C 0 0.893787575150299  0.03450655624568671 0.8016032064128242  0.10351966873706003 0.7214428857715425  L 0.6211180124223602 0.12024048096192397  C 0.6901311249137336 0.04008016032064088  0.7694962042788132 0  0.8592132505175984 0  C 0.9489302967563839 0  1.0282953761214633 0.04008016032064088  1.0973084886128364 0.12024048096192397  L 5.921325051759835 5.7234468937875755  Z " stroke-width="0" stroke-dasharray="0" stroke="rgba(255, 255, 255, 0)" fill="none" transform="matrix(1 0 0 1 275 11 )" class="stroke" mask="url(#Clip255)" />
    <path d="M 9.89648033126294 5.7234468937875755  C 9.965493443754314 5.803607214428857  10 5.895791583166332  10 6  C 10 6.104208416833666  9.965493443754314 6.196392785571142  9.89648033126294 6.2765531062124245  L 5.072463768115942 11.879759519038076  C 5.00345065562457 11.959919839679358  4.92408557625949 12  4.834368530020704 12  C 4.744651483781919 12  4.66528640441684 11.959919839679358  4.596273291925465 11.879759519038076  L 4.078674948240166 11.278557114228457  C 4.009661835748793 11.198396793587174  3.975155279503105 11.1062124248497  3.975155279503105 11.002004008016032  C 3.975155279503105 10.897795591182364  4.009661835748793 10.80561122244489  4.078674948240166 10.725450901803608  L 8.146997929606625 6  L 4.078674948240166 1.2745490981963927  C 4.009661835748793 1.1943887775551096  3.975155279503105 1.1022044088176348  3.975155279503105 0.9979959919839683  C 3.975155279503105 0.893787575150299  4.009661835748793 0.8016032064128242  4.078674948240166 0.7214428857715425  L 4.596273291925465 0.12024048096192397  C 4.66528640441684 0.04008016032064088  4.744651483781919 0  4.834368530020704 0  C 4.92408557625949 0  5.00345065562457 0.04008016032064088  5.072463768115942 0.12024048096192397  L 9.89648033126294 5.7234468937875755  Z " stroke-width="0" stroke-dasharray="0" stroke="rgba(255, 255, 255, 0)" fill="none" transform="matrix(1 0 0 1 275 11 )" class="stroke" mask="url(#Clip255)" />
  </g>
</svg>