<?xml version="1.0" encoding="utf-8"?>
<svg version="1.1" xmlns:xlink="http://www.w3.org/1999/xlink" width="20px" height="22px" xmlns="http://www.w3.org/2000/svg">
  <defs>
    <pattern id="BGPattern" patternUnits="userSpaceOnUse" alignment="0 0" imageRepeat="None" />
    <mask fill="white" id="Clip516">
      <path d="M 1.5384615384615385 16.892857142857142  L 1.5384615384615385 20.42857142857143  L 5 20.42857142857143  L 5 16.892857142857142  L 1.5384615384615385 16.892857142857142  Z M 5.769230769230768 16.892857142857142  L 5.769230769230768 20.42857142857143  L 9.615384615384615 20.42857142857143  L 9.615384615384615 16.892857142857142  L 5.769230769230768 16.892857142857142  Z M 1.5384615384615385 12.178571428571429  L 1.5384615384615385 16.107142857142858  L 5 16.107142857142858  L 5 12.178571428571429  L 1.5384615384615385 12.178571428571429  Z M 5.769230769230768 12.178571428571429  L 5.769230769230768 16.107142857142858  L 9.615384615384615 16.107142857142858  L 9.615384615384615 12.178571428571429  L 5.769230769230768 12.178571428571429  Z M 1.5384615384615385 7.857142857142856  L 1.5384615384615385 11.392857142857142  L 5 11.392857142857142  L 5 7.857142857142856  L 1.5384615384615385 7.857142857142856  Z M 10.384615384615385 16.892857142857142  L 10.384615384615385 20.42857142857143  L 14.230769230769232 20.42857142857143  L 14.230769230769232 16.892857142857142  L 10.384615384615385 16.892857142857142  Z M 5.769230769230768 7.857142857142856  L 5.769230769230768 11.392857142857142  L 9.615384615384615 11.392857142857142  L 9.615384615384615 7.857142857142856  L 5.769230769230768 7.857142857142856  Z M 15 16.892857142857142  L 15 20.42857142857143  L 18.461538461538463 20.42857142857143  L 18.461538461538463 16.892857142857142  L 15 16.892857142857142  Z M 10.384615384615385 12.178571428571429  L 10.384615384615385 16.107142857142858  L 14.230769230769232 16.107142857142858  L 14.230769230769232 12.178571428571429  L 10.384615384615385 12.178571428571429  Z M 6.039663461538462 5.776227678571429  C 6.115785256410256 5.698474702380951  6.153846153846154 5.6063988095238075  6.153846153846154 5.5  L 6.153846153846154 1.9642857142857146  C 6.153846153846154 1.8578869047619049  6.115785256410256 1.765811011904761  6.039663461538462 1.6880580357142854  C 5.963541666666668 1.6103050595238073  5.873397435897436 1.5714285714285707  5.769230769230768 1.5714285714285707  L 5 1.5714285714285707  C 4.895833333333334 1.5714285714285707  4.805689102564103 1.6103050595238073  4.7295673076923075 1.6880580357142854  C 4.653445512820512 1.765811011904761  4.615384615384616 1.8578869047619049  4.615384615384616 1.9642857142857146  L 4.615384615384616 5.5  C 4.615384615384616 5.6063988095238075  4.653445512820512 5.698474702380951  4.7295673076923075 5.776227678571429  C 4.805689102564103 5.853980654761905  4.895833333333334 5.892857142857144  5 5.892857142857144  L 5.769230769230768 5.892857142857144  C 5.873397435897436 5.892857142857144  5.963541666666668 5.853980654761905  6.039663461538462 5.776227678571429  Z M 15 12.178571428571429  L 15 16.107142857142858  L 18.461538461538463 16.107142857142858  L 18.461538461538463 12.178571428571429  L 15 12.178571428571429  Z M 10.384615384615385 7.857142857142856  L 10.384615384615385 11.392857142857142  L 14.230769230769232 11.392857142857142  L 14.230769230769232 7.857142857142856  L 10.384615384615385 7.857142857142856  Z M 15 7.857142857142856  L 15 11.392857142857142  L 18.461538461538463 11.392857142857142  L 18.461538461538463 7.857142857142856  L 15 7.857142857142856  Z M 15.270432692307692 5.776227678571429  C 15.346554487179489 5.698474702380951  15.384615384615385 5.6063988095238075  15.384615384615385 5.5  L 15.384615384615385 1.9642857142857146  C 15.384615384615385 1.8578869047619049  15.346554487179489 1.765811011904761  15.270432692307692 1.6880580357142854  C 15.194310897435898 1.6103050595238073  15.104166666666668 1.5714285714285707  15 1.5714285714285707  L 14.230769230769232 1.5714285714285707  C 14.126602564102566 1.5714285714285707  14.036458333333336 1.6103050595238073  13.960336538461537 1.6880580357142854  C 13.884214743589745 1.765811011904761  13.846153846153847 1.8578869047619049  13.846153846153847 1.9642857142857146  L 13.846153846153847 5.5  C 13.846153846153847 5.6063988095238075  13.884214743589745 5.698474702380951  13.960336538461537 5.776227678571429  C 14.036458333333336 5.853980654761905  14.126602564102566 5.892857142857144  14.230769230769232 5.892857142857144  L 15 5.892857142857144  C 15.104166666666668 5.892857142857144  15.194310897435898 5.853980654761905  15.270432692307692 5.776227678571429  Z M 19.54326923076923 3.609375  C 19.847756410256412 3.920386904761905  20 4.288690476190475  20 4.714285714285714  L 20 20.42857142857143  C 20 20.854166666666668  19.847756410256412 21.22247023809524  19.54326923076923 21.533482142857142  C 19.23878205128205 21.844494047619047  18.87820512820513 22  18.461538461538463 22  L 1.5384615384615385 22  C 1.121794871794872 22  0.7612179487179488 21.844494047619047  0.4567307692307692 21.533482142857142  C 0.15224358974358973 21.22247023809524  0 20.854166666666668  0 20.42857142857143  L 0 4.714285714285714  C 0 4.288690476190475  0.15224358974358973 3.920386904761905  0.4567307692307692 3.609375  C 0.7612179487179488 3.2983630952380927  1.121794871794872 3.142857142857144  1.5384615384615385 3.142857142857144  L 3.076923076923077 3.142857142857144  L 3.076923076923077 1.9642857142857146  C 3.076923076923077 1.424107142857144  3.265224358974359 0.9616815476190463  3.641826923076923 0.5770089285714293  C 4.018429487179488 0.19233630952380976  4.471153846153847 0  5 0  L 5.769230769230768 0  C 6.298076923076923 0  6.750801282051283 0.19233630952380976  7.127403846153846 0.5770089285714293  C 7.504006410256411 0.9616815476190463  7.6923076923076925 1.424107142857144  7.6923076923076925 1.9642857142857146  L 7.6923076923076925 3.142857142857144  L 12.307692307692308 3.142857142857144  L 12.307692307692308 1.9642857142857146  C 12.307692307692308 1.424107142857144  12.495993589743591 0.9616815476190463  12.872596153846153 0.5770089285714293  C 13.24919871794872 0.19233630952380976  13.701923076923077 0  14.230769230769232 0  L 15 0  C 15.528846153846153 0  15.981570512820513 0.19233630952380976  16.358173076923077 0.5770089285714293  C 16.734775641025642 0.9616815476190463  16.923076923076923 1.424107142857144  16.923076923076923 1.9642857142857146  L 16.923076923076923 3.142857142857144  L 18.461538461538463 3.142857142857144  C 18.87820512820513 3.142857142857144  19.23878205128205 3.2983630952380927  19.54326923076923 3.609375  Z " fill-rule="evenodd" />
    </mask>
  </defs>
  <g transform="matrix(1 0 0 1 -10 -6 )">
    <path d="M 1.5384615384615385 16.892857142857142  L 1.5384615384615385 20.42857142857143  L 5 20.42857142857143  L 5 16.892857142857142  L 1.5384615384615385 16.892857142857142  Z M 5.769230769230768 16.892857142857142  L 5.769230769230768 20.42857142857143  L 9.615384615384615 20.42857142857143  L 9.615384615384615 16.892857142857142  L 5.769230769230768 16.892857142857142  Z M 1.5384615384615385 12.178571428571429  L 1.5384615384615385 16.107142857142858  L 5 16.107142857142858  L 5 12.178571428571429  L 1.5384615384615385 12.178571428571429  Z M 5.769230769230768 12.178571428571429  L 5.769230769230768 16.107142857142858  L 9.615384615384615 16.107142857142858  L 9.615384615384615 12.178571428571429  L 5.769230769230768 12.178571428571429  Z M 1.5384615384615385 7.857142857142856  L 1.5384615384615385 11.392857142857142  L 5 11.392857142857142  L 5 7.857142857142856  L 1.5384615384615385 7.857142857142856  Z M 10.384615384615385 16.892857142857142  L 10.384615384615385 20.42857142857143  L 14.230769230769232 20.42857142857143  L 14.230769230769232 16.892857142857142  L 10.384615384615385 16.892857142857142  Z M 5.769230769230768 7.857142857142856  L 5.769230769230768 11.392857142857142  L 9.615384615384615 11.392857142857142  L 9.615384615384615 7.857142857142856  L 5.769230769230768 7.857142857142856  Z M 15 16.892857142857142  L 15 20.42857142857143  L 18.461538461538463 20.42857142857143  L 18.461538461538463 16.892857142857142  L 15 16.892857142857142  Z M 10.384615384615385 12.178571428571429  L 10.384615384615385 16.107142857142858  L 14.230769230769232 16.107142857142858  L 14.230769230769232 12.178571428571429  L 10.384615384615385 12.178571428571429  Z M 6.039663461538462 5.776227678571429  C 6.115785256410256 5.698474702380951  6.153846153846154 5.6063988095238075  6.153846153846154 5.5  L 6.153846153846154 1.9642857142857146  C 6.153846153846154 1.8578869047619049  6.115785256410256 1.765811011904761  6.039663461538462 1.6880580357142854  C 5.963541666666668 1.6103050595238073  5.873397435897436 1.5714285714285707  5.769230769230768 1.5714285714285707  L 5 1.5714285714285707  C 4.895833333333334 1.5714285714285707  4.805689102564103 1.6103050595238073  4.7295673076923075 1.6880580357142854  C 4.653445512820512 1.765811011904761  4.615384615384616 1.8578869047619049  4.615384615384616 1.9642857142857146  L 4.615384615384616 5.5  C 4.615384615384616 5.6063988095238075  4.653445512820512 5.698474702380951  4.7295673076923075 5.776227678571429  C 4.805689102564103 5.853980654761905  4.895833333333334 5.892857142857144  5 5.892857142857144  L 5.769230769230768 5.892857142857144  C 5.873397435897436 5.892857142857144  5.963541666666668 5.853980654761905  6.039663461538462 5.776227678571429  Z M 15 12.178571428571429  L 15 16.107142857142858  L 18.461538461538463 16.107142857142858  L 18.461538461538463 12.178571428571429  L 15 12.178571428571429  Z M 10.384615384615385 7.857142857142856  L 10.384615384615385 11.392857142857142  L 14.230769230769232 11.392857142857142  L 14.230769230769232 7.857142857142856  L 10.384615384615385 7.857142857142856  Z M 15 7.857142857142856  L 15 11.392857142857142  L 18.461538461538463 11.392857142857142  L 18.461538461538463 7.857142857142856  L 15 7.857142857142856  Z M 15.270432692307692 5.776227678571429  C 15.346554487179489 5.698474702380951  15.384615384615385 5.6063988095238075  15.384615384615385 5.5  L 15.384615384615385 1.9642857142857146  C 15.384615384615385 1.8578869047619049  15.346554487179489 1.765811011904761  15.270432692307692 1.6880580357142854  C 15.194310897435898 1.6103050595238073  15.104166666666668 1.5714285714285707  15 1.5714285714285707  L 14.230769230769232 1.5714285714285707  C 14.126602564102566 1.5714285714285707  14.036458333333336 1.6103050595238073  13.960336538461537 1.6880580357142854  C 13.884214743589745 1.765811011904761  13.846153846153847 1.8578869047619049  13.846153846153847 1.9642857142857146  L 13.846153846153847 5.5  C 13.846153846153847 5.6063988095238075  13.884214743589745 5.698474702380951  13.960336538461537 5.776227678571429  C 14.036458333333336 5.853980654761905  14.126602564102566 5.892857142857144  14.230769230769232 5.892857142857144  L 15 5.892857142857144  C 15.104166666666668 5.892857142857144  15.194310897435898 5.853980654761905  15.270432692307692 5.776227678571429  Z M 19.54326923076923 3.609375  C 19.847756410256412 3.920386904761905  20 4.288690476190475  20 4.714285714285714  L 20 20.42857142857143  C 20 20.854166666666668  19.847756410256412 21.22247023809524  19.54326923076923 21.533482142857142  C 19.23878205128205 21.844494047619047  18.87820512820513 22  18.461538461538463 22  L 1.5384615384615385 22  C 1.121794871794872 22  0.7612179487179488 21.844494047619047  0.4567307692307692 21.533482142857142  C 0.15224358974358973 21.22247023809524  0 20.854166666666668  0 20.42857142857143  L 0 4.714285714285714  C 0 4.288690476190475  0.15224358974358973 3.920386904761905  0.4567307692307692 3.609375  C 0.7612179487179488 3.2983630952380927  1.121794871794872 3.142857142857144  1.5384615384615385 3.142857142857144  L 3.076923076923077 3.142857142857144  L 3.076923076923077 1.9642857142857146  C 3.076923076923077 1.424107142857144  3.265224358974359 0.9616815476190463  3.641826923076923 0.5770089285714293  C 4.018429487179488 0.19233630952380976  4.471153846153847 0  5 0  L 5.769230769230768 0  C 6.298076923076923 0  6.750801282051283 0.19233630952380976  7.127403846153846 0.5770089285714293  C 7.504006410256411 0.9616815476190463  7.6923076923076925 1.424107142857144  7.6923076923076925 1.9642857142857146  L 7.6923076923076925 3.142857142857144  L 12.307692307692308 3.142857142857144  L 12.307692307692308 1.9642857142857146  C 12.307692307692308 1.424107142857144  12.495993589743591 0.9616815476190463  12.872596153846153 0.5770089285714293  C 13.24919871794872 0.19233630952380976  13.701923076923077 0  14.230769230769232 0  L 15 0  C 15.528846153846153 0  15.981570512820513 0.19233630952380976  16.358173076923077 0.5770089285714293  C 16.734775641025642 0.9616815476190463  16.923076923076923 1.424107142857144  16.923076923076923 1.9642857142857146  L 16.923076923076923 3.142857142857144  L 18.461538461538463 3.142857142857144  C 18.87820512820513 3.142857142857144  19.23878205128205 3.2983630952380927  19.54326923076923 3.609375  Z " fill-rule="nonzero" fill="rgba(193, 230, 242, 1)" stroke="none" transform="matrix(1 0 0 1 10 6 )" class="fill" />
    <path d="M 1.5384615384615385 16.892857142857142  L 1.5384615384615385 20.42857142857143  L 5 20.42857142857143  L 5 16.892857142857142  L 1.5384615384615385 16.892857142857142  Z " stroke-width="0" stroke-dasharray="0" stroke="rgba(193, 230, 242, 1)" fill="none" transform="matrix(1 0 0 1 10 6 )" class="stroke" mask="url(#Clip516)" />
    <path d="M 5.769230769230768 16.892857142857142  L 5.769230769230768 20.42857142857143  L 9.615384615384615 20.42857142857143  L 9.615384615384615 16.892857142857142  L 5.769230769230768 16.892857142857142  Z " stroke-width="0" stroke-dasharray="0" stroke="rgba(193, 230, 242, 1)" fill="none" transform="matrix(1 0 0 1 10 6 )" class="stroke" mask="url(#Clip516)" />
    <path d="M 1.5384615384615385 12.178571428571429  L 1.5384615384615385 16.107142857142858  L 5 16.107142857142858  L 5 12.178571428571429  L 1.5384615384615385 12.178571428571429  Z " stroke-width="0" stroke-dasharray="0" stroke="rgba(193, 230, 242, 1)" fill="none" transform="matrix(1 0 0 1 10 6 )" class="stroke" mask="url(#Clip516)" />
    <path d="M 5.769230769230768 12.178571428571429  L 5.769230769230768 16.107142857142858  L 9.615384615384615 16.107142857142858  L 9.615384615384615 12.178571428571429  L 5.769230769230768 12.178571428571429  Z " stroke-width="0" stroke-dasharray="0" stroke="rgba(193, 230, 242, 1)" fill="none" transform="matrix(1 0 0 1 10 6 )" class="stroke" mask="url(#Clip516)" />
    <path d="M 1.5384615384615385 7.857142857142856  L 1.5384615384615385 11.392857142857142  L 5 11.392857142857142  L 5 7.857142857142856  L 1.5384615384615385 7.857142857142856  Z " stroke-width="0" stroke-dasharray="0" stroke="rgba(193, 230, 242, 1)" fill="none" transform="matrix(1 0 0 1 10 6 )" class="stroke" mask="url(#Clip516)" />
    <path d="M 10.384615384615385 16.892857142857142  L 10.384615384615385 20.42857142857143  L 14.230769230769232 20.42857142857143  L 14.230769230769232 16.892857142857142  L 10.384615384615385 16.892857142857142  Z " stroke-width="0" stroke-dasharray="0" stroke="rgba(193, 230, 242, 1)" fill="none" transform="matrix(1 0 0 1 10 6 )" class="stroke" mask="url(#Clip516)" />
    <path d="M 5.769230769230768 7.857142857142856  L 5.769230769230768 11.392857142857142  L 9.615384615384615 11.392857142857142  L 9.615384615384615 7.857142857142856  L 5.769230769230768 7.857142857142856  Z " stroke-width="0" stroke-dasharray="0" stroke="rgba(193, 230, 242, 1)" fill="none" transform="matrix(1 0 0 1 10 6 )" class="stroke" mask="url(#Clip516)" />
    <path d="M 15 16.892857142857142  L 15 20.42857142857143  L 18.461538461538463 20.42857142857143  L 18.461538461538463 16.892857142857142  L 15 16.892857142857142  Z " stroke-width="0" stroke-dasharray="0" stroke="rgba(193, 230, 242, 1)" fill="none" transform="matrix(1 0 0 1 10 6 )" class="stroke" mask="url(#Clip516)" />
    <path d="M 10.384615384615385 12.178571428571429  L 10.384615384615385 16.107142857142858  L 14.230769230769232 16.107142857142858  L 14.230769230769232 12.178571428571429  L 10.384615384615385 12.178571428571429  Z " stroke-width="0" stroke-dasharray="0" stroke="rgba(193, 230, 242, 1)" fill="none" transform="matrix(1 0 0 1 10 6 )" class="stroke" mask="url(#Clip516)" />
    <path d="M 6.039663461538462 5.776227678571429  C 6.115785256410256 5.698474702380951  6.153846153846154 5.6063988095238075  6.153846153846154 5.5  L 6.153846153846154 1.9642857142857146  C 6.153846153846154 1.8578869047619049  6.115785256410256 1.765811011904761  6.039663461538462 1.6880580357142854  C 5.963541666666668 1.6103050595238073  5.873397435897436 1.5714285714285707  5.769230769230768 1.5714285714285707  L 5 1.5714285714285707  C 4.895833333333334 1.5714285714285707  4.805689102564103 1.6103050595238073  4.7295673076923075 1.6880580357142854  C 4.653445512820512 1.765811011904761  4.615384615384616 1.8578869047619049  4.615384615384616 1.9642857142857146  L 4.615384615384616 5.5  C 4.615384615384616 5.6063988095238075  4.653445512820512 5.698474702380951  4.7295673076923075 5.776227678571429  C 4.805689102564103 5.853980654761905  4.895833333333334 5.892857142857144  5 5.892857142857144  L 5.769230769230768 5.892857142857144  C 5.873397435897436 5.892857142857144  5.963541666666668 5.853980654761905  6.039663461538462 5.776227678571429  Z " stroke-width="0" stroke-dasharray="0" stroke="rgba(193, 230, 242, 1)" fill="none" transform="matrix(1 0 0 1 10 6 )" class="stroke" mask="url(#Clip516)" />
    <path d="M 15 12.178571428571429  L 15 16.107142857142858  L 18.461538461538463 16.107142857142858  L 18.461538461538463 12.178571428571429  L 15 12.178571428571429  Z " stroke-width="0" stroke-dasharray="0" stroke="rgba(193, 230, 242, 1)" fill="none" transform="matrix(1 0 0 1 10 6 )" class="stroke" mask="url(#Clip516)" />
    <path d="M 10.384615384615385 7.857142857142856  L 10.384615384615385 11.392857142857142  L 14.230769230769232 11.392857142857142  L 14.230769230769232 7.857142857142856  L 10.384615384615385 7.857142857142856  Z " stroke-width="0" stroke-dasharray="0" stroke="rgba(193, 230, 242, 1)" fill="none" transform="matrix(1 0 0 1 10 6 )" class="stroke" mask="url(#Clip516)" />
    <path d="M 15 7.857142857142856  L 15 11.392857142857142  L 18.461538461538463 11.392857142857142  L 18.461538461538463 7.857142857142856  L 15 7.857142857142856  Z " stroke-width="0" stroke-dasharray="0" stroke="rgba(193, 230, 242, 1)" fill="none" transform="matrix(1 0 0 1 10 6 )" class="stroke" mask="url(#Clip516)" />
    <path d="M 15.270432692307692 5.776227678571429  C 15.346554487179489 5.698474702380951  15.384615384615385 5.6063988095238075  15.384615384615385 5.5  L 15.384615384615385 1.9642857142857146  C 15.384615384615385 1.8578869047619049  15.346554487179489 1.765811011904761  15.270432692307692 1.6880580357142854  C 15.194310897435898 1.6103050595238073  15.104166666666668 1.5714285714285707  15 1.5714285714285707  L 14.230769230769232 1.5714285714285707  C 14.126602564102566 1.5714285714285707  14.036458333333336 1.6103050595238073  13.960336538461537 1.6880580357142854  C 13.884214743589745 1.765811011904761  13.846153846153847 1.8578869047619049  13.846153846153847 1.9642857142857146  L 13.846153846153847 5.5  C 13.846153846153847 5.6063988095238075  13.884214743589745 5.698474702380951  13.960336538461537 5.776227678571429  C 14.036458333333336 5.853980654761905  14.126602564102566 5.892857142857144  14.230769230769232 5.892857142857144  L 15 5.892857142857144  C 15.104166666666668 5.892857142857144  15.194310897435898 5.853980654761905  15.270432692307692 5.776227678571429  Z " stroke-width="0" stroke-dasharray="0" stroke="rgba(193, 230, 242, 1)" fill="none" transform="matrix(1 0 0 1 10 6 )" class="stroke" mask="url(#Clip516)" />
    <path d="M 19.54326923076923 3.609375  C 19.847756410256412 3.920386904761905  20 4.288690476190475  20 4.714285714285714  L 20 20.42857142857143  C 20 20.854166666666668  19.847756410256412 21.22247023809524  19.54326923076923 21.533482142857142  C 19.23878205128205 21.844494047619047  18.87820512820513 22  18.461538461538463 22  L 1.5384615384615385 22  C 1.121794871794872 22  0.7612179487179488 21.844494047619047  0.4567307692307692 21.533482142857142  C 0.15224358974358973 21.22247023809524  0 20.854166666666668  0 20.42857142857143  L 0 4.714285714285714  C 0 4.288690476190475  0.15224358974358973 3.920386904761905  0.4567307692307692 3.609375  C 0.7612179487179488 3.2983630952380927  1.121794871794872 3.142857142857144  1.5384615384615385 3.142857142857144  L 3.076923076923077 3.142857142857144  L 3.076923076923077 1.9642857142857146  C 3.076923076923077 1.424107142857144  3.265224358974359 0.9616815476190463  3.641826923076923 0.5770089285714293  C 4.018429487179488 0.19233630952380976  4.471153846153847 0  5 0  L 5.769230769230768 0  C 6.298076923076923 0  6.750801282051283 0.19233630952380976  7.127403846153846 0.5770089285714293  C 7.504006410256411 0.9616815476190463  7.6923076923076925 1.424107142857144  7.6923076923076925 1.9642857142857146  L 7.6923076923076925 3.142857142857144  L 12.307692307692308 3.142857142857144  L 12.307692307692308 1.9642857142857146  C 12.307692307692308 1.424107142857144  12.495993589743591 0.9616815476190463  12.872596153846153 0.5770089285714293  C 13.24919871794872 0.19233630952380976  13.701923076923077 0  14.230769230769232 0  L 15 0  C 15.528846153846153 0  15.981570512820513 0.19233630952380976  16.358173076923077 0.5770089285714293  C 16.734775641025642 0.9616815476190463  16.923076923076923 1.424107142857144  16.923076923076923 1.9642857142857146  L 16.923076923076923 3.142857142857144  L 18.461538461538463 3.142857142857144  C 18.87820512820513 3.142857142857144  19.23878205128205 3.2983630952380927  19.54326923076923 3.609375  Z " stroke-width="0" stroke-dasharray="0" stroke="rgba(193, 230, 242, 1)" fill="none" transform="matrix(1 0 0 1 10 6 )" class="stroke" mask="url(#Clip516)" />
  </g>
</svg>